<?xml version="1.0" encoding="iso-8859-1"?>
<!DOCTYPE svg PUBLIC "-//W3C//DTD SVG 1.1//EN" "http://www.w3.org/Graphics/SVG/1.1/DTD/svg11.dtd">
<svg  version="1.1" xmlns="http://www.w3.org/2000/svg" xmlns:xlink="http://www.w3.org/1999/xlink" x="0px" y="0px" width="512px"
	 height="512px" viewBox="0 0 512 512" enable-background="new 0 0 512 512" xml:space="preserve"><g id="2069a460dcf28295e231f3111e03a9a2"><path d="M465.582,158.008c-60.372-61.071-207.104-49.752-264.736-35.462c-67.368,17.234-85.324,68.461-83.573,151.68
		c0.758,47.77,21.449,90.15,61.87,104.437c82.104,28.53,152.461,24.593,226.321-46.318c-37.908-40.88-69.347-55.147-121.022-51.228
		c-50.152,2.468-78.578-5.417-114.281-44.313c43.415-41.854,70.113-62.037,122.52-67.477c58.648-5.902,110.783,18.731,133.498,41.85
		c21.181,21.662,31.929,71.415,26.702,131.515c-3.983,48.759-19.471,77.316-55.174,87.66
		c-46.146,14.29-113.016,21.182-174.631,18.714c-72.867-2.931-111.056-17.743-121.799-29.062
		c-22.419-25.097-38.901-78.283-42.652-139.354c-3.729-61.089,5.734-118.704,24.715-150.224
		c18.7-31.529,88.064-53.677,190.119-60.083c85.115-4.931,164.206,1.474,165.195,1.474l-5.244-67.962
		c0,0-182.162,21.181-210.103,23.626C155.684,33.888,64.63,48.659,34.176,99.891c-54.407,91.607-40.67,286.616,25.205,359.527
		c58.88,65.514,263.245,54.666,354.829,27.102c41.156-12.308,87.811-46.318,95.799-138.892
		C515.484,286.534,507.02,200.344,465.582,158.008z M282.44,321.511l64.633,14.29l-79.34,32.977L282.44,321.511z M228.791,232.844
		l79.336-32.981l-14.708,47.267L228.791,232.844z"></path></g></svg>