<?xml version="1.0" encoding="iso-8859-1"?>
<!DOCTYPE svg PUBLIC "-//W3C//DTD SVG 1.1//EN" "http://www.w3.org/Graphics/SVG/1.1/DTD/svg11.dtd">
<svg  version="1.1" xmlns="http://www.w3.org/2000/svg" xmlns:xlink="http://www.w3.org/1999/xlink" x="0px" y="0px" width="512px"
	 height="512px" viewBox="0 0 512 512" enable-background="new 0 0 512 512" xml:space="preserve"><g id="2069a460dcf28295e231f3111e035a9d"><path display="inline" d="M337.803,268.126c0.728,3.618,1.085,7.964,1.085,11.586v26.423c0,4.708-0.357,9.05-1.447,13.033
		c-4.341,19.188-20.269,31.492-38.37,31.492c-28.232,0-44.162-23.528-44.162-55.745c0-32.943,15.93-58.281,44.523-58.281
		C319.704,236.634,333.822,250.752,337.803,268.126z M511.5,85.667v340.667c0,46.842-38.325,85.167-85.167,85.167H85.667
		C38.825,511.5,0.5,473.175,0.5,426.333V85.667C0.5,38.825,38.825,0.5,85.667,0.5h340.667C473.175,0.5,511.5,38.825,511.5,85.667z
		 M171.661,138.536h-44.523v243.979h44.523V138.536z M384.864,382.515c-0.728-11.947-1.451-31.492-1.451-49.59V125.503h-44.525
		v99.909h-0.724c-7.959-13.031-25.338-23.167-49.59-23.167c-42.353,0-79.276,35.113-78.915,94.118
		c0,54.298,33.303,90.132,75.292,90.132c25.699,0,47.058-12.305,57.558-31.854h0.724l1.809,27.874H384.864z"></path></g></svg>