<?xml version="1.0" encoding="iso-8859-1"?>
<!DOCTYPE svg PUBLIC "-//W3C//DTD SVG 1.1//EN" "http://www.w3.org/Graphics/SVG/1.1/DTD/svg11.dtd">
<svg  version="1.1" xmlns="http://www.w3.org/2000/svg" xmlns:xlink="http://www.w3.org/1999/xlink" x="0px" y="0px" width="512px"
	 height="512px" viewBox="0 0 512 512" enable-background="new 0 0 512 512" xml:space="preserve"><g id="2069a460dcf28295e231f3111e038247"><path display="inline" d="M426.333,0.5H85.667C38.825,0.5,0.5,38.825,0.5,85.667v340.667c0,46.842,38.325,85.167,85.167,85.167
		h340.667c46.842,0,85.167-38.325,85.167-85.167V85.667C511.5,38.825,473.175,0.5,426.333,0.5z M142.888,345.774
		c-25.7,0-52.489-7.244-65.879-15.204l9.772-36.928c14.48,8.33,36.196,15.57,59.001,15.57c28.594,0,44.521-13.395,44.521-33.302
		c0-18.464-12.301-29.324-43.432-40.546c-40.18-14.478-65.888-35.836-65.888-70.949c0-39.818,33.301-70.225,86.156-70.225
		c26.423,0,45.968,5.791,58.644,12.307l-10.862,35.836c-8.691-4.706-25.7-11.583-48.505-11.583
		c-28.236,0-40.546,15.204-40.546,29.322c0,18.823,14.123,27.511,46.701,40.18c42.35,15.927,62.985,37.285,62.985,72.397
		C235.557,311.745,205.873,345.774,142.888,345.774z M433.544,216.542v99.906c0,36.928-7.602,63.352-26.057,80.002
		c-18.464,16.289-43.807,21.358-68.059,21.358c-22.439,0-46.335-4.708-61.538-14.118l9.772-33.663
		c11.228,6.512,30.05,13.39,51.407,13.39c28.961,0,50.676-15.203,50.676-53.212v-15.204h-0.723
		c-10.139,15.569-28.237,26.065-51.399,26.065c-43.807,0-74.938-36.199-74.938-86.154c0-57.918,37.651-93.03,80.002-93.03
		c26.789,0,42.717,13.033,51.042,27.511h0.724l1.805-23.529h38.732C434.268,177.809,433.544,192.289,433.544,216.542z
		 M387.576,224.507c1.081,3.618,1.447,7.964,1.447,11.945v28.596c0,5.065-0.724,11.22-1.813,15.928
		c-5.065,15.927-19.545,26.789-36.196,26.789c-27.87,0-43.073-24.253-43.073-54.3c0-35.836,18.455-57.556,43.432-57.556
		C370.201,195.909,382.868,208.216,387.576,224.507z"></path></g></svg>