<?xml version="1.0" encoding="iso-8859-1"?>
<!DOCTYPE svg PUBLIC "-//W3C//DTD SVG 1.1//EN" "http://www.w3.org/Graphics/SVG/1.1/DTD/svg11.dtd">
<svg  version="1.1" xmlns="http://www.w3.org/2000/svg" xmlns:xlink="http://www.w3.org/1999/xlink" x="0px" y="0px" width="512px"
	 height="512px" viewBox="0 0 512 512" enable-background="new 0 0 512 512" xml:space="preserve"><g id="2069a460dcf28295e231f3111e03285d"><path display="inline" d="M426.333,0.5H85.667C38.825,0.5,0.5,38.825,0.5,85.667v340.667c0,46.842,38.325,85.167,85.167,85.167
		h340.667c46.842,0,85.167-38.325,85.167-85.167V85.667C511.5,38.825,473.175,0.5,426.333,0.5z M231.211,377.99H83.883V134.01
		H225.78v36.562h-97.372v62.985h91.945v36.2h-91.945v71.672h102.803V377.99z M428.117,377.99h-44.525v-99.547
		c0-25.338-9.41-44.525-33.663-44.525c-17.736,0-30.046,12.671-34.753,26.062c-1.447,3.984-1.809,9.415-1.809,14.48v103.53h-44.888
		V254.191c0-20.273-0.361-37.285-1.447-52.489h39.095l2.171,26.423h1.089c7.603-13.752,26.785-30.407,56.107-30.407
		c30.769,0,62.623,19.911,62.623,75.656V377.99z"></path></g></svg>