<?xml version="1.0" encoding="iso-8859-1"?>
<!DOCTYPE svg PUBLIC "-//W3C//DTD SVG 1.1//EN" "http://www.w3.org/Graphics/SVG/1.1/DTD/svg11.dtd">
<svg  version="1.1" xmlns="http://www.w3.org/2000/svg" xmlns:xlink="http://www.w3.org/1999/xlink" x="0px" y="0px" width="512px"
	 height="512px" viewBox="0 0 512 512" enable-background="new 0 0 512 512" xml:space="preserve"><g id="2069a460dcf28295e231f3111e037552"><path display="inline" d="M426.333,0.5H85.667C38.825,0.5,0.5,38.825,0.5,85.667v340.667c0,46.842,38.325,85.167,85.167,85.167
		h340.667c46.842,0,85.167-38.325,85.167-85.167V85.667C511.5,38.825,473.175,0.5,426.333,0.5z M245.329,260.524
		c-17.736,17.736-45.611,26.065-77.103,26.065c-8.326,0-15.927-0.365-21.72-1.451v91.945h-44.159V136.363
		c15.927-2.895,38.009-5.069,68.05-5.069c32.582,0,56.473,6.878,72.039,19.911c14.48,11.947,23.89,31.131,23.89,53.936
		C266.325,228.309,259.086,247.492,245.329,260.524z M337.981,380.706c-21.358,0-40.542-5.069-53.574-12.31l8.687-32.216
		c10.135,6.154,29.322,12.671,45.249,12.671c19.545,0,28.236-7.964,28.236-19.549c0-11.943-7.239-18.099-28.96-25.7
		c-34.391-11.947-48.866-30.769-48.505-51.403c0-31.131,25.7-55.383,66.604-55.383c19.549,0,36.562,5.069,46.695,10.496
		l-8.687,31.493c-7.602-4.342-21.721-10.135-37.285-10.135c-15.928,0-24.615,7.602-24.615,18.46c0,11.224,8.326,16.655,30.77,24.618
		c31.854,11.582,46.696,27.871,47.058,53.937C409.653,357.539,384.678,380.706,337.981,380.706z M221.8,206.95
		c0,28.598-20.273,44.887-53.574,44.887c-9.049,0-16.289-0.362-21.72-1.809v-82.534c4.708-1.085,13.395-2.171,25.704-2.171
		C202.979,165.323,221.8,179.803,221.8,206.95z"></path></g></svg>