<?xml version="1.0" encoding="iso-8859-1"?>
<!DOCTYPE svg PUBLIC "-//W3C//DTD SVG 1.1//EN" "http://www.w3.org/Graphics/SVG/1.1/DTD/svg11.dtd">
<svg  version="1.1" xmlns="http://www.w3.org/2000/svg" xmlns:xlink="http://www.w3.org/1999/xlink" x="0px" y="0px" width="512px"
	 height="512px" viewBox="0 0 512 512" enable-background="new 0 0 512 512" xml:space="preserve"><g id="2069a460dcf28295e231f3111e034392"><path display="inline" d="M386.674,293.469c0,35.472-17.018,57.915-44.888,57.915c-19.188,0-34.753-13.395-39.456-31.13
		c-0.724-3.257-1.09-6.879-1.09-10.501v-28.594c0-4.342,0.724-8.325,1.447-11.586c5.069-19.545,21.358-32.578,39.456-32.578
		C371.827,236.996,386.674,262.338,386.674,293.469z M511.5,85.667v340.667c0,46.842-38.325,85.167-85.167,85.167H85.667
		C38.825,511.5,0.5,473.175,0.5,426.333V85.667C0.5,38.825,38.825,0.5,85.667,0.5h340.667C473.175,0.5,511.5,38.825,511.5,85.667z
		 M220.898,138.536H80.082v243.979h44.525V278.988h89.771v-36.562h-89.771v-67.331h96.291V138.536z M431.918,291.655
		c0.366-53.572-30.407-89.411-73.48-89.411c-26.424,0-45.611,11.222-56.474,28.236h-0.724V125.503h-44.521v207.421
		c0,18.098-0.724,37.643-1.447,49.59h38.009l2.171-26.427h0.724c12.667,21.724,32.939,30.406,55.745,30.406
		C391.738,386.494,431.918,355.006,431.918,291.655z"></path></g></svg>