<?xml version="1.0" encoding="iso-8859-1"?>
<!DOCTYPE svg PUBLIC "-//W3C//DTD SVG 1.1//EN" "http://www.w3.org/Graphics/SVG/1.1/DTD/svg11.dtd">
<svg  version="1.1" xmlns="http://www.w3.org/2000/svg" xmlns:xlink="http://www.w3.org/1999/xlink" x="0px" y="0px" width="512px"
	 height="512px" viewBox="0 0 512 512" enable-background="new 0 0 512 512" xml:space="preserve"><g id="2069a460dcf28295e231f3111e037ab6"><path display="inline" d="M227.955,208.761c0,28.596-20.273,44.887-53.575,44.887c-9.053,0-16.289-0.364-21.72-1.811v-82.532
		c4.708-1.087,13.395-2.173,25.7-2.173C209.133,167.132,227.955,181.612,227.955,208.761z M511.5,85.667v340.667
		c0,46.842-38.325,85.167-85.167,85.167H85.667C38.825,511.5,0.5,473.175,0.5,426.333V85.667C0.5,38.825,38.825,0.5,85.667,0.5
		h340.667C473.175,0.5,511.5,38.825,511.5,85.667z M272.477,206.95c0-22.803-9.407-41.989-23.887-53.934
		c-15.569-13.033-39.456-19.911-72.038-19.911c-30.045,0-52.127,2.173-68.054,5.069v240.718h44.164v-91.944
		c5.793,1.089,13.395,1.451,21.72,1.451c31.493,0,59.363-8.33,77.104-26.062C265.24,249.303,272.477,230.117,272.477,206.95z
		 M403.503,199.712c-3.622-0.726-6.154-1.087-10.5-1.087c-18.826,0-39.456,12.671-48.144,37.647h-1.447l-1.447-33.666h-38.732
		c1.081,15.927,1.447,32.942,1.447,56.833v119.453h44.521v-91.222c0-5.064,0.724-9.772,1.447-13.752
		c3.983-19.909,18.464-33.665,39.821-33.665c5.432,0,9.411,0.724,13.033,1.447V199.712z"></path></g></svg>