<?xml version="1.0" encoding="iso-8859-1"?>
<!DOCTYPE svg PUBLIC "-//W3C//DTD SVG 1.1//EN" "http://www.w3.org/Graphics/SVG/1.1/DTD/svg11.dtd">
<svg  version="1.1" xmlns="http://www.w3.org/2000/svg" xmlns:xlink="http://www.w3.org/1999/xlink" x="0px" y="0px" width="512px"
	 height="512px" viewBox="0 0 512 512" enable-background="new 0 0 512 512" xml:space="preserve"><g id="2069a460dcf28295e231f3111e0377cb"><path display="inline" d="M426.333,0.5H85.667C38.825,0.5,0.5,38.825,0.5,85.667v340.667c0,46.842,38.325,85.167,85.167,85.167
		h340.667c46.842,0,85.167-38.325,85.167-85.167V85.667C511.5,38.825,473.175,0.5,426.333,0.5z M276.826,267.947
		c-17.742,17.736-45.613,26.062-77.105,26.062c-8.326,0-15.927-0.361-21.72-1.447v91.945h-44.164V143.786
		c15.927-2.898,38.009-5.069,68.054-5.069c32.582,0,56.469,6.878,72.041,19.911c14.479,11.943,23.887,31.131,23.887,53.932
		C297.818,235.727,290.582,254.915,276.826,267.947z M378.161,384.507h-44.888V127.493h44.888V384.507z M253.295,214.373
		c0,28.594-20.273,44.888-53.574,44.888c-9.053,0-16.289-0.366-21.72-1.813v-82.53c4.708-1.089,13.395-2.175,25.7-2.175
		C234.473,172.742,253.295,187.222,253.295,214.373z"></path></g></svg>