<?xml version="1.0" encoding="iso-8859-1"?>
<!DOCTYPE svg PUBLIC "-//W3C//DTD SVG 1.1//EN" "http://www.w3.org/Graphics/SVG/1.1/DTD/svg11.dtd">
<svg  version="1.1" xmlns="http://www.w3.org/2000/svg" xmlns:xlink="http://www.w3.org/1999/xlink" x="0px" y="0px" width="512px"
	 height="512px" viewBox="0 0 512 512" enable-background="new 0 0 512 512" xml:space="preserve"><g id="2069a460dcf28295e231f3111e03813f"><path display="inline" d="M409.657,255.455c0,34.753-16.65,58.282-44.887,58.282c-18.821,0-34.749-13.033-39.099-31.131
		c-1.081-3.984-1.447-7.964-1.447-12.31V243.15c0-3.623,0.724-7.602,1.813-11.224c4.342-19.545,21.358-32.94,39.822-32.94
		C394.454,198.986,409.657,224.325,409.657,255.455z M511.5,85.667v340.667c0,46.842-38.325,85.167-85.167,85.167H85.667
		C38.825,511.5,0.5,473.175,0.5,426.333V85.667C0.5,38.825,38.825,0.5,85.667,0.5h340.667C473.175,0.5,511.5,38.825,511.5,85.667z
		 M103.79,222.877c0-58.644,35.838-89.774,85.433-89.774c20.269,0,36.196,4.346,47.782,9.415l9.772-35.477
		c-9.049-4.708-30.041-10.858-59.367-10.858c-74.571,0-130.312,48.505-130.312,128.864c0,74.209,47.058,122.714,124.523,122.714
		c29.317,0,52.489-5.427,62.985-10.857l-7.244-35.115c-11.577,5.432-30.407,9.05-48.505,9.05
		C135.286,310.839,103.79,276.451,103.79,222.877z M454.902,253.646c0-55.021-33.659-89.774-74.205-89.774
		c-26.789,0-47.424,11.224-60.448,31.131h-0.724l-2.179-27.147h-39.09c0.724,16.65,1.446,35.476,1.446,58.644v189.317h44.521
		v-91.222h0.724c9.049,14.118,27.513,23.529,49.595,23.529C414.723,348.124,454.902,317.354,454.902,253.646z"></path></g></svg>