<?xml version="1.0" encoding="iso-8859-1"?>
<!DOCTYPE svg PUBLIC "-//W3C//DTD SVG 1.1//EN" "http://www.w3.org/Graphics/SVG/1.1/DTD/svg11.dtd">
<svg  version="1.1" xmlns="http://www.w3.org/2000/svg" xmlns:xlink="http://www.w3.org/1999/xlink" x="0px" y="0px" width="512px"
	 height="512px" viewBox="0 0 512 512" enable-background="new 0 0 512 512" xml:space="preserve"><g id="2069a460dcf28295e231f3111e03674e"><path display="inline" d="M426.333,0.5H85.667C38.825,0.5,0.5,38.825,0.5,85.667v340.667c0,46.842,38.325,85.167,85.167,85.167
		h340.667c46.842,0,85.167-38.325,85.167-85.167V85.667C511.5,38.825,473.175,0.5,426.333,0.5z M263.065,377.99H118.271V134.01
		h44.523v206.695h100.271V377.99z M393.73,240.796c-3.622-0.724-7.602-1.447-13.033-1.447c-21.357,0-35.838,13.756-39.821,33.664
		c-0.724,3.983-1.447,8.687-1.447,13.756v91.222h-44.521V258.532c0-23.891-0.366-40.903-1.447-56.83h38.732l1.447,33.663h1.447
		c8.688-24.976,29.317-37.647,48.144-37.647c4.346,0,6.878,0.362,10.5,1.089V240.796z"></path></g></svg>