<?xml version="1.0" encoding="iso-8859-1"?>
<!DOCTYPE svg PUBLIC "-//W3C//DTD SVG 1.1//EN" "http://www.w3.org/Graphics/SVG/1.1/DTD/svg11.dtd">
<svg  version="1.1" xmlns="http://www.w3.org/2000/svg" xmlns:xlink="http://www.w3.org/1999/xlink" x="0px" y="0px" width="512px"
	 height="512px" viewBox="0 0 512 512" enable-background="new 0 0 512 512" xml:space="preserve"><g id="2069a460dcf28295e231f3111e038029"><path display="inline" d="M426.333,0.5H85.667C38.825,0.5,0.5,38.825,0.5,85.667v340.667c0,46.842,38.325,85.167,85.167,85.167
		h340.667c46.842,0,85.167-38.325,85.167-85.167V85.667C511.5,38.825,473.175,0.5,426.333,0.5z M190.195,170.571h-89.674v67.331
		h83.603v36.558h-83.603v103.53H59.052V134.01h131.143V170.571z M452.948,377.99h-40.459v-97.376
		c0-29.322-9.439-46.696-29.33-46.696c-14.159,0-24.61,10.862-28.993,23.529c-1.006,4.346-2.021,9.772-2.021,14.842V377.99h-40.459
		V275.911c0-24.619-9.103-41.993-28.319-41.993c-15.507,0-25.953,13.033-29.667,25.338c-1.68,4.346-2.358,9.415-2.358,14.48V377.99
		h-40.454V254.191c0-20.273-0.337-37.285-1.347-52.489h35.734l1.688,26.062h1.006c8.097-13.752,22.926-30.045,50.572-30.045
		c21.574,0,38.433,13.033,45.511,32.582h0.674c5.73-9.777,12.476-17.017,20.227-22.082c9.104-6.878,19.554-10.5,33.036-10.5
		c27.313,0,54.959,19.911,54.959,76.379V377.99z"></path></g></svg>