<?xml version="1.0" encoding="iso-8859-1"?>
<!DOCTYPE svg PUBLIC "-//W3C//DTD SVG 1.1//EN" "http://www.w3.org/Graphics/SVG/1.1/DTD/svg11.dtd">
<svg  version="1.1" xmlns="http://www.w3.org/2000/svg" xmlns:xlink="http://www.w3.org/1999/xlink" x="0px" y="0px" width="512px"
	 height="512px" viewBox="0 0 512 512" enable-background="new 0 0 512 512" xml:space="preserve"><g id="2069a460dcf28295e231f3111e02f0ff"><path display="inline" d="M284.286,283.03c5.561,4.782,11.728,9.29,18.239,13.474c-35.634,5.723-76.07,16.298-113.251,32.337
		c6.572-11.494,13.419-24.099,20.564-37.859c15.153-29.192,24.398-53.225,30.102-74.313
		C250.33,242.42,265.148,266.559,284.286,283.03z M511.5,85.667v340.667c0,46.842-38.325,85.167-85.167,85.167H85.667
		C38.825,511.5,0.5,473.175,0.5,426.333V85.667C0.5,38.825,38.825,0.5,85.667,0.5h340.667C473.175,0.5,511.5,38.825,511.5,85.667z
		 M413.924,304.854c-5.556-8.745-24.401-13.562-53.079-13.562c-11.27,0-24.294,0.803-38.458,2.445
		c-10.101-5.714-19.911-12.172-28.777-19.229c-22.289-18.298-38.653-48.645-48.856-79.128c4.083-22.587,4.424-42.176,4.768-62.278
		c0.056-3.206,0.11-6.429,0.181-9.685l-2.111-0.237c-0.746,3.678-1.428,8.226-2.218,13.493c-1.424,9.477-3.302,21.932-6.797,37.345
		c-6.897-28.313-8.192-54.242-3.632-67.645c0.856-2.524,2.768-5.362,3.853-6.512c3.35,1.894,8.462,6.566,9.633,17.645l2.106,0.085
		c1.651-8.679,1.056-14.807-1.757-18.21c-2.581-3.115-6.296-3.115-7.693-3.115l-0.646,0.004l-6.423-0.052
		c-4.306,0-7.691,3.427-9.288,9.4c-5.566,20.776-2.749,55.895,8.063,90.906c-6.791,23.653-17.268,52.393-34.085,86.26
		c-41.542,83.641-72.022,125.01-93.141,126.411c0-0.005-0.002-0.013-0.002-0.021c-0.528-11.311,21.309-41.223,50.256-62.839
		l-1.137-1.793c-38.387,20.41-55.233,43.724-57.997,57.479c-0.707,3.535-0.403,6.229,0.877,7.793l0.375,0.195l-0.038,0.079
		l7.943,4.071c2.102,1.077,4.397,1.618,6.822,1.618c0.002,0,0,0,0.002,0c17.526,0,42.506-27.938,74.438-83.15
		c35.741-12.808,85.252-23.134,129.952-27.633c27.513,14.658,58.145,23.587,77.465,23.587c13.894,0,17.582-4.566,18.223-8.4
		l0.346-2.021l-1.855,0.89c-2.225,1.064-5.423,1.605-9.519,1.605c-14.326,0-37.401-6.492-61.035-17.508
		c7.216-0.387,14.197-0.595,20.847-0.595c25.809,0,43.091,3.256,48.646,9.178c1.406,1.489,2.03,3.106,1.918,4.933l2.024,0.516
		C416.273,312.598,416.207,308.447,413.924,304.854z"></path></g></svg>