<?xml version="1.0" encoding="iso-8859-1"?>
<!DOCTYPE svg PUBLIC "-//W3C//DTD SVG 1.1//EN" "http://www.w3.org/Graphics/SVG/1.1/DTD/svg11.dtd">
<svg  version="1.1" xmlns="http://www.w3.org/2000/svg" xmlns:xlink="http://www.w3.org/1999/xlink" x="0px" y="0px" width="512px"
	 height="512px" viewBox="0 0 512 512" enable-background="new 0 0 512 512" xml:space="preserve"><g id="2069a460dcf28295e231f3111e038c0c"><path display="inline" d="M426.333,0.5H85.667C38.825,0.5,0.5,38.825,0.5,85.667v340.667c0,46.842,38.325,85.167,85.167,85.167
		h340.667c46.842,0,85.167-38.325,85.167-85.167V85.667C511.5,38.825,473.175,0.5,426.333,0.5z M199.178,384.507
		c-3.618-7.24-9.406-27.151-16.285-57.559c-6.878-31.854-18.464-41.988-43.802-42.712h-22.443v100.271H72.484V143.786
		c16.65-2.898,41.626-5.069,67.331-5.069c35.11,0,59.005,5.793,75.294,19.545c13.395,11.224,20.996,28.236,20.996,48.871
		c0,31.492-21.358,52.85-44.164,61.176v1.085c17.375,6.517,27.871,23.529,34.025,47.058c7.602,30.407,14.118,58.644,19.188,68.055
		H199.178z M439.516,384.507h-44.529v-98.823c0-25.7-9.406-44.887-34.025-44.887c-17.374,0-29.684,11.585-34.391,24.976
		c-1.447,3.622-1.805,8.325-1.805,13.395v105.34h-44.888V127.493h44.888v104.978h0.724c5.427-8.326,12.667-15.204,22.081-20.273
		c8.684-5.065,19.184-7.963,30.407-7.963c30.042,0,61.538,19.911,61.538,76.379V384.507z M191.942,211.475
		c0,24.252-18.821,40.184-48.871,40.184h-26.423v-77.104c4.341-1.089,13.395-2.175,27.513-2.175
		C173.121,172.38,191.942,184.689,191.942,211.475z"></path></g></svg>