<?xml version="1.0" encoding="iso-8859-1"?>
<!DOCTYPE svg PUBLIC "-//W3C//DTD SVG 1.1//EN" "http://www.w3.org/Graphics/SVG/1.1/DTD/svg11.dtd">
<svg  version="1.1" xmlns="http://www.w3.org/2000/svg" xmlns:xlink="http://www.w3.org/1999/xlink" x="0px" y="0px" width="512px"
	 height="512px" viewBox="0 0 512 512" enable-background="new 0 0 512 512" xml:space="preserve"><g id="2069a460dcf28295e231f3111e030d1c"><path display="inline" d="M426.333,0.5H85.667C38.825,0.5,0.5,38.825,0.5,85.667v340.667c0,46.842,38.325,85.167,85.167,85.167
		h340.667c46.842,0,85.167-38.325,85.167-85.167V85.667C511.5,38.825,473.175,0.5,426.333,0.5z M229.221,344.868
		c18.1,0,36.925-3.622,48.507-9.05l7.24,35.111c-10.496,5.431-33.666,10.861-62.985,10.861
		c-77.465,0-124.525-48.509-124.525-122.714c0-80.363,55.748-128.869,130.316-128.869c29.322,0,50.316,6.155,59.365,10.862
		l-9.772,35.472c-11.585-5.069-27.51-9.411-47.781-9.411c-49.592,0-85.431,31.131-85.431,89.774
		C144.154,310.477,175.649,344.868,229.221,344.868z M414.54,235.187h-42.351v77.827c0,21.358,5.793,32.578,22.806,32.578
		c7.602,0,13.395-1.086,17.374-2.171l0.724,34.024c-6.513,2.533-18.098,4.346-32.212,4.346c-16.293,0-30.05-5.431-38.375-14.479
		c-9.411-10.135-13.757-26.065-13.757-49.233v-82.892h-25.333v-33.306h25.333v-39.818l43.44-10.496v50.314h42.351V235.187z"></path></g></svg>