<?xml version="1.0" encoding="iso-8859-1"?>
<!DOCTYPE svg PUBLIC "-//W3C//DTD SVG 1.1//EN" "http://www.w3.org/Graphics/SVG/1.1/DTD/svg11.dtd">
<svg  version="1.1" xmlns="http://www.w3.org/2000/svg" xmlns:xlink="http://www.w3.org/1999/xlink" x="0px" y="0px" width="512px"
	 height="512px" viewBox="0 0 512 512" enable-background="new 0 0 512 512" xml:space="preserve"><g id="2069a460dcf28295e231f3111e036d0f"><path display="inline" d="M254.977,255.276c0,51.038-24.255,90.859-67.331,90.859c-42.714,0-67.69-39.456-67.69-89.051
		c0-50.313,23.529-91.221,67.69-91.221C232.172,165.864,254.977,209.304,254.977,255.276z M511.5,85.667v340.667
		c0,46.842-38.325,85.167-85.167,85.167H85.667C38.825,511.5,0.5,473.175,0.5,426.333V85.667C0.5,38.825,38.825,0.5,85.667,0.5
		h340.667C473.175,0.5,511.5,38.825,511.5,85.667z M302.035,253.467c0-69.501-41.991-123.438-113.304-123.438
		c-68.775,0-115.835,52.847-115.835,127.779c0,71.673,43.44,124.161,112.216,124.161
		C252.442,381.97,302.035,335.274,302.035,253.467z M439.104,345.288h-68.471V205.79h-39.09v172.2h107.561V345.288z"></path></g></svg>