<?xml version="1.0" encoding="iso-8859-1"?>
<!DOCTYPE svg PUBLIC "-//W3C//DTD SVG 1.1//EN" "http://www.w3.org/Graphics/SVG/1.1/DTD/svg11.dtd">
<svg  version="1.1" xmlns="http://www.w3.org/2000/svg" xmlns:xlink="http://www.w3.org/1999/xlink" x="0px" y="0px" width="512px"
	 height="512px" viewBox="0 0 512 512" enable-background="new 0 0 512 512" xml:space="preserve"><g id="2069a460dcf28295e231f3111e030723"><path display="inline" d="M173.295,213.105l19.185,60.086h-62.623l18.823-60.086c4.344-14.48,7.964-31.493,11.584-45.611h0.723
		C164.608,181.612,168.59,198.263,173.295,213.105z M511.5,85.667v340.667c0,46.842-38.325,85.167-85.167,85.167H85.667
		C38.825,511.5,0.5,473.175,0.5,426.333V85.667C0.5,38.825,38.825,0.5,85.667,0.5h340.667C473.175,0.5,511.5,38.825,511.5,85.667z
		 M269.947,375.998L190.671,132.02h-56.833L55.65,375.998h45.973l20.994-69.14h77.465l22.082,69.14H269.947z M456.35,375.998
		c-0.724-14.479-1.447-31.854-1.447-52.851V199.71h-44.521v106.425c0,5.065-1.089,9.773-2.536,13.757
		c-4.708,11.22-16.289,23.891-34.025,23.891c-23.529,0-32.943-18.825-32.943-48.144V199.71h-44.521v103.531
		c0,57.554,29.317,76.741,61.538,76.741c31.488,0,48.866-18.103,56.469-30.773h0.724l2.17,26.789H456.35z"></path></g></svg>