<?xml version="1.0" encoding="iso-8859-1"?>
<!DOCTYPE svg PUBLIC "-//W3C//DTD SVG 1.1//EN" "http://www.w3.org/Graphics/SVG/1.1/DTD/svg11.dtd">
<svg  version="1.1" xmlns="http://www.w3.org/2000/svg" xmlns:xlink="http://www.w3.org/1999/xlink" x="0px" y="0px" width="512px"
	 height="512px" viewBox="0 0 512 512" enable-background="new 0 0 512 512" xml:space="preserve"><g id="2069a460dcf28295e231f3111e02fda7"><path display="inline" d="M177.275,213.286l19.188,60.088h-62.624l18.822-60.088c4.346-14.48,7.963-31.493,11.585-45.611h0.724
		C168.588,181.793,172.572,198.444,177.275,213.286z M373.819,226.316c-27.513,0-39.095,24.978-40.907,43.074h77.465
		C410.743,253.104,403.503,226.316,373.819,226.316z M511.5,85.667v340.667c0,46.842-38.325,85.167-85.167,85.167H85.667
		C38.825,511.5,0.5,473.175,0.5,426.333V85.667C0.5,38.825,38.825,0.5,85.667,0.5h340.667C473.175,0.5,511.5,38.825,511.5,85.667z
		 M273.928,376.182l-79.274-243.981h-56.834L59.63,376.182h45.973l20.997-69.14h77.465l22.082,69.14H273.928z M452.37,281.699
		c0-38.73-18.826-85.79-76.019-85.79c-56.469,0-86.151,45.973-86.151,94.84c0,53.936,33.663,89.051,90.859,89.051
		c25.338,0,46.334-4.708,61.538-10.862l-6.517-30.765c-13.395,5.064-28.236,7.959-48.871,7.959
		c-28.232,0-53.208-13.752-54.298-45.61h118.011C451.646,296.541,452.37,290.025,452.37,281.699z"></path></g></svg>