<?xml version="1.0" encoding="iso-8859-1"?>
<!DOCTYPE svg PUBLIC "-//W3C//DTD SVG 1.1//EN" "http://www.w3.org/Graphics/SVG/1.1/DTD/svg11.dtd">
<svg  version="1.1" xmlns="http://www.w3.org/2000/svg" xmlns:xlink="http://www.w3.org/1999/xlink" x="0px" y="0px" width="512px"
	 height="512px" viewBox="0 0 512 512" enable-background="new 0 0 512 512" xml:space="preserve"><g id="2069a460dcf28295e231f3111e031ed7"><path display="inline" d="M426.333,0.5H85.667C38.825,0.5,0.5,38.825,0.5,85.667v340.667c0,46.842,38.325,85.167,85.167,85.167
		h340.667c46.842,0,85.167-38.325,85.167-85.167V85.667C511.5,38.825,473.175,0.5,426.333,0.5z M197.107,346.859
		c-18.882,22.082-49.035,33.302-85.955,33.302c-20.288,0-35.506-1.447-46.777-3.256V136.908c15.216-3.26,34.659-5.069,55.233-5.069
		c35.506,0,60.024,9.411,77.499,28.236c18.316,19.183,29.59,48.144,29.59,89.77C226.697,293.285,215.145,325.863,197.107,346.859z
		 M404.51,377.629h-32.125l-16.348-71.677c-4.225-18.46-7.327-35.11-10.429-56.469h-0.562c-2.815,21.72-6.479,39.095-10.426,56.469
		l-17.474,71.677h-32.403L244.161,201.34h35.505l14.376,79.998c3.094,18.826,6.196,38.009,8.733,57.196h0.565
		c2.819-19.188,7.327-38.732,11.273-56.835l17.753-80.359h28.178l17.191,78.189c4.226,20.635,7.894,39.817,10.995,59.005h0.558
		c2.254-19.188,5.356-38.37,9.02-59.005l15.217-78.189h34.1L404.51,377.629z M190.06,251.292c0,61.9-26.772,93.758-71.861,93.392
		c-7.046,0-14.372,0-19.165-1.085V169.124c4.793-1.447,12.684-2.537,23.677-2.537C166.107,166.587,190.343,197.356,190.06,251.292z"></path></g></svg>