<?xml version="1.0" encoding="iso-8859-1"?>
<!DOCTYPE svg PUBLIC "-//W3C//DTD SVG 1.1//EN" "http://www.w3.org/Graphics/SVG/1.1/DTD/svg11.dtd">
<svg  version="1.1" xmlns="http://www.w3.org/2000/svg" xmlns:xlink="http://www.w3.org/1999/xlink" x="0px" y="0px" width="512px"
	 height="512px" viewBox="0 0 512 512" enable-background="new 0 0 512 512" xml:space="preserve"><g id="2069a460dcf28295e231f3111e0335c6"><path display="inline" d="M426.333,0.5H85.667C38.825,0.5,0.5,38.825,0.5,85.667v340.667c0,46.842,38.325,85.167,85.167,85.167
		h340.667c46.842,0,85.167-38.325,85.167-85.167V85.667C511.5,38.825,473.175,0.5,426.333,0.5z M190.216,170.571h-93.33v67.331
		h87.013v36.558H96.886v103.53H53.729V134.01h136.487V170.571z M404.588,377.99h-40l-20.348-71.676
		c-5.265-18.46-9.128-35.111-12.987-56.469h-0.703c-3.506,21.72-8.071,39.094-12.979,56.469l-21.753,71.676h-40.355l-50.526-176.288
		h44.213l17.894,79.997c3.855,18.826,7.719,38.01,10.879,57.197h0.703c3.505-19.188,9.115-38.732,14.034-56.835l22.103-80.359
		h35.086l21.404,78.188c5.265,20.635,9.822,39.818,13.682,59.006h0.702c2.808-19.188,6.662-38.371,11.229-59.006l18.946-78.188
		h42.458L404.588,377.99z"></path></g></svg>