<?xml version="1.0" encoding="iso-8859-1"?>
<!DOCTYPE svg PUBLIC "-//W3C//DTD SVG 1.1//EN" "http://www.w3.org/Graphics/SVG/1.1/DTD/svg11.dtd">
<svg  version="1.1" xmlns="http://www.w3.org/2000/svg" xmlns:xlink="http://www.w3.org/1999/xlink" x="0px" y="0px" width="512px"
	 height="512px" viewBox="0 0 512 512" style="enable-background:new 0 0 512 512;" xml:space="preserve"><g id="7935ec95c421cee6d86eb22ecd1142bc"><path style="display: inline; fill: #010101;" d="M240.444,58.939c135.5,6.287,276.841,99.968,270.874,223.553
		c-4.388,90.423-98.03,170.086-244.232,170.962c-62.654,0.386-101.304-10.451-127.67-20.826c-2.005-0.791-2.854-1.368-2.767-2.304
		c0.227-1.013,1.316-1.013,3.915-0.396c64.611,15.253,87.549-10.665,76.682-30.084c-12.018-21.579-94.043-20.189-152.627-60.647
		l0.525-1.312c0,0,3.891-9.218,5.014-11.773c0.936-2.121,1.77-3.181,4.055-3.152h71.013c2.208-0.028,3.292,1.031,4.547,3.761
		c1.45,3.335,7.197,17.25,7.197,17.25c0.039,0.077,4.82,12.832,16.835,13.238c2.94,0.115,13.161-1.138,16.541-11.695
		c0.988-3.057,0.897-5.68,0.467-7.705c-0.188-1.061-0.467-1.87-0.704-2.603c-0.293-0.656-0.54-1.186-0.685-1.515
		c-0.911-1.946-73.009-162.235-73.183-162.635c-1.427-3.182-2.956-5.813-6.339-5.813c-1.645-0.024-2.769,0.636-3.679,1.624
		c-0.512,0.578-0.959,1.182-1.394,1.89c-0.444,0.786-0.863,1.567-1.277,2.354c-0.772,1.514-42.613,94.307-62.731,138.939
		l-2.762,6.104c-6.86-7.424-10.168-12.477-10.168-12.477C14.59,286.224,2.306,257.337,0.773,232.634
		C-5.397,132.107,93.587,52.142,240.444,58.939z M244.991,337.828V184.541c0-12.399-6.832-17.828-18.513-17.828
		c-11.682,0-18.604,5.429-18.604,17.828v153.288c0,12.429,6.846,17.78,18.531,17.78
		C238.101,355.608,244.991,350.257,244.991,337.828z M462.086,337.828V184.541c0-12.399-6.614-17.828-18.291-17.828
		c-6.287,0-11.08,1.614-14.185,4.773c-1.753,1.716-3.307,3.986-4.704,6.894l-54.103,119.01l-52.886-119.01
		c-1.35-2.907-2.932-5.178-4.667-6.894c-3.144-3.159-7.926-4.773-14.193-4.773c-11.725,0-18.28,5.429-18.28,17.828v153.288
		c0,12.429,7.192,17.78,18.859,17.78c11.695,0,18.493-5.352,18.493-17.78v-71.679l36.09,73.202
		c3.076,5.477,9.007,11.686,16.459,11.493c8.138,0.192,14.598-5.719,18.146-11.677l35.965-72.816v71.477
		c0,12.429,6.721,17.78,18.417,17.78C454.932,355.608,462.086,350.257,462.086,337.828z M131.104,291.257H88.511
		c-2.136,0-2.251-2.072-1.813-3.085l20.678-48.566l0.24-0.53c0.117-0.275,0.217-0.53,0.381-0.762
		c0.207-0.352,0.795-1.234,1.808-1.234c1.018,0,1.586,0.883,1.813,1.234l0.357,0.762l0.265,0.501l20.62,48.556
		C133.582,289.656,132.975,291.257,131.104,291.257z"></path></g></svg>