<?xml version="1.0" encoding="iso-8859-1"?>
<!DOCTYPE svg PUBLIC "-//W3C//DTD SVG 1.1//EN" "http://www.w3.org/Graphics/SVG/1.1/DTD/svg11.dtd">
<svg  version="1.1" xmlns="http://www.w3.org/2000/svg" xmlns:xlink="http://www.w3.org/1999/xlink" x="0px" y="0px" width="512px"
	 height="512px" viewBox="0 0 512 512" style="enable-background:new 0 0 512 512;" xml:space="preserve"><g id="7935ec95c421cee6d86eb22ecd1149e3"><path style="display: inline; fill-rule: evenodd; clip-rule: evenodd; fill: #010101;" d="M293.596,233.97
		c0,26.322,0.627,48.264-12.651,71.65c-10.724,19.022-27.791,30.698-46.749,30.698c-25.905,0-41.069-19.73-41.069-48.979
		c0-57.525,51.607-67.983,100.469-67.983V233.97z M361.701,398.655c-4.48,4.005-10.934,4.283-15.971,1.567
		c-22.446-18.64-26.462-27.263-38.718-45.009c-37.07,37.767-63.335,49.094-111.356,49.094c-56.871,0-101.09-35.085-101.09-105.269
		c0-54.833,29.688-92.112,72.023-110.394c36.647-16.086,87.836-19.004,127.006-23.397v-8.774c0-16.074,1.253-35.091-8.218-48.979
		c-8.217-12.43-24.013-17.542-37.905-17.542c-25.76,0-48.67,13.196-54.288,40.552c-1.178,6.094-5.612,12.11-11.745,12.425
		l-65.459-7.092c-5.524-1.241-11.676-5.682-10.074-14.119c15.036-79.421,86.762-103.418,151.037-103.418
		c32.857,0,75.823,8.774,101.729,33.63c32.857,30.71,29.7,71.65,29.7,116.248v105.223c0,31.65,13.138,45.543,25.487,62.615
		c4.317,6.128,5.292,13.44-0.209,17.92c-13.8,11.571-38.324,32.869-51.811,44.87L361.701,398.655z M454.261,417.377
		c-62.721,26.602-130.884,39.461-192.884,39.461c-91.933,0-180.924-25.209-252.882-67.096c-6.302-3.668-10.968,2.797-5.733,7.532
		c66.702,60.236,154.845,96.425,252.732,96.425c69.846,0,150.949-21.971,206.903-63.254
		C471.646,423.598,463.72,413.361,454.261,417.377z M470.962,467.655c-2.043,5.106,2.345,7.172,6.964,3.296
		c30.014-25.116,37.767-77.716,31.615-85.317c-6.093-7.532-58.565-14.021-90.599,8.461c-4.921,3.481-4.062,8.24,1.394,7.59
		c18.036-2.17,58.182-6.986,65.343,2.183C492.828,413.036,477.717,450.779,470.962,467.655z"></path></g></svg>