<?xml version="1.0" encoding="iso-8859-1"?>
<!DOCTYPE svg PUBLIC "-//W3C//DTD SVG 1.1//EN" "http://www.w3.org/Graphics/SVG/1.1/DTD/svg11.dtd">
<svg  version="1.1" xmlns="http://www.w3.org/2000/svg" xmlns:xlink="http://www.w3.org/1999/xlink" x="0px" y="0px" width="512px"
	 height="512px" viewBox="0 0 512 512" enable-background="new 0 0 512 512" xml:space="preserve"><g id="8f1168dc195123f48a6bb7cb59002f05"><path display="inline" d="M347.741,281.034c-10.151,7.169-21.333,12.892-32.17,19.046c-27.899,15.853-55.754,31.805-83.915,47.183
		c-5.498,3.003-12.208,4.404-18.526,5.174c-11.53,1.397-22.606-5.73-26.723-17.532c-2.25-6.446-3.24-13.599-3.394-20.469
		c-0.437-19.486-0.154-38.99-0.154-58.485c0-19.331-0.098-38.664,0.064-57.993c0.043-5.127,0.297-10.386,1.464-15.347
		c4.498-19.156,20.391-27.521,39.988-21.15c4.389,1.426,8.621,3.541,12.654,5.816c34.177,19.285,68.297,38.666,102.406,58.07
		c3.027,1.724,5.968,3.653,8.745,5.755C367.236,245.524,367.328,267.211,347.741,281.034z M429.502,0.5
		c45.096,0,81.998,36.901,81.998,82v347.002c0,45.096-36.902,81.998-81.998,81.998H82.5c-45.099,0-82-36.902-82-81.998V82.5
		c0-45.099,36.901-82,82-82H429.502z M256.753,91.807C166.23,91.95,93.173,163.938,91.95,254.316
		c-1.221,90.377,73.36,164.598,161.542,165.863c90.781,1.293,167.655-74.275,166.554-163.856
		C421.459,166.419,345.117,91.667,256.753,91.807z"></path></g></svg>