<?xml version="1.0" encoding="iso-8859-1"?>
<!DOCTYPE svg PUBLIC "-//W3C//DTD SVG 1.1//EN" "http://www.w3.org/Graphics/SVG/1.1/DTD/svg11.dtd">
<svg  version="1.1" xmlns="http://www.w3.org/2000/svg" xmlns:xlink="http://www.w3.org/1999/xlink" x="0px" y="0px" width="512px"
	 height="512px" viewBox="0 0 512 512" enable-background="new 0 0 512 512" xml:space="preserve"><g id="2069a460dcf28295e231f3111e03d6d7"><path display="inline" d="M152.285,427.006L132.333,511.5H7.346l23.082-79.671C62.22,439.572,104.791,437.939,152.285,427.006z
		 M404.659,298.054h-17.951h-16.236v17.094v16.663h34.188V298.054z M106.656,331.96H89.131v-50.723h97.573l32.713-138.507
		l35.594,138.507h48.65V231.67h50.424v-99.142h0.281L319.721,0.5H155.406L41.452,393.785
		c46.541,15.601,122.887,3.479,211.237-45.157H106.656V331.96z M504.654,298.054v33.757H454.23v48.714h-34.787l33.897,129.17
		H313.724L280.185,379.19c9.59-4.944,19.172-10.18,28.703-15.751c3.797-2.223,7.463-4.455,11.16-6.687v-24.942h-52.039H123.473
		v-16.663h-17.524v-17.094h17.524h59.267h76.595h61.14v-49.571h17.521h32.908v-52.937v-46.205h11.105h5.131h17.521v99.142h32.051
		h17.521v49.571h32.903H504.654z M419.616,281.387h-64.528v65.386h64.528V281.387z"></path></g></svg>