<?xml version="1.0" encoding="iso-8859-1"?>
<!DOCTYPE svg PUBLIC "-//W3C//DTD SVG 1.1//EN" "http://www.w3.org/Graphics/SVG/1.1/DTD/svg11.dtd">
<svg  version="1.1" xmlns="http://www.w3.org/2000/svg" xmlns:xlink="http://www.w3.org/1999/xlink" x="0px" y="0px" width="512px"
	 height="512px" viewBox="0 0 512 512" enable-background="new 0 0 512 512" xml:space="preserve"><g id="2069a460dcf28295e231f3111e03dc98"><path display="inline" fill-rule="evenodd" clip-rule="evenodd" d="M55.704,499.013c0.082-0.158,0.925-1.752,5.251-7.704
		c8.558-11.79,21.405-20.608,25.638-23.336l87.14-10.979c-7.754,7.46-13.905,16.777,1.123,18.68
		c65.263,8.235,162.189-28.477,200.286-44.379l0.077,0.888l70.053-6.256c-33.935,17.05-119.062,50.789-302.894,80.874
		c-81.813,13.389-87.59-6.064-87.655-6.213 M144.581,0.5l70.877,8.266l244.397,398.478l-74.336,6.635l-40.14-70.836l-154.282,9.476
		l-4.882,85.457l-92.752,11.682L144.581,0.5z M193.805,274.023l108.265-2.709L201.924,95.382h-2.707L193.805,274.023z
		 M75.484,454.553L126.516,6.144c-0.256,0.743-0.379,1.268-0.379,1.268L52.145,474.739
		C60.603,465.174,70.282,458.035,75.484,454.553z"></path></g></svg>