<?xml version="1.0" encoding="iso-8859-1"?>
<!DOCTYPE svg PUBLIC "-//W3C//DTD SVG 1.1//EN" "http://www.w3.org/Graphics/SVG/1.1/DTD/svg11.dtd">
<svg  version="1.1" xmlns="http://www.w3.org/2000/svg" xmlns:xlink="http://www.w3.org/1999/xlink" x="0px" y="0px" width="512px"
	 height="512px" viewBox="0 0 512 512" style="enable-background:new 0 0 512 512;" xml:space="preserve"><g id="7935ec95c421cee6d86eb22ecd115870"><path style="display: inline;" d="M463.404,218.339c11.053,25.357,16.654,52.871,16.654,81.803c0,28.992-5.564,56.514-16.592,81.863
		c-11.079,25.55-26.411,48.23-45.636,67.404c-19.212,19.226-41.942,34.521-67.467,45.549c-25.475,10.978-53.07,16.542-81.989,16.542
		h-24.607c-28.974,0-56.495-5.564-81.982-16.542c-25.468-10.992-48.192-26.323-67.504-45.574
		c-19.2-19.224-34.532-41.929-45.635-67.517c-11.01-25.536-16.549-53.082-16.549-81.914L31.941,40.852
		C31.941,18.621,49.968,0.5,72.262,0.5c22.218,0,40.339,16.829,40.339,39.06l0.174,260.107c0,17.79,3.375,34.981,10.062,50.95
		c6.799,15.969,16.243,30.091,28.182,41.967c12.001,12.052,26.148,21.508,41.948,28.12c15.938,6.736,33.104,10.13,51.019,10.13
		h24.252c17.853,0,34.981-3.382,50.912-10.056c15.819-6.587,29.941-16.043,41.942-28.032c11.927-11.739,21.383-25.812,28.17-41.755
		c6.749-16.019,10.167-33.135,10.167-50.85c0-17.653-3.418-34.771-10.117-50.764c-6.762-15.813-16.256-29.873-28.22-41.811
		c-11.927-11.939-26.073-21.351-41.942-28.001c-15.956-6.673-33.098-10.08-51-10.08l-26.853-0.168
		c-22.25,0-40.364-18.064-40.364-40.295c0-22.245,18.114-40.339,40.364-40.339l26.853,0.161c28.956,0,56.515,5.571,81.89,16.542
		c25.475,10.967,48.242,26.316,67.616,45.549C436.919,170.152,452.338,192.858,463.404,218.339z"></path></g></svg>