<?xml version="1.0" encoding="iso-8859-1"?>
<!DOCTYPE svg PUBLIC "-//W3C//DTD SVG 1.1//EN" "http://www.w3.org/Graphics/SVG/1.1/DTD/svg11.dtd">
<svg  version="1.1" xmlns="http://www.w3.org/2000/svg" xmlns:xlink="http://www.w3.org/1999/xlink" x="0px" y="0px" width="512px"
	 height="512px" viewBox="0 0 512 512" style="enable-background:new 0 0 512 512;" xml:space="preserve"><g id="7935ec95c421cee6d86eb22ecd116478"><path style="display: inline;" d="M206.729,238.87c0,0,48.358-3.589,48.358-60.296c0-56.711-39.563-84.387-89.678-84.387H73.161
		h-2.704H0.5v316.909h69.957h2.704h92.248c0,0,100.671,3.18,100.671-93.537C266.08,317.559,270.469,238.87,206.729,238.87z
		 M153.539,150.513h11.87c0,0,22.416,0,22.416,32.973c0,32.968-13.183,37.749-28.136,37.749H73.161v-70.722H153.539z
		 M160.749,354.77H73.161V270.08h92.248c0,0,33.41-0.438,33.41,43.523C198.819,350.67,173.865,354.49,160.749,354.77z
		 M400.342,174.817c-121.873,0-121.765,121.765-121.765,121.765s-8.362,121.141,121.765,121.141c0,0,108.438,6.195,108.438-84.271
		h-55.767c0,0,1.86,34.068-50.81,34.068c0,0-55.777,3.738-55.777-55.135h164.213C510.639,312.385,528.609,174.817,400.342,174.817z
		 M345.813,270.08c0,0,6.809-48.845,55.768-48.845c48.949,0,48.336,48.845,48.336,48.845H345.813z M462.908,151.881H332.159v-39.025
		h130.749V151.881z"></path></g></svg>