<?xml version="1.0" encoding="iso-8859-1"?>
<!DOCTYPE svg PUBLIC "-//W3C//DTD SVG 1.1//EN" "http://www.w3.org/Graphics/SVG/1.1/DTD/svg11.dtd">
<svg  version="1.1" xmlns="http://www.w3.org/2000/svg" xmlns:xlink="http://www.w3.org/1999/xlink" x="0px" y="0px" width="512px"
	 height="512px" viewBox="0 0 512 512" enable-background="new 0 0 512 512" xml:space="preserve"><g id="2069a460dcf28295e231f3111e0426ac"><path display="inline" d="M510.003,279.642c-2.998-21.097-10.305-41.104-21.724-59.459c-9.96-16.019-22.739-30.266-37.992-42.375
		l0.041-0.038L290.133,54.731c-0.133-0.116-0.27-0.224-0.361-0.287c-5.327-4.08-12.538-6.325-20.298-6.325
		c-7.769,0-15.262,2.25-21.088,6.337c-6.263,4.375-9.843,10.18-10.093,16.36c-0.229,5.764,2.521,11.311,7.764,15.636
		c10.31,8.134,20.598,16.447,30.898,24.768c9.997,8.08,20.298,16.401,30.549,24.502l-196.213-0.133
		c-22.439,0-37.718,10.537-40.861,28.178c-1.381,7.727,1.056,16.223,6.504,22.73c5.78,6.899,14.172,10.704,23.629,10.704
		l14.958,0.009c20.664,0,41.419-0.05,62.146-0.1l19.766-0.046L19.354,328.812l-0.707,0.516C8.7,336.954,2.188,347.642,0.783,358.653
		c-1.065,8.342,0.881,15.965,5.63,22.053c5.66,7.257,14.497,11.249,24.885,11.249c10.205,0,20.618-3.867,29.334-10.908l96.166-78.7
		c-0.411,3.843-0.91,9.481-0.853,13.573c0.108,6.479,2.188,19.479,5.481,30.033c6.804,21.691,18.265,41.536,34.063,58.964
		c16.438,18.131,36.458,32.508,59.5,42.721c24.361,10.774,50.547,16.243,77.836,16.243h0.253
		c27.376-0.066,53.646-5.622,78.085-16.518c23.08-10.334,43.091-24.769,59.467-42.899c15.778-17.516,27.222-37.394,34.013-59.067
		c3.356-10.721,5.519-21.82,6.417-33.003C511.899,301.565,511.538,290.545,510.003,279.642z M334.821,383.601
		c-60.142,0-108.912-43.627-108.912-97.447c0-53.815,48.771-97.442,108.912-97.442c60.141,0,108.907,43.627,108.907,97.442
		C443.729,339.974,394.962,383.601,334.821,383.601z M397.627,277.591c0.886,16.064-5.53,30.978-16.796,42.019
		c-11.461,11.248-27.816,18.313-46.102,18.313c-18.281,0-34.637-7.065-46.102-18.313c-11.262-11.041-17.665-25.954-16.784-42.006
		c0.865-15.603,8.476-29.376,19.94-39.128c11.273-9.589,26.411-15.44,42.945-15.44c16.538,0,31.671,5.852,42.945,15.44
		C389.14,248.228,396.754,261.992,397.627,277.591z"></path></g></svg>