<?xml version="1.0" encoding="iso-8859-1"?>
<!DOCTYPE svg PUBLIC "-//W3C//DTD SVG 1.1//EN" "http://www.w3.org/Graphics/SVG/1.1/DTD/svg11.dtd">
<svg  version="1.1" xmlns="http://www.w3.org/2000/svg" xmlns:xlink="http://www.w3.org/1999/xlink" x="0px" y="0px" width="512px"
	 height="512px" viewBox="0 0 512 512" style="enable-background:new 0 0 512 512;" xml:space="preserve"><g id="7935ec95c421cee6d86eb22ecd1169f9"><path style="display: inline;" d="M294.967,474.507c-95.863,0-177.163-62.863-205.661-149.979L0.5,371.484V139.097l89.009,47.745
		c28.664-86.794,109.814-149.349,205.458-149.349c119.581,0,216.533,97.827,216.533,218.496
		C511.5,376.67,414.548,474.507,294.967,474.507z M291.403,82.24c-78.585,0-144.889,52.279-165.987,123.881l93.261,50.028
		l-92.813,49.058c21.601,70.79,87.531,122.291,165.54,122.291c95.555,0,173.045-77.299,173.045-172.629S386.958,82.24,291.403,82.24
		z M291.83,383.178c-50.94,0-94.973-29.298-116.001-71.857l1.045-0.021l98.653-55.149l-98.653-58.553l-0.619-0.011
		c21.183-42.101,64.964-71.025,115.574-71.025c71.313,0,129.142,57.443,129.142,128.309S363.144,383.178,291.83,383.178z"></path></g></svg>