<?xml version="1.0" encoding="iso-8859-1"?>
<!DOCTYPE svg PUBLIC "-//W3C//DTD SVG 1.1//EN" "http://www.w3.org/Graphics/SVG/1.1/DTD/svg11.dtd">
<svg  version="1.1" xmlns="http://www.w3.org/2000/svg" xmlns:xlink="http://www.w3.org/1999/xlink" x="0px" y="0px" width="512px"
	 height="512px" viewBox="0 0 512 512" style="enable-background:new 0 0 512 512;" xml:space="preserve"><g id="7935ec95c421cee6d86eb22ecd117609"><path style="display: inline;" d="M187.018,135.42c-23.753,0-46.448,4.497-67.355,12.591V3.679H0.5c0,0,0.074,318.124,0.074,318.174
		c0,102.986,83.483,186.469,186.444,186.469c102.974,0,186.457-83.482,186.457-186.469
		C373.475,218.903,289.992,135.42,187.018,135.42z M187.018,388.074c-36.554,0-66.197-29.643-66.197-66.222
		c0-36.567,29.643-66.186,66.197-66.186c36.567,0,66.21,29.618,66.21,66.186C253.228,358.432,223.585,388.074,187.018,388.074z
		 M511.5,108.636c0-39.906-32.354-72.284-72.271-72.284c-39.931,0-72.283,32.378-72.283,72.284
		c0,39.918,32.353,72.271,72.283,72.271C479.146,180.907,511.5,148.554,511.5,108.636z"></path></g></svg>