<?xml version="1.0" encoding="iso-8859-1"?>
<!DOCTYPE svg PUBLIC "-//W3C//DTD SVG 1.1//EN" "http://www.w3.org/Graphics/SVG/1.1/DTD/svg11.dtd">
<svg  version="1.1" xmlns="http://www.w3.org/2000/svg" xmlns:xlink="http://www.w3.org/1999/xlink" x="0px" y="0px" width="512px"
	 height="512px" viewBox="0 0 512 512" style="enable-background:new 0 0 512 512;" xml:space="preserve"><g id="7935ec95c421cee6d86eb22ecd116f2d"><path style="display: inline; fill-rule: evenodd; clip-rule: evenodd;" d="M509.023,212.71l-4.267-8.883l-7.173-5.626
		c-9.382-7.348-56.853,0.511-69.652-11.091c-9.044-8.371-10.416-23.404-13.161-43.714c-5.114-39.436-8.358-41.494-14.496-54.805
		c-22.37-47.47-82.977-83.15-124.632-88.09H162.782C74,0.5,1.441,73.232,1.441,162.009v188.307C1.441,438.93,74,511.5,162.782,511.5
		h185.419c88.776,0,160.822-72.57,161.334-161.185l1.023-130.433L509.023,212.71z M164.828,132.467h89.463
		c17.072,0,30.908,13.835,30.908,30.74c0,16.892-13.836,30.89-30.908,30.89h-89.463c-17.067,0-30.901-13.998-30.901-30.89
		C133.926,146.302,147.761,132.467,164.828,132.467z M346.654,378.66H164.828c-17.067,0-30.901-13.998-30.901-30.728
		c0-16.904,13.834-30.728,30.901-30.728h181.827c16.917,0,30.74,13.823,30.74,30.728C377.395,364.662,363.571,378.66,346.654,378.66
		z"></path></g></svg>