<?xml version="1.0" encoding="iso-8859-1"?>
<!DOCTYPE svg PUBLIC "-//W3C//DTD SVG 1.1//EN" "http://www.w3.org/Graphics/SVG/1.1/DTD/svg11.dtd">
<svg  version="1.1" xmlns="http://www.w3.org/2000/svg" xmlns:xlink="http://www.w3.org/1999/xlink" x="0px" y="0px" width="512px"
	 height="512px" viewBox="0 0 512 512" enable-background="new 0 0 512 512" xml:space="preserve"><g id="8f1168dc195123f48a6bb7cb59003f22"><path d="M275.055,198.252c-37.993,0-70.986,21.362-87.66,52.724c-16.673-31.362-49.665-52.724-87.662-52.724
		c-22.333,0-42.939,7.379-59.521,19.832v-83.586h-0.01c-0.229-10.772-9.018-19.439-19.847-19.439S0.739,123.726,0.51,134.498H0.5
		v164.635h0.042c0.882,54.036,44.937,97.584,99.191,97.584c37.997,0,70.988-21.362,87.662-52.722
		c16.674,31.359,49.667,52.722,87.66,52.722c54.805,0,99.234-44.43,99.234-99.23C374.289,242.68,329.859,198.252,275.055,198.252z
		 M99.733,357.007c-32.873,0-59.521-26.647-59.521-59.521c0-32.878,26.648-59.524,59.521-59.524s59.523,26.646,59.523,59.524
		C159.256,330.359,132.606,357.007,99.733,357.007z M275.055,357.007c-32.871,0-59.52-26.647-59.52-59.521
		c0-32.878,26.648-59.524,59.52-59.524c32.873,0,59.525,26.646,59.525,59.524C334.58,330.359,307.928,357.007,275.055,357.007z
		 M507.766,365.499c6.288,8.753,4.466,20.959-4.191,27.463c-8.658,6.504-20.893,4.853-27.547-3.622h-0.004l-43.859-58.636
		L388.3,389.34l-0.009-0.009c-6.653,8.479-18.884,10.13-27.546,3.626c-8.658-6.504-10.479-18.709-4.192-27.463h-0.008l50.821-67.934
		l-50.821-67.934l0.008-0.004c-6.287-8.75-4.466-20.957,4.192-27.463c8.662-6.504,20.893-4.851,27.546,3.626l0.009-0.008
		l43.864,58.636l43.859-58.636l0.004,0.004c6.654-8.476,18.889-10.128,27.547-3.626c8.657,6.506,10.479,18.713,4.191,27.465
		l0.013,0.006l-50.821,67.934l50.821,67.934L507.766,365.499z"></path></g></svg>