<?xml version="1.0" encoding="iso-8859-1"?>
<!DOCTYPE svg PUBLIC "-//W3C//DTD SVG 1.1//EN" "http://www.w3.org/Graphics/SVG/1.1/DTD/svg11.dtd">
<svg  version="1.1" xmlns="http://www.w3.org/2000/svg" xmlns:xlink="http://www.w3.org/1999/xlink" x="0px" y="0px" width="512px"
	 height="512px" viewBox="0 0 512 512" enable-background="new 0 0 512 512" xml:space="preserve"><g id="b75708d097f2188dff6617b0f00fc226"><path display="inline" d="M256.649,349.991c-50.653,0-91.862-41.213-91.862-91.862c0-50.658,41.209-91.867,91.862-91.867
		s91.866,41.209,91.866,91.867C348.516,308.778,307.303,349.991,256.649,349.991z M295.351,366.314
		c-12.855,4.677-26.318,7.039-40.117,7.039c-27.075,0-53.509-9.506-74.426-26.761c-16.969-14.001-29.616-32.427-36.586-53.331
		l-0.037-0.124L42.947,117.786C6.577,173.724-6.328,240.423,6.618,306.021c13.186,66.807,51.593,124.476,108.152,162.395
		c29.464,19.75,62.105,32.923,97.04,39.168L295.351,366.314z M486.314,143.296C423.087,16.082,268.701-35.789,141.49,27.438
		c-32.924,16.364-61.854,39.566-84.959,67.941l85.521,148.132c5.55-43.026,35.332-81.061,79.438-94.934
		c10.641-3.344,21.712-5.124,32.861-5.281 M255.652,511.5c64.087,0,125.423-24.034,172.683-67.668
		c47.508-43.858,76.359-103.542,81.238-168.052c2.79-36.946-2.686-74.774-15.843-109.518h-167.27
		c28.143,22.278,44.656,56.323,44.491,92.4c-0.12,25.975-9.026,51.502-25.163,71.997L239.159,510.97
		c5.492,0.352,11.025,0.53,16.484,0.53C255.652,511.5,255.644,511.5,255.652,511.5z"></path></g></svg>