<?xml version="1.0" encoding="iso-8859-1"?>
<!DOCTYPE svg PUBLIC "-//W3C//DTD SVG 1.1//EN" "http://www.w3.org/Graphics/SVG/1.1/DTD/svg11.dtd">
<svg  version="1.1" xmlns="http://www.w3.org/2000/svg" xmlns:xlink="http://www.w3.org/1999/xlink" x="0px" y="0px" width="512px"
	 height="512px" viewBox="0 0 512 512" enable-background="new 0 0 512 512" xml:space="preserve"><g id="b75708d097f2188dff6617b0f00f9a22"><path display="inline" fill-rule="evenodd" clip-rule="evenodd" d="M254.924,0.5C115.326,0.5,18.059,101.757,18.059,253.626
		c0,135.14,94.503,257.874,236.872,257.874c143.769,0,239.011-122.704,239.011-257.874C493.941,100.541,393.254,0.5,254.924,0.5z
		 M254.931,454.455c-11.563,0-21.613-2.254-30.351-6.359c-24.289-12.246-38.917-39.374-47.476-72.591
		c-9.26-38.526-10.306-85.27-10.306-126.182c0-73.066,5.333-139.085,35.153-172.035c13.013-13.833,30.169-22.021,52.704-22.082
		c0.093,0,0.186-0.008,0.274-0.008c29.355,0,49.939,14.375,64.214,36.915c21.281,35.947,26.126,94.201,26.126,156.885
		C345.271,337.979,339.356,454.455,254.931,454.455z"></path></g></svg>