<?xml version="1.0" encoding="iso-8859-1"?>
<!DOCTYPE svg PUBLIC "-//W3C//DTD SVG 1.1//EN" "http://www.w3.org/Graphics/SVG/1.1/DTD/svg11.dtd">
<svg  version="1.1" xmlns="http://www.w3.org/2000/svg" xmlns:xlink="http://www.w3.org/1999/xlink" x="0px" y="0px" width="512px"
	 height="512px" viewBox="0 0 512 512" enable-background="new 0 0 512 512" xml:space="preserve"><g id="b75708d097f2188dff6617b0f00fb6ec"><path display="inline" d="M477.047,195.747C442.278,100.223,352.068,40.905,255.983,40.905c-20.967,0-42.21,2.838-63.219,8.725
		c10.699-6.341,15.77-19.667,11.37-31.757c-4.967-13.651-20.201-20.755-33.852-15.788l-24.819,9.033
		c-13.65,4.97-20.755,20.204-15.787,33.854c4.393,12.073,16.82,19.019,29.078,17.025C47.792,112.23-7.394,240.304,34.952,356.657
		C69.726,452.188,159.922,511.5,256.021,511.5c26.706,0,53.885-4.587,80.434-14.25C458.533,452.814,521.482,317.829,477.047,195.747
		z M433.287,358.873c-22.084,47.355-61.285,83.278-110.384,101.148c-21.622,7.87-44.128,11.86-66.883,11.86
		c-19.767,0-39.396-3.01-58.35-8.948c-18.782-5.884-36.52-14.52-52.725-25.67c-33.598-23.114-58.758-55.674-72.767-94.157
		c-17.87-49.1-15.552-102.218,6.532-149.573c22.084-47.357,61.285-83.278,110.385-101.15c21.621-7.869,44.127-11.861,66.887-11.861
		c19.757,0,39.387,3.013,58.341,8.951c18.781,5.884,36.52,14.522,52.729,25.673c33.598,23.116,58.763,55.673,72.767,94.152
		C457.689,258.397,455.371,311.519,433.287,358.873z M302.071,259.434c4.478,12.306,3.896,25.618-1.639,37.488
		c-5.534,11.87-15.36,20.873-27.664,25.351c-5.421,1.974-11.06,2.974-16.762,2.974c-4.46,0-8.811-0.645-12.981-1.799l31.907-35.601
		l20.401-40.848C298.122,250.744,300.422,254.907,302.071,259.434z M239.552,279.686c-0.539-4.326,1.18-8.974,3.68-12.158
		c2.459-2.863,5.93-4.87,9.976-5.376c3.915-0.485,7.658,0.526,10.688,2.563c3.643,2.444,6.256,6.39,6.841,11.089
		c0.372,3.013-0.177,5.909-1.36,8.483c-2.323,4.347-7.019,8.397-12.29,9.053c-4.006,0.499-7.835-0.573-10.901-2.706
		C242.646,288.171,240.124,284.292,239.552,279.686z M267.595,228.574l-31.912,34.838l-19.853,40.825
		c-2.408-3.441-4.423-7.202-5.901-11.267c-4.479-12.306-3.897-25.618,1.638-37.488c5.534-11.87,15.36-20.873,27.664-25.353
		c5.421-1.971,11.06-2.971,16.767-2.971C259.962,227.159,263.851,227.653,267.595,228.574z M255.997,97.92
		c-98.462,0-178.278,79.819-178.278,178.283c0,98.46,79.816,178.281,178.278,178.281S434.28,374.663,434.28,276.203
		C434.28,177.739,354.459,97.92,255.997,97.92z M189.781,123.915l26.378,15.878l-4.579-12.584c-0.729-2-1.402-3.438-2.023-4.319
		c-0.622-0.88-1.307-1.452-2.056-1.71c-0.585-0.191-1.367-0.254-2.352-0.191c-0.984,0.068-1.77,0.154-2.351,0.259l-0.664-1.828
		l14.276-5.199l0.664,1.829c-0.419,0.208-1.011,0.521-1.78,0.943c-0.767,0.422-1.391,0.994-1.871,1.715
		c-0.424,0.63-0.569,1.506-0.442,2.618c0.132,1.111,0.558,2.658,1.279,4.646l8.656,23.776l-4.174,1.52l-30.092-18.178l5.685,15.615
		c0.706,1.937,1.372,3.366,1.996,4.278c0.626,0.917,1.312,1.501,2.06,1.76c0.549,0.19,1.334,0.25,2.351,0.181
		c1.021-0.068,1.821-0.159,2.399-0.263l0.667,1.829l-14.3,5.203l-0.666-1.828c0.594-0.268,1.249-0.635,1.973-1.102
		c0.724-0.468,1.284-0.985,1.679-1.552c0.444-0.676,0.615-1.515,0.508-2.509c-0.108-0.998-0.553-2.572-1.338-4.731l-5.734-15.756
		c-0.286-0.78-0.674-1.479-1.17-2.087c-0.495-0.603-1.094-1.062-1.792-1.379c-0.737-0.331-1.521-0.521-2.341-0.567
		c-0.823-0.045-1.72,0.014-2.687,0.167l-0.685-1.878L189.781,123.915z M127.585,311.394c0.195,2.622,0.544,6.805,1.057,12.548
		c0.509,5.743,1.032,11.714,1.574,17.911l-3.695,1.343l-15.834-22.229l2.821,26.966l-3.69,1.343
		c-4.802-6.855-8.495-12.136-11.071-15.847c-2.579-3.706-4.748-6.814-6.506-9.327c-0.537-0.763-1.022-1.279-1.454-1.556
		c-0.433-0.272-0.95-0.526-1.559-0.749c-0.431-0.159-0.857-0.236-1.276-0.236c-0.42,0.005-0.887,0.055-1.404,0.15l-0.667-1.828
		l13.851-5.04l0.648,1.782c-0.771,0.422-1.334,0.767-1.694,1.03c-0.358,0.263-0.633,0.499-0.816,0.707
		c-0.175,0.204-0.261,0.386-0.257,0.545c0,0.158,0.023,0.295,0.063,0.399c0.08,0.222,0.178,0.426,0.295,0.612
		c0.116,0.186,0.248,0.403,0.393,0.653c0.737,1.111,2.169,3.207,4.299,6.287c2.127,3.081,4.764,6.9,7.902,11.469l-2.896-26.376
		l3.879-1.41l15.935,22.506c-0.451-4.387-0.839-7.962-1.161-10.729c-0.322-2.767-0.608-5.135-0.854-7.095
		c-0.16-1.202-0.304-2.205-0.431-3.008s-0.29-1.475-0.49-2.023c-0.117-0.327-0.338-0.567-0.662-0.712
		c-0.322-0.15-0.717-0.236-1.18-0.264c-0.39-0.014-0.875,0.032-1.446,0.141c-0.576,0.113-1.068,0.218-1.486,0.313l-0.683-1.874
		l10.443-3.802l0.685,1.874c-0.362,0.186-0.701,0.431-1.021,0.73c-0.317,0.304-0.612,0.648-0.89,1.029
		c-0.41,0.612-0.648,1.202-0.712,1.774C127.535,309.974,127.53,310.636,127.585,311.394z M324.622,425.32
		c-0.184,1.593-0.683,3.04-1.497,4.347c-0.894,1.442-2.064,2.727-3.511,3.855c-1.447,1.13-3.267,2.092-5.453,2.891
		c-2.033,0.739-4.02,1.175-5.964,1.306c-1.943,0.132-3.649,0.077-5.119-0.167l-1.021,2.227l-1.992,0.727l-4.686-11.913l2.019-0.735
		c0.868,0.976,1.887,1.974,3.053,2.985s2.391,1.855,3.68,2.518c1.333,0.708,2.713,1.175,4.133,1.402
		c1.42,0.227,2.917,0.054,4.495-0.522c2.128-0.771,3.566-1.887,4.321-3.339c0.755-1.451,0.846-2.971,0.271-4.55
		c-0.473-1.298-1.353-2.214-2.637-2.749c-1.281-0.535-3.048-0.758-5.299-0.667c-1.465,0.059-2.816,0.104-4.051,0.146
		c-1.233,0.036-2.404,0.045-3.512,0.022c-2.559-0.077-4.682-0.749-6.373-2.015c-1.69-1.261-2.908-2.921-3.652-4.972
		c-0.472-1.298-0.646-2.649-0.521-4.052c0.127-1.401,0.558-2.776,1.288-4.123c0.708-1.266,1.763-2.473,3.167-3.625
		c1.406-1.147,3.053-2.068,4.944-2.759c1.847-0.671,3.666-1.038,5.465-1.111c1.799-0.067,3.25-0.014,4.361,0.168l0.917-1.928
		l2.041-0.744l4.319,11.278l-2.02,0.734c-0.911-1.053-1.919-2.101-3.017-3.144c-1.098-1.048-2.15-1.869-3.162-2.454
		c-1.098-0.631-2.245-1.034-3.443-1.212c-1.197-0.177-2.468-0.022-3.811,0.468c-1.689,0.617-2.895,1.597-3.617,2.939
		c-0.722,1.348-0.828,2.722-0.315,4.133c0.485,1.329,1.347,2.25,2.583,2.754c1.236,0.508,2.956,0.726,5.16,0.648
		c1.3-0.031,2.623-0.067,3.97-0.113c1.345-0.045,2.552-0.059,3.62-0.045c2.586,0.054,4.75,0.635,6.492,1.746
		c1.742,1.116,3.025,2.813,3.858,5.1C324.631,422.213,324.804,423.729,324.622,425.32z M315.408,293.578l29.964,24.298
		l-37.875-7.333c-4.211,6.326-9.604,11.908-16.008,16.384l6.857,65.615l-36.926-54.666c-1.811,0.161-3.618,0.245-5.414,0.245
		c-7.727,0-15.298-1.473-22.361-4.21l-66.824,74.561l-3.651,4.049l46.396-95.404c-1.513-1.715-2.931-3.529-4.26-5.428l-65.645,6.857
		l54.668-36.924c-0.689-7.782,0.12-15.504,2.262-22.796l-29.964-24.3l37.876,7.336c4.21-6.327,9.604-11.911,16.007-16.384
		l-6.856-65.615l36.925,54.666c1.811-0.161,3.616-0.245,5.415-0.245c7.309-0.002,14.474,1.34,21.208,3.802l71.628-78.202
		l-0.808,1.622l-46.38,92.859c1.817,1.98,3.487,4.117,5.052,6.352l65.645-6.859l-54.67,36.927
		C318.357,278.564,317.545,286.286,315.408,293.578z M406.095,210.41l-1.783,0.648c-0.912-1.098-2.157-2.087-3.738-2.98
		c-1.578-0.885-2.962-1.248-4.137-1.084c-0.508,0.063-1.188,0.236-2.03,0.517c-0.847,0.276-1.542,0.517-2.089,0.717l-4.827,1.76
		l4.666,12.825l3.423-1.248c0.857-0.313,1.605-0.699,2.234-1.157c0.628-0.458,1.127-1.084,1.494-1.874
		c0.228-0.49,0.361-1.252,0.399-2.296c0.036-1.039-0.014-1.914-0.147-2.626l1.781-0.649l5.053,13.882l-1.782,0.648
		c-0.331-0.626-0.871-1.361-1.615-2.218c-0.744-0.848-1.356-1.402-1.835-1.651c-0.719-0.376-1.473-0.544-2.252-0.495
		c-0.781,0.041-1.634,0.236-2.555,0.572l-3.42,1.243l3.488,9.59c0.365,1.002,0.726,1.769,1.089,2.3
		c0.362,0.531,0.803,0.88,1.319,1.043c0.502,0.154,1.107,0.154,1.824,0.004c0.712-0.154,1.656-0.444,2.831-0.871
		c0.544-0.2,1.197-0.449,1.96-0.744c0.757-0.291,1.413-0.585,1.964-0.871c0.628-0.317,1.198-0.658,1.71-1.025
		c0.513-0.358,0.857-0.744,1.03-1.143c0.472-1.039,0.892-2.513,1.257-4.428c0.367-1.91,0.558-3.312,0.571-4.201l1.71-0.622
		l3.14,10.593l-31.209,11.359l-0.665-1.833c0.427-0.19,0.998-0.467,1.713-0.835c0.717-0.367,1.209-0.671,1.477-0.907
		c0.504-0.467,0.785-0.925,0.851-1.383c0.062-0.458-0.014-0.985-0.229-1.579l-8.542-23.468c-0.206-0.563-0.461-0.998-0.767-1.306
		c-0.309-0.3-0.842-0.486-1.606-0.54c-0.472-0.041-1.106-0.004-1.896,0.104c-0.795,0.113-1.387,0.213-1.779,0.304l-0.666-1.828
		l29.496-10.738L406.095,210.41z"></path></g></svg>