<?xml version="1.0" encoding="iso-8859-1"?>
<!DOCTYPE svg PUBLIC "-//W3C//DTD SVG 1.1//EN" "http://www.w3.org/Graphics/SVG/1.1/DTD/svg11.dtd">
<svg  version="1.1" xmlns="http://www.w3.org/2000/svg" xmlns:xlink="http://www.w3.org/1999/xlink" x="0px" y="0px" width="512px"
	 height="512px" viewBox="0 0 512 512" enable-background="new 0 0 512 512" xml:space="preserve"><g id="b75708d097f2188dff6617b0f00f9da6"><path display="inline" d="M484.205,114.73c47.281-122.681-44.55-114.1-44.55-114.1c-58.919,0-132.572,53.658-132.572,53.658
		s-87.849-23.67-175.706,29.461c-95.746,61.024-92.586,169.396-92.586,169.396c77.855-111.527,186.227-156.77,186.227-156.77v7.365
		C65.093,213.104,27.215,373.088,17.746,405.705c-9.47,32.612-3.156,105.794,64.183,105.794c67.339,0,135.725-54.241,135.725-54.241
		s14.73,3.16,54.708,3.16c168.345,0,208.322-148.354,208.322-148.354H331.28c0,0-10.521,48.397-64.176,48.397
		c-73.649,0-69.443-76.805-69.443-76.805h285.131C496.469,85.855,323.918,57.448,323.918,57.448s60.978-43.137,113.632-43.137
		c83.451,0,43.988,97.756,43.988,97.756L484.205,114.73z M209.303,455.07c0,0-102.761,62.362-148.889,19.153
		c-24.712-43.213,15.447-104.409,15.447-104.409S109.84,432.829,209.303,455.07z M332.905,216.342H197.299
		c0,0-1.715-66.083,69.518-66.083C335.611,150.258,332.905,216.342,332.905,216.342z"></path></g></svg>