<?xml version="1.0" encoding="iso-8859-1"?>
<!DOCTYPE svg PUBLIC "-//W3C//DTD SVG 1.1//EN" "http://www.w3.org/Graphics/SVG/1.1/DTD/svg11.dtd">
<svg  version="1.1" xmlns="http://www.w3.org/2000/svg" xmlns:xlink="http://www.w3.org/1999/xlink" x="0px" y="0px" width="512px"
	 height="512px" viewBox="0 0 512 512" enable-background="new 0 0 512 512" xml:space="preserve"><g id="b75708d097f2188dff6617b0f00facd0"><path display="inline" d="M511.485,207.83c-0.149-4.707-10.306,22.244-10.711,17.619c-3.021-34.426-10.251-75.365-28.45-103.482
		c1.014,5.525-2.582,10.542-5.575,15.052C424.72,60.698,343.521,8.981,250.235,8.981c-72.646,0-137.963,31.362-183.161,81.282
		c-4.978-9.444-8.688-22.049-11.08-37.801c-17.838,17.488-26.707,48.39-26.604,92.791c-1.966,3.915-3.83,7.889-5.591,11.918
		c-4.381,6.628-10.15,15.579-13.089,20.917C3.072,191.714,0.882,203.031,0.5,212.703c0.062-0.099,0.12-0.189,0.176-0.28
		c0.065,2.001,0.326,3.932,0.843,5.736l5.295-4.312c-2.355,13.7-3.597,27.78-3.597,42.152
		c0,136.425,110.593,247.019,247.019,247.019c0.391,0,0.779-0.013,1.169-0.015c0.517,0.003,1.031,0.015,1.548,0.015
		c0.828,0,1.652-0.023,2.478-0.03c69.305-0.684,131.78-29.888,176.232-76.461c34.243-35.873,63.716-87.972,71.458-139.32
		c1.825-12.113,3.616-18.271,4.755-34.171C508.503,244.273,511.749,216.195,511.485,207.83z M161.783,46.594
		c28.005-11.845,57.765-17.851,88.453-17.851c30.688,0,60.448,6.006,88.452,17.851c10.745,4.545,21.049,9.882,30.883,15.958
		c-18.2-4.293-39.017-6.815-62.39-7.5c12.562,2.506,23.224,5.621,31.837,9.574c13.293,5.867,22.031,13.412,26.112,22.39
		c-12.339-2.272-23.471-1.434-33.291,2.396c70.398,27.772,103.808,60.82,99.971,99.008c-5.148-8.02-11.979-13.288-20.719-15.917
		c10.782,41.903,11.863,76.5,3.125,103.799c-5.988-18.202-8.148-38.028-13.063-41.858c6.838,56.153-5.739,106.624-31.001,133.68
		c4.786-16.521,6.708-30.044,5.62-40.708c-29.683,44.426-60.094,58.476-97.936,59.917c-14.956-0.128-29.088-2.392-42.375-6.71
		c-0.137,0.005-0.272,0-0.407,0.005c0.131-0.005,0.262-0.009,0.394-0.013c-19.497-6.537-37.18-17.682-52.898-33.533
		c24.564,2.046,46.958-2.21,66.679-12.187l32.327-20.964l-0.119-0.107c4.191-1.557,8.14-1.442,11.977,0.354
		c7.898-1.077,10.643-5.268,8.013-12.327c-3.825-5.268-9.574-10.058-16.998-14.24c-16.165-8.392-33.045-7.076-50.643,4.059
		c-16.765,9.463-32.925,9.102-48.608-0.961c-10.298-7.056-20.232-16.519-29.811-28.369l-3.834-5.624l14.727-19.755
		c10.541,0.957,22.633,3.348,36.275,7.301c2.275-13.05-0.716-26.7-8.976-40.703c0-0.124,0-0.243,0-0.243
		c12.813-11.854,24.187-20.471,33.878-25.98c4.315-2.276,10.298-17.956,5.992-20.594c-8.978,0.485-17.961-0.115-26.938-1.915
		l-0.12,0.361c-3.715-1.077-8.381-4.311-14.13-9.82l-14.727-14.365c0,0-4.429-5.029-4.072-5.268
		c2.034-10.897,5.392-20.232,10.178-28.257c0,0,15.083-17.356,28.62-26.457c-25.148,3.114-47.895,14.369-68.127,33.767
		c-16.761-6.114-36.634-4.791-59.505,3.944l0.118-0.115c-1.72-0.789-3.37-1.758-4.954-2.896c3.142-3.557,6.392-7.036,9.771-10.415
		C110.417,74.427,134.724,58.039,161.783,46.594z"></path></g></svg>