<?xml version="1.0" encoding="iso-8859-1"?>
<!DOCTYPE svg PUBLIC "-//W3C//DTD SVG 1.1//EN" "http://www.w3.org/Graphics/SVG/1.1/DTD/svg11.dtd">
<svg  version="1.1" xmlns="http://www.w3.org/2000/svg" xmlns:xlink="http://www.w3.org/1999/xlink" x="0px" y="0px" width="512px"
	 height="512px" viewBox="0 0 512 512" enable-background="new 0 0 512 512" xml:space="preserve"><g id="e6c6b53d3c8160b22dad35a0f7109cba"><path display="inline" d="M121.027,203.903c-0.249,64.537-35.644,119.974-86.277,144.486C13.4,323.188,0.5,290.6,0.5,254.986
		c0-71.66,52.13-131.114,120.527-142.591V203.903z M255.5,161.572c-21.604-25.487-51.873-43.399-86.266-49.174v90.82h0.007
		c0,64.814,35.453,120.541,86.247,145.15c-21.339-25.199-34.232-57.779-34.232-93.383
		C221.256,219.365,234.144,186.767,255.5,161.572z M145.137,291.5c-9.003,37.295-35.917,69.182-69.447,90.365
		c20.611,11.301,44.267,17.74,69.432,17.74c25.171,0,48.834-6.443,69.447-17.75C181.047,360.672,154.14,328.791,145.137,291.5z
		 M342.78,112.395c-34.398,5.773-65.671,23.688-87.28,49.177c21.356,25.194,35.244,57.792,35.244,93.414
		c0,35.61-13.895,68.192-35.239,93.391c-0.005-0.002-0.01-0.006-0.017-0.008c0.007,0.008,0.011,0.014,0.017,0.02
		c50.633-24.512,87.026-79.949,87.275-144.486V112.395z M366.891,291.5c-9.004,37.295-35.917,69.182-69.447,90.365
		c20.611,11.301,44.268,17.74,69.432,17.74c25.172,0,48.835-6.443,69.448-17.75C402.8,360.672,375.894,328.791,366.891,291.5z
		 M390.988,112.398v90.82h0.007c0,64.82,35.462,120.555,86.264,145.158c21.345-25.199,34.241-57.781,34.241-93.391
		C511.5,183.329,459.377,123.882,390.988,112.398z"></path></g></svg>