<?xml version="1.0" encoding="iso-8859-1"?>
<!DOCTYPE svg PUBLIC "-//W3C//DTD SVG 1.1//EN" "http://www.w3.org/Graphics/SVG/1.1/DTD/svg11.dtd">
<svg  version="1.1" xmlns="http://www.w3.org/2000/svg" xmlns:xlink="http://www.w3.org/1999/xlink" x="0px" y="0px" width="512px"
	 height="512px" viewBox="0 0 512 512" enable-background="new 0 0 512 512" xml:space="preserve"><g id="e6c6b53d3c8160b22dad35a0f71085e4"><path display="inline" fill-rule="evenodd" clip-rule="evenodd" d="M14.376,326.686c0,0-50.293-118.638,40.613-231.248
		C152.292-25.095,289.554,4.265,289.554,4.265s-126.501,12.583-169.085,121.84c-31.598,81.073-16.577,161.625-16.577,161.625
		s9.093,45.457-30.667,60.506C32.632,363.599,14.376,326.686,14.376,326.686z M491.332,154.32
		C435.703,20.715,307.438,8.345,307.438,8.345s-41.15-1.557-47.005,41.449c-5.734,42.125,38.559,55.81,38.559,55.81
		s77.967,25.21,134.159,91.646c75.727,89.531,26.461,206.723,26.461,206.723S550.876,297.325,491.332,154.32z M429.505,362.774
		c-33.338-26.38-67.666,4.777-67.666,4.777s-61.389,54.273-147.178,68.818C99.047,455.972,23.258,353.908,23.258,353.908
		s45.334,132.844,198.734,154.393c143.317,20.134,219.26-83.967,219.26-83.967S463.54,389.707,429.505,362.774z M316.506,175.597
		C294.871,150.416,256,152.389,256,152.389s-38.871-1.973-60.506,23.208c-27.892,32.462-21.55,71.281-21.55,71.281
		s-7.863,6.429-14.919,26.523c-11.259,32.063-6.631,35.64-6.631,35.64s2.29,3.077,11.604,1.658
		c4.583-0.699,14.091-8.289,14.091-8.289s1.692,4.592,4.144,9.117c2.898,5.351,6.631,10.775,6.631,10.775s-7.922,2.502-12.433,7.46
		c-5.001,5.496-4.145,9.946-4.145,9.946s-0.089,8.4,10.775,13.261c16.016,7.165,33.154,6.631,33.154,6.631s1.802,0.596,19.063-2.486
		c5.729-1.023,10.998-3.76,14.919-4.973c3.382-1.047,5.802-0.829,5.802-0.829s2.42-0.218,5.802,0.829
		c3.921,1.213,9.189,3.949,14.919,4.973c17.262,3.082,19.064,2.486,19.064,2.486s17.138,0.534,33.153-6.631
		c10.864-4.86,10.775-13.261,10.775-13.261s0.856-4.45-4.145-9.946c-4.511-4.958-12.433-7.46-12.433-7.46s3.732-5.425,6.631-10.775
		c2.451-4.525,4.144-9.117,4.144-9.117s9.508,7.59,14.091,8.289c9.313,1.419,11.604-1.658,11.604-1.658s4.628-3.576-6.631-35.64
		c-7.056-20.095-14.919-26.523-14.919-26.523S344.397,208.06,316.506,175.597z"></path></g></svg>