<?xml version="1.0" encoding="iso-8859-1"?>
<!DOCTYPE svg PUBLIC "-//W3C//DTD SVG 1.1//EN" "http://www.w3.org/Graphics/SVG/1.1/DTD/svg11.dtd">
<svg  version="1.1" xmlns="http://www.w3.org/2000/svg" xmlns:xlink="http://www.w3.org/1999/xlink" x="0px" y="0px" width="512px"
	 height="512px" viewBox="0 0 512 512" enable-background="new 0 0 512 512" xml:space="preserve"><g id="e6c6b53d3c8160b22dad35a0f710968f"><path display="inline" d="M384.371,248.315c-7.201-2.152-12.138-3.623-8.368-13.075c8.155-20.531,9.004-38.238,0.152-50.875
		c-16.589-23.695-61.975-22.421-113.999-0.634c0-0.034-16.336,7.145-12.158-5.814c8.002-25.728,6.797-47.273-5.658-59.715
		c-28.221-28.243-103.279,1.069-167.652,65.412C28.488,231.822,0.5,282.913,0.5,327.092c0,84.509,108.366,135.879,214.383,135.879
		c138.971,0,231.422-80.745,231.422-144.85C446.305,279.39,413.679,257.405,384.371,248.315z M215.165,432.688
		C130.573,441.027,57.551,402.8,52.05,347.256c-5.491-55.531,58.654-107.325,143.236-115.684
		c84.603-8.375,157.626,29.868,163.113,85.387C363.88,372.517,299.77,424.324,215.165,432.688z M504.946,225.979
		c0,0.022,0,0.062,0,0.074c-3.329,10.261-14.357,15.89-24.629,12.568c-10.312-3.328-15.938-14.339-12.606-24.637l-0.013-0.009
		c10.217-31.602,3.742-67.651-20.093-94.081c-23.873-26.423-59.043-36.527-91.548-29.627c-10.571,2.26-20.977-4.495-23.22-15.049
		c-2.267-10.554,4.474-20.961,15.038-23.22h0.013c45.704-9.714,95.204,4.468,128.767,41.676v-0.002
		C510.229,130.844,519.272,181.514,504.946,225.979z M425.11,140.186l-0.005-0.006c16.376,18.119,20.748,42.795,13.747,64.456
		c-2.854,8.862-12.349,13.69-21.2,10.856c-8.851-2.87-13.695-12.372-10.842-21.213h-0.013c3.438-10.59,1.287-22.664-6.702-31.533
		c-7.996-8.84-19.799-12.199-30.683-9.893v-0.013c-9.069,1.978-18.021-3.855-19.965-12.919c-1.957-9.111,3.842-18.068,12.945-20.005
		C384.663,115.184,408.774,122.067,425.11,140.186z M223.621,274.308c-40.258-10.479-85.759,9.587-103.244,45.06
		c-17.804,36.176-0.586,76.332,40.079,89.464c42.134,13.583,91.786-7.238,109.056-46.281
		C286.539,324.376,265.277,285.076,223.621,274.308z M192.878,366.698c-8.181,13.052-25.704,18.771-38.904,12.745
		c-13.006-5.917-16.84-21.086-8.657-33.813c8.083-12.673,25.013-18.327,38.117-12.832
		C196.682,338.444,200.918,353.506,192.878,366.698z M219.833,332.094c-2.961,5.07-9.501,7.498-14.62,5.389
		c-5.045-2.071-6.624-7.73-3.761-12.707c2.949-4.943,9.239-7.358,14.263-5.369C220.822,321.277,222.656,327.004,219.833,332.094z"></path></g></svg>