<?xml version="1.0" encoding="iso-8859-1"?>
<!DOCTYPE svg PUBLIC "-//W3C//DTD SVG 1.1//EN" "http://www.w3.org/Graphics/SVG/1.1/DTD/svg11.dtd">
<svg  version="1.1" xmlns="http://www.w3.org/2000/svg" xmlns:xlink="http://www.w3.org/1999/xlink" x="0px" y="0px" width="512px"
	 height="512px" viewBox="0 0 512 512" enable-background="new 0 0 512 512" xml:space="preserve"><g id="e6c6b53d3c8160b22dad35a0f71094c9"><path fill-rule="evenodd" clip-rule="evenodd" d="M492.993,298.525c-17.243-49.108-36.46-64.819-36.46-64.819
	s15.498-94.866-52.666-174.2C350.995-2.033,256,2.79,256,2.79s-94.995-4.823-147.868,56.716
	c-68.164,79.334-52.665,174.2-52.665,174.2s-19.217,15.711-36.46,64.819c-27.514,78.358-16.205,87.1-16.205,87.1
	s5.598,7.52,28.358,4.052c11.2-1.707,34.435-20.256,34.435-20.256s4.136,11.22,10.128,22.281
	c7.082,13.075,16.205,26.333,16.205,26.333s-19.36,6.114-30.384,18.229c-12.221,13.434-10.128,24.308-10.128,24.308
	s-0.218,20.53,26.333,32.409c39.139,17.508,81.023,16.204,81.023,16.204s4.403,1.456,46.589-6.076
	c14.003-2.5,26.879-9.188,36.461-12.153c8.265-2.558,14.179-2.026,14.179-2.026s5.914-0.531,14.179,2.026
	c9.582,2.965,22.458,9.653,36.461,12.153c42.186,7.532,46.589,6.076,46.589,6.076s41.884,1.304,81.022-16.204
	c26.551-11.879,26.333-32.409,26.333-32.409s2.093-10.874-10.128-24.308c-11.024-12.115-30.384-18.229-30.384-18.229
	s9.123-13.258,16.205-26.333c5.991-11.062,10.128-22.281,10.128-22.281s23.234,18.549,34.435,20.256
	c22.76,3.468,28.358-4.052,28.358-4.052S520.507,376.884,492.993,298.525z M306.001,70c19.597,0,35.483,22.385,35.483,50
	c0,27.615-15.887,50-35.483,50c-19.598,0-35.484-22.385-35.484-50C270.517,92.385,286.403,70,306.001,70z M205.999,70
	c19.598,0,35.484,22.385,35.484,50c0,27.615-15.886,50-35.484,50c-19.597,0-35.483-22.385-35.483-50
	C170.516,92.385,186.402,70,205.999,70z M187,196.499c29.771-10.733,69-11,69-11s39.228,0.267,69,11c46.398,16.729,44,26,44,26
	s0.471,5.346-11,13c-9.939,6.633-27,9-27,9s3.354-3.974,6-9c2.336-4.437,4-10,4-10s-18.82,17.378-48,28c-20.475,7.453-37,6-37,6
	s-16.527,1.453-37-6c-29.181-10.622-48-28-48-28s1.664,5.563,4,10c2.646,5.026,6,9,6,9s-17.061-2.367-27-9
	c-11.471-7.654-11-13-11-13S140.602,213.228,187,196.499z M256,480c-87.368,0-158.192-66.62-158.192-148.802
	c0-17.99,3.395-35.234,9.613-51.198c38.635,31.422,90.963,50.717,148.58,50.717c57.617,0,109.945-19.295,148.579-50.717
	c6.219,15.964,9.613,33.208,9.613,51.198C414.192,413.38,343.366,480,256,480z M203,120c0-11.046,6.716-20,15-20s15,8.954,15,20
	s-6.716,20-15,20S203,131.046,203,120z M282.803,133.231c-2.445-0.433-4.078-2.762-3.647-5.207
	c1.73-9.848,8.088-26.106,20.942-24.568c14.695,1.758,12.991,26.286,12.749,29.077c-0.204,2.343-2.169,4.11-4.479,4.111
	c-0.131,0-0.262-0.006-0.395-0.018c-2.476-0.215-4.309-2.396-4.094-4.873c0.646-7.596-0.709-18.866-4.852-19.361
	c-6.43-0.759-10.327,13.366-11.011,17.195C287.582,132.032,285.246,133.662,282.803,133.231z"/></g></svg>