<?xml version="1.0" encoding="iso-8859-1"?>
<!DOCTYPE svg PUBLIC "-//W3C//DTD SVG 1.1//EN" "http://www.w3.org/Graphics/SVG/1.1/DTD/svg11.dtd">
<svg  version="1.1" xmlns="http://www.w3.org/2000/svg" xmlns:xlink="http://www.w3.org/1999/xlink" x="0px" y="0px" width="512px"
	 height="512px" viewBox="0 0 512 512" enable-background="new 0 0 512 512" xml:space="preserve"><g id="2069a460dcf28295e231f3111e03c3f3"><path display="inline" d="M392.098,40.96L378.71,56.167c0,0,14.662,16.195,28,45.683C367.5,64.07,314.218,40.788,255.46,40.788
		c-13.115,0-25.939,1.225-38.415,3.448c22.537-16.051,38.415-20.841,38.415-20.841l-2.113-22.147c0,0-172.272-10.561-239.423,182.47
		c-62.968,181,116.023,293.213,116.023,293.213l12.656-15.819c0,0-11.046-11.105-23.358-32.01
		c37.327,29.904,84.666,47.829,136.215,47.829c5.93,0,11.786-0.304,17.593-0.767c-16.698,9.218-27.536,11.967-27.536,11.967
		l1.079,22.225c0,0,171.587,18.596,247.688-171.078C565.645,161.416,392.098,40.96,392.098,40.96z M132.057,81.404
		c-8.238,10.438-16.876,23.205-16.876,23.205l-7.953-5.634c8.991-8.338,18.69-15.919,28.993-22.665
		C134.869,77.92,133.48,79.603,132.057,81.404z M83.411,125.246c7.063,4.536,13.841,8.896,13.841,8.896s-7.844,14.046-13.714,28.477
		c-2.772,6.823-5.227,13.741-7.159,19.534c-1.951,4.537-3.697,9.178-5.308,13.882l-21.703-8.442
		c7.871-22.765,19.394-43.805,33.893-62.441C83.306,125.178,83.361,125.214,83.411,125.246z M255.46,453.703
		c-67.132,0-126.443-34.129-161.497-85.95c-10.588-41.115-12.848-94.742,9.613-158.726c20.777-59.18,47.561-100.127,72.848-128.19
		c24.171-10.779,50.905-16.822,79.036-16.822c72.604,0,136.012,39.944,169.528,98.979c6.346,39.832,4.114,89.489-19.077,146.804
		c-26.294,65.01-59.021,106.864-88.055,133.599C298.254,450.042,277.281,453.703,255.46,453.703z M355.964,452.12
		c0,0,7.549-6.964,15.533-16.164c8.724-10.044,17.946-22.393,17.946-22.393l10.725,8.379
		c-13.337,11.841-28.136,22.057-44.091,30.372L355.964,452.12z M422.144,394.438c-6.842-4.868-13.41-9.536-13.41-9.536
		s8.492-13.664,15.029-27.805c0.177-0.386,0.35-0.775,0.531-1.161c5.707-9.89,10.593-20.297,14.517-31.176l21.336,9.468
		c-8.361,22.706-20.415,43.624-35.399,62.061C423.881,395.676,423.01,395.055,422.144,394.438z"></path></g></svg>