<?xml version="1.0" encoding="iso-8859-1"?>
<!DOCTYPE svg PUBLIC "-//W3C//DTD SVG 1.1//EN" "http://www.w3.org/Graphics/SVG/1.1/DTD/svg11.dtd">
<svg  version="1.1" xmlns="http://www.w3.org/2000/svg" xmlns:xlink="http://www.w3.org/1999/xlink" x="0px" y="0px" width="512px"
	 height="512px" viewBox="0 0 512 512" enable-background="new 0 0 512 512" xml:space="preserve"><g id="c2be471c56fc5b4dd571614bb305209c"><path display="inline" d="M159.145,256.002l-33.97,22.721v-45.441L159.145,256.002z M242.423,200.297v-63.325l-106.378,70.912
		l47.519,31.789L242.423,200.297z M375.957,207.884l-106.38-70.912v63.325l58.863,39.376L375.957,207.884z M136.045,304.119
		l106.377,70.913v-63.326l-58.857-39.366L136.045,304.119z M269.577,311.706v63.326l106.38-70.913L328.44,272.34L269.577,311.706z
		 M255.999,223.882l-48.02,32.119l48.02,32.121l48.022-32.121L255.999,223.882z M511.5,256.002
		c0,141.112-114.39,255.497-255.501,255.497C114.895,511.499,0.5,397.114,0.5,256.002C0.5,114.891,114.895,0.501,255.999,0.501
		C397.11,0.501,511.5,114.891,511.5,256.002z M413.978,207.867c0-0.599-0.043-1.188-0.122-1.771c-0.028-0.198-0.074-0.39-0.107-0.59
		c-0.07-0.382-0.137-0.765-0.237-1.139c-0.058-0.225-0.14-0.44-0.212-0.656c-0.107-0.333-0.215-0.664-0.348-0.989
		c-0.092-0.224-0.205-0.448-0.304-0.664c-0.146-0.308-0.296-0.607-0.461-0.897c-0.122-0.217-0.259-0.424-0.388-0.632
		c-0.183-0.282-0.369-0.557-0.572-0.823c-0.15-0.199-0.304-0.398-0.47-0.589c-0.212-0.249-0.437-0.499-0.673-0.732
		c-0.18-0.183-0.354-0.365-0.54-0.531c-0.246-0.225-0.508-0.44-0.773-0.649c-0.2-0.157-0.399-0.315-0.611-0.465
		c-0.078-0.05-0.149-0.116-0.229-0.166l-144.398-96.269c-4.563-3.042-10.501-3.042-15.063,0l-144.402,96.269
		c-0.076,0.05-0.146,0.116-0.221,0.166c-0.212,0.149-0.415,0.308-0.615,0.465c-0.266,0.209-0.524,0.425-0.77,0.649
		c-0.187,0.166-0.364,0.349-0.544,0.531c-0.236,0.233-0.456,0.483-0.677,0.732c-0.158,0.19-0.315,0.39-0.465,0.589
		c-0.199,0.267-0.391,0.541-0.57,0.823c-0.138,0.208-0.266,0.415-0.39,0.632c-0.166,0.29-0.315,0.59-0.462,0.897
		c-0.104,0.216-0.208,0.44-0.303,0.664c-0.133,0.325-0.245,0.656-0.35,0.989c-0.074,0.216-0.148,0.432-0.211,0.656
		c-0.101,0.374-0.166,0.757-0.238,1.139c-0.032,0.2-0.082,0.392-0.107,0.59c-0.079,0.582-0.125,1.172-0.125,1.771v96.269
		c0,0.599,0.046,1.188,0.125,1.778c0.025,0.191,0.075,0.391,0.107,0.582c0.072,0.383,0.138,0.765,0.238,1.139
		c0.063,0.225,0.137,0.44,0.211,0.656c0.104,0.332,0.217,0.665,0.35,0.999c0.095,0.224,0.199,0.438,0.303,0.655
		c0.146,0.308,0.296,0.606,0.462,0.905c0.124,0.208,0.252,0.416,0.39,0.624c0.18,0.282,0.371,0.557,0.57,0.822
		c0.149,0.208,0.307,0.399,0.465,0.59c0.221,0.249,0.44,0.499,0.677,0.731c0.18,0.184,0.357,0.365,0.544,0.532
		c0.245,0.225,0.504,0.439,0.77,0.647c0.2,0.158,0.403,0.316,0.615,0.466c0.075,0.05,0.145,0.116,0.221,0.166l144.402,96.27
		c2.281,1.521,4.908,2.284,7.53,2.284c2.63,0,5.252-0.764,7.533-2.284l144.398-96.27c0.079-0.05,0.15-0.116,0.229-0.166
		c0.212-0.149,0.411-0.308,0.611-0.466c0.266-0.208,0.527-0.423,0.773-0.647c0.186-0.167,0.36-0.349,0.54-0.532
		c0.236-0.232,0.461-0.482,0.673-0.731c0.166-0.19,0.319-0.382,0.47-0.59c0.203-0.266,0.39-0.54,0.572-0.822
		c0.129-0.208,0.266-0.416,0.388-0.624c0.165-0.299,0.315-0.598,0.461-0.905c0.099-0.217,0.212-0.432,0.304-0.655
		c0.133-0.334,0.24-0.667,0.348-0.999c0.072-0.216,0.154-0.432,0.212-0.656c0.101-0.374,0.167-0.756,0.237-1.139
		c0.033-0.191,0.079-0.391,0.107-0.582c0.079-0.59,0.122-1.18,0.122-1.778V207.867z M386.826,278.723v-45.441l-33.965,22.72
		L386.826,278.723z"></path></g></svg>