<?xml version="1.0" encoding="iso-8859-1"?>
<!DOCTYPE svg PUBLIC "-//W3C//DTD SVG 1.1//EN" "http://www.w3.org/Graphics/SVG/1.1/DTD/svg11.dtd">
<svg  version="1.1" xmlns="http://www.w3.org/2000/svg" xmlns:xlink="http://www.w3.org/1999/xlink" x="0px" y="0px" width="512px"
	 height="512px" viewBox="0 0 512 512" enable-background="new 0 0 512 512" xml:space="preserve"><g id="2069a460dcf28295e231f3111e03a23f"><path display="inline" d="M263.338,1.728c8.559,0.796,17.132,1.983,25.616,3.617c47.556,18.903,85.659,57.915,85.324,125.371
		c-0.015,2.508-0.115,5.068-0.271,7.665c-12.001,12.343-27.197,29.232-41.788,49.089c-2.683,3.65-5.369,7.375-8.056,11.141
		c3.735-19.878,5.905-39.146,5.983-57.249C330.451,71.431,301.889,27.053,263.338,1.728z M210.883,323.451
		c9.953-2.602,18.594-3.215,24.458-3.215c4.83,0,8.306,0.391,9.913,0.617c4.956-8.339,14.951-24.961,27.685-45.215
		c9.031-48.567,14.691-96.903,14.803-140.738c0.156-61.684-17.027-104.193-39.31-134.174c-7.65-0.301-15.323-0.301-22.974,0
		C203.184,30.707,186,73.217,186.148,134.9C186.297,193.146,196.222,259.322,210.883,323.451z M395.48,117.684
		c0.663-0.588,1.154-1.016,1.284-1.131l12.856-11.093c-8.153-42.759-38.048-70.488-75.642-86.616
		C367.64,38.841,392.329,70.687,395.48,117.684z M242.27,343.522c0,0-2.59-0.424-6.929-0.424c-9.437,0-27.142,2.006-44.407,14.75
		c-39.153,28.901-32.961,77.074-57.178,101.522c-13.489,13.619-32.73,16.536-46.736,16.536c-10.494,0-18.047-1.638-18.047-1.638
		s37.241,37.229,106.609,37.229c15.739,0,33.121-1.913,52.109-6.616c75.214-18.62,91.944-96.375,91.944-96.375
		s-34.442-21.881-54.347-38.6C246.541,354.165,242.27,343.522,242.27,343.522z M442.649,196.525l-30.948-62.663
		c0,0-32.02,27.633-61.06,67.144c-43.142,58.711-89.03,137.099-89.03,137.099s2.318,9.999,17.694,20.7
		c15.182,10.572,40.329,24.176,40.329,24.176s71.946-59.061,112.224-108.197C464.979,234.369,442.649,196.525,442.649,196.525z
		 M171.584,344.065c-49.453-65.192-93.175-147.949-93.547-215.196c-0.291-53.2,25.593-88.48,61.867-110.025
		c-44.43,19.067-78.239,54.257-77.912,111.454c0.402,68.464,51.484,154,105.697,217.236
		C168.935,346.358,170.244,345.204,171.584,344.065z M99.619,130.715c0.282,56.281,37.292,136.905,80.479,206.824
		c4.135-2.839,8.269-5.229,12.347-7.227c-28.124-63.757-48.456-132.001-48.701-188.952c-0.305-69.93,28.258-114.307,66.808-139.633
		c-8.558,0.796-17.132,1.983-25.623,3.617C137.388,24.248,99.276,63.259,99.619,130.715z"></path></g></svg>