<?xml version="1.0" encoding="iso-8859-1"?>
<!DOCTYPE svg PUBLIC "-//W3C//DTD SVG 1.1//EN" "http://www.w3.org/Graphics/SVG/1.1/DTD/svg11.dtd">
<svg  version="1.1" xmlns="http://www.w3.org/2000/svg" xmlns:xlink="http://www.w3.org/1999/xlink" x="0px" y="0px" width="512px"
	 height="512px" viewBox="0 0 512 512" enable-background="new 0 0 512 512" xml:space="preserve"><g id="5151e0c8492e5103c096af88a5009922"><path d="M200.308,147.839c-29.576-22.171-72.59-17.696-72.59-17.696S34.674,131.192,6.555,254.615
		c-22.127,97.115,20.379,58.04,63.059,47.475c49.419-12.231,98.341,12.21,147.47-47.209c15.78-19.124,13.181-48.238,13.181-48.238
		S228.988,169.331,200.308,147.839z M167.674,241.547c-0.024,0-0.024,0-0.04,0h-3.993c-6.907,0-12.506-5.598-12.506-12.511
		c0-9.872-8.035-17.907-17.902-17.907c-9.872,0-17.918,8.035-17.918,17.907c0,6.913-5.588,12.511-12.511,12.511h-3.988
		c-6.913,0-12.511-5.598-12.511-12.511c0-25.874,21.049-46.928,46.928-46.928c25.52,0,46.361,20.492,46.894,45.889
		c0.044,0.335,0.063,0.685,0.063,1.039C180.189,235.949,174.576,241.547,167.674,241.547z M505.451,254.615
		c-28.135-123.423-121.153-124.472-121.153-124.472s-43.004-4.476-72.586,17.696c-28.7,21.492-29.961,58.804-29.961,58.804
		s-2.614,29.114,13.196,48.238c49.123,59.419,98.036,34.978,147.445,47.209C485.066,312.655,527.563,351.73,505.451,254.615z
		 M414.352,241.547c-0.01,0-0.024,0-0.039,0h-3.993c-6.897,0-12.496-5.598-12.496-12.511c0-9.872-8.046-17.907-17.913-17.907
		c-9.872,0-17.917,8.035-17.917,17.907c0,6.913-5.599,12.511-12.501,12.511h-3.988c-6.913,0-12.512-5.598-12.512-12.511
		c0-25.874,21.049-46.928,46.918-46.928c25.521,0,46.357,20.492,46.914,45.889c0.024,0.335,0.044,0.685,0.044,1.039
		C426.868,235.949,421.255,241.547,414.352,241.547z M304.174,344.192c-5.524,20.266-28.169,38.035-48.179,38.035
		c-20,0-42.635-17.77-48.159-38.035c-6.854-25.106,8.159-38.026,48.159-38.026C296.021,306.166,311.018,319.086,304.174,344.192z"></path></g></svg>