<?xml version="1.0" encoding="iso-8859-1"?>
<!DOCTYPE svg PUBLIC "-//W3C//DTD SVG 1.1//EN" "http://www.w3.org/Graphics/SVG/1.1/DTD/svg11.dtd">
<svg  version="1.1" xmlns="http://www.w3.org/2000/svg" xmlns:xlink="http://www.w3.org/1999/xlink" x="0px" y="0px" width="512px"
	 height="512px" viewBox="0 0 512 512" enable-background="new 0 0 512 512" xml:space="preserve"><g id="c133de6af664cd4f011a55de6b001a2b"><path display="inline" d="M204.064,46.682v22.018h-56.302V0.501h56.302v24.13h-32.172v22.051H204.064z M261.941,24.631h22.492
		V0.501h-56.308c0,0,0,12.112,0,24.13c7.533,7.533,11.461,11.139,22.356,22.034c-6.369,0-22.356,0.022-22.356,0.021v22.014h56.308
		V46.682L261.941,24.631z M341.746,24.631h22.49V0.501H307.93c0,0,0,12.112,0,24.13c7.531,7.533,11.461,11.139,22.355,22.034
		c-6.365,0-22.355,0.022-22.355,0.021v22.014h56.307V46.682L341.746,24.631z M438.395,101.112l-34.203,370.486l-148.193,39.9
		l-148.196-39.9L73.605,101.112H438.395z M369.477,176.444H255.865h-115.62l5.529,44.739h110.091h6.184l-6.184,2.574
		l-106.067,44.177l3.518,43.73l102.549,0.333l54.963,0.175l-3.521,58.311l-51.442,14.484v-0.046l-0.422,0.116l-49.684-12.542
		l-3.015-36.195h-0.164h-46.085h-0.162l6.032,69.876l93.5,27.649v-0.05l0.168,0.05l93-27.146L361.1,267.935H255.865h-0.26
		l0.26-0.112l109.086-46.639L369.477,176.444z"></path></g></svg>