<?xml version="1.0" encoding="iso-8859-1"?>
<!DOCTYPE svg PUBLIC "-//W3C//DTD SVG 1.1//EN" "http://www.w3.org/Graphics/SVG/1.1/DTD/svg11.dtd">
<svg  version="1.1" xmlns="http://www.w3.org/2000/svg" xmlns:xlink="http://www.w3.org/1999/xlink" x="0px" y="0px" width="512px"
	 height="512px" viewBox="0 0 512 512" enable-background="new 0 0 512 512" xml:space="preserve"><g id="3e91140ac1bfb9903b91c1b0ca09020a"><path display="inline" d="M400.264,168.995c1.028-6.661,1.993-13.04,2.114-20.066c-16.78-2.065-36.036-1.596-43.639,9.272
		c-14.791,21.138,14.097,72.94,26.432,95.061c3.17,5.683,5.461,9.789,6.514,12.347c1.166,2.831,2.44,5.385,3.755,7.728
		c8.487-18.056,6.297-36.352,4.163-54.124c-1.057-8.799-2.154-17.898-1.867-26.649C398.021,183.57,399.163,176.16,400.264,168.995z
		 M386.131,164.883c-1.363,1.436-4.243,3.927-8.172,4.472c-0.505,0.07-1.021,0.106-1.533,0.106c-5.792,0-10.79-4.52-11.205-7.45
		c-0.476-3.535,5.292-6.224,11.245-7.053c1.303-0.181,2.598-0.273,3.84-0.273c5.144,0,8.552,1.526,8.895,3.98
		C389.422,160.252,388.22,162.692,386.131,164.883z M327.039,33.711c10.601-2.196,25.097-4.245,41.328-3.889
		c41.125,0.91,73.651,16.294,96.683,45.725c17.667,22.573-1.782,125.291-58.099,213.903c-0.553-0.706-1.121-1.42-1.706-2.15
		c-0.233-0.294-0.472-0.593-0.714-0.895c14.553-24.032,11.705-47.806,9.173-68.887c-1.041-8.652-2.021-16.824-1.771-24.498
		c0.259-8.14,1.335-15.115,2.376-21.863c1.278-8.313,2.581-16.915,2.219-27.055c0.27-1.063,0.379-2.319,0.237-3.812
		c-0.915-9.728-12.02-38.829-34.651-65.174C369.738,60.709,351.685,44.587,327.039,33.711z M171.328,292.222
		c1.615,1.686,3.301,3.267,5.044,4.759c-6.948,7.438-22.048,23.891-38.119,43.224c-11.372,13.674-19.226,11.06-21.809,10.196
		c-16.828-5.614-36.354-41.182-53.569-97.587c-14.896-48.802-23.603-97.875-24.29-111.638c-2.176-43.52,8.373-73.852,31.356-90.151
		c37.4-26.526,98.897-10.648,123.607-2.595c-0.357,0.349-0.725,0.677-1.075,1.032c-40.549,40.952-39.587,110.918-39.486,115.193
		c-0.006,1.649,0.133,3.984,0.323,7.199c0.697,11.766,1.996,33.668-1.473,58.473C148.615,253.376,155.718,275.934,171.328,292.222z
		 M397.933,301.079c-8.035,2.319-22.459,7.667-21.144,34.405c-1.057,13.407-8.6,76.218-12.428,98.418
		c-5.054,29.324-15.848,40.246-46.18,46.749c-31.457,6.743-42.586-9.31-49.927-27.654c-4.735-11.847-7.059-65.254-5.413-124.232
		c0.024-0.782-0.089-1.541-0.307-2.251c-0.186-1.375-0.476-2.767-0.879-4.17c-2.452-8.584-8.438-15.759-15.617-18.736
		c-2.247-0.932-5.644-2.335-9.822-2.335c-1.543,0-3.062,0.193-4.558,0.581c1.343-5.526,3.669-11.762,6.189-18.519l1.059-2.843
		c1.19-3.207,2.687-6.526,4.268-10.044c8.545-18.981,20.248-44.984,7.547-103.724c-4.758-22.001-20.647-32.744-44.728-30.25
		c-14.44,1.495-27.647,7.321-34.236,10.661c-1.422,0.72-2.727,1.417-3.941,2.095c1.817-22.136,8.735-63.497,34.751-89.773
		c16.366-16.531,38.163-24.695,64.748-24.256c52.314,0.859,85.861,27.706,104.795,50.078c16.315,19.28,25.148,38.699,28.674,49.173
		c-26.504-2.696-44.546,2.539-53.686,15.607c-19.89,28.429,10.878,83.603,25.665,110.121c2.71,4.862,5.054,9.058,5.788,10.845
		c4.812,11.669,11.048,19.461,15.605,25.148C395.549,297.917,396.9,299.61,397.933,301.079z M248.003,326.252
		c0.581,2.037,1.238,5.901-0.907,8.902c-10.808,15.134-25.686,22.81-44.22,22.81c-6.095,0-12.566-0.848-19.24-2.518
		c-3.904-0.976-7.415-2.67-9.477-4.073c1.721-0.812,4.784-1.912,10.096-3.005c25.71-5.297,29.679-9.031,38.349-20.039
		c1.989-2.524,4.244-5.385,7.367-8.874c2.358-2.638,4.46-3.977,6.246-3.977c1.253,0,2.666,0.54,4.383,1.25
		C243.724,318.027,246.769,321.94,248.003,326.252z M469.358,317.431c0.108-0.024,0.218-0.049,0.322-0.068
		c-3.937,3.683-10.669,8.619-20.224,13.057c-8.213,3.812-21.951,6.671-35.007,7.284c-14.42,0.67-21.761-1.613-23.487-3.025
		c-0.807-16.658,5.396-18.4,11.959-20.244c1.028-0.29,2.037-0.572,3.005-0.911c0.605,0.488,1.267,0.979,1.993,1.456
		C419.508,322.63,440.18,323.453,469.358,317.431z M224.536,278.37l1.055-2.823c1.357-3.658,2.948-7.188,4.633-10.931
		c8.163-18.14,18.326-40.719,6.614-94.891c-2.265-10.464-7.708-16.544-16.642-18.591c-19.575-4.485-47.027,10.223-52.95,15.475
		c0.055,1.186,0.144,2.69,0.244,4.404c0.728,12.258,2.081,35.077-1.583,61.281c-2.616,18.712,3.098,36.972,15.676,50.093
		c9.895,10.325,22.902,16.037,36.275,16.077C219.396,292.156,221.874,285.518,224.536,278.37z M206.106,168.942
		c-0.917-1.216-2.411-3.575-2.109-5.707c0.428-3.124,4.188-4.998,10.058-4.998c1.301,0,2.648,0.097,4.008,0.287
		c6.336,0.881,12.875,3.882,12.245,8.386c-0.474,3.412-5.877,8.472-12.366,8.472c-0.567,0-1.14-0.04-1.698-0.119
		C212.492,174.745,208.7,172.381,206.106,168.942z M503.183,308.227c-2.113-9.584-10.793-20.777-28.299-20.777
		c-3.513,0-7.32,0.432-11.641,1.327c-8.301,1.71-15.706,2.775-22.071,3.171c22.293-38.223,40.23-81.256,50.633-121.528
		c9.628-37.277,16.912-87.071-3.054-112.586C459.399,20.326,416.475,0.501,364.616,0.501c-29.228,0-53.098,6.53-60.326,8.74
		c-11.398-1.988-23.668-3.102-36.482-3.31c-0.855-0.014-1.702-0.02-2.546-0.02c-23.059,0-43.723,5.237-61.434,15.567
		c-16.13-5.401-47.269-14.147-79.702-14.147c-36.481,0-65.214,10.757-85.396,31.976C16.385,62.799,6.212,97.864,8.497,143.529
		c0.956,19.149,11.989,76.369,27.785,126.056c24.404,76.774,51.286,112.527,84.595,112.527c10.429,0,20.326-3.65,29.448-10.854
		c7.999,8.717,19.609,12.653,25.994,14.251c9.058,2.267,17.989,3.416,26.547,3.416c11.437,0,22.208-1.997,32.061-5.941
		c0.064,2.142,0.123,4.171,0.173,6.002c0.117,4.162,0.23,8.244,0.384,12.061c1.04,25.951,2.815,46.143,8.089,60.381
		c0.278,0.747,0.649,1.888,1.053,3.122c2.305,7.067,5.788,17.739,13.801,27.428c10.563,12.771,25.616,19.522,43.525,19.522
		c5.72,0,11.847-0.689,18.215-2.057c19.248-4.122,41.114-10.423,57.019-33.067c14.911-21.232,22.144-53,23.454-103.008l0.577-4.921
		l2.775,0.227c1.758,0.08,3.577,0.116,5.408,0.116c18.672,0,39.363-4.005,52.723-10.208
		C473.222,353.426,508.999,334.565,503.183,308.227z M455.442,343.302c-11.487,5.332-29.791,8.704-45.659,8.704
		c-7.611,0-14.649-0.782-20.119-2.484c-2.59,23.806-8.096,68.198-11.302,86.801c-6.002,34.785-21.503,50.564-57.204,58.22
		c-6.078,1.299-11.604,1.88-16.622,1.884c-34.212,0.004-45.038-27.077-49.469-38.153c-5.413-13.536-7.294-57.953-6.913-103.031
		c-12.282,11.116-27.68,16.929-45.278,16.929c-7.256,0-14.888-0.988-22.685-2.94c-2.255-0.565-22.035-5.873-21.771-18.519
		c0.239-11.572,16.753-14.977,22.969-16.259c21.854-4.502,23.266-6.292,30.056-14.912c1.373-1.746,2.986-3.787,4.953-6.119
		c-0.022-0.258-0.051-0.512-0.066-0.77c-9.8-0.263-19.379-2.876-28.1-7.556c-5.899,6.28-21.91,23.564-39.055,44.191
		c-10.323,12.411-20.244,16.058-28.337,16.058c-3.3,0.004-6.295-0.604-8.893-1.473c-22.182-7.396-43.266-43.368-62.66-106.91
		c-14.736-48.277-24.072-98.686-24.891-115.076c-2.437-48.707,10.132-83.181,37.356-102.47
		c48.744-34.534,127.507-8.015,144.689-1.577c16.941-11.55,37.393-17.215,61.105-16.842c12.92,0.212,24.782,1.874,35.665,4.58
		c5.171-2.269,31.844-10.338,63.378-9.991c45.897,0.488,83.813,18.193,109.647,51.204c17.433,22.279,5.93,76.516,0.169,98.799
		c-11.971,46.351-34.163,96.026-61.14,137.128c4.082,3.001,16.518,7.962,51.218,0.798c11.688-2.412,18.724-0.282,20.909,6.325
		C491.615,322.609,468.342,337.315,455.442,343.302z"></path></g></svg>