<?xml version="1.0" encoding="iso-8859-1"?>
<!DOCTYPE svg PUBLIC "-//W3C//DTD SVG 1.1//EN" "http://www.w3.org/Graphics/SVG/1.1/DTD/svg11.dtd">
<svg  version="1.1" xmlns="http://www.w3.org/2000/svg" xmlns:xlink="http://www.w3.org/1999/xlink" x="0px" y="0px" width="512px"
	 height="512px" viewBox="0 0 512 512" enable-background="new 0 0 512 512" xml:space="preserve"><g id="3e91140ac1bfb9903b91c1b0ca092829"><path display="inline" d="M511.445,305.84c0.017,0.008,0.037,0.017,0.054,0.024c0,0-0.013,46.128-0.013,50.919
		c0.005,5.103-6.13,10.704-20.007,17.94c-27.272,14.214-168.542,72.302-198.613,87.976c-30.079,15.683-46.784,15.533-70.543,4.172
		c-23.756-11.357-174.092-72.082-201.17-85.023C7.616,375.372,0.501,369.916,0.501,364.76c0-5.145,0-51.617,0-51.65
		c0.21,5.144,7.12,10.604,20.652,17.07c27.078,12.938,177.409,73.671,201.17,85.024c23.759,11.361,40.464,11.511,70.543-4.167
		c30.071-15.679,171.341-73.767,198.613-87.98C504.712,316.161,511.225,310.726,511.445,305.84z M0.501,192.963
		c0-4.942,0-48.005,0-51.419c0-0.013,0-0.023,0-0.033c0-0.121,0-0.2,0-0.204c0,0.025,0.015,0.052,0.017,0.077
		c-0.075-5.092,6.415-9.883,19.59-15.042c26.599-10.419,176.105-69.073,207.707-80.409c31.596-11.336,42.558-11.746,69.448-1.893
		c26.89,9.85,167.314,65.74,193.884,75.478c13.482,4.937,20.356,9.438,20.328,14.528c0.008,0.002,0.017,0.004,0.024,0.008
		c0,0-0.013,46.13-0.013,50.925c0.005,5.104-6.13,10.707-20.007,17.94c-27.272,14.216-168.542,72.3-198.613,87.982
		c-30.079,15.679-46.784,15.524-70.543,4.167c-23.761-11.353-174.092-72.083-201.17-85.025C7.616,203.57,0.501,198.12,0.501,192.963
		z M301.878,165.005l-118.415,18.177l82.659,34.274L301.878,165.005z M375.287,108.25l-77.542,30.67l69.998,27.686l7.585-2.992
		l70.032-27.646L375.287,108.25z M201.609,98.98l51.122,4.591l16.027,26.617l9.919-23.862l44.26-4.593L288.6,88.883l9.12-21.833
		L264.026,78.07l-35.711-13.973l11.447,21.116L201.609,98.98z M88.259,139.535c0,13.549,28.337,24.532,63.288,24.532
		c34.956,0,63.291-10.983,63.291-24.532s-28.335-24.532-63.291-24.532C116.596,115.003,88.259,125.986,88.259,139.535z
		 M491.479,238.831c-27.272,14.214-168.542,72.298-198.613,87.984c-30.079,15.674-46.784,15.521-70.543,4.163
		c-23.761-11.354-174.092-72.082-201.17-85.023C7.621,239.488,0.711,234.03,0.501,228.884c0,0.104,0,46.515,0,51.654
		c0,5.157,7.115,10.609,20.652,17.084c27.078,12.941,177.409,73.666,201.17,85.02c23.759,11.361,40.464,11.511,70.543-4.163
		c30.071-15.682,171.341-73.766,198.613-87.984c13.877-7.231,20.012-12.834,20.007-17.94c0-4.791,0.013-50.923,0.013-50.923
		c-0.017-0.006-0.037-0.012-0.054-0.019C511.225,226.497,504.712,231.934,491.479,238.831z"></path></g></svg>