<?xml version="1.0" encoding="iso-8859-1"?>
<!DOCTYPE svg PUBLIC "-//W3C//DTD SVG 1.1//EN" "http://www.w3.org/Graphics/SVG/1.1/DTD/svg11.dtd">
<svg  version="1.1" xmlns="http://www.w3.org/2000/svg" xmlns:xlink="http://www.w3.org/1999/xlink" x="0px" y="0px" width="512px"
	 height="512px" viewBox="0 0 512 512" enable-background="new 0 0 512 512" xml:space="preserve"><g id="3e91140ac1bfb9903b91c1b0ca09248f"><path display="inline" d="M69.934,256.464c0,19.164-15.551,34.709-34.716,34.709S0.5,275.628,0.5,256.464
		c0-19.163,15.553-34.708,34.718-34.708S69.934,237.301,69.934,256.464z M256.465,69.932c19.163,0,34.716-15.551,34.716-34.715
		c0-19.165-15.553-34.718-34.716-34.718c-19.163,0-34.715,15.553-34.715,34.718C221.75,54.381,237.302,69.932,256.465,69.932z
		 M411.986,135.658c19.167,0,34.72-15.553,34.72-34.717c0-19.163-15.553-34.716-34.72-34.716c-19.163,0-34.716,15.553-34.716,34.716
		C377.271,120.105,392.823,135.658,411.986,135.658z M100.016,378.199c-19.165,0-34.709,15.544-34.709,34.711
		c0,19.163,15.544,34.724,34.709,34.724c19.163,0,34.716-15.561,34.716-34.724C134.732,393.743,119.179,378.199,100.016,378.199z
		 M476.785,221.756c-6.513,0-12.584,1.83-17.799,4.957c-26.549-16.04-70.596-40.483-133.519-68.591
		c-74.679-33.383-149.332-52.171-190.884-61.002c-1.474-17.809-16.382-31.823-34.568-31.823c-19.165,0-34.709,15.553-34.709,34.718
		c0,19.163,15.544,34.715,34.709,34.715c7.252,0,13.99-2.237,19.562-6.048c22.09,17.565,55.926,53.071,86.82,120.847
		c35.292,77.44,43.391,151.371,44.798,192.981c-16.659,2.549-29.447,16.917-29.447,34.283c0,19.162,15.553,34.707,34.715,34.707
		c19.163,0,34.716-15.545,34.716-34.707c0-12.409-6.537-23.271-16.335-29.418c-0.807-42.504-8.317-122.228-47.193-207.532
		c-17.547-38.515-36.096-67.4-53.354-88.939c27.679,15.694,60.482,36.757,94.684,64.042
		c64.523,51.462,104.121,126.112,122.91,168.775c-8.833,6.292-14.622,16.597-14.622,28.266c0,19.162,15.553,34.707,34.716,34.707
		c19.167,0,34.72-15.545,34.72-34.707c0-18.215-14.061-33.132-31.908-34.566c-18.997-44.271-60.574-124.377-131.244-180.749
		c-31.071-24.776-60.848-44.542-86.938-59.939c35.911,10.199,77.881,24.201,119.316,42.719
		c59.343,26.513,101.868,49.927,128.104,65.609c-1.243,3.576-1.959,7.402-1.959,11.403c0,19.164,15.554,34.709,34.708,34.709
		c19.166,0,34.715-15.545,34.715-34.709C511.5,237.301,495.951,221.756,476.785,221.756z"></path></g></svg>