<?xml version="1.0" encoding="iso-8859-1"?>
<!DOCTYPE svg PUBLIC "-//W3C//DTD SVG 1.1//EN" "http://www.w3.org/Graphics/SVG/1.1/DTD/svg11.dtd">
<svg  version="1.1" xmlns="http://www.w3.org/2000/svg" xmlns:xlink="http://www.w3.org/1999/xlink" x="0px" y="0px" width="512px"
	 height="512px" viewBox="0 0 512 512" enable-background="new 0 0 512 512" xml:space="preserve"><g id="3e91140ac1bfb9903b91c1b0ca093d8e"><path display="inline" d="M237.437,127.894c0.016-0.048,0.025-0.074,0.025-0.074S237.452,127.848,237.437,127.894z M423.14,278.589
		c6.687,4.812,12.052,8.338,12.052,8.338S429.831,282.835,423.14,278.589z M203.291,193.403l0.14,0.103
		c0.01-0.015,0.017-0.029,0.025-0.042L203.291,193.403z M497.277,177.491c9.199-9.17,14.223-16.896,14.223-16.896
		s-28.266,32.56-50.875,28.721c17.05-13.731,29.325-36.613,29.325-36.613s-0.308,0.31-0.831,0.836
		c2.632-4.159,4.112-6.912,4.112-6.912s-37.385,38.612-65.11,35.933c11.486-11.033,19.754-24.599,24.885-34.605
		c6.413-11.299,9.594-20.134,9.594-20.134s-28.24,43.584-48.284,50.676c9.032-9.769,15.47-20.427,19.632-28.621
		c6.408-11.216,9.312-19.909,9.312-19.909s-22.977,33.762-42.65,40.393c10.463-10.652,15.753-19.18,18.414-24.929
		c5.598-9.17,5.968-14.389,5.968-14.389s-35.53,45.919-51.657,41.933c13.19-15.856,22.526-33.23,25.088-38.204
		c2.579-4.594,4.001-7.487,4.001-7.487s-31.705,42.986-40.296,35.996c-1.714-0.311-1.593-2.167-0.607-4.622
		c3.147-4.938,6.994-9.717,6.994-9.717s-1.155,1.029-2.969,2.508c2.978-4.51,6.25-8.583,6.25-8.583s-14.625,12.993-21.97,13.55
		c9.308-10.353,20.303-29.502,20.303-29.502s-0.449,0.516-1.231,1.391c2.729-4.368,4.508-7.467,4.508-7.467
		s-32.236,37.071-40.296,32.775l15.562-31.571c0,0-15.096,30.588-35.564,26.39c2.612-3.93,4.604-7.564,6.047-10.504
		c4.517-7.695,6.396-13.378,6.396-13.378s-16.085,25.839-35.963,18.853c-1.197-0.42-1.393-1.521-1.031-2.917
		c1.771-2.491,3.556-4.521,3.556-4.521s-1.052,1.017-2.736,2.431c1.934-3.88,6.018-8.511,6.018-8.511s-13.332,12.981-22.465,11.367
		c-9.132-1.611,0.541-18.269,0.541-18.269s-16.123,25.253-19.348,24.178c-3.221-1.074,1.614-17.731,1.614-17.731
		s-11.819,19.346-18.271,18.271c-6.219-1.034-0.44-18.568-0.025-19.804c-0.244,0.719-2.259,6.573-4.87,11.657
		c0.722-2.976,1.501-5.323,1.602-5.622c-0.118,0.347-1.617,4.755-3.71,9.288c-1.763,2.665-3.641,4.457-5.352,3.941
		c-5.377-1.606-6.448-13.968-6.448-13.968s-0.514,5.773-2.481,10.852c-0.607-2.62-0.8-4.776-0.8-4.776s-0.449,5.092-2.129,9.916
		c-1.04,1.16-2.268,1.996-3.724,2.279C151.49,162.745,87.55,187.457,7.488,267.52c2.325-1.252,4.605-2.524,6.849-3.813
		c-3.352,3.21-6.72,6.487-10.13,9.893c55.672-30.004,86.682-70.454,155.494-91.933c-2.002,4.13-3.154,8.843-3.154,14.254
		c0,34.521,20.614,64.212,50.197,77.483c0.023-0.092,0.042-0.183,0.064-0.274c-4.959-4.94-9.125-10.6-12.342-16.779
		c-0.607,0.093-1.223,0.153-1.853,0.153c-6.731,0-12.185-5.456-12.185-12.181c0-4.823,2.813-8.982,6.876-10.955
		c-0.925-7.489-0.611-15.262,1.131-23.049c0.497-2.229,1.104-4.401,1.803-6.524c-5.514-8.07-9.321-17.394-10.92-27.453
		c0.856-0.201,1.717-0.401,2.584-0.595c2.46,7.702,6.157,14.976,10.899,21.456c2.3-5.092,5.182-9.806,8.556-14.074
		c-0.376-1.011-0.595-2.101-0.595-3.244c0-4.063,2.63-7.479,6.271-8.729c1.158-0.168,2.325-0.333,3.502-0.492
		c1.021,0.058,2.006,0.253,2.913,0.615c0.547-0.418,1.115-0.807,1.674-1.208c4.937-0.602,10.045-1.119,15.308-1.56
		c-4.198,2.212-8.184,4.807-11.856,7.772c0.468,1.108,0.728,2.326,0.728,3.601c0,1.456-0.366,2.813-0.961,4.038l18.35,13.352
		c0.26-0.179,0.53-0.339,0.798-0.508l-7.525-26.402l13.214,23.631c0.451-0.16,0.9-0.322,1.364-0.46l-0.41-25.966
		c0.025,0,0.05-0.002,0.073-0.004l8.388,24.546l10.147-24.476l0.345,26.853c0.116,0.045,0.229,0.098,0.341,0.146l15.088-21.265
		l-7.702,25.891c0.083,0.075,0.162,0.156,0.245,0.229l22.069-14.667l-16.076,22.275c0.024,0.054,0.05,0.108,0.083,0.162
		l20.193-7.242c0.254-0.314,0.537-0.607,0.786-0.925c-1.186-1.447-1.921-3.273-1.921-5.29c0-4.644,3.768-8.406,8.412-8.406
		c0.657,0,1.289,0.094,1.905,0.236c2.304-4.736,4.066-9.736,5.314-14.879c0.599,0.098,1.197,0.193,1.792,0.295
		c-0.461,5.739-1.601,11.287-3.401,16.535c1.709,1.538,2.799,3.744,2.799,6.219c0,4.645-3.768,8.413-8.409,8.413
		c-0.474,0-0.931-0.064-1.38-0.14c-3.178,4.963-6.991,9.475-11.312,13.442l13.702,0.698l-20.764,4.953
		c-0.645,0.447-1.28,0.904-1.938,1.331c12.035,1.882,23.362,6.988,32.728,14.715c6.824-12.222,10.721-26.301,10.721-41.294
		c0-10.64-4.412-18.605-11.17-24.61c56.174,9.918,88.61,33.927,104.62,40.441c-3.181,0.987-5.838,3.335-7.452,7.739
		c-24.992,47.551-77.373,74.148-138.628,83.015c-61.255,8.866-106.396-4.018-143.47-14.463
		C81.504,274.293,42.813,298.745,0.5,277.521c5.903,4.674,12.345,9.265,23.568,12.209c-7.254-1.363-14.548-3.659-21.955-7.377
		c9.783,7.756,20.957,15.32,53.196,15.416c10.485,0.029,43.101-1.568,51.441,3.281c-2.609,9.364-22.425,28.053-22.425,28.053
		s9.02-7.622,19.595-15.111c-6.658,9.257-17.985,19.943-17.985,19.943s42.03-35.53,51.056-28.539
		c-0.486,9.918-13.981,28.539-13.981,28.539s6.013-8.134,13.486-15.682c-3.936,9.586-11.873,20.522-11.873,20.522
		s16.651-22.589,29.012-27.404c7.895-3.073,14.634-2.937,20.45,3.959c-1.89,9.078-19.643,29.892-19.643,29.892
		s7.97-7.76,16.603-15.262c-5.863,9.402-14.989,20.102-14.989,20.102s31.436-30.632,37.075-29.018
		c0.291,0.083,0.541,0.249,0.773,0.457c0.765,8.408-2.385,23.721-2.385,23.721s1.466-3.519,3.628-8.135
		c-0.73,6.712-2.017,12.975-2.017,12.975s11.245-26.98,17.468-29.708c-2.375,15.195-20.693,59.525-20.693,59.525
		s5.059-9.274,11.629-20.735c-5.078,13.615-10.016,25.571-10.016,25.571s33.957-62.262,40.296-63.671
		c4.184-0.932,7.829,5.298,10.735,13.307c3.666,11.956,5.791,25.376,5.791,25.376s-0.439-3.314-0.925-8.093
		c1.634,7.252,2.532,12.933,2.532,12.933s-5.298-40.138,0.403-42.716c9.66-4.375,15.245-1.431,18.243,5.219
		c4.891,20.373-4.536,59.255-4.536,59.255s2.512-6.2,5.397-14.983c-1.705,11.224-3.784,19.824-3.784,19.824
		s20.468-50.41,11.548-67.743c-0.129-0.64-0.278-1.264-0.453-1.862c14.105,10.018,22.032,22.821,26.432,34.724
		c4.949,16.459,3.576,30.041,3.576,30.041s1.007-2.195,1.489-6.887c0.59,7.107,0.124,11.728,0.124,11.728s6.226-13.49-4.911-45.312
		c-2.652-8.454-6.591-18.348-12.354-29.809c15.295,0.74,37.41,39.656,37.41,39.656s-3.044-5.406-6.288-12.468
		c2.895,4.5,4.675,7.627,4.675,7.627s-6.351-11.27-10.479-22.552c-2.778-9.27-3.128-17.403,4.033-17.744
		c16.16-0.766,25.342,12.787,30.523,27.076c4.192,13.835,4.94,26.926,4.94,26.926s0.482-0.407,0.957-1.663
		c0.507,3.972,0.656,6.496,0.656,6.496s6.446-5.456-4.856-38.06c-2.545-7.968-6.259-17.773-11.61-29.858
		c17.448-9.639,58.377,55.026,58.377,55.026s-4.358-7.286-9.897-17.108c5.04,7.145,8.284,12.268,8.284,12.268
		s-23.305-38.957-30.69-58.211c-0.765-2.853-0.848-4.824,0.066-5.456c6.18-4.3,28.744,20.418,28.744,20.418
		s-3.51-4.828-6.937-10.346c3.165,3.144,5.327,5.51,5.327,5.51s-8.155-11.216-11.739-18.983c-0.129-1.099,0.066-1.896,0.724-2.246
		c4.565-2.412,50.239,47.021,50.239,47.021s-7.028-8.438-14.705-18.692c7.481,7.784,13.096,13.856,13.096,13.856
		s-25.446-30.541-32.383-46.044c-0.258-1.555-0.087-2.74,0.678-3.393c4.009-3.394,15.457,2.603,24.481,8.325
		c-5.228-3.76-11.249-8.309-16.147-12.575c4.591,1.771,9.885,4.79,14.538,7.738c-8.666-6.237-19.532-14.634-23.791-20.331
		c0.188-0.361,0.462-0.68,0.919-0.917c12.359-6.419,47.557,15.348,47.557,15.348s-5.972-4.916-11.057-10.168
		c5.589,2.948,9.443,5.327,9.443,5.327s-11.844-9.747-16.38-16.468c0.062-0.164,0.146-0.318,0.262-0.458
		c3.489-4.295,45.128,27.405,45.128,27.405s-15.728-12.4-27.146-23.018c12.209,8.034,25.542,18.177,25.542,18.177
		s-28.948-22.815-36.804-33.035c3.327-3.93,28.744,4.025,28.744,4.025s-9.182-4.269-18.098-9.012
		c7.855,1.475,16.484,4.173,16.484,4.173s-22.444-10.427-31.214-16.802c5.389-0.098,20.734,6.327,20.734,6.327
		s-7.39-6.063-15.906-9.96c6.441,1.836,14.292,5.121,14.292,5.121s-8.832-7.255-18.313-10.991
		c46.102-2.63,74.683-46.662,74.683-46.662S503.89,171.652,497.277,177.491z M234.169,133.929c0.005-0.015,0.011-0.034,0.011-0.034
		S234.176,133.907,234.169,133.929z M424.749,283.426c6.687,4.815,12.056,8.338,12.056,8.338S431.44,287.671,424.749,283.426z
		 M231.174,202.268l-13.572-17.059c-1.678,2.379-4.435,3.944-7.568,3.944c-1.162,0-2.275-0.223-3.3-0.617
		c-1.177,1.58-2.252,3.237-3.279,4.928l26.866,9.881C230.6,202.98,230.876,202.617,231.174,202.268z M215.44,253.052l-6.018,4.855
		l18.14-22.975l-22.866,8.29c0.031,0.368,0.096,0.726,0.096,1.1c0,3.533-1.514,6.712-3.919,8.938
		c2.181,4.624,4.861,9.028,7.984,13.124C210.551,261.71,212.774,257.249,215.44,253.052z M195.907,211.988
		c-1.524,6.834-1.807,13.686-1.046,20.368c5.02,0.938,8.935,4.951,9.756,10.006l19.753-12.65c-1.871-0.637-3.713-1.344-5.508-2.136
		l-22.161-1.605l13.569-2.932c-5.246-3.289-10.018-7.263-14.168-11.82C196.042,211.479,195.967,211.729,195.907,211.988z
		 M226.36,210.47l-22.93-16.964c-1.994,3.285-3.724,6.749-5.094,10.408c2.449,2.637,5.098,5.073,7.895,7.309l20.079-0.619
		C226.327,210.56,226.343,210.514,226.36,210.47z M212.233,215.517c-2.073-1.322-4.077-2.755-6.002-4.294l-9.502,0.291
		L212.233,215.517z M241.271,245.893l-17.179,24.358l6.371-23.81c-7.431,7.071-13.18,15.842-16.925,25.481
		c2.025,2.18,4.19,4.233,6.467,6.167c6.849,1.784,14.037,2.741,21.454,2.741c29.83,0,56.048-15.396,71.199-38.669
		c-7.968-5.516-16.95-9.456-26.332-11.423l-6.92-0.543l19.495,19.156l-25.492-9.933l15,22.955l-22.609-17.521
		c-0.142,0.079-0.283,0.167-0.433,0.241l7.302,26.91l-12.688-24.161l-2.081,28.32l-8.506-28.1c-0.031-0.002-0.06-0.006-0.089-0.009
		l-9.997,26.735l2.403-28.725C241.566,246.007,241.416,245.957,241.271,245.893z"></path></g></svg>