<?xml version="1.0" encoding="iso-8859-1"?>
<!DOCTYPE svg PUBLIC "-//W3C//DTD SVG 1.1//EN" "http://www.w3.org/Graphics/SVG/1.1/DTD/svg11.dtd">
<svg  version="1.1" xmlns="http://www.w3.org/2000/svg" xmlns:xlink="http://www.w3.org/1999/xlink" x="0px" y="0px" width="512px"
	 height="512px" viewBox="0 0 512 512" enable-background="new 0 0 512 512" xml:space="preserve"><g id="3e91140ac1bfb9903b91c1b0ca091df4"><path display="inline" d="M441.845,11.6c-21.957-19.583-48.547-11.717-74.787,11.573c-3.892,3.459-7.784,7.298-11.647,11.398
		c-6.067,6.433-12.064,13.629-17.952,21.391c-6.109-2.524-12.788-3.93-19.786-3.93H100.063c-28.769,0-52.308,23.54-52.308,52.308
		v217.613c0,28.769,23.539,52.307,52.308,52.307H253.14c1.838,10.146,2.911,17.365,2.911,17.365s0.137,1.893,0.366,4.8
		c-0.844,19.669-0.337,40.063,1.185,58.493c2.02,24.402,5.815,45.361,10.658,56.581l3.285-1.797
		c-7.106-22.098-9.997-51.063-8.73-84.468c1.913-51.054,13.663-112.629,35.37-176.804c36.678-96.879,87.566-174.608,134.142-211.731
		c-42.45,38.337-99.904,162.432-117.1,208.386c-19.259,51.459-32.902,99.749-41.13,146.016
		c14.187-43.374,60.067-62.017,60.067-62.017s22.506-27.749,48.805-67.4c-15.753,3.588-41.619,9.743-50.285,13.382
		c-12.779,5.36-16.223,7.189-16.223,7.189s41.398-25.211,76.916-36.624C442.224,168.701,495.439,59.408,441.845,11.6z
		 M255.907,237.77c5.042,10.226,8.98,23.275,11.575,33.243c0.663,2.562,1.264,4.961,1.742,7.003
		c1.142,4.832,1.753,7.968,1.753,7.968s-0.401-1.522-2.053-6.313c-0.313-0.919-0.665-1.922-1.081-3.103
		c-0.177-0.49-0.422-1.081-0.692-1.713c-2.93-6.804-11.028-21.173-14.594-27.426c-3.048,8.993-5.743,17.407-7.997,25.021
		c10.29,18.826,16.562,51.096,16.562,51.096s-0.545-2.092-3.129-9.39c-2.298-6.454-13.732-26.494-16.441-31.177
		c-4.633,17.108-6.473,28.652-4.813,31.472c2.449,4.134,4.807,10.559,6.982,17.965H100.063c-5.67,0-10.461-4.794-10.461-10.463
		V104.341c0-5.67,4.791-10.461,10.461-10.461h212.236C285.809,139.032,264.509,192.997,255.907,237.77z"></path></g></svg>