<?xml version="1.0" encoding="iso-8859-1"?>
<!DOCTYPE svg PUBLIC "-//W3C//DTD SVG 1.1//EN" "http://www.w3.org/Graphics/SVG/1.1/DTD/svg11.dtd">
<svg  version="1.1" xmlns="http://www.w3.org/2000/svg" xmlns:xlink="http://www.w3.org/1999/xlink" x="0px" y="0px" width="512px"
	 height="512px" viewBox="0 0 512 512" enable-background="new 0 0 512 512" xml:space="preserve"><g id="3e91140ac1bfb9903b91c1b0ca091114"><path display="inline" d="M489.447,206.978l-1.087-1.701c-6.193-9.628-10.418-15.563-15.51-21.855
		c-14.856-18.375-32.844-33.366-54.882-45.704c-30.282-16.956-69.563-30.133-119.224-40.006c-9.354-1.86-29.812-5.367-46.512-7.972
		l-1.676-2.946c-9.125-16.103-19.209-36.026-25.062-49.509c-4.533-10.441-8.885-22.471-11.3-31.182
		c-1.434-5.173-1.584-5.509-2.38-5.602c-1.711-0.2-29.185,9.698-46.837,16.87c-23.917,9.717-42.487,19.028-53.943,27.068
		c-3.728,2.618-8.292,7.06-9.907,9.516c-0.012-0.04-0.029-0.076-0.038-0.118c0,0-0.202,0.325-0.399,0.908
		c-0.021,0.044-0.05,0.095-0.067,0.137c-0.292,0.773-0.431,1.678-0.435,2.606l0.133,0.127c0.049,0.862,0.237,1.843,0.67,2.924
		c0.992,2.479,3.969,5.458,7.251,8.614c0,0,34.383,33.539,38.597,38.402c19.051,21.986,27.327,43.633,28.09,73.517
		c0.49,19.176-3.209,36.035-12.191,55.628c-16.101,35.12-50.024,73.846-102.417,116.906l0.65-0.217
		c-0.325,0.263-0.665,0.54-0.979,0.787c-6.252,4.984-15.55,14.21-20.301,20.126c-7.071,8.8-12.599,18.185-14.976,25.4
		c-4.276,12.983-2.192,26.134,6.055,38.273c10.536,15.502,31.51,31.256,55.903,41.978c12.442,5.472,33.44,12.523,49.184,16.498
		c26.238,6.627,76.949,13.823,104.876,14.895c5.665,0.217,13.205,0.197,13.551-0.03c0.613-0.406,4.96-8.641,10.004-18.945
		c17.166-35.063,29.583-67.929,36.263-96c4.051-17,7.204-39.668,9.249-66.546c0.569-7.523,0.778-32.631,0.338-41.165
		c-0.719-13.892-1.941-25.207-3.902-36.317c-0.141-0.798-0.235-1.548-0.281-2.122c62.154-18.47,130.885-35.185,176.431-42.161
		L489.447,206.978z M319.507,114.389c0.714,0,14.807,3.843,22.098,6.022c18.151,5.43,39.095,13.08,52.678,19.249l5.654,2.559
		l-3.986,0.922c-33.242,7.637-61.731,16.45-89.173,27.587c-2.279,0.927-4.263,1.685-4.403,1.685s0.589-1.763,1.604-3.917
		c8.249-17.527,13.576-35.917,14.959-51.532C319.062,115.542,319.316,114.389,319.507,114.389z M311.926,123.681
		c-2.812,11.522-10.262,28.625-19.457,44.7c-1.623,2.833-3.07,5.194-3.237,5.246c-0.171,0.051-2.265-1.051-4.65-2.445
		c-8.99-5.258-19.173-10.234-30.354-14.845c-3.12-1.286-5.773-2.432-5.91-2.559c-0.511-0.479,24.34-16.929,37.51-24.834
		c10.54-6.323,27.501-15.774,27.798-15.478C313.875,113.711,312.831,119.979,311.926,123.681z M204.39,347.51
		c-14.626,5.548-30.556,11.103-48.846,17.015c-6.968,2.253-12.867,4.157-13.097,4.24c-0.695,0.259-0.482-0.167,1.556-3.351
		c9.086-14.188,22.853-41.94,30.548-61.569c1.336-3.404,2.605-6.816,2.834-7.576c0.076-0.258,0.154-0.471,0.242-0.661
		c1.062-0.444,2.137-0.889,3.208-1.333c0.236,0.459,0.652,1.463,1.051,2.545c2.464,6.695,8.005,16.643,12.822,23.007
		c5.255,6.945,12.107,14.348,17.841,19.264c1.839,1.581,3.558,3.056,3.803,3.271C216.843,342.799,217.011,342.723,204.39,347.51z
		 M214.945,354.277c0.053,0.053-0.551,1.676-1.343,3.591c-6.745,16.308-15.579,34.094-26.842,54.075
		c-2.867,5.084-5.284,9.237-5.376,9.226c-0.091-0.008-2.422-1.383-5.181-3.074c-16.409-10.042-30.925-22.409-40.457-34.436
		l-1.36-1.698l7.075-1.941c25.235-6.915,46.636-14.31,67.914-23.474C212.388,355.246,214.892,354.224,214.945,354.277z
		 M179.818,150.655c-0.31-2.155-0.5-3.988-0.42-4.064c0.224-0.224,10.952,2.29,16.806,3.933c8.792,2.47,27.509,8.733,27.521,9.212
		c0,0.093-2.063,1.892-4.581,3.999c-10.118,8.465-19.877,17.316-31.571,28.607c-3.465,3.348-6.412,6.072-6.556,6.072
		c-0.145,0-0.211-0.488-0.129-1.085C182.647,184.331,182.271,167.643,179.818,150.655z M182.7,133.266
		c0-0.479,9.567-10.044,13.681-13.68c7.855-6.944,28.991-23.385,29.741-23.134c0.44,0.146,1.273,2.747,2.751,8.596
		c2.829,11.198,4.147,23.772,3.708,35.407c-0.122,3.237-0.327,6.245-0.454,6.686l-0.244,0.809l-3.997-1.295
		c-8.243-2.633-21.712-6.6-33.256-9.793C188.075,135.046,182.7,133.425,182.7,133.266z M206.094,186.076
		c7.292-6.167,22.642-18.447,22.828-18.261c0.209,0.209-2.397,9.782-4.048,14.895c-3.166,9.805-8.519,22.13-13.664,31.407
		c-1.208,2.179-3.063,5.369-4.113,7.092l-1.909,3.124l-4.339-4.193c-5.041-4.888-9.149-7.924-14.393-10.62
		c-2.061-1.061-3.737-2.042-3.739-2.187C182.706,206.697,195.908,194.692,206.094,186.076z M202.42,241.575
		c0.05-0.031,0.095-0.044,0.145-0.049c0.354-0.044,0.855,0.613,2.949,3.74c4.409,6.591,7.787,15.381,8.661,22.536l0.176,1.539
		l-10.57,4.097c-18.977,7.363-36.446,14.624-48.245,20.027c-3.302,1.512-9.13,4.293-12.936,6.201
		c-3.807,1.899-6.915,3.396-6.915,3.316c0-0.079,2.392-1.881,5.312-4.001c23.158-16.81,43.125-35.215,58.169-53.618
		C200.775,243.395,202.236,241.689,202.42,241.575z M207.322,321.574c-6.013-6.977-10.768-13.899-14.233-20.723
		c-1.467-2.888-3.653-8.116-4.193-9.891c10.964-4.457,22.374-8.918,34.327-13.413c2.58-0.969,5.236-1.945,7.93-2.926
		c0.279,3.169-0.044,17.627-0.551,21.875c-1.356,11.312-3.568,21.775-7.109,33.672c-0.844,2.842-1.638,5.297-1.763,5.44
		C221.422,335.967,210.838,325.655,207.322,321.574z M219.71,267.058c-0.197,0.068-0.321-1.057-0.323-2.835
		c-0.019-9.362-2.388-19.371-6.573-27.845c-1.769-3.58-2.065-4.446-1.7-4.776c1.457-1.32,23.998-14.172,38.208-21.791
		c9.76-5.232,24.749-12.847,24.931-12.66c0.183,0.186-10.472,15.111-16.806,23.54c-7.576,10.084-21.07,26.941-30.354,37.917
		C223.213,263.189,219.891,266.997,219.71,267.058z M267.467,188.554c-14.535,7.272-26.984,14.14-39.984,22.083
		c-3.708,2.265-6.815,4.128-6.916,4.128c-0.323,0-0.196-0.281,1.879-4.081c6.925-12.68,12.506-27.817,15.721-42.611
		c0.287-1.32,0.631-2.126,0.874-2.073c1.075,0.241,11.12,4.915,18.7,8.711c6.931,3.471,17.433,9.06,17.957,9.552
		C275.758,184.325,272.064,186.257,267.467,188.554z M277.912,105.257c10.765,2.062,26.343,5.323,27.277,5.717
		c0.456,0.188-1.155,1.065-6.33,3.398c-20.457,9.226-35.609,17.458-50.671,27.54c-3.969,2.656-7.267,4.824-7.335,4.824
		c-0.066,0-0.127-2.217-0.129-4.922c-0.009-14.689-2.942-29.517-8.321-42.044c-0.578-1.347-1.015-2.504-0.956-2.557
		C231.687,96.989,263.47,102.493,277.912,105.257z M225.575,60.049c0.327,0.025,0.673,0.688,1.636,2.8
		c2.639,5.781,10.854,21.449,12.839,24.479c0.166,0.253,0.355,0.444,0.369,0.564c-16.954-2.664-31.012-4.924-44.218-7.117
		c0.108-0.148,0.817-0.61,1.708-1.106c8.114-4.512,16.3-10.192,23.588-16.336c1.742-1.468,3.417-2.867,3.724-3.123
		C225.345,60.106,225.466,60.04,225.575,60.049z M168.653,21.938c10.677-4.966,39.749-17.071,41.866-17.451
		c0.068-0.014,0.103-0.014,0.114,0c0.053,0.064,0.367,2.225,0.68,4.791c1.32,10.813,3.741,21.302,7.529,32.591
		c2.852,8.506,2.894,8.006-0.503,7.058c-7.894-2.204-43.266-8.274-68.854-11.819c-4.123-0.57-7.556-1.077-7.611-1.132
		C141.551,35.65,160.328,25.812,168.653,21.938z M138.961,40.136c16.428,5.591,57.606,13.458,80.365,15.349
		c2.569,0.212,4.727,0.44,4.792,0.501c0.066,0.059-2.114,1.225-4.839,2.589c-10.981,5.5-23.065,12.204-31.426,17.437
		c-1.934,1.212-3.729,2.229-4.552,2.597c-2.512-0.427-5.025-0.856-7.542-1.29l-7.381-7.168
		c-13.642-13.204-24.292-23.419-28.413-27.279l-3.999-3.756L138.961,40.136z M114.129,63.887l0.013-0.876
		c0.053-5.217,6.63-12.913,17.792-20.788l0.988-0.68l10.88,13.583c5.988,7.47,11.992,14.885,13.323,16.481
		c1.128,1.351,2.033,2.519,2.246,2.876c-7.571-1.316-15.975-2.817-22.228-4.164c-0.585-0.131-1.147-0.256-1.679-0.38
		c-2.172-0.496-4.011-0.927-5.639-1.32c-4.246-1.055-9.127-2.386-13.291-3.821C115.767,64.499,114.957,64.197,114.129,63.887z
		 M166.575,124.297c-0.072,0.072-0.938-1.271-1.909-2.979c-9.04-15.897-23.354-32.061-39.909-45.073
		c-2.063-1.621-3.739-2.998-3.739-3.059c0.049-0.043,1.339,0.355,2.914,0.889c2.903,0.986,6.731,2.139,11.186,3.383
		c3.124,0.874,6.555,1.79,10.2,2.721c4.653,1.189,8.5,2.211,8.549,2.267c0.515,0.579,8.329,25.516,10.992,35.083
		C165.877,121.181,166.647,124.225,166.575,124.297z M174.379,125.138c-2.81-10.77-8.619-26.675-13.827-37.867
		c-0.836-1.801-1.521-3.389-1.521-3.53c0-0.019,0.024-0.028,0.082-0.032c0.399-0.028,2.114,0.26,4.161,0.712
		c13.181,2.915,36.719,7.458,51.857,10.004c2.519,0.426,4.597,0.881,4.597,1.02s-0.942,0.735-2.089,1.313
		c-2.539,1.276-12.816,7.428-16.255,9.729c-8.583,5.745-16.3,11.895-21.92,17.485c-2.259,2.246-4.149,4.079-4.21,4.079
		C175.192,128.053,174.797,126.744,174.379,125.138z M158.077,259.076c5.108-7.816,7.677-12.239,10.361-17.891
		c2.384-5.023,4.761-10.984,6.458-16.173c0.707-2.154,1.444-3.917,1.638-3.917c0.192,0,2,0.908,4.014,2.023
		c4.934,2.734,9.364,5.739,13.274,9.001c0.152,0.125-1.874,1.78-4.499,3.674c-7.333,5.291-18.498,13.718-24.965,18.863
		C157.536,260.083,157.308,260.251,158.077,259.076z M131.558,293.396c5.069-5.521,8.95-10.107,13.355-15.829
		c2.903-3.77,3.456-4.302,7.708-7.371c11.45-8.263,37.627-25.996,37.932-25.692c0.306,0.306-8.545,10.316-14.505,16.402
		c-14.921,15.225-29.711,27.163-48.034,38.79c-2.293,1.451-4.389,2.77-4.662,2.929C122.847,302.918,123.512,302.166,131.558,293.396
		z M119.557,325.993c0.532-2.558,0.773-3.728,1.216-4.442c13.867-6.922,28.45-13.708,43.967-20.441
		c-0.897,2.234-4.132,8.975-7.332,15.222c-7.487,14.598-15.74,28.972-26.698,46.507c-1.891,3.032-3.632,5.798-3.868,6.14
		c-0.391,0.563-0.551,0.38-1.75-2.006c-2.624-5.221-4.822-11.802-5.958-17.927C118.01,342.988,118.202,332.498,119.557,325.993z
		 M37.474,398.474c1.763-11.349,10.42-26.251,22.52-38.759c6.957-7.189,12.721-11.848,21.234-17.022
		c3.749-2.15,8.376-4.72,14.275-7.945c3.684-2.018,7.428-4.009,11.208-5.995c0.095,0.28-0.038,1.144-0.414,3.313
		c-0.344,1.979-0.733,5.727-0.875,8.303c-0.622,11.314,1.214,19.666,6.833,31.088c1.562,3.177,2.783,5.821,2.718,5.874
		c-0.562,0.472-51.731,15.445-67.819,19.85c-4.769,1.307-8.935,2.454-9.276,2.561C37.32,399.906,37.271,399.785,37.474,398.474z
		 M68.77,453.47l-3.465-2.915c-4.065-3.412-11.18-10.661-14.408-14.682c-6.642-8.283-11.144-16.995-12.92-25.001
		c-0.819-3.693-0.844-5.574-0.064-5.806c1.126-0.342,21.791-5.205,41.17-9.7c10.764-2.496,23.21-5.419,27.668-6.494
		c4.457-1.071,8.148-1.915,8.192-1.877c0.19,0.183-9.666,14.287-23.426,33.543c-4.784,6.695-10.401,14.587-12.481,17.539
		c-2.081,2.948-5.227,7.614-7.01,10.373L68.77,453.47z M74.079,457.516l-1.425-1.018l2.234-3.223
		c7.25-10.502,16.359-22.053,36.297-46.043l13.666-16.449l2.492,2.785c11.146,12.418,22.482,21.681,36.313,29.675
		c2.443,1.414,4.303,2.638,4.145,2.736c-0.577,0.357-47.827,17.159-69.681,24.773c-12.326,4.293-22.448,7.793-22.505,7.785
		C75.561,458.526,74.864,458.07,74.079,457.516z M140.183,488.084l-1.149-0.308c-2.775-0.753-22.339-7.66-27.507-9.712
		c-6.406-2.546-13.082-5.616-18.002-8.275c-6.152-3.321-13.952-8.253-13.34-8.451c0.174-0.053,10.76-2.952,23.506-6.429
		c33.91-9.24,52.668-14.552,64.969-18.39c2.299-0.715,4.216-1.258,4.257-1.216c0.101,0.103-5.388,8.891-15.039,24.089
		c-4.077,6.422-8.697,13.732-10.282,16.24c-1.583,2.515-3.902,6.33-5.148,8.503L140.183,488.084z M146.367,489.509
		c0-0.167,1.856-2.516,4.111-5.213c11.135-13.314,22.192-28.189,31.425-42.256c2.525-3.845,4.639-7.056,4.694-7.124
		s3.509,1.159,7.69,2.721c10.078,3.769,17.985,6.224,28.689,8.906c13.143,3.29,32.141,6.581,43.389,7.526
		c1.726,0.145,2.606,0.343,2.333,0.518c-0.524,0.33-11.916,4.138-20.288,6.767c-13.292,4.18-53.914,16.179-87.037,25.708
		c-6.144,1.771-11.397,3.264-11.672,3.321C148.96,490.538,146.367,489.858,146.367,489.509z M252.521,504.486
		c-1.026,2.466-1.408,3.063-1.941,3.04c-1.3-0.054-19.503-2.599-30.519-4.271c-19.285-2.93-51.587-8.572-59.741-10.427l-1.895-0.425
		l11.561-2.607c24.777-5.577,36.675-8.571,48.747-12.269c15.225-4.662,30.3-10.472,45.527-17.55c2.408-1.117,4.46-1.977,4.97-2.09
		c0.072-0.016,0.106-0.016,0.113,0C269.663,458.693,257.109,493.46,252.521,504.486z M284.27,410.181
		c-2.729,9.662-5.016,17.22-9.264,30.613c-1.869,5.916-3.48,10.741-3.572,10.719c-0.099-0.026-0.547-0.114-1.007-0.197
		c-22.987-4.157-43.577-9.963-62.864-17.706c-5.396-2.174-13.188-5.624-13.601-6.026c-0.139-0.137,4.521-2.333,10.346-4.871
		c35.226-15.373,71.723-32.874,84.201-40.382c1.504-0.897,2.613-1.426,2.864-1.372c0.038,0.008,0.054,0.034,0.054,0.064
		C291.428,382.74,287.521,398.66,284.27,410.181z M290.052,377.299c-10.273,5.699-44.102,19.773-78.651,32.737
		c-5.044,1.893-9.966,3.746-10.93,4.126c-0.961,0.381-1.748,0.643-1.748,0.566s1.425-2.819,3.172-6.091
		c9.701-18.132,19.382-40.169,24.352-55.462c0.505-1.563,0.954-2.873,1.003-2.93c0.047-0.062,1.945,0.957,4.21,2.265
		c16.526,9.56,39.586,18.526,59.252,23.025l1.778,0.402L290.052,377.299z M295.341,299.65c2.873,1.254,3.203,0.768-3.412,5.267
		c-14.104,9.574-31.643,18.99-53.167,28.558c-3.752,1.664-6.932,3.024-7.06,3.024s0.291-1.9,0.923-4.24
		c5.215-19.295,8.158-38.764,8.239-54.38c0.021-3.822,0.032-5.761,0.127-6.771c0.697-0.243,1.389-0.486,2.092-0.732
		c1.064,0.527,2.758,1.538,5.407,3.195C264.458,283.57,286.078,295.607,295.341,299.65z M251.275,267.552
		c13.544-4.605,28.027-9.252,43.024-13.826c1.103,4.501,3.101,24.551,3.667,37.846c0.137,3.199,0.11,5.247-0.08,5.247
		c-0.615,0-13.108-7.341-21.969-12.903C268.272,279.117,253.874,269.55,251.275,267.552z M298.434,309.043
		c-0.015,17.258-1.857,40.892-4.528,58.134c-0.472,3.028-0.878,5.524-0.908,5.555c-0.034,0.03-2.216-0.607-4.845-1.425
		c-11.611-3.605-24.203-8.993-35.566-15.217c-7.523-4.123-18.405-10.799-18.101-11.106c0.083-0.084,3.289-1.782,7.124-3.773
		c15.193-7.884,29.704-16.384,42.322-24.818c4.73-3.161,11.813-8.283,13.386-9.666l1.117-0.969V309.043z M330.206,231.084
		c-35.438,9.832-62.814,18.583-94.76,30.323c-3.545,1.304-6.606,2.383-6.816,2.383c-0.439,0-0.878,0.402,7.092-6.933
		c20.432-18.802,38.482-39.52,51.967-59.674l2.721-4.079l3.773,2.443c8.651,5.62,18.902,13.177,26.715,19.688
		c4.377,3.647,12.888,11.268,14.636,13.114l0.935,0.986L330.206,231.084z M344.257,227.103c-0.076,0-1.063-1.396-2.203-3.093
		c-8.687-12.979-18.995-24.38-31.294-34.614c-2.295-1.909-4.887-4.004-5.745-4.646c-0.866-0.643-1.565-1.235-1.573-1.326
		c-0.007-0.213,13.128-5.846,23.155-9.925c17.451-7.103,41.306-15.606,59.152-21.08c9.415-2.886,19.415-5.76,19.56-5.618
		c0.16,0.162-4.978,8.192-8.177,12.774c-4.666,6.685-11.429,15.46-26.84,34.84c-8.097,10.179-17.228,21.697-20.306,25.596
		C346.909,223.907,344.333,227.103,344.257,227.103z M473.664,204.548c-32.582,2.451-74.233,9.381-114.334,19.025
		c-2.725,0.653-5.08,1.197-5.232,1.197c-0.147,0,2.835-2.992,6.627-6.638c23.55-22.64,34.287-36.936,46.933-62.475
		c1.881-3.805,3.48-7.086,3.541-7.286c0.008-0.013,0.016-0.013,0.038-0.015c0.281-0.059,2.15,0.847,4.399,2.135
		c18.801,10.77,37.225,24.601,51.713,38.824c4.119,4.044,14.203,14.532,14.051,14.619
		C481.361,203.957,477.881,204.231,473.664,204.548z"></path></g></svg>