<?xml version="1.0" encoding="iso-8859-1"?>
<!DOCTYPE svg PUBLIC "-//W3C//DTD SVG 1.1//EN" "http://www.w3.org/Graphics/SVG/1.1/DTD/svg11.dtd">
<svg  version="1.1" xmlns="http://www.w3.org/2000/svg" xmlns:xlink="http://www.w3.org/1999/xlink" x="0px" y="0px" width="512px"
	 height="512px" viewBox="0 0 512 512" enable-background="new 0 0 512 512" xml:space="preserve"><g id="3e91140ac1bfb9903b91c1b0ca0926b2"><path display="inline" d="M77.682,168.548L33.912,183.22v-69.462h28.804v34.549L77.682,168.548z M183.594,113.758h-60.98
		l0.235,38.901L183.594,113.758z M478.739,202.864v-89.106H300.5l7.698,17.879h-31.971v13.515l-16.05-13.515h-40.673l-42.675,43.39
		l28.324,37.277l92.195-34.971l84.613,68.938l46.733,11.434l7.203,18.394l-83.055,7.452l-4.25-11.586l-11.22,4.383l-46.139-38.986
		l-84.847,55.097l13.204,105.784H511.5V202.864H478.739z M154.854,379.213L133.27,289.78l-15.898-4.338l-43.093-64.894
		l-23.292,0.004v18.915l-10.149-7.958v27.688l-23.866-10.162v-46.172H0.5v195.378h168.088l-2.539-14.38L154.854,379.213z"></path></g></svg>