<?xml version="1.0" encoding="iso-8859-1"?>
<!DOCTYPE svg PUBLIC "-//W3C//DTD SVG 1.1//EN" "http://www.w3.org/Graphics/SVG/1.1/DTD/svg11.dtd">
<svg  version="1.1" xmlns="http://www.w3.org/2000/svg" xmlns:xlink="http://www.w3.org/1999/xlink" x="0px" y="0px" width="512px"
	 height="512px" viewBox="0 0 512 512" enable-background="new 0 0 512 512" xml:space="preserve"><g id="3e91140ac1bfb9903b91c1b0ca094e81"><path display="inline" d="M97.546,148.92c9.896,0,17.917,8.018,17.917,17.917c0,9.896-8.021,17.917-17.917,17.917
		c-9.897,0-17.919-8.021-17.919-17.917C79.627,156.938,87.648,148.92,97.546,148.92z M189.93,67.97
		c0-37.263-30.208-67.47-67.468-67.47c-37.265,0-67.471,30.208-67.471,67.47c0,37.262,30.206,67.468,67.471,67.468
		C159.722,135.438,189.93,105.232,189.93,67.97z M115.463,314.053c0,9.897,8.02,17.915,17.917,17.915
		c9.896,0,17.917-8.018,17.917-17.915c0-9.896-8.021-17.919-17.917-17.919C123.482,296.134,115.463,304.156,115.463,314.053z
		 M269.438,83.647c9.897,0,17.915-8.021,17.915-17.917c0-9.897-8.018-17.917-17.915-17.917s-17.917,8.02-17.917,17.917
		C251.521,75.626,259.541,83.647,269.438,83.647z M224.924,67.97c9.899,0,17.919-8.022,17.919-17.917
		c0-9.897-8.02-17.917-17.919-17.917c-9.896,0-17.915,8.02-17.915,17.917C207.009,59.948,215.028,67.97,224.924,67.97z
		 M345.59,73.289c-61.542,0-111.426,49.884-111.426,111.422c0,61.538,49.884,111.423,111.426,111.423
		c61.538,0,111.419-49.886,111.419-111.423C457.009,123.172,407.128,73.289,345.59,73.289z M318.709,352.728
		c-9.897,0-17.915,8.018-17.915,17.915s8.018,17.919,17.915,17.919s17.919-8.021,17.919-17.919S328.606,352.728,318.709,352.728z
		 M350.064,317.691c-9.897,0-17.915,8.022-17.915,17.92c0,9.896,8.018,17.914,17.915,17.914s17.919-8.018,17.919-17.914
		C367.983,325.714,359.962,317.691,350.064,317.691z M115.463,217.746c0-9.895-8.021-17.917-17.917-17.917
		c-9.897,0-17.919,8.022-17.919,17.917c0,9.897,8.021,17.917,17.919,17.917C107.441,235.663,115.463,227.643,115.463,217.746z
		 M194.691,326.171c-51.182,0-92.667,41.485-92.667,92.66c0,51.184,41.485,92.669,92.667,92.669
		c51.179,0,92.662-41.485,92.662-92.669C287.354,367.656,245.87,326.171,194.691,326.171z M128.901,267.021
		c0-9.897-8.021-17.919-17.919-17.919c-9.897,0-17.915,8.022-17.915,17.919c0,9.896,8.018,17.914,17.915,17.914
		C120.881,284.935,128.901,276.917,128.901,267.021z"></path></g></svg>