<?xml version="1.0" encoding="iso-8859-1"?>
<!DOCTYPE svg PUBLIC "-//W3C//DTD SVG 1.1//EN" "http://www.w3.org/Graphics/SVG/1.1/DTD/svg11.dtd">
<svg  version="1.1" xmlns="http://www.w3.org/2000/svg" xmlns:xlink="http://www.w3.org/1999/xlink" x="0px" y="0px" width="512px"
	 height="512px" viewBox="0 0 512 512" enable-background="new 0 0 512 512" xml:space="preserve"><g id="3e91140ac1bfb9903b91c1b0ca08f5cb"><path display="inline" d="M252.517,286.715h47.268v11.22h-48.077c-0.487,0-1.133,0.107-1.62,0.107
		c-5.988,0.541-7.769,1.514-8.577,4.966c-0.164,0.54-0.164,0.973-0.164,1.405v7.66c0,0.541,0,0.974,0.164,1.514
		c0.809,4.533,4.046,6.579,10.843,6.579h20.396c5.019,0,10.196,0.865,14.409,2.486c7.93,3.02,11.98,7.552,11.98,12.409v12.301
		c0,5.938-3.563,10.472-10.846,13.814c-4.375,2.051-9.876,3.235-15.544,3.235h-48.399v-11.22h46.461c0.648,0,1.131-0.107,1.78-0.107
		c3.235-0.217,5.664-1.081,7.119-2.379c1.622-1.289,2.429-2.803,2.429-3.992v-9.818c0-1.077-0.324-2.05-1.293-3.023
		c-1.618-1.941-3.889-2.911-9.229-3.343c-0.486-0.108-1.131-0.108-1.779-0.108h-17.485c-1.618,0-3.235-0.108-4.857-0.217
		c-14.405-1.509-22.984-7.984-22.984-15.54v-9.818c0-8.633,4.371-13.599,14.407-16.729
		C242.156,287.147,245.718,286.715,252.517,286.715z M383.567,361.007l16.584,14.967h-19.55l-13.415-12.11l-13.507,0.857h-18.007
		c-3.081,0-6.325-0.433-9.893-1.406c-10.704-2.919-15.898-8.541-15.898-17.844v-40.01c0-10.167,7.141-16.334,21.25-18.28
		c1.46-0.217,3.082-0.324,4.541-0.324h31.959c1.621,0,3.081,0.107,4.703,0.324c14.109,1.946,21.246,8.113,21.246,18.28v40.01
		C393.581,353.717,390.554,358.133,383.567,361.007z M377.849,306.435c0-0.433,0-0.974-0.162-1.519
		c-0.973-4.324-5.352-6.812-11.839-6.812h-25.467c-7.465,0-12.326,3.244-12.326,8.33v38.063c0,0.541,0.162,1.081,0.32,1.73
		c0.973,4.653,5.356,7.248,12.006,7.248h15.291l-14.048-12.684h19.55l12.255,11.062c2.254-1.206,3.742-3.044,4.258-5.41
		c0.162-0.536,0.162-1.081,0.162-1.622V306.435z M109.281,286.822c-12.788-3.992-21.369-0.54-25.252,8.093l-25.577,57.196
		l-24.766-57.196c-3.724-8.633-12.465-12.085-25.252-8.093c-5.342,1.618-7.933,4.749-7.933,11.22v66.37h16.833v-66.478
		l26.064,57.953c3.075,7.016,7.284,9.498,15.538,9.498c8.257,0,12.303-2.482,15.38-9.498l26.062-57.953v66.478h16.836v-66.37
		C117.213,291.571,114.623,288.44,109.281,286.822z M194.508,310.127v43.606c-0.295,0-31.902,0.075-36.607,0
		c-9.222-0.142-10.018-4.815-9.86-6.804v-36.628h-16.83c0.368,0.366-0.004,37.011,0.008,37.784
		c0.131,8.358,10.733,15.62,27.38,15.777h35.782v4.412c0.002,1.813,1.281,7.199-9.554,8.347c-0.133,0.008-53.158,0-53.25,0v11.328
		h53.157c8.431-0.25,26.723-3.436,26.629-18.103c-0.002-0.254,0.094-59.721,0.015-59.721H194.508z M501.146,353.733l4.066,6.222
		h-2.777l-3.705-6.122h-2.217v6.122h-2.379v-14.164h5.522c3.506,0,5.327,1.193,5.327,4.071
		C504.983,352.444,503.328,353.501,501.146,353.733z M499.058,351.846c1.788,0,3.344-0.167,3.344-2.146
		c0-1.654-1.722-1.921-3.145-1.921h-2.744v4.067H499.058z M511.5,352.873c0,7.41-5.855,12.404-12.409,12.404
		c-6.546,0-12.404-4.994-12.404-12.404c0-7.411,5.858-12.405,12.404-12.405C505.645,340.468,511.5,345.462,511.5,352.873z
		 M508.722,352.873c0-5.627-4.3-9.827-9.631-9.827c-5.39,0-9.627,4.2-9.627,9.827c0,5.622,4.237,9.826,9.627,9.826
		C504.422,362.699,508.722,358.495,508.722,352.873z M362.063,155.983c-2.158-0.04-3.685,0.234-5.298,0.588c0,0.098,0,0.195,0,0.293
		c0.1,0,0.195,0,0.295,0c1.031,2.115,2.849,3.477,4.121,5.299c0.978,2.061,1.959,4.119,2.94,6.177
		c0.1-0.098,0.199-0.195,0.295-0.293c1.825-1.283,2.657-3.337,2.649-6.473c-0.732-0.77-0.841-1.732-1.473-2.649
		C364.754,157.702,363.124,157.011,362.063,155.983z M504.48,306.938c1.389,1.019,2.32,2.599,4.121,3.239c0-0.1,0-0.199,0-0.295
		c-0.948-1.202-1.189-2.861-2.059-4.121c-1.272-1.272-2.554-2.549-3.826-3.826c-3.742-4.965-8.487-9.323-13.535-12.945
		c-4.021-2.891-13.033-6.791-14.713-11.474c-0.096-0.1-0.196-0.199-0.296-0.299c2.853-0.32,6.196-1.352,8.829-2.059
		c4.424-1.186,8.379-0.878,12.945-2.059c2.063-0.591,4.121-1.181,6.18-1.764c0-0.395,0-0.785,0-1.181
		c-2.309-2.37-3.955-5.506-6.471-7.651c-6.592-5.608-13.781-11.216-21.188-15.888c-4.104-2.594-9.183-4.277-13.536-6.475
		c-1.464-0.738-4.034-1.123-5.003-2.354c-2.283-2.916-3.53-6.611-5.294-10.006c-3.692-7.113-7.323-14.881-10.596-22.365
		c-2.229-5.102-3.688-10.134-6.471-14.713c-13.361-21.967-27.746-35.227-50.023-48.26c-4.744-2.771-10.45-3.865-16.479-5.295
		c-3.235-0.195-6.476-0.394-9.711-0.589c-1.975-0.825-4.029-3.241-5.884-4.414c-7.382-4.662-26.315-14.805-31.779-1.47
		c-3.452,8.415,5.156,16.627,8.237,20.893c2.163,2.991,4.928,6.346,6.476,9.709c1.015,2.211,1.188,4.43,2.063,6.769
		c2.138,5.764,3.996,12.034,6.762,17.362c1.401,2.694,2.944,5.535,4.712,7.944c1.085,1.479,2.939,2.13,3.23,4.414
		c-1.813,2.543-1.917,6.489-2.936,9.71c-4.6,14.502-2.865,32.524,3.826,43.258c2.05,3.293,6.886,10.362,13.531,7.649
		c5.813-2.368,4.517-9.708,6.18-16.183c0.374-1.471,0.146-2.55,0.882-3.531c0,0.096,0,0.195,0,0.293
		c1.768,3.531,3.534,7.062,5.298,10.592c3.922,6.313,10.879,12.915,16.775,17.364c3.053,2.308,5.46,6.3,9.415,7.651
		c0-0.1,0-0.199,0-0.299c-0.1,0-0.2,0-0.295,0c-0.77-1.189-1.968-1.688-2.94-2.645c-2.304-2.259-4.865-5.065-6.771-7.652
		c-5.364-7.279-10.101-15.247-14.417-23.539c-2.063-3.961-3.855-8.33-5.594-12.359c-0.669-1.555-0.661-3.904-2.059-4.709
		c-1.904,2.952-4.707,5.342-6.18,8.828c-2.354,5.574-2.657,12.371-3.53,19.42c-0.516,0.186-0.287,0.059-0.591,0.293
		c-4.1-0.986-5.539-5.206-7.061-8.826c-3.851-9.152-4.566-23.891-1.177-34.428c0.877-2.725,4.845-11.312,3.235-13.83
		c-0.766-2.514-3.29-3.965-4.703-5.886c-1.756-2.374-3.502-5.497-4.716-8.24c-3.148-7.136-4.62-15.147-7.939-22.362
		c-1.588-3.447-4.271-6.939-6.475-10.006c-2.44-3.396-5.173-5.896-7.062-10.006c-0.673-1.459-1.588-3.794-0.59-5.295
		c0.315-1.013,0.765-1.435,1.768-1.766c1.709-1.316,6.458,0.438,8.237,1.177c4.716,1.959,8.658,3.826,12.655,6.473
		c1.917,1.272,3.858,3.734,6.175,4.415c0.886,0,1.768,0,2.649,0c4.146,0.951,8.787,0.297,12.654,1.472
		c6.841,2.079,12.971,5.313,18.538,8.829c16.959,10.707,30.827,25.953,40.313,44.138c1.526,2.928,2.188,5.722,3.53,8.829
		c2.711,6.263,6.13,12.706,8.828,18.832c2.691,6.108,5.315,12.275,9.12,17.361c2,2.672,9.73,4.106,13.245,5.592
		c2.462,1.039,6.495,2.125,8.824,3.527c4.458,2.689,8.771,5.887,12.949,8.831c2.088,1.473,8.509,4.699,8.825,7.353
		c-10.347-0.274-18.252,0.687-25.01,3.535c-1.921,0.807-4.982,0.831-5.298,3.234c1.056,1.106,1.223,2.762,2.063,4.121
		c1.609,2.612,4.333,6.109,6.766,7.947c2.657,2.005,5.394,4.15,8.238,5.885c5.065,3.09,10.721,4.853,15.595,7.946
		C498.825,302.584,501.678,304.879,504.48,306.938z M420.994,344.776v-58.062H404.16v58.169c0,11.544,8.579,18.02,25.899,19.316
		c1.617,0.104,3.235,0.212,4.857,0.212h43.868v-11.22h-44.193C424.72,353.192,420.994,350.706,420.994,344.776z"></path></g></svg>