<?xml version="1.0" encoding="iso-8859-1"?>
<!DOCTYPE svg PUBLIC "-//W3C//DTD SVG 1.1//EN" "http://www.w3.org/Graphics/SVG/1.1/DTD/svg11.dtd">
<svg  version="1.1" xmlns="http://www.w3.org/2000/svg" xmlns:xlink="http://www.w3.org/1999/xlink" x="0px" y="0px" width="512px"
	 height="512px" viewBox="0 0 512 512" enable-background="new 0 0 512 512" xml:space="preserve"><g id="3e91140ac1bfb9903b91c1b0ca094903"><path display="inline" d="M84.047,239.464c-18.16,1.861-29.043,23.753-17.973,42.259c3.468,5.797,8.972,9.148,17.973,10.688
		c2.267,0,4.533,0,6.799,0c8.912-1.764,14.189-4.225,17.973-10.201C120.437,263.861,108.302,236.979,84.047,239.464z
		 M92.304,277.838c-13.754,8.609-18.915-21.457-6.799-24.287C97.575,250.731,99.396,273.396,92.304,277.838z M221.027,276.379
		c1.917,3.746,3.834,7.498,3.4,13.604c-3.541,0.988-7.423,1.643-11.172,2.428c-2.591,0-5.182,0-7.772,0
		c-9.737-1.463-16.081-5.785-19.431-12.633c-11.779-24.07,10.775-51.39,37.888-36.914c0.027,5.208-0.867,9.494-3.399,12.143
		c-16.372-9.066-27.619,11.414-17.487,20.886C206.976,279.561,215.594,278.654,221.027,276.379z M170.025,240.921
		c0,16.029,0,32.061,0,48.086c-5.352,1.451-11.058,2.545-17.002,3.402c-1.782,0-3.562,0-5.344,0
		c-27.286,1.256-22.196-26.557-22.344-51.976c4.728-0.551,12.53-1.193,16.516,0.487c2.611,13.58-7.718,40.102,11.659,36.917
		c0-12.467,0-24.936,0-37.403C158.265,240.044,166.077,239.077,170.025,240.921z M48.587,274.438
		c2.801,3.676,3.581,9.373,4.857,14.57c-4.843,1.635-10.234,2.721-16.029,3.402c-1.942,0-3.886,0-5.828,0
		C12.506,290.439,2.763,279.137,0.5,260.35c0-2.752,0-5.503,0-8.256c2.312-18.414,11.559-29.892,29.629-32.545
		c2.915,0,5.828,0,8.743,0c4.81,0.857,9.444,1.89,13.601,3.4c-0.395,5.595-2.329,9.652-3.886,14.087
		c-5.146-0.771-7.974-2.52-13.114-2.429c-15.832,0.279-20.656,19.988-14.574,33.519C25.246,277.781,38.397,278.99,48.587,274.438z
		 M284.659,240.435c0,16.841,0,33.679,0,50.521c-4.882,1.238-11.636,1.238-16.518,0c0-6.154,0-12.311,0-18.465
		c-4.69,0-9.39,0-14.085,0c-1.131,5.191-0.162,12.469-0.486,18.465c-4.978,1.139-11.59,1.285-16.514,0
		c0.324-16.68-0.649-34.651,0.486-50.521c4.612-0.894,11.353-0.572,16.027,0c0,5.831,0,11.659,0,17.487c4.697,0,9.39,0,14.089,0
		c1.131-4.86,0.162-11.817,0.482-17.487C272.924,239.694,279.881,239.694,284.659,240.435z M433.784,292.41
		c-2.753,0-5.506,0-8.259,0c-4.341-1.002-9.281-1.406-12.633-3.402c0.964-4.703,1.755-9.58,3.888-13.115
		c4.396,2.176,17.071,5.686,20.401,0c-2.814-4.736-9.373-4.055-13.603-5.83c-3.796-1.588-7.535-4.582-8.741-8.742
		c-6.033-20.832,21.167-26.392,37.402-18.457c-0.819,4.522-1.672,9.014-3.884,12.143c-4.933-0.875-13.823-4.893-17.974-0.484
		c2.521,5.136,9.199,4.062,13.599,5.828C461.16,267.242,453.255,293.051,433.784,292.41z M468.758,249.178
		c-10.92,16.767-2.453,42.753,18.456,43.232c2.591,0,5.182,0,7.771,0c4.563-1.105,9.902-1.43,13.604-3.402
		c-0.084-5.422-1.548-9.465-3.402-13.115c-7.106,3.086-23.445,5.016-24.286-4.857c10.039,0,20.078,0,30.116,0
		c0.3-1.314-0.619-3.852,0.482-4.371c0-2.266,0-4.531,0-6.799C511.69,239.431,480.78,230.712,468.758,249.178z M496.441,259.865
		c-5.178,0-10.359,0-15.541,0C479.886,249.271,497.56,249.105,496.441,259.865z M391.521,241.892
		c-7.938-3.998-20.93-2.484-30.603,0.487c-0.346,5.367,1.247,8.791,2.919,12.143c6.229-1.771,21.067-4.965,21.857,3.886
		c-12.85-0.242-23.741,1.381-27.205,9.717c-5.627,13.549,5.585,24.377,19.429,24.285c1.946,0,3.888,0,5.83,0
		c5.909-0.895,11.761-1.838,17-3.402C399.685,269.971,405.02,248.689,391.521,241.892z M385.695,279.777
		c-16.946,4.932-18.664-14.68,0-11.17C385.695,272.332,385.695,276.055,385.695,279.777z M337.605,264.723
		c5.207-3.297,7.461-10.457,5.34-16.029c-4.607-12.131-28.095-9.571-42.259-7.772c-1.131,15.544-0.158,33.192-0.482,49.543
		c2.961,2.059,9.273,0.764,13.116,1.945c4.208,0,8.417,0,12.625,0c12.418,0.275,25.675-8.43,19.92-21.375
		C344.435,267.824,341.515,266.262,337.605,264.723z M316.231,250.636c13.469-4.799,15.403,13.048,0,9.229
		C316.231,256.788,316.231,253.713,316.231,250.636z M316.231,280.268c0.266-3.293-0.57-7.693,0.486-10.205
		C333.007,266.311,332.732,284.916,316.231,280.268z"></path></g></svg>