<?xml version="1.0" encoding="iso-8859-1"?>
<!DOCTYPE svg PUBLIC "-//W3C//DTD SVG 1.1//EN" "http://www.w3.org/Graphics/SVG/1.1/DTD/svg11.dtd">
<svg  version="1.1" xmlns="http://www.w3.org/2000/svg" xmlns:xlink="http://www.w3.org/1999/xlink" x="0px" y="0px" width="512px"
	 height="512px" viewBox="0 0 512 512" enable-background="new 0 0 512 512" xml:space="preserve"><g id="3e91140ac1bfb9903b91c1b0ca094ded"><path display="inline" d="M162.964,254.347c16.027-3.175,25.517-7.598,32.322-18.346c20.895-32.994-0.927-81.336-44.548-76.868
		c-32.657,3.346-52.229,42.716-32.322,75.995c6.238,10.423,16.14,16.447,32.322,19.219
		C154.814,254.347,158.889,254.347,162.964,254.347z M153.362,184.464c21.704-5.069,24.979,35.691,12.229,43.675
		C140.852,243.626,131.572,189.555,153.362,184.464z M198.786,338.869c9.363-5.931,13.413-18.801,9.606-28.823
		c-8.286-21.815-50.53-17.212-75.995-13.981c-2.038,27.954-0.291,59.692-0.871,89.102c5.325,3.696,16.682,1.363,23.583,3.493
		c7.569,0,15.139,0,22.712,0c22.327,0.494,46.164-15.158,35.813-38.434C211.066,344.445,205.816,341.634,198.786,338.869z
		 M160.351,313.539c24.219-8.633,27.7,23.463,0,16.597C160.351,324.601,160.351,319.07,160.351,313.539z M160.351,366.818
		c0.478-5.922-1.027-13.831,0.871-18.344C190.515,341.729,190.018,375.181,160.351,366.818z M86.972,222.024
		c5.04,6.612,6.437,16.856,8.735,26.209c-8.706,2.934-18.406,4.882-28.823,6.113c-3.491,0-6.991,0-10.484,0
		c-34.31-3.541-51.832-23.868-55.901-57.654c0-4.951,0-9.897,0-14.848c4.158-33.115,20.782-53.753,53.283-58.525
		c5.242,0,10.478,0,15.719,0c8.652,1.541,16.983,3.4,24.462,6.113c-0.711,10.062-4.188,17.357-6.992,25.333
		c-9.251-1.389-14.337-4.533-23.579-4.368c-28.471,0.501-37.146,35.944-26.211,60.271C44.995,228.042,68.649,230.214,86.972,222.024
		z M434.633,310.915c-19.637,30.157-4.412,76.887,33.193,77.744c4.658,0,9.315,0,13.973,0c8.209-1.988,17.808-2.574,24.461-6.113
		c-0.146-9.756-2.782-17.025-6.113-23.587c-12.783,5.547-42.159,9.02-43.677-8.733c18.052,0,36.104,0,54.156,0
		c0.541-2.37-1.11-6.933,0.873-7.863c0-4.076,0-8.151,0-12.227C511.841,293.387,456.258,277.709,434.633,310.915z M484.419,330.136
		c-9.315,0-18.63,0-27.949,0C454.648,311.086,486.428,310.786,484.419,330.136z M371.739,388.659c-4.948,0-9.897,0-14.85,0
		c-7.806-1.801-16.688-2.528-22.71-6.113c1.729-8.459,3.152-17.233,6.986-23.587c7.901,3.908,30.698,10.222,36.687,0
		c-5.061-8.521-16.854-7.295-24.461-10.484c-6.828-2.865-13.557-8.246-15.719-15.724c-10.854-37.46,38.067-47.457,67.26-33.193
		c-1.472,8.135-3.011,16.21-6.986,21.841c-8.874-1.576-24.855-8.799-32.32-0.873c4.533,9.236,16.543,7.307,24.461,10.479
		C420.977,343.405,406.754,389.814,371.739,388.659z M511.499,160.879c0,30.282,0,60.563,0,90.845c-8.782,2.237-20.926,2.237-29.7,0
		c0-11.064,0-22.127,0-33.195c-8.441,0-16.892,0-25.333,0c-2.034,9.325-0.291,22.42-0.874,33.195c-8.953,2.056-20.842,2.314-29.7,0
		c0.587-29.991-1.164-62.31,0.878-90.845c8.296-1.607,20.414-1.029,28.822,0c0,10.483,0,20.965,0,31.445c8.45,0,16.893,0,25.334,0
		c2.038-8.737,0.291-21.248,0.873-31.445C490.395,159.549,502.908,159.549,511.499,160.879z M224.991,160.879
		c8.502-0.992,22.531-2.146,29.696,0.875c4.695,24.419-13.881,72.113,20.965,66.385c0-22.421,0-44.842,0-67.26
		c8.55-0.703,22.605-2.443,29.7,0.875c0,28.825,0,57.649,0,86.479c-9.623,2.605-19.886,4.577-30.573,6.113c-3.206,0-6.404,0-9.606,0
		C216.098,256.609,225.253,206.594,224.991,160.879z M295.742,297.812c-14.276-7.186-37.639-4.467-55.03,0.877
		c-0.624,9.652,2.242,15.807,5.244,21.837c11.209-3.186,37.884-8.929,39.302,6.986c-23.101-0.433-42.688,2.487-48.913,17.475
		c-10.122,24.364,10.041,43.839,34.94,43.673c3.493,0,6.986,0,10.479,0c10.629-1.605,21.15-3.311,30.573-6.113
		C310.418,348.305,320.016,310.037,295.742,297.812z M285.259,365.945c-30.468,8.861-33.553-26.407,0-20.09
		C285.259,352.55,285.259,359.25,285.259,365.945z M334.171,231.63c-21.175-43.288,19.379-92.417,68.134-66.385
		c0.059,9.367-1.556,17.073-6.104,21.836c-29.442-16.301-49.67,20.521-31.447,37.564c7.053,6.591,22.548,4.965,32.32,0.871
		c3.447,6.741,6.895,13.486,6.109,24.458c-6.363,1.786-13.35,2.957-20.086,4.371c-4.662,0-9.319,0-13.978,0
		C351.604,251.71,340.201,243.944,334.171,231.63z"></path></g></svg>