<?xml version="1.0" encoding="iso-8859-1"?>
<!DOCTYPE svg PUBLIC "-//W3C//DTD SVG 1.1//EN" "http://www.w3.org/Graphics/SVG/1.1/DTD/svg11.dtd">
<svg  version="1.1" xmlns="http://www.w3.org/2000/svg" xmlns:xlink="http://www.w3.org/1999/xlink" x="0px" y="0px" width="512px"
	 height="512px" viewBox="0 0 512 512" enable-background="new 0 0 512 512" xml:space="preserve"><g id="3e91140ac1bfb9903b91c1b0ca0929ce"><path display="inline" d="M482.007,132.576c-3.451,13.652-10.421,25.263-24.859,30.405c-7.078,2.52-11.652-0.073-18.871-2.154
		c7.086,0.674,11.161,1.763,17.507-1.378C467.631,153.591,476.36,144.019,482.007,132.576z M510.854,222.319
		c-1.684,16.547-6.101,32.622-13.968,46.247c-7.045,12.218-16.863,22.489-29.941,29.492c-8.887,4.725-19.213,7.461-29.888,8.579
		c-11.082,1.152-22.522,0.536-33.197-1.276c-0.499,1.654-1.015,3.335-1.506,4.978c-0.624,2.066-1.256,4.146-1.88,6.2
		c-2.179,7.161-7.385,13.615-13.872,18.397c-6.695,4.94-14.858,8.167-22.469,8.509c-7.27,0.353-12.888-1.36-17.869-4.301
		c-4.824-2.836-8.949-6.782-13.449-11.128l-5.896-5.672c-1.322-1.289-2.645-2.574-3.983-3.851c-0.142,0.927-0.274,1.813-0.416,2.623
		c2.079,4.205,3.551,8.147,5.048,12.189v0.012c0.944,2.524,1.913,5.119,3.082,7.931c1.742,4.158,3.057,7.627,3.972,11.224
		c0.914,3.631,1.418,7.323,1.53,11.848c0.107,3.855,0.212,7.702,0.319,11.549c0.096,3.63,0.188,7.261,0.304,10.891
		c1.605,2.911,2.554,4.907,3.027,7.111c0.532,2.35,0.479,4.641,0.208,8.375c-0.59,8.393-3.364,13.07-8.025,15.724
		c-4.375,2.479-10.168,2.849-17.333,2.815c-1.09-0.017-2.856-0.017-4.999-0.017c-6.952,0-17.706,0.017-20.996-0.216
		c-4.42-0.32-8.097-0.657-11.182-1.397c-2.379-0.565-4.334-1.39-5.968-2.587c-2.375,1.917-4.462,3.651-6.559,5.377
		c-6.173,5.086-12.439,10.268-14.963,11.947c-0.967,1.489-1.842,2.99-2.645,4.384c-2.591,4.541-4.508,7.9-10.617,11.215
		c-11.998,6.479-21.283,5.914-29.428,0.915c-7.76-4.762-14.17-13.511-20.872-23.849c-3.188-4.907-8.278-12.991-10.756-20.918
		c-2.74-8.774-2.36-17.308,6.381-21.799c0.416-0.216,0.838-0.433,1.233-0.641c0.911-0.474,1.77-0.906,2.628-1.348
		c-3.313,0.175-6.643,0.309-9.956,0.267c-6.504-0.042-13.039-0.49-19.703-1.348c0.108,0.795,0.2,1.431,0.251,1.843
		c0.51,4.42,0.863,7.314,0.443,10.213c-0.422,2.99-1.609,5.651-4.136,9.419c-0.168,0.25-0.734,1.069-1.218,1.755
		c-2.343,3.452-3.728,5.506-6.951,12.638c0.318,3.515,0.422,6.342,0.189,9.157c-0.256,3.032-0.894,6.117-1.973,10.151
		c-2.751,10.172-12.979,12.517-24.311,11.806c-10.398-0.648-21.782-3.921-28.359-5.709c-1.428-0.379-2.586-0.679-3.711-0.974
		c-5.55-1.447-11.53-3.011-16.563-5.298c-10.078-4.6-16.537-11.818-10.247-25.638c1.013-2.191,1.896-4.42,2.699-6.666
		c0.308-0.798,0.51-1.563,0.771-2.361c-5.131,0.798-10.582-0.175-15.89-2.192c-9.286-3.53-18.16-10.275-23.589-15.706
		c-4.341-4.351-7.718-9.032-10.245-13.84c-2.734-5.207-4.483-10.604-5.373-15.919c-1.466-8.699-0.443-9.689,4.699-14.626
		c0.767-0.752,1.626-1.571,1.836-1.775c2.541-2.512,5.065-5.031,7.6-7.531c2.705-2.682,5.441-5.385,8.136-8.08
		c1.239-3.352,2.472-6.695,3.715-10.076c0.799-2.158,1.591-4.333,2.381-6.482c-0.38-2.005-0.724-4.021-1.013-6.084
		c-0.334-2.408-0.597-4.62-0.771-6.616c-0.782-9.194-1.044-17.101-0.771-24.261c0.206-5.461,0.715-10.484,1.553-15.291
		c-4.246,0.946-8.571,0.873-12.49-0.37c-4.843-1.564-9.07-4.907-11.688-10.403c-0.981-2.017-1.753-4.057-2.483-6.36
		c-0.642-2.032-1.235-4.3-1.871-6.87c-3.473-3.578-5.441-7.333-6.094-11.178c-0.776-4.413,0.118-8.814,2.094-13.031
		c1.892-4.053,4.797-7.908,8.159-11.405c9.055-9.405,21.926-16.474,27.916-17.514l4.493-0.786l-1.495,4.304
		c-0.777,2.179-1.686,4.462-2.565,6.709c-0.248,0.653-0.499,1.312-0.771,2.021c2.755,2.179,4.406,5.202,5.177,8.643
		c1.204,5.321,0.426,11.451-0.601,16.038l-1.225,5.491l-3.48-4.402c-0.842-1.038-1.543-2.119-2.217-3.167
		c-0.622-0.957-1.212-1.857-1.815-2.597c-0.479,7.143-1.348,14.306-6.438,19.189c0.144,0.614,0.212,0.942,0.314,1.013
		c0.081,0.042,0.946-0.43,3.034-1.243c3.584-1.368,6.772-3.651,9.771-6.335c3.083-2.776,5.903-5.945,8.756-9.081
		c3.225-6.263,6.916-12.187,11.226-17.821c4.381-5.749,9.395-11.184,15.183-16.312c14.166-12.546,27.947-20.901,43.59-26.954
		c15.312-5.917,32.382-9.646,53.352-13.008c2.639-2.736,5.317-5.446,8.063-8.126c2.946-2.828,5.99-5.656,9.178-8.483
		c4.479-3.938,8.222-6.346,11.945-7.836c3.362-1.368,6.679-1.903,10.407-2.175c6.402-8.535,12.239-15.858,19.106-22.202
		c7.19-6.649,15.447-12.183,26.564-16.857c23.025-9.712,42.546-14.771,61.01-13.611c18.597,1.163,35.996,8.608,54.643,23.993
		c3.519,2.907,7.103,6.047,10.675,9.184c7.814,6.87,15.482,13.597,24.49,19.231c3.393,2.102,6.263,3.928,9.099,6.078
		c2.803,2.14,5.39,4.531,8.084,7.712c3.256,3.898,6.229,7.791,8.837,11.96c2.191,3.483,4.104,7.18,5.793,11.236
		c3.817-1.539,7.859-3.235,11.095-5.97c2.795-2.397,5.123-5.801,7.444-9.194c2.079-3.055,4.166-6.082,6.645-8.577
		c0.808-0.838,1.73-1.522,2.729-2.025c3.801-2.007,8.612-1.676,13.166-0.104c4.3,1.472,8.45,4.088,11.27,6.87
		c1.297,1.267,2.337,2.624,3.019,3.94c5.664,10.829,9.739,25.885,12.201,41.381C511.441,191.026,512.189,209.058,510.854,222.319z
		 M431.548,151.042c-0.823,0.021-1.63,0.042-2.412,0.071c1.173,1.152,2.092,2.52,2.766,4.032c0.332-0.318,0.711-0.626,1.118-0.904
		C432.537,153.161,432.047,152.09,431.548,151.042z M32.417,199.417c2.094-0.235,3.396,0.865,5.016,2.478
		c-0.293-3.865-1.025-6.734-3.739-8.329c-0.195,0.628-0.349,1.26-0.53,1.898C32.814,196.707,32.598,198.029,32.417,199.417z
		 M40.738,241.592c0.196-0.695,0.401-1.379,0.626-2.078c1.316-4.154,2.726-8.186,4.238-12.095c-3.163,2.859-6.72,5.285-11.035,7.013
		c-11.158,4.464-10.931,0.607-15.734-9.08c10.211-8.155,5.485-18.171,8.735-29.428c0.757-2.587,1.853-5.115,3.404-8.448
		c-10.694,6.438-30.347,24.419-17.214,38.046c1.424,5.142,2.524,9.143,4.479,13.209C22.257,247.129,32.758,244.975,40.738,241.592z
		 M70.303,377.823c-11.416-17.278-21.729-37.847-27.781-58.764c-1.117,2.998-2.237,5.972-3.348,8.966
		c-5.117,5.164-10.232,10.346-15.349,15.531c-3.791,3.847-4.531,3.98-3.764,9.415c1.034,7.461,5.436,15.391,12.012,22.103
		c6.015,6.143,26.779,22.165,34.944,11.245c1.738-2.329,2.556-5.207,3.286-8.176C70.303,378.027,70.303,377.939,70.303,377.823z
		 M321.197,345.116c-1.805-4.291-2.803-8.316-4.059-12.38c-2.716,9.715-6.38,18.859-9.706,29.372
		c-3.152,9.947-19.346,38.791-28.86,45.802c1.854,1.381,5.256,1.913,11.319,2.438c4.292,0.365,21.188,0.465,25.446,0.527
		c9.348,0.171,12.896-0.54,13.844-11.178c0.457-5.219,0.041-6.188-2.563-10.758c-0.224-8.143-0.448-16.302-0.673-24.444
		C325.709,356.781,324.225,352.319,321.197,345.116z M489.177,140.213c-2.175-5.267-10.871-13.16-16.394-7.795
		c-5.572,5.429-9.764,13.07-15.835,17.873c-8.275,6.504-22.506,4.267-19.928,18.09c1.884,10.068,2.42,21.337,0.266,30.717
		c-2.054,9.009-4.191,21.812-8.891,27.843c1.389-5.104,3.726-18.449,4.379-27.452c0.354-4.926-0.199-10.871-1.119-16.854
		c-1.039,0.021-2.074,0.045-3.135,0.077c-3.793,0.077-9.973,5.516-11.636,8.91c-4.641,9.452-4.957,18.235-10.155,27.232
		c4.184-10.057,1.83-19.127,5.651-29.914c1.344-3.805,4.758-7.086,8.704-9.083c-2.196-0.328-4.392,0.632-7.636,1.389
		c-13.881,3.302-13.257,14.212-21.794,24.631c8.229-15.098,4.029-25.109,21.873-29.182c5.872-1.331,10.159-1.865,14.019,1.22
		c0.083,0,0.167,0,0.241-0.017c1.015-0.077,2.021-0.16,3.044-0.231c-0.507-2.771-1.048-5.501-1.588-8.074
		c-8.159-1.069-15.678-0.842-24.045,0.422c1.809-0.786,3.568-1.512,5.273-2.129c2.661-0.977,5.248-1.749,7.821-2.189
		c0.254-0.509,0.403-1.071,0.475-1.676c0.266-2.819-1.821-5.337-4.637-5.616c-2.828-0.268-5.231,1.811-5.506,4.639
		c-0.1,1.11,0.291,2.437,0.915,3.537c-0.138-0.248-0.271-0.493-0.392-0.755l-0.012-0.017c-1.077-2.077-1.568-4.473-1.348-6.957
		c0.195-1.875,0.781-3.604,1.676-5.136c-0.274,0.066-0.549,0.154-0.823,0.251c-1.983,0.796-6.213,0.541-8.126-0.114
		c3.751-0.622,9.34-2.616,12.95-4.375c0.1-0.042,0.195-0.083,0.274-0.133c2.254-1.389,4.956-2.073,7.776-1.811
		c1.431,0.143,2.777,0.513,4.009,1.1c1.68,0.495,3.56,1.163,5.821,1.976c-3.435-7.178-7.314-13.667-11.984-20.177
		c-4.416-6.145-8.126-8.267-14.655-12.124c-1.422-0.844-2.811-1.687-4.183-2.572c-4.824-0.884-10.205-1.753-14.847-0.869
		c3.826-1.505,6.704-2.112,10.056-2.389c-9.24-6.625-17.212-14.06-26.332-21.73c-35.193-29.592-63.671-27.49-108.487-8.032
		c-18.187,7.918-24.697,15.879-35.886,30.204c0.098,0,0.216-0.01,0.35-0.01c11.379-0.287,22.693-0.678,34.391-1.778
		c-12.099,2.817-23.668,5.069-35.547,6.868c-13.108,2-17.133,1.667-27.02,11.289c-18.219,17.724-33.48,37.757-50.156,55.732
		c-9.65,10.417-14.449,20.857-20.115,32.724c-5.62,11.806-4.842,16.278,2.699,26.481c7.704,10.444,12.361,15.168,15.627,24.441
		c8.519-13.149,18.782-24.051,29.603-37.121c-8.835,14.16-16.892,27.54-24.194,41.937c-4.549,8.958-6.783,13.523-6.637,23.43
		c8.539,9.839,13.894,15.087,21.822,17.266c8.54,2.346,16.588,1.955,24.307-2.046c19.204-9.938,37.458-22.905,58.772-24.539
		c11.003-19.611,7.912-44.272,3.963-66.578c-3.271-18.537-2.441-34.884,1.975-53.477c1.106,18.058,2.551,34.826,6.133,52.53
		c5.219,25.935,6.317,48.324-4.59,75.122c-23.556,0.565-42.889,14.367-63.781,25.051c-9.394,4.808-18.181,5.29-28.692,2.79
		c-10.716-2.549-18.932-10.816-29.958-22.889c1.081-9.128,2.272-14.8,5.522-21.503c-3.932-11.844-8.808-17.291-17.821-29.405
		c-10.453-14.043-10.633-20.127-2.726-36.119c5.699-11.594,11.041-22.29,20.055-32.867c8.874-10.479,17.035-20.233,25.284-29.453
		c-34.283,5.204-56.167,13.471-79.582,34.008c-17.36,15.241-28.188,34.165-35.913,56.018c-4.895,13.79-6.267,27.683-3.959,50.226
		c2.967,29.056,18.397,61.838,35.013,85.749c-2.027,14.888-4.655,26.104-8.81,36.745c-4.71,12.068,14.033,15.761,23.088,18.239
		c7.353,2.017,35.279,9.681,38.04-0.216c1.645-5.931,1.645-10.072,1.233-16.327c4.978-9.926,6.49-11.253,10.043-17.124
		c3.801-6.284,4.119-8.792,4.15-16.173c0.015-9.519-0.231-26.519,0.17-32.665c1.289,5.497,2.822,13.149,4.092,20.493
		c19.849,3.551,39.548,3.293,59.384-0.757c0.252-1.385,0.711-2.895,1.225-4.749c1.326-4.642,3.99-9.282,5.331-13.932
		c-0.375,4.579-0.724,9.145-1.096,13.711c-0.37,4.712-0.385,8.513,0.195,13.212c0.32,2.586,0.649,5.165,0.957,7.747
		c-1.435-2.366-3.67-4.637-4.976-7.016c-8.835,5.813-13.694,9.104-22.369,13.682c-9.164,4.849,1.347,22.198,5.131,28.229
		c8.319,13.203,18.254,28.855,33.707,20.68c5.069-2.674,8.036-8.878,11.419-13.345c4.535-2.669,28.612-22.967,32.438-25.18
		c5.398-3.098,24.848-34.965,27.313-42.912c5.439-17.599,11.827-30.993,13.632-49.353c-12.384-5.207-18.405-10.991-27.28-21.425
		c12.476,9.248,23.246,14.192,36.695,18.451c4.902,4.32,9.848,8.688,14.991,13.266c7.456,6.641,14.302,13.411,25.113,13.606
		c11.694,0.2,24.918-8.741,28.32-19.828c1.306-4.262,2.623-8.537,3.925-12.804c-2.312-0.558-4.582-1.181-6.77-1.851
		c-2.425,5.83-2.233,8.089-3.377,12.372c-1.971,7.327-12.056,12.413-22.622,9.863c-3.756-0.906-5.964-1.43-7.303-2.395
		c1.057,2.886,3.127,5.344,6.97,6.046c4.259,0.79,7.402,1.132,13.59-0.274c-7.651,3.968-10.113,4.138-15.536,2.928
		c-14.268-3.169-9.244-20.352-6.134-30.86c1.954-6.616,1.293-13.636-0.188-20.265c5.406,3.418,9.689,6.429,15.84,8.509
		c28.814,9.706,63.006,19.599,92.008,3.397c22.747-12.696,35.219-40.854,38.021-66.647
		C502.908,198.882,498.6,163.013,489.177,140.213z M342.09,278.663c-0.566,3.581-1.335,8.001-1.901,11.582
		c1.522-4.042,3.331-8.721,5.091-12.58c1.867-4.079,2.91-4.449,6.849-6.604c2.812-1.53,7.901-3.626,10.7-5.14
		c-2.882,0.482-8.051,1.534-10.921,2.021C344.21,269.244,343.295,271.086,342.09,278.663z M210.549,140.954
		c-8.926,8.843-17.601,39.161-20.373,51.285c4.356-10.089,15.299-38.256,23.679-45.428c2.314-1.986,3.944-3.204,5.668-4.09
		c-6,10.08-5.564,12.577-3.456,26.062c1.788-13.709,6.545-19.017,14.315-29.232c8.529-2.156,16.53-4.706,25.271-8.12
		c-9.872,1.121-19.713,2.133-29.603,3.065C217.769,135.277,216.432,135.159,210.549,140.954z M358.807,174.577
		c-1.917-4.027-5.285-6.911-9.182-8.332c3.547-1.913,7.011-3.886,9.73-6.35c-7.951,3.683-17.199,2.778-24.003,7.394
		c-6.03,4.042-14.317,16.909-20.418,22.348c4.416-1.713,8.674-4.681,12.592-7.795c0.029,2.314,0.549,4.678,1.589,6.91
		c1.089,2.274,2.669,4.146,4.508,5.626c-0.524-0.524-0.978-1.121-1.314-1.815c-1.63-3.41-0.175-7.512,3.235-9.126
		c3.418-1.646,7.539-0.187,9.169,3.219c0.146,0.329,0.287,0.657,0.379,0.986c-3.269,2.439-6.263,5.288-8.767,8.587
		c-2.187,2.879-4.017,6.129-5.322,9.729c11.619-13.779,28.474-24.203,44.321-28.64c-4.433-0.052-9.681,0.78-15.021,2.518
		C360.112,178.073,359.626,176.289,358.807,174.577z M302.051,162.158c2.674-11.835,7.428-23.242,25.816-32.075
		C303.498,136.186,298.924,146.42,302.051,162.158z"></path></g></svg>