<?xml version="1.0" encoding="iso-8859-1"?>
<!DOCTYPE svg PUBLIC "-//W3C//DTD SVG 1.1//EN" "http://www.w3.org/Graphics/SVG/1.1/DTD/svg11.dtd">
<svg  version="1.1" xmlns="http://www.w3.org/2000/svg" xmlns:xlink="http://www.w3.org/1999/xlink" x="0px" y="0px" width="512px"
	 height="512px" viewBox="0 0 512 512" enable-background="new 0 0 512 512" xml:space="preserve"><g id="3e91140ac1bfb9903b91c1b0ca092167"><path display="inline" d="M370.993,247.505c-1.48-91.949-49.777-167.927-99.326-215.637C255.912,16.697,253.369,0.5,253.369,0.5
		s0.337,7.121-7.841,15.684c-34.38,35.998-56.228,55.032-77.107,100.632c-25.995,56.77-27.444,131.995-27.444,131.995
		s1.383,61.921,27.444,112.393c20.175,39.073,55.718,71.011,69.799,82.729c1.295-4.417,3.78-13.374,5.479-22.498
		c2.634-14.159,3.817-29.218,3.828-29.367c0.262-3.36,3.036-5.972,6.406-6.03c0.038,0,0.075,0,0.112,0
		c3.323,0,6.124,2.495,6.494,5.81c0.024,0.225,2.569,22.693,7.498,36.416c2.499,6.962,6.952,9.295,7.144,9.391
		c1.81,0.74,3.011,2.179,3.585,4.05c0.033,0.092,0.046,0.188,0.066,0.283C292.389,430.842,372.798,359.955,370.993,247.505z
		 M234.685,376.032c-2.333,3.726-3.799,8.009-4.15,12.533c-0.008,0.108-0.41,5.194-1.254,12.061
		c-13.187-13.832-27.639-31.538-37.705-51.033c-22.441-43.465-24.874-97.274-25.063-102.668
		c0.185-6.144,2.718-73.333,25.502-123.092c12.625-27.573,25.662-44.573,42.67-62.991V376.032z M272.341,443.541
		c0,0-4.321,6.509-5.228,14.372c-2.283,19.795-2.611,53.587-2.611,53.587l-13.071-3.922c0,0-0.355-22.265-2.616-39.206
		c-1.503-11.278-5.227-19.607-5.227-19.607s4.055-12.8,6.535-26.137c2.734-14.691,3.919-30.058,3.919-30.058
		s2.59,23.268,7.844,37.901C265.441,440.381,272.341,443.541,272.341,443.541z"></path></g></svg>