<?xml version="1.0" encoding="iso-8859-1"?>
<!DOCTYPE svg PUBLIC "-//W3C//DTD SVG 1.1//EN" "http://www.w3.org/Graphics/SVG/1.1/DTD/svg11.dtd">
<svg  version="1.1" xmlns="http://www.w3.org/2000/svg" xmlns:xlink="http://www.w3.org/1999/xlink" x="0px" y="0px" width="512px"
	 height="512px" viewBox="0 0 512 512" style="enable-background:new 0 0 512 512;" xml:space="preserve"><g id="7935ec95c421cee6d86eb22ecd118a6a"><path style="display: inline;" d="M256,0.5C114.901,0.5,0.5,114.876,0.5,256c0,141.099,114.401,255.5,255.5,255.5
		S511.5,397.099,511.5,256C511.5,114.876,397.099,0.5,256,0.5z M480.586,206.671h-95.738c-13.985-36.517-43.016-65.546-79.52-79.533
		V31.415C392.707,50.514,461.473,119.268,480.586,206.671z M133.365,256c0-67.742,54.905-122.648,122.635-122.648
		c67.73,0,122.635,54.906,122.635,122.648c0,67.718-54.904,122.635-122.635,122.635C188.27,378.635,133.365,323.718,133.365,256z
		 M206.671,31.415v95.724c-36.503,13.986-65.534,43.016-79.519,79.533H31.415C50.527,119.268,119.292,50.502,206.671,31.415z
		 M31.415,305.328h95.738c13.985,36.504,43.016,65.534,79.519,79.52v95.738C119.292,461.473,50.527,392.707,31.415,305.328z
		 M305.328,480.586v-95.738c36.504-13.997,65.534-43.016,79.52-79.52h95.738C461.473,392.707,392.707,461.473,305.328,480.586z"></path></g></svg>