<?xml version="1.0" encoding="iso-8859-1"?>
<!DOCTYPE svg PUBLIC "-//W3C//DTD SVG 1.1//EN" "http://www.w3.org/Graphics/SVG/1.1/DTD/svg11.dtd">
<svg  version="1.1" xmlns="http://www.w3.org/2000/svg" xmlns:xlink="http://www.w3.org/1999/xlink" x="0px" y="0px" width="512px"
	 height="512px" viewBox="0 0 512 512" style="enable-background:new 0 0 512 512;" xml:space="preserve"><g id="7935ec95c421cee6d86eb22ecd1192a2"><path style="display: inline; fill-rule: evenodd; clip-rule: evenodd;" d="M96.176,138.244c18.498-6.008,37.748-10.521,57.502-13.995
		l20.596,39.292c105.158-22.021,279.041-2.286,337.226,86.481l-240.015,66.746l-59.037-109.481
		c11.609-1.703,24.664-3.296,36.688-3.989c11.234-0.484,22.091-0.188,32.444,0.792l31.829,53.573l80.859-19.686
		c-51.544-52.723-134.671-50.911-201.961-40.014l64.401,122.922L16.257,387.751c-8.848-16.479-14.163-36.174-15.459-55.76
		c-4.424-66.925,40.787-122.934,114.53-153.208L96.176,138.244L96.176,138.244z M169.158,292.778l-35.996-76.218
		c-34.175,18.755-53.178,49.437-44.894,95.913L169.158,292.778z"></path></g></svg>