<?xml version="1.0" encoding="iso-8859-1"?>
<!DOCTYPE svg PUBLIC "-//W3C//DTD SVG 1.1//EN" "http://www.w3.org/Graphics/SVG/1.1/DTD/svg11.dtd">
<svg  version="1.1" xmlns="http://www.w3.org/2000/svg" xmlns:xlink="http://www.w3.org/1999/xlink" x="0px" y="0px" width="512px"
	 height="512px" viewBox="0 0 512 512" style="enable-background:new 0 0 512 512;" xml:space="preserve"><g id="7935ec95c421cee6d86eb22ecd11a260"><path style="display: inline;" d="M152.526,112.084c0,5.938,0,31.281,0,31.281h44.932c0,0,5.74,0.141,5.74-6.339
		c0-5.939,0.023-31.27,0.023-31.27h-44.955C158.266,105.757,152.526,105.593,152.526,112.084z M152.538,176.994
		c0,5.928,0,169.059,0,169.059h44.92c0,0,5.728,0.152,5.728-6.304c0-1.326,0.024-169.07,0.024-169.07h-44.92
		C158.29,170.679,152.538,170.527,152.538,176.994z M86.548,112.084v58.595H6.251c0,0-5.751-0.152-5.751,6.326v169.047h130.98
		c0,0,5.74,0.164,5.74-6.327c0-5.938,0.035-233.968,0.035-233.968H92.276C92.276,105.757,86.548,105.593,86.548,112.084z
		 M86.572,302.071c0,6.491-5.752,6.35-5.752,6.35H50.162v-93.832c0-6.479,5.751-6.338,5.751-6.338h30.659V302.071z M220.628,177.005
		v169.047h86.026v22.571h-80.298c0,0-5.728-0.141-5.728,6.339c0,5.938,0,31.28,0,31.28h130.969c0,0,5.74,0.142,5.74-6.338
		c0-5.939,0.022-229.121,0.022-229.121l-131.004-0.105C226.356,170.679,220.628,170.527,220.628,177.005z M270.278,214.589
		c0-6.479,5.751-6.338,5.751-6.338H306.7v93.82c0,6.491-5.751,6.35-5.751,6.35h-30.671V214.589z M380.496,170.679
		c0,0-5.729-0.152-5.729,6.326v169.047h86.025v22.571h-80.297c0,0-5.729-0.141-5.729,6.339c0,5.938,0,31.28,0,31.28h130.969
		c0,0,5.74,0.142,5.74-6.338c0-5.939,0.023-229.121,0.023-229.121L380.496,170.679z M460.84,302.071c0,6.491-5.752,6.35-5.752,6.35
		h-30.682v-93.832c0-6.479,5.764-6.338,5.764-6.338h30.67V302.071z"></path></g></svg>