<?xml version="1.0" encoding="iso-8859-1"?>
<!DOCTYPE svg PUBLIC "-//W3C//DTD SVG 1.1//EN" "http://www.w3.org/Graphics/SVG/1.1/DTD/svg11.dtd">
<svg  version="1.1" xmlns="http://www.w3.org/2000/svg" xmlns:xlink="http://www.w3.org/1999/xlink" x="0px" y="0px" width="512px"
	 height="512px" viewBox="0 0 512 512" style="enable-background:new 0 0 512 512;" xml:space="preserve"><g id="7935ec95c421cee6d86eb22ecd11ad5d"><path style="display: inline;" d="M467.811,113.129c-9.119-13.548-19.624-26.224-31.164-37.814
		c-11.564-11.528-24.29-21.994-37.801-31.151c-13.648-9.245-28.257-17.167-43.402-23.604c-15.433-6.525-31.589-11.527-47.994-14.871
		c-16.842-3.443-34.158-5.19-51.461-5.19c-17.316,0-34.632,1.747-51.449,5.19c-16.431,3.343-32.586,8.345-48.006,14.871
		c-15.145,6.438-29.767,14.359-43.415,23.604c-13.511,9.157-26.236,19.623-37.776,31.151c-11.552,11.59-22.057,24.266-31.189,37.814
		c-9.207,13.624-17.142,28.245-23.554,43.415c-6.538,15.407-11.54,31.575-14.921,48.018C2.259,221.368,0.513,238.684,0.513,256
		c0,17.303,1.747,34.582,5.165,51.425c3.381,16.442,8.383,32.586,14.921,48.018c6.412,15.158,14.347,29.767,23.554,43.39
		c9.132,13.537,19.637,26.237,31.189,37.814c11.54,11.527,24.265,22.019,37.776,31.189c13.648,9.206,28.27,17.128,43.415,23.554
		c15.42,6.512,31.576,11.502,48.006,14.87c16.817,3.469,34.133,5.24,51.449,5.24c17.303,0,34.62-1.771,51.461-5.24
		c16.405-3.368,32.562-8.358,47.994-14.87c15.146-6.426,29.754-14.348,43.402-23.554c13.511-9.171,26.236-19.662,37.801-31.189
		c11.54-11.577,22.045-24.277,31.164-37.814c9.257-13.623,17.179-28.231,23.566-43.39c6.537-15.432,11.527-31.575,14.896-48.018
		c3.455-16.843,5.214-34.122,5.214-51.425c0-17.316-1.759-34.632-5.214-51.438c-3.369-16.443-8.359-32.611-14.896-48.018
		C484.989,141.375,477.067,126.753,467.811,113.129z M255.988,37.827c55.242,0,105.68,20.546,144.093,54.418
		c-0.537,0.798-31.613,48.106-113.94,78.97C248.827,102.7,207.844,48.332,204.576,43.94
		C221.056,39.973,238.26,37.827,255.988,37.827z M203.69,44.165h0.05c-0.25,0.025-0.462,0.05-0.711,0.175
		C203.453,44.214,203.69,44.165,203.69,44.165z M162.895,58.648c2.907,3.881,43.253,58.635,81.016,125.729
		C139.154,212.211,48.232,211.063,42.48,211.013C56.64,143.445,102.051,87.38,162.895,58.648z M93.705,401.79
		C58.948,363.152,37.802,312.052,37.802,256c0-2.346,0.112-4.616,0.175-6.961c3.867,0.149,111.669,2.569,224.011-31.064
		c6.25,12.251,12.227,24.677,17.703,37.077c-2.869,0.823-5.764,1.672-8.608,2.62C153.339,295.747,93.63,401.677,93.63,401.677
		S93.68,401.74,93.705,401.79z M255.988,474.173c-50.601,0-97.06-17.379-134.063-46.284l-0.038,0.1c0,0-1.983-1.497-4.878-3.843
		c1.584,1.348,3.306,2.495,4.916,3.743c0.399-0.849,42.429-91.321,171.19-136.209c0.475-0.174,0.961-0.313,1.447-0.474
		c30.702,79.794,43.377,146.613,46.608,165.676C314.984,468.021,286.203,474.173,255.988,474.173z M377.912,436.946
		c-2.221-13.149-13.849-77.199-42.468-155.846c70.425-11.291,131.468,8.034,135.959,9.481
		C461.697,351.389,426.903,403.886,377.912,436.946z M322.146,246.668c-1.534-3.742-3.106-7.485-4.716-11.303
		c-4.528-10.643-9.432-21.233-14.496-31.638c86.144-35.182,121.138-85.746,121.55-86.331
		c30.614,37.164,49.116,84.634,49.615,136.357C470.942,253.105,397.099,237.236,322.146,246.668z M203.69,44.165
		c0,0-0.237,0.05-0.661,0.175c0.25-0.125,0.461-0.15,0.711-0.175H203.69z M117.01,424.146c1.584,1.348,3.306,2.495,4.916,3.743
		l-0.038,0.1C121.888,427.988,119.904,426.491,117.01,424.146z"></path></g></svg>