<?xml version="1.0" encoding="iso-8859-1"?>
<!DOCTYPE svg PUBLIC "-//W3C//DTD SVG 1.1//EN" "http://www.w3.org/Graphics/SVG/1.1/DTD/svg11.dtd">
<svg  version="1.1" xmlns="http://www.w3.org/2000/svg" xmlns:xlink="http://www.w3.org/1999/xlink" x="0px" y="0px" width="512px"
	 height="512px" viewBox="0 0 512 512" style="enable-background:new 0 0 512 512;" xml:space="preserve"><g id="7935ec95c421cee6d86eb22ecd11b972"><path style="display: inline; fill-rule: evenodd; clip-rule: evenodd;" d="M316.865,147.088
		c15.918,83.687-35.531,135.335-99.406,117.271c93.392-153-42.517-153.387-0.967-263.858
		C152.611,45.936,88.537,173.112,88.73,265.905c0.2,129.896,68.147,211.836,159.407,212.809
		c88.726,0.773,174.746-83.686,175.132-166.973C423.656,216.203,371.807,178.926,316.865,147.088z M248.137,445.903
		c-90.479,1.747-165.227-94.951-80.96-232.794c-17.672,79.793,29.704,139.202,75.328,139.776
		c51.455,0.398,81.933-47.757,96.491-110.858C421.51,305.129,384.232,443.184,248.137,445.903z M492.871,410.348
		c0,55.716-106.393,101.152-236.868,101.152c-130.477,0-236.874-45.437-236.874-101.152c0-26.248,23.603-50.201,62.203-68.216
		c7.848,34.532,21.433,64.823,40.434,89.449c31.089,40.297,75.264,62.777,124.406,63.302h1.334
		c84.378,0,167.642-71.76,184.333-152.202C469.74,360.62,492.871,384.374,492.871,410.348z"></path></g></svg>