<?xml version="1.0" encoding="iso-8859-1"?>
<!DOCTYPE svg PUBLIC "-//W3C//DTD SVG 1.1//EN" "http://www.w3.org/Graphics/SVG/1.1/DTD/svg11.dtd">
<svg  version="1.1" xmlns="http://www.w3.org/2000/svg" xmlns:xlink="http://www.w3.org/1999/xlink" x="0px" y="0px" width="512px"
	 height="512px" viewBox="0 0 512 512" style="enable-background:new 0 0 512 512;" xml:space="preserve"><g id="7935ec95c421cee6d86eb22ecd11cef7"><path style="display: inline; fill-rule: evenodd; clip-rule: evenodd;" d="M458.535,348.669c-10.518-7.411-25.051-4.903-32.462,5.613
		c-9.955,14.098-20.522,24.827-32.336,32.773c-14.223,9.594-36.754,24.39-36.978,24.527c-6.551,4.304-10.505,11.615-10.505,19.462
		l0.025,21.895l-57.302-24.452c-3.293-1.397-6.873-2.033-10.441-1.834c-4.579,0.25-9.221,0.387-13.786,0.387
		c-67.817,0-129.609-27.87-161.272-72.707c-0.846-1.197-1.788-2.284-2.801-3.271c-12.378-18.501-18.669-38.371-18.669-59.107
		c0-74.143,81.535-134.462,181.757-134.462c36.529,0,71.785,8.059,101.951,23.317c0.324,0.162,0.648,0.312,0.984,0.462
		c29.905,15.345,47.721,39.173,47.721,63.875c0,20.011-11.416,39.298-32.162,54.368c-22.98,16.68-53.92,25.875-87.13,25.875
		c-8.409,0-16.806-0.6-24.951-1.797c-0.075-0.025-0.149-0.025-0.237-0.037c-23.374-3.556-45.692-11.278-64.574-22.294
		c-0.178-0.104-0.359-0.197-0.538-0.297c-36.695-21.895-57.71-54.025-57.71-88.393c0-5.052,0.493-10.067,1.385-15.008
		c-19.013,12.4-34.277,27.82-44.338,45.187c9.507,39.46,37.358,75.228,78.497,99.243c0.546,0.319,1.102,0.605,1.662,0.875
		c23.474,13.273,50.709,22.54,78.987,26.796c0.15,0.037,0.307,0.05,0.463,0.063c10.273,1.497,20.814,2.245,31.356,2.245
		c42.966,0,83.637-12.351,114.501-34.77c33.135-24.053,51.374-56.751,51.374-92.057c0-42.941-27.783-82.563-74.304-105.968
		c-0.338-0.175-0.674-0.324-1.023-0.474c-36.417-18.189-78.546-27.795-121.912-27.795c-59.876,0-116.416,18.127-159.195,51.025
		c-44.588,34.308-69.146,80.493-69.146,130.021c0,31.113,10.037,61.754,29.018,88.626c0.958,1.359,2.041,2.577,3.212,3.664
		c40.795,55.208,115.883,89.379,197.096,89.379c3.588,0,7.199-0.075,10.817-0.199l84.784,36.204
		c2.931,1.247,6.038,1.871,9.144,1.871c4.505,0,8.971-1.298,12.838-3.843c6.524-4.316,10.455-11.614,10.455-19.437l0.036-44.613
		c7.91-5.215,18.752-12.4,26.947-17.914c16.356-11.017,31.277-26.012,44.377-44.563C471.56,370.613,469.04,356.079,458.535,348.669z
		 M302.078,98.733c31.638,0,62.092,7.036,88.091,20.36c0.35,0.175,0.724,0.35,1.073,0.512c17.814,9.394,30.29,22.356,35.717,36.479
		c18.976,16.854,32.225,37.215,38.499,59.297c7.299-13.661,11.117-28.395,11.117-43.515c0-38.088-24.341-73.319-65.123-94.253
		c-0.424-0.212-0.849-0.412-1.272-0.611c-32.262-16.269-69.603-24.852-108.102-24.852c-52.722,0-102.53,15.969-140.25,44.987
		c-16.743,12.887-30.291,27.671-40.359,43.79c40.053-24.278,88.695-37.676,139.796-38.2
		C274.396,100.093,288.094,98.733,302.078,98.733z M301.542,283.022c0.05,0,0.101,0,0.162,0.024
		c9.045,1.298,18.352,1.972,27.659,1.972c24.588,0,48.28-4.653,69.239-13.175c5.514-8.558,8.434-17.69,8.434-26.909
		c0-8.796-2.695-17.517-7.698-25.713c-18.676,12.114-43.751,19.213-69.975,19.213c-7.087,0-14.147-0.499-20.935-1.497
		c-47.613-7.111-85.034-32.711-99.194-65.147c-15.675,3.83-30.36,9.244-43.69,15.969
		C185.444,235.901,236.587,273.291,301.542,283.022z M352.393,47.97c20.56,2.033,40.146,7.598,57.388,16.43
		c6.163,3.144,13.399,3.394,19.762,0.674s11.178-8.134,13.174-14.746c3.38-11.278-2.195-23.105-12.6-27.858
		C401.646,8.098,368.673,0.5,334.728,0.5c-46.497,0-90.449,14.123-123.759,39.747c-13.68,10.517-24.951,22.481-33.627,35.48
		c35.792-21.196,79.088-32.686,124.425-32.686C318.958,43.042,335.95,44.713,352.393,47.97z"></path></g></svg>