<?xml version="1.0" encoding="iso-8859-1"?>
<!DOCTYPE svg PUBLIC "-//W3C//DTD SVG 1.1//EN" "http://www.w3.org/Graphics/SVG/1.1/DTD/svg11.dtd">
<svg  version="1.1" xmlns="http://www.w3.org/2000/svg" xmlns:xlink="http://www.w3.org/1999/xlink" x="0px" y="0px" width="512px"
	 height="512px" viewBox="0 0 512 512" style="enable-background:new 0 0 512 512;" xml:space="preserve"><g id="7935ec95c421cee6d86eb22ecd11e1e4"><path style="display: inline;" d="M511,32.856L377.354,181.64l-85.528-85.713l-29.902,36.925
		c-16.433-55.021-67.802-95.162-128.19-95.162C60.085,37.69,0,97.413,0,171.062c0,0.111,0,0.222,0,0.311c0,0.133,0,0.266,0,0.399
		c0,69.769,54.015,126.962,122.209,132.64l-1.334,1.906l171.049,172.826L481.702,285.65l-31.458-31.07L511,201.245V32.856z
		 M488,198.295L266.791,390.451L162.032,287c-0.022,0-0.022,0-0.044,0l-4.458-2.82c-7.674,1.619-15.635,3.147-23.774,3.147
		c-63.958,0-115.985-51.802-115.985-115.882c0-64.091,52.026-116.071,115.985-116.071c63.958,0,116.007,52.228,116.007,116.319
		c0,18.917-4.568,36.825-12.596,52.626l9.691,17.348c0.089-0.133,0.155-0.241,0.244-0.374l29.269,62.208L488,68.693V198.295z"></path></g></svg>