<?xml version="1.0" encoding="iso-8859-1"?>
<!DOCTYPE svg PUBLIC "-//W3C//DTD SVG 1.1//EN" "http://www.w3.org/Graphics/SVG/1.1/DTD/svg11.dtd">
<svg  version="1.1" xmlns="http://www.w3.org/2000/svg" xmlns:xlink="http://www.w3.org/1999/xlink" x="0px" y="0px" width="512px"
	 height="512px" viewBox="0 0 512 512" style="enable-background:new 0 0 512 512;" xml:space="preserve"><g id="7935ec95c421cee6d86eb22ecd11f194"><path style="display: inline;" d="M300.264,25.888c10.168,0,21.209,1.085,33.197,3.418c22.805,4.417,36.578,22.98,60.893,35.518
		c-6.561,22.207-25.625,31.925-40.596,45.686c-16.217-13.761-31.213-19.687-44.537-19.687c-41.656,0-66.932,57.937-62.053,116.135
		c6.125,4.666,15.668,5.888,26.473,5.888c12.026,0,25.588-1.522,37.627-1.522c4.24,0,8.295,0.188,12.014,0.711
		c-24.141,19.3-30.129,56.776-73.606,56.776c-3.905,0-8.109-0.312-12.663-0.961c-17.641,68.653-28.644,143.931-40.608,218.261
		c-22.007,0-44.001,0-65.971,0c8.196-74.667,26.623-139.152,35.505-213.183c-2.819-4.642-9.082-5.864-16.567-5.864
		c-8.209,0-17.927,1.473-26.161,1.473c-2.895,0-5.614-0.188-8.009-0.687c2.246-19.736,3.83-40.146,10.155-55.815
		c16.905,0,33.821,0,50.738,0C184.839,118.12,206.958,25.888,300.264,25.888 M300.264,0.5L300.264,0.5
		c-52.248,0-91.359,24.041-116.26,71.435c-18.077,34.445-26.236,77.124-30.752,114.713h-27.896h-17.141l-6.413,15.894
		c-6.849,17.029-8.982,36.504-11.028,55.342c-0.262,2.358-0.537,4.741-0.798,7.111l-2.62,23.029l22.718,4.691
		c3.917,0.811,8.221,1.197,13.137,1.197c4.915,0,9.731-0.374,14.409-0.761c-3.967,26.61-9.007,52.497-13.91,77.723
		c-6.961,35.793-14.147,72.795-18.514,112.468l-3.094,28.157h28.332h65.971h21.607l3.456-21.346
		c1.485-9.319,2.969-18.613,4.441-27.933c8.995-56.489,18.239-114.651,30.827-168.283c37.327-2.695,54.555-26.561,67.344-44.276
		c5.102-7.036,9.879-13.673,15.07-17.827l46.109-36.866l-58.486-8.084c-4.604-0.636-9.68-0.948-15.506-0.948
		c-6.775,0-13.674,0.412-20.336,0.811c-6.188,0.374-12.051,0.724-17.291,0.724c-0.574,0-1.086,0-1.609,0
		c0.91-25.712,8.496-49.59,20.51-62.665c7.922-8.608,14.496-8.608,16.654-8.608c7.885,0,17.604,4.728,28.145,13.661l17.08,14.497
		l16.492-15.158c3.031-2.782,6.514-5.564,10.205-8.496c13.523-10.816,30.354-24.277,37.59-48.692l5.938-20.111l-18.65-9.631
		c-7.885-4.054-14.658-9.095-21.846-14.434C371.736,18.602,357.65,8.147,338.277,4.38C324.977,1.81,312.189,0.5,300.264,0.5
		L300.264,0.5z"></path></g></svg>