<?xml version="1.0" encoding="iso-8859-1"?>
<!DOCTYPE svg PUBLIC "-//W3C//DTD SVG 1.1//EN" "http://www.w3.org/Graphics/SVG/1.1/DTD/svg11.dtd">
<svg  version="1.1" xmlns="http://www.w3.org/2000/svg" xmlns:xlink="http://www.w3.org/1999/xlink" x="0px" y="0px" width="512px"
	 height="512px" viewBox="0 0 512 512" style="enable-background:new 0 0 512 512;" xml:space="preserve"><g id="7935ec95c421cee6d86eb22ecd11f697"><path style="display: inline;" d="M179.604,19.937c12.45,8.171,37.052,24.789,71.485,50.289
		c16.954,12.563,34.021,24.003,52.085,36.129c41.73,27.958,84.871,56.876,126.377,100.279
		c32.188,33.671,35.096,101.152,35.119,101.813l0.012,0.437l0.051,0.437c0.039,0.749,6.275,74.966-34.682,117.808
		c-61.93,64.811-126.564,68.079-138.879,68.079c-0.686,0-1.109-0.013-1.172-0.013l-1.123-0.05l-1.109,0.087
		c-0.051,0.025-5.029,0.462-13.424,0.462c-20.249,0-60.333-2.545-101.202-19.649c-49.192-20.634-84.548-55.902-105.02-104.832
		c-19.562-46.733-25.601-94.365-18.003-141.585c6.151-38.039,21.147-76.102,44.576-113.104
		C125.51,67.881,163.136,33.685,179.604,19.937 M178.592,0.5c0,0-216.214,159.001-125.055,376.825
		C105.111,500.509,231.053,511.5,274.344,511.5c9.381,0,14.896-0.524,14.896-0.524s0.649,0.051,1.933,0.051
		c12.539,0,83.65-3.231,150.307-72.958c46.396-48.555,38.973-130.17,38.973-130.17s-2.582-73.618-39.484-112.181
		c-60.506-63.289-123.906-96.324-180.484-138.179C208.148,18.789,178.592,0.5,178.592,0.5L178.592,0.5z M177.445,48.132
		c0,0-43.127,41.419-77.124,98.17C62.32,209.778,63.992,272.755,63.992,272.755s-8.384,80.954,69.863,151.055
		c63.451,56.838,145.778,40.545,145.778,40.545s-61.094-32.398-65.36-123.184c-3.704-78.971,49.591-121.737,49.591-121.737
		s-12.425-6.986-21.845-13.947c-9.381-6.937-15.73-13.848-15.73-13.848s-25.65,23.953-43.528,31.688
		c-10.516,4.529-17.328-5.401-17.328-5.401s-11.677-12.077-2.958-24.552c19.076-27.296,67.567-67.842,67.567-67.842
		s-22.855-15.158-35.567-33.871C180.913,71.723,177.445,48.132,177.445,48.132z"></path></g></svg>