<?xml version="1.0" encoding="iso-8859-1"?>
<!DOCTYPE svg PUBLIC "-//W3C//DTD SVG 1.1//EN" "http://www.w3.org/Graphics/SVG/1.1/DTD/svg11.dtd">
<svg  version="1.1" xmlns="http://www.w3.org/2000/svg" xmlns:xlink="http://www.w3.org/1999/xlink" x="0px" y="0px" width="512px"
	 height="512px" viewBox="0 0 512 512" style="enable-background:new 0 0 512 512;" xml:space="preserve"><g id="7935ec95c421cee6d86eb22ecd1212ae"><path style="display: inline;" d="M375.797,99.873l-0.836,60.521l95.34,0.162l-0.424,65.848l-95.428,0.449V511.5h-97.188V226.853
		h-46.59h-0.668h-61.431V511.5H71.392V226.853H24.134v-66.996l47.258,1.397c0,0-6.749-78.136,29.692-121.402
		C137.52-3.377,163.713,3.56,194.216,0.79c30.517-2.782,87.762,15.371,87.762,15.371v62.778c0,0-56.704-23.729-82.335-18.14
		c-25.656,5.564-29.705,39.074-29.705,39.074l2.003,61.031h58.062l46.86-0.336c0,0-6.351-77.45,30.092-120.716
		C343.396-3.377,369.584,3.56,400.123,0.79c30.467-2.782,87.742,15.371,87.742,15.371v62.778c0,0-56.74-23.729-82.377-18.14
		C379.838,66.363,375.797,99.873,375.797,99.873z"></path></g></svg>