<?xml version="1.0" encoding="iso-8859-1"?>
<!DOCTYPE svg PUBLIC "-//W3C//DTD SVG 1.1//EN" "http://www.w3.org/Graphics/SVG/1.1/DTD/svg11.dtd">
<svg  version="1.1" xmlns="http://www.w3.org/2000/svg" xmlns:xlink="http://www.w3.org/1999/xlink" x="0px" y="0px" width="512px"
	 height="512px" viewBox="0 0 512 512" enable-background="new 0 0 512 512" xml:space="preserve"><g id="5151e0c8492e5103c096af88a5004b60"><path display="inline" d="M256.075,299.44c-3.792,0-7.485,0.187-11.19,0.411c-2.457-7.011-3.954-14.696-3.954-23.067
		c0-8.246,1.459-22.78,3.842-22.806c1.235,0,2.495,0.112,3.73,0.112c62.751,0,113.603-50.925,113.603-113.689
		c0-14.971-6.85-34.371-14.834-42.355l38.961-21.807V0.5l-81.291,45.386c-18.051-12.039-36.428-19.113-59.757-19.113
		c-62.752,0-111.956,50.851-111.956,113.603c0,35.306,16.942,66.844,42.205,87.678c-7.037,14.771-10.654,31.201-10.654,48.643
		c0,15.669,3.493,30.553,9.22,44.089c-33.023,19.35-54.369,50.039-54.369,84.659c0,58.585,61.093,106.055,136.384,106.055
		c75.327,0,136.358-47.47,136.358-106.055C392.371,346.909,331.365,299.44,256.075,299.44z M248.502,87.355
		c29.292,0,53.009,23.729,53.009,52.996c0,29.292-23.717,53.034-53.009,53.034c-29.293,0-53.021-23.741-53.021-53.034
		C195.481,111.083,219.209,87.355,248.502,87.355z M256.075,446.24c-33.459,0-60.594-18.252-60.594-40.795
		c0-22.519,27.135-40.771,60.594-40.771c33.46,0,60.595,18.252,60.595,40.771C316.67,427.988,289.535,446.24,256.075,446.24z"></path></g></svg>