<?xml version="1.0" encoding="iso-8859-1"?>
<!DOCTYPE svg PUBLIC "-//W3C//DTD SVG 1.1//EN" "http://www.w3.org/Graphics/SVG/1.1/DTD/svg11.dtd">
<svg  version="1.1" xmlns="http://www.w3.org/2000/svg" xmlns:xlink="http://www.w3.org/1999/xlink" x="0px" y="0px" width="512px"
	 height="512px" viewBox="0 0 512 512" style="enable-background:new 0 0 512 512;" xml:space="preserve"><g id="7935ec95c421cee6d86eb22ecd1207e1"><path style="display: inline;" d="M336.199,24.703c4.217,2.62,8.959,6.438,14.223,11.453c5.053,5.24,10.018,11.677,14.857,19.312
		c4.641,7.199,8.746,15.719,12.326,25.538c2.943,9.818,4.43,21.271,4.43,34.37c-0.398,24.016-5.703,43.216-15.895,57.612
		c-5.004,6.986-10.305,13.424-15.906,19.325c-6.199,5.901-12.801,11.889-19.799,18.002c-3.992,4.142-7.697,8.845-11.092,14.072
		c-4.004,5.465-5.988,11.79-5.988,18.988c0,6.986,2.047,12.774,6.152,17.365c3.479,4.367,6.861,8.185,10.141,11.453l22.77,18.663
		c14.158,11.565,26.572,24.328,37.227,38.301c10.057,14.172,15.283,32.735,15.695,55.641c0,32.524-14.361,61.33-43.08,86.431
		c-29.777,25.975-72.744,39.398-128.897,40.271c-47.008-0.437-82.114-10.454-105.294-30.066
		c-23.404-18.289-35.106-40.196-35.106-65.671c0-12.426,3.805-26.249,11.428-41.494c7.385-15.271,20.747-28.669,40.109-40.196
		c21.732-12.426,44.575-20.71,68.491-24.839c23.691-3.48,43.377-5.439,59.021-5.876c-4.84-6.362-9.144-13.174-12.936-20.41
		c-4.43-7.023-6.626-15.47-6.626-25.351c0-5.913,0.849-10.866,2.52-14.821c1.485-4.166,2.844-7.996,4.106-11.502
		c-7.624,0.873-14.81,1.298-21.572,1.298c-35.717-0.425-62.952-11.665-81.678-33.709c-19.611-20.51-29.405-44.413-29.405-71.685
		c0-32.96,13.885-62.84,41.656-89.687c19.087-15.707,38.911-25.962,59.483-30.777c20.36-4.142,39.435-6.213,57.251-6.213h134.225
		l-41.443,24.203H336.199z M362.125,411.047c0-17.042-5.553-31.875-16.668-44.538c-11.752-12.002-30.129-26.735-55.143-44.201
		c-4.266-0.437-9.281-0.661-15.059-0.661c-3.418-0.424-12.176,0-26.286,1.322c-13.885,1.959-28.107,5.115-42.629,9.481
		c-3.418,1.322-8.221,3.294-14.434,5.901c-6.2,2.832-12.488,6.874-18.9,12.113c-6.201,5.465-11.428,12.227-15.707,20.311
		c-4.915,8.509-7.373,18.764-7.373,30.777c0,23.566,10.679,43.003,32.05,58.273c20.311,15.295,48.081,23.143,83.35,23.579
		c31.612-0.437,55.778-7.411,72.433-20.959C354.002,449.122,362.125,432.006,362.125,411.047z M268.544,214.307
		c17.679-0.648,32.399-6.986,44.163-19.038c5.689-8.508,9.346-17.267,10.953-26.224c0.986-8.982,1.473-16.518,1.473-22.643
		c0-26.46-6.762-53.133-20.311-80.043c-6.338-12.899-14.695-23.392-25.051-31.488c-10.579-7.647-22.742-11.702-36.491-12.139
		c-18.189,0.437-33.31,7.76-45.374,21.982c-10.155,14.871-15.033,31.488-14.597,49.853c0,24.277,7.111,49.541,21.321,75.777
		c6.874,12.251,15.744,22.643,26.623,31.164C242.133,210.04,254.571,214.307,268.544,214.307z"></path></g></svg>