<?xml version="1.0" encoding="iso-8859-1"?>
<!DOCTYPE svg PUBLIC "-//W3C//DTD SVG 1.1//EN" "http://www.w3.org/Graphics/SVG/1.1/DTD/svg11.dtd">
<svg  version="1.1" id="Layer_1" xmlns="http://www.w3.org/2000/svg" xmlns:xlink="http://www.w3.org/1999/xlink" x="0px" y="0px"
	 width="512px" height="512px" viewBox="0 0 512 512" enable-background="new 0 0 512 512" xml:space="preserve"><g id="e6c6b53d3c8160b22dad35a0f710c50a"><path d="M79.742,426.612c2.344,4.177,4.825,8.258,7.438,12.233c-17.861-16.624-33.302-35.837-45.702-57.02
		c-22.299-38.094-34.086-81.6-34.086-125.814c0-28.363,6.496-55.457,19.31-80.525c12.229-23.928,30.084-45.122,51.636-61.292
		c6.23-4.674,12.83-8.974,19.612-12.78c26.291-14.78,56.246-22.591,86.631-22.591c23.614,0,46.471,4.542,67.936,13.501
		c27.95,11.616,52.549,30.402,71.25,54.09c-16.522-10.075-35.222-16.27-54.98-18.048v-0.495c0,0-11.699-0.08-11.7-0.08
		c-5.506,0-11.001,0.221-16.375,0.655c-29.878,2.042-58.178,10.456-84.041,25.001c-39.084,21.95-70.061,56.78-87.222,98.072
		c-10.167,24.386-15.323,50.277-15.323,76.951C54.124,362.869,62.982,396.806,79.742,426.612z M67.775,100.113
		c6.861-5.146,14.117-9.877,21.566-14.056c28.919-16.256,61.858-24.85,95.252-24.85c25.946,0,51.084,5.001,74.716,14.864
		c40.066,16.654,73.877,46.729,95.193,84.685c16.263,28.919,24.859,61.859,24.859,95.256c0,1.755-0.074,3.455-0.146,5.099
		c-0.03,0.695-0.06,1.392-0.084,2.089l-0.002,0.071l-0.005,0.073c-1.547,26.023-11.148,50.41-27.767,70.521
		c-4.168,5.048-8.712,9.719-13.575,13.987c1.118-0.537,2.309-1.139,3.692-1.865c1.498-0.783,3.251-1.709,5.006-2.709
		c30.574-17.17,55.456-42.539,71.983-73.387c2.798-5.229,5.365-10.651,7.631-16.117c9.269-22.21,13.964-45.815,13.964-70.174
		c0-15.071-1.817-30.002-5.404-44.418c-3.93-15.758-9.963-30.932-17.937-45.099c-31.445-56.057-90.835-91.882-154.992-93.5V0.558
		c-1.543-0.038-3.112-0.058-4.688-0.058c-58.639,0-115.913,20.357-161.28,57.319l-0.092,0.079l-0.049,0.038l-0.069,0.057
		c-26.285,21.463-47.669,47.523-63.361,76.545C42.396,121.788,54.312,110.212,67.775,100.113z M470.521,130.172
		c-12.398-21.179-27.842-40.395-45.701-57.019c2.613,3.978,5.095,8.056,7.438,12.233c16.76,29.807,25.618,63.744,25.618,98.143
		c0,26.67-5.156,52.563-15.323,76.95c-17.161,41.293-48.138,76.123-87.221,98.072c-25.86,14.545-54.159,22.957-84.043,25
		c-5.377,0.436-10.873,0.655-16.373,0.655c-0.002,0-11.701-0.077-11.701-0.077v-0.498c-19.762-1.777-38.458-7.972-54.982-18.048
		c18.701,23.688,43.301,42.476,71.25,54.091c21.463,8.959,44.319,13.501,67.938,13.501c30.389,0,60.344-7.812,86.63-22.591
		c6.785-3.808,13.384-8.107,19.611-12.778c21.553-16.172,39.409-37.366,51.639-61.294c12.813-25.066,19.309-52.16,19.309-80.526
		C504.607,211.771,492.821,168.266,470.521,130.172z M444.226,411.887c-6.854,5.144-14.109,9.872-21.564,14.057
		c-28.921,16.257-61.859,24.85-95.253,24.85c-25.946,0-51.085-5.001-74.716-14.865c-40.067-16.653-73.878-46.729-95.193-84.683
		c-16.263-28.922-24.859-61.862-24.859-95.258c0-1.754,0.073-3.455,0.144-5.099c0.031-0.696,0.061-1.392,0.085-2.087l0.002-0.074
		l0.005-0.072c1.548-26.022,11.148-50.409,27.766-70.522c4.169-5.047,8.713-9.719,13.576-13.987
		c-1.133,0.544-2.347,1.157-3.69,1.865c-1.407,0.734-3.229,1.694-5.007,2.708c-30.577,17.17-55.458,42.541-71.986,73.388
		c-2.797,5.229-5.365,10.652-7.631,16.116c-9.268,22.211-13.964,45.815-13.964,70.174c0,15.072,1.819,30.004,5.406,44.418
		c3.928,15.756,9.962,30.932,17.936,45.101c31.448,56.059,90.838,91.884,154.996,93.502v0.028c1.533,0.037,3.104,0.057,4.688,0.057
		c58.605,0,115.843-20.329,161.199-57.252l0.056-0.052l0.144-0.112l0.093-0.076c26.288-21.466,47.67-47.521,63.362-76.548
		C469.605,390.21,457.689,401.788,444.226,411.887z"></path></g></svg>