<?xml version="1.0" encoding="iso-8859-1"?>
<!DOCTYPE svg PUBLIC "-//W3C//DTD SVG 1.1//EN" "http://www.w3.org/Graphics/SVG/1.1/DTD/svg11.dtd">
<svg  version="1.1" xmlns="http://www.w3.org/2000/svg" xmlns:xlink="http://www.w3.org/1999/xlink" x="0px" y="0px" width="512px"
	 height="512px" viewBox="0 0 512 512" enable-background="new 0 0 512 512" xml:space="preserve"><g id="5151e0c8492e5103c096af88a50087a3"><path display="inline" fill-rule="evenodd" clip-rule="evenodd" d="M256,511.5C114.889,511.5,0.5,397.111,0.5,256
		S114.889,0.5,256,0.5S511.5,114.889,511.5,256S397.111,511.5,256,511.5z M438.318,192.648
		c-5.19-15.107-12.239-29.592-21.047-42.978C382.141,96.3,321.347,63.452,257.435,63.452c-21.708,0-43.378,3.655-63.851,10.916
		C138.917,93.73,95.414,138.13,76.601,192.648c-1.634,4.804-3.169,9.594-4.404,14.51c-4.067,15.919-6.063,32.324-5.926,48.742
		c0.087,15.282,1.085,33.858,18.302,39.659c2.944,0.986,5.926,1.497,8.895,1.622c16.069,0.749,32.25-9.743,43.59-20.11
		c13.673-12.514,23.94-28.656,29.567-46.322c10.48-32.773,8.933-68.403,4.866-102.162c-0.35-2.807-0.674-5.627-1.011-8.446
		c-0.162-1.297-0.736-3.493,0.013-4.666c1.235-1.896,5.39-0.012,6.924,0.424c13.611,3.905,26.748,8.521,39.522,14.671
		c19.025,9.145,36.316,22.306,52.198,36.142c15.919,13.86,30.577,29.193,44.363,45.199c14.646,17.029,28.045,34.994,41.119,53.271
		c11.403,15.932,26.686,31.639,45.024,39.373c38.812,16.368,48.729-17.74,48.979-48.654c0.1-16.418-1.896-32.823-5.926-48.742
		c-1.261-4.916-2.808-9.706-4.454-14.51H438.318z"></path></g></svg>