<?xml version="1.0" encoding="iso-8859-1"?>
<!DOCTYPE svg PUBLIC "-//W3C//DTD SVG 1.1//EN" "http://www.w3.org/Graphics/SVG/1.1/DTD/svg11.dtd">
<svg  version="1.1" xmlns="http://www.w3.org/2000/svg" xmlns:xlink="http://www.w3.org/1999/xlink" x="0px" y="0px" width="512px"
	 height="512px" viewBox="0 0 512 512" style="enable-background:new 0 0 512 512;" xml:space="preserve"><g id="7935ec95c421cee6d86eb22ecd12142e"><path style="display: inline;" d="M493.875,223.4c1.352-29.324,2.683-58.648,4.024-87.972c-57.348,0-114.694,0-172.032,0
		l-8.61,46.565v-33.705c-31.484,0-62.958,0-94.453,0v43.709H192.19v9.553c-17.99-14.171-45.757-14.918-66.614-7.147v-58.975
		c-41.692,0-83.384,0-125.077,0c0,27.583,0,55.156,0,82.729h16.259v70.771H0.5c0,27.317,0,54.654,0,81.972
		c110.999,0,222.007,0,333.016,0v-10.751c20.519,11.632,44.856,16.423,68.272,16.423c32.344,0,58.013-9.727,76.401-24.85
		c19.034-15.676,30.839-40.944,32.958-66.726C512.98,262.941,507.729,240.519,493.875,223.4z M244.51,169.994h51.041v34.402H244.51
		V169.994z M210.057,349.193h-89.589v-38.56h8.57v-47.099c0-22.197-25.167-14.354-25.167,22.301v24.798h7.566v38.56H22.206v-38.56
		h16.259V196.451H22.206v-39.316h81.665v83.354c10.75-17.334,25.34-29.129,49.494-29.129c34.218,0,39.358,29.65,39.358,41.426
		v57.849h17.334V349.193z M311.81,349.193h-97.545v-38.56h15.881v-57.471h-16.259v-39.459h81.665v96.93h16.259V349.193z
		 M489.504,282.662c0,37.054-30.317,72.203-87.716,72.203c-37.423,0-68.446-13.924-79.617-34.535
		c-11.538-21.276-2.487-54.112,25.607-54.173c18.338-0.031,29.907,8.129,26.027,29.058c-4.854,14.108,4.393,18.777,13.341,18.777
		c13.546,0,23.847-15.604,24.553-31.535c0.655-14.97-5.499-29.508-19.3-29.672c-5.591-0.062-12.256,2.048-18.594,9.788
		l-48.235-6.512l18.276-98.927h131.395l-2.366,51.788h-86.712l-1.996,16.597c12.481-5.529,27.42-9.297,41.16-9.297
		C461.787,216.223,491.213,234.611,489.504,282.662z"></path></g></svg>