<?xml version="1.0" encoding="iso-8859-1"?>
<!DOCTYPE svg PUBLIC "-//W3C//DTD SVG 1.1//EN" "http://www.w3.org/Graphics/SVG/1.1/DTD/svg11.dtd">
<svg  version="1.1" xmlns="http://www.w3.org/2000/svg" xmlns:xlink="http://www.w3.org/1999/xlink" x="0px" y="0px" width="512px"
	 height="512px" viewBox="0 0 512 512" enable-background="new 0 0 512 512" xml:space="preserve"><g id="2069a460dcf28295e231f3111e041a3f"><path display="inline" d="M337.67,280.711c-10.697-51.427-63.512-112.321-121.879-125.632
		c-60.695-13.709-101.315-14.091-148.968,17.947c-13.996,9.391-37.495,25.468-59.466,49.439v79.753
		c30.949-67.06,101.497-123.241,180.483-102.953c134.152,34.364,112.666,128.894,96.546,167.245
		c-28.933,68.965-135.302,98.726-168.025,32.845c-35.571-71.623,43.787-83.354,43.787-83.354s-20.642,20.069,5.244,46.509
		c17.938,18.445,52.071,1.715,63.925-30.653c10.412-28.25-11.99-67.419-61.044-71.66c-41.083-3.615-102.731,27.568-109.005,90.255
		c-5.934,59.356,20.596,83.954,59.116,110.176c38.406,26.212,120.655,36.057,167.603-9.972
		C337.043,400.681,351.979,349.399,337.67,280.711z M7.357,0.5v156.503c23.44-20.732,42.984-31.116,43.787-31.611
		c85.551-49.63,160.962-25.042,205.312-10.987c70.054,22.125,125.101,77.24,148.869,133.911
		c27.682,65.952,3.732,191.97-89.707,255.636c-4.082,2.776-8.174,5.145-12.268,7.549h201.293V0.5H7.357z M7.357,427.646v60.31
		c3.108,2.559,6.184,4.809,9.178,6.614c-2.758-1.134-5.875-2.645-9.178-4.445V511.5h87.516c-6.465-3.502-12.421-7.086-17.621-10.625
		C51.575,483.31,24.165,458.458,7.357,427.646z"></path></g></svg>