<?xml version="1.0" encoding="iso-8859-1"?>
<!DOCTYPE svg PUBLIC "-//W3C//DTD SVG 1.1//EN" "http://www.w3.org/Graphics/SVG/1.1/DTD/svg11.dtd">
<svg  version="1.1" xmlns="http://www.w3.org/2000/svg" xmlns:xlink="http://www.w3.org/1999/xlink" x="0px" y="0px" width="512px"
	 height="512px" viewBox="0 0 512 512" enable-background="new 0 0 512 512" xml:space="preserve"><g id="c133de6af664cd4f011a55de6b000d0b"><path display="inline" d="M108.669,0.501h23.032v22.756h21.069V0.501h23.034V69.41h-23.032V46.334h-21.069V69.41h-23.032V0.501
		H108.669z M206.091,23.353h-20.275V0.501h63.594v22.852h-20.285V69.41h-23.032V23.353H206.091z M259.502,0.501h24.02l14.771,24.213
		l14.759-24.213h24.023V69.41h-22.938V35.256l-15.845,24.5h-0.395l-15.856-24.5V69.41h-22.539V0.501z M348.54,0.501h23.038v46.133
		h32.391V69.41H348.54V0.501z M74.987,100.926l32.946,369.533l147.844,41.04L404.031,470.4l32.981-369.475H74.987z M368.289,188.62
		l-2.063,22.977l-0.906,10.188h-0.149H256h-0.158h-63.956l4.142,46.407h59.814H256h92.98h12.214l-1.106,12.172l-10.65,119.32
		l-0.682,7.652L256,433.045v0.008l-0.208,0.059l-92.839-25.774l-6.351-71.161h20.97h24.527l3.227,36.146l50.474,13.632l0.042-0.013
		v-0.004l50.551-13.64l5.257-58.781H256h-0.158H154.578L143.439,188.62l-1.085-12.157h113.488H256h113.374L368.289,188.62z"></path></g></svg>