<?xml version="1.0" encoding="iso-8859-1"?>
<!DOCTYPE svg PUBLIC "-//W3C//DTD SVG 1.1//EN" "http://www.w3.org/Graphics/SVG/1.1/DTD/svg11.dtd">
<svg  version="1.1" xmlns="http://www.w3.org/2000/svg" xmlns:xlink="http://www.w3.org/1999/xlink" x="0px" y="0px" width="512px"
	 height="512px" viewBox="0 0 512 512" style="enable-background:new 0 0 512 512;" xml:space="preserve"><g id="7935ec95c421cee6d86eb22ecd121ad0"><path style="display: inline;" d="M482.098,432.563c6.289-17.478-11.775-37.077-23.217-39.572
		c-7.396-1.597-15.232,2.532-20.646-0.836c-6.486-4.066-4.592-24.14-5.164-37.002c-3.693-84.198-5.527-164.254-9.457-246.893
		c-0.725-15.345-1.422-28.756,4.305-36.99c7.896-11.366,26.135-12.775,36.988-23.23c1.424-8.995-3.455-16.941-6.885-24.938
		C450.123,4.687,443.725-0.79,417.6,0.745c-19.549,1.123-46.309,5.564-68.828,12.027c-16.43,4.716-47.033,13.998-50.75,26.672
		c-1.871,6.35-0.188,14.123,1.709,18.926c3.393,8.521,16.105,18.851,28.395,23.229c7.137,2.545,21.109,1.747,25.799,6.013
		c5.502,5.003,3.992,23.966,4.305,36.99c0.785,32.188,1.984,49.304,3.443,80.019c0.611,12.762,3.318,31.064-1.709,36.99
		c-3.418,4.005-13.125,3.905-23.23,5.152c-44.887,5.515-83.23,12.813-120.439,22.369c-15.326,3.942-30.783,8.097-47.313,8.608
		c-7.997-7.972-7.542-22.231-7.741-35.281c-0.642-42.13-2.401-89.275-0.861-129.023c12.333-9.057,38.612-9.107,44.737-22.381
		c7.043-15.308-5.183-30.291-12.906-36.129c-7.697-5.826-19.175-11.665-29.249-12.039c-11.615-0.424-26.529,3.331-38.712,6.013
		c-11.914,2.62-24.14,5.801-36.136,8.596C65.301,62.873,31.012,69.223,28.76,88.473c-1.584,13.548,9.457,25.625,18.932,30.989
		c10.442,5.876,23.616,6.101,35.269,9.457c5.639,11.927,3.773,25.551,4.297,38.7c1.697,42.642,4.622,83.05,7.741,123.021
		c3.226,41.27,4.729,83.063,9.463,120.427c1.653,13.012,5.097,25.874,3.443,38.713c-12.239,8.259-40.646,10.416-41.294,28.395
		c-0.418,11.802,17.403,26.535,25.812,30.115c15.856,6.725,33.204,1.261,51.611-1.733c11.64-1.909,23.598-3.443,34.415-6.014
		c18.669-4.441,48.411-14.684,49.89-31.825c1.36-15.769-16.948-28.419-27.528-30.978c-10.592-2.558-22.007,1.735-27.533-4.304
		c-6.126-6.688-3.98-31.077-4.298-41.282c-0.437-13.947-3.45-33.783,1.715-42.154c5.658-9.17,26.966-13.948,40.44-18.077
		c16.043-4.929,29.966-10.081,46.453-12.9c34.333-5.9,65.135-15.146,104.945-12.039c1.197,17.279,1.197,34.732,2.594,51.611
		c1.348,16.456,6.938,32.736,1.709,47.32c-12.438,6.537-43.277,7.148-44.736,23.229c-0.736,8.285,9.219,17.928,14.633,23.23
		c7.012,6.861,14.572,12.675,24.078,14.608c10.18,2.096,25.975-0.574,37.004-2.57c24.102-4.378,38.723-10.217,59.346-18.076
		C468.025,442.206,479.504,439.899,482.098,432.563z"></path></g></svg>