<?xml version="1.0" encoding="iso-8859-1"?>
<!DOCTYPE svg PUBLIC "-//W3C//DTD SVG 1.1//EN" "http://www.w3.org/Graphics/SVG/1.1/DTD/svg11.dtd">
<svg  version="1.1" xmlns="http://www.w3.org/2000/svg" xmlns:xlink="http://www.w3.org/1999/xlink" x="0px" y="0px" width="512px"
	 height="512px" viewBox="0 0 512 512" enable-background="new 0 0 512 512" xml:space="preserve"><g id="e6c6b53d3c8160b22dad35a0f710bbef"><path display="inline" d="M496.929,280.985l-3.604-5.764c-5.764-8.648-11.521-17.295-20.17-23.053
		c-7.201-5.042-15.847-8.646-23.774-12.249c22.34-10.809,38.187-25.934,45.393-45.392c5.046-15.855,3.604-28.819-3.604-41.789
		v-1.442c-8.64-14.412-20.17-23.778-38.177-28.816c-10.81-2.161-23.058-2.161-33.861-1.441l-23.773,5.044l7.927-18.007
		c7.207-23.052,5.043-45.392-7.206-66.282l-2.163-3.603c-10.81-18.015-26.652-28.817-48.266-34.581
		c-22.331-5.765-43.22-3.603-63.398,7.206c-20.168,10.801-34.58,27.375-41.059,48.994v1.441l-0.722,5.044l-2.882-5.044
		l-7.206-12.971c-11.536-17.985-25.949-28.794-43.959-33.838c-15.846-3.603-28.815-2.162-42.501,5.044
		c-15.131,9.369-23.779,23.779-27.382,43.95c-3.603,20.89,0,41.068,10.809,61.237l5.045,7.199l-17.297-5.765
		c-21.61-5.044-41.789-2.161-61.957,8.648c-20.892,10.808-33.861,25.933-42.51,46.833c-7.924,20.176-7.197,39.625,2.885,57.632
		c4.322,7.928,10.81,14.406,16.567,18.728c8.646,8.648,19.455,13.694,32.419,15.85l5.042,1.439l-10.81,9.369
		c-10.088,8.646-15.843,19.446-19.446,30.256c-3.603,12.97-2.164,25.935,5.043,38.186c3.603,5.758,7.197,10.804,12.964,14.407
		c5.764,5.042,12.97,8.646,21.61,9.36c15.855,3.604,32.422,3.604,50.429-2.172l-12.973,21.612l-3.603,9.373
		c-7.198,23.055-5.043,43.231,5.767,64.114c5.042,7.925,10.809,15.143,16.576,21.612c8.645,7.925,19.446,12.971,32.417,16.573
		c21.612,5.758,43.23,5.046,64.119-5.758c20.18-10.815,33.141-28.104,39.629-49.723l0.718-4.324
		c13.686,15.143,26.658,25.222,41.071,28.825c14.403,4.321,28.815,3.604,41.785-5.046c12.249-7.206,20.892-19.455,25.213-34.582
		c3.604-15.853,3.604-31.698,0-49.708c7.201,5.046,14.407,8.637,23.056,10.804c23.05,7.206,43.22,6.479,63.396-4.321
		c19.458-10.804,32.423-28.106,38.907-50.438C509.18,322.044,507.737,301.161,496.929,280.985z M392.477,160.687l8.64-3.594
		c12.97-5.767,25.216-7.206,38.186-5.767c12.252,1.442,20.897,7.2,25.213,15.849l2.882,9.361l-1.442,7.206
		c-5.042,12.97-15.852,23.049-33.858,30.977c-7.2,3.603-15.125,5.042-23.773,6.479l-88.611,10.81l-1.442-5.046l-1.442-2.154
		l2.885-3.604L392.477,160.687z M270.003,69.928c3.604-14.403,13.683-25.213,26.652-32.419c12.965-7.199,27.377-8.647,41.063-3.603
		c15.133,3.596,25.942,11.521,32.428,23.765c3.603,7.199,5.764,15.846,5.764,25.214l-2.161,15.846
		c-2.882,7.926-6.484,15.132-10.809,21.611l-64.842,79.261c-6.484-5.045-13.691-8.648-20.897-12.252l-7.197-81.407l-0.721-28.817
		L270.003,69.928z M146.8,72.083c0.722-12.972,5.767-21.611,14.403-26.656c4.324-3.603,10.81-3.603,16.567-0.72
		c12.97,3.603,23.773,12.97,32.422,30.979c3.604,7.206,7.207,14.405,8.646,23.052l14.403,85.016l-10.81,3.603l-64.12-69.884
		l-3.603-7.197C148.964,97.297,145.36,85.054,146.8,72.083z M40.9,224.825c-5.764-10.81-5.764-21.613-1.443-32.422
		c5.046-13.691,14.407-24.5,28.098-30.259c12.961-7.215,25.925-9.375,40.337-5.772l19.458,7.927l63.399,46.113
		c-5.768,7.197-9.361,14.404-11.522,21.61l-103.745,12.97l-7.206-1.439C55.306,241.389,46.664,235.625,40.9,224.825z
		 M128.784,340.813c-13.691,6.477-25.213,8.646-37.464,7.198c-10.81-0.722-19.458-4.324-23.061-10.801l-2.161-7.928l1.442-6.479
		c3.603-10.815,12.97-21.61,29.543-29.544c8.643-3.603,15.849-7.206,21.613-8.648l57.641-10.809l5.043,14.412l2.163,5.045
		c-10.809,9.361-18.736,18.007-27.373,25.935l-21.619,18.016L128.784,340.813z M241.179,437.36l-0.722,7.207
		c-5.043,12.952-13.691,23.762-26.655,29.528c-12.964,7.206-26.655,8.646-39.628,5.042c-14.401-3.585-25.21-12.233-30.978-23.765
		c-3.603-7.203-6.484-15.852-6.484-24.5l3.603-16.559c1.442-7.206,5.046-14.421,10.81-20.179l60.517-72.051
		c7.207,3.595,14.404,7.197,22.331,7.919c1.442,24.497,3.604,50.435,7.207,78.532V437.36z M217.405,293.26
		c-9.367-8.648-14.407-20.899-14.407-33.864c0-12.964,5.04-23.771,14.407-33.858c8.64-7.928,20.17-12.964,33.861-12.964
		c12.97,0,25.213,5.045,33.14,12.964c10.089,10.088,14.413,20.895,14.413,33.858c0,12.965-4.324,25.216-14.413,33.864
		c-9.369,9.361-20.17,14.404-33.14,14.404C237.575,307.664,226.045,302.621,217.405,293.26z M350.69,419.346
		c-1.442,12.97-5.767,22.331-14.406,25.934c-5.046,3.604-10.81,3.604-16.567,2.873c-13.691-3.585-24.501-14.403-32.419-31.697
		l-8.649-23.768l-10.809-62.684l12.251-4.324l9.358-5.043l30.262,30.977l18.728,23.053l3.604,7.206
		C348.526,394.124,352.13,405.651,350.69,419.346z M474.611,335.037c-3.603,14.422-12.251,25.222-24.5,30.98
		c-12.97,7.206-25.935,8.648-40.347,3.603c-8.648-2.154-14.406-5.758-19.458-11.516l-75.647-62.684l5.043-10.804l2.169-8.654
		l81.414-7.197l28.816-0.722l7.206,0.722c10.81,3.604,20.9,10.088,26.655,20.892c7.197,7.925,10.801,18.728,10.801,30.979
		L474.611,335.037z"></path></g></svg>