<?xml version="1.0" encoding="iso-8859-1"?>
<!DOCTYPE svg PUBLIC "-//W3C//DTD SVG 1.1//EN" "http://www.w3.org/Graphics/SVG/1.1/DTD/svg11.dtd">
<svg  version="1.1" xmlns="http://www.w3.org/2000/svg" xmlns:xlink="http://www.w3.org/1999/xlink" x="0px" y="0px" width="512px"
	 height="512px" viewBox="0 0 512 512" style="enable-background:new 0 0 512 512;" xml:space="preserve"><g id="7935ec95c421cee6d86eb22ecd122698"><path style="display: inline; fill-rule: evenodd; clip-rule: evenodd;" d="M3.282,243.287C3.282,109.2,110.734,0.5,243.288,0.5
		c132.541,0,239.993,108.7,239.993,242.787c0,28.308-4.79,55.454-13.599,80.718L508.718,511.5l-171.502-44.725
		c-28.843,12.413-60.593,19.287-93.928,19.287C110.734,486.063,3.282,377.362,3.282,243.287z M77.2,244.073
		c0,93.268,75.071,168.882,167.672,168.882c28.943,0,56.165-7.386,79.931-20.385l102.051,40.246l-41.132-97.16
		c16.967-26.373,26.835-57.812,26.835-91.583c0-93.268-75.078-168.87-167.685-168.87C152.271,75.204,77.2,150.806,77.2,244.073z"></path></g></svg>