<?xml version="1.0" encoding="iso-8859-1"?>
<!DOCTYPE svg PUBLIC "-//W3C//DTD SVG 1.1//EN" "http://www.w3.org/Graphics/SVG/1.1/DTD/svg11.dtd">
<svg  version="1.1" xmlns="http://www.w3.org/2000/svg" xmlns:xlink="http://www.w3.org/1999/xlink" x="0px" y="0px" width="512px"
	 height="512px" viewBox="0 0 512 512" style="enable-background:new 0 0 512 512;" xml:space="preserve"><g id="7935ec95c421cee6d86eb22ecd123f54"><path style="display: inline; fill-rule: evenodd; clip-rule: evenodd;" d="M298.305,73.507v366.658c0,0,1.398,10.167,6.5,16.105
		c5.266,6.088,14.223,7.947,14.223,7.947h39.01V511.5H256H153.962v-47.282h38.986c0,0,8.982-1.859,14.222-7.947
		c5.127-5.938,6.512-16.105,6.512-16.105V73.507c0,0-1.385-10.417-6.75-16.643c-5.002-5.801-13.985-7.436-13.985-7.436h-38.986V0.5
		H256h102.037v48.929h-39.01c0,0-8.957,1.634-13.961,7.436C299.703,63.09,298.305,73.507,298.305,73.507z"></path></g></svg>