<?xml version="1.0" encoding="iso-8859-1"?>
<!DOCTYPE svg PUBLIC "-//W3C//DTD SVG 1.1//EN" "http://www.w3.org/Graphics/SVG/1.1/DTD/svg11.dtd">
<svg  version="1.1" xmlns="http://www.w3.org/2000/svg" xmlns:xlink="http://www.w3.org/1999/xlink" x="0px" y="0px" width="512px"
	 height="512px" viewBox="0 0 512 512" style="enable-background:new 0 0 512 512;" xml:space="preserve"><g id="7935ec95c421cee6d86eb22ecd125006"><path style="display: inline;" d="M308.214,337.861l-5.663-13.064L253.93,209.107c-16.056-40.931-56.085-68.601-101.198-68.601
		c-61.043,0-110.576,51.706-110.576,115.524c0,63.756,49.533,115.493,110.576,115.493c42.618,0,79.604-25.164,98.062-62.007
		l19.668,47.329c-27.876,35.526-70.298,58.155-117.729,58.155C68.645,415.002,0.5,343.886,0.5,256.031
		c0-87.834,68.145-159.033,152.231-159.033c63.446,0,114.696,35.361,140.741,98.093c1.946,4.865,27.516,67.255,49.834,120.369
		c13.788,32.856,25.537,54.678,63.776,56.023c37.441,1.325,63.249-22.484,63.249-52.648c0-29.45-19.7-36.542-52.825-48.042
		c-59.543-20.486-90.308-41.065-90.308-90.401c0-48.115,31.303-80.205,82.295-80.205c33.137,0,57.162,15.424,73.756,46.169
		l-32.618,17.37c-12.235-17.909-25.765-25-42.97-25c-23.934,0-40.94,17.381-40.94,40.465c0,32.805,28.095,37.742,67.348,51.179
		c52.866,17.981,77.431,38.529,77.431,89.801c0,53.86-44.232,93.093-102.006,93.01C356.256,412.942,327.861,385.769,308.214,337.861
		z"></path></g></svg>