<?xml version="1.0" encoding="iso-8859-1"?>
<!DOCTYPE svg PUBLIC "-//W3C//DTD SVG 1.1//EN" "http://www.w3.org/Graphics/SVG/1.1/DTD/svg11.dtd">
<svg  version="1.1" xmlns="http://www.w3.org/2000/svg" xmlns:xlink="http://www.w3.org/1999/xlink" x="0px" y="0px" width="512px"
	 height="512px" viewBox="0 0 512 512" enable-background="new 0 0 512 512" xml:space="preserve"><g id="2069a460dcf28295e231f3111e03bf1e"><path display="inline" fill-rule="evenodd" clip-rule="evenodd" d="M97.71,88.448c16.713,15.66,30.994,58.812,69.519,53.015
		c-7.458,17.869-40.82,60.604-54.548,47.212C106.271,182.427,101.942,104.96,97.71,88.448L97.71,88.448z M182.076,131.817
		c21.19-2.672,63.041-10.406,66.915-27.573c0.005-0.004-14.885-26.049-15.619-28.988c-4.51-18.092-2.927-38.244-0.944-56.68
		C217.421,40.269,181.541,109.352,182.076,131.817L182.076,131.817z M25.528,221.097c8.819,7.54,49.354,58.164,56.267,57.093
		c6.968-1.08,30.867-60.079,25.732-66.084c1.679,1.959-70.363,5.888-88.863,0.589C19.182,216.996,22.866,217.386,25.528,221.097
		L25.528,221.097z M48.248,359.187c38.657,42.693,43.193-28.249,27.333-46.977C61.98,296.146,28.908,336.118,0.5,347.532
		C13.829,351.116,32.964,353.139,48.248,359.187L48.248,359.187z M511.5,360.312c-35.648,19.848-59.238,44.109-85.669,76.5
		c-19.253,23.595-36.492,49.784-68.221,53.94c-31.982,4.196-51.281-14.79-86.966-3.058c-37.332,12.28-75.716,4.046-107.617-17.28
		C70.49,408.54,73.779,282.196,134.592,200.783c51.31-68.675,185.297-114.1,264.914-68.376c39.318,22.583,2.89,44.513,16.626,84.313
		c2.191,6.355,5.227,12.153,7.867,18.278c6.296,14.585,26.371,47.012,26.92,61.947c0.808,21.993-2.636,13.605-17.452,29.524
		c-15.852,17.035-62.247,106.891-81.354,106.433c-5.218-0.118-14.236-19.662-17.956-23.427c-12.63-12.789-39.781-1.356-55.047-1.598
		c-136.755-2.137-123.268-206.365-4.795-177.317c74.269,18.21,31.761,71.515-3.965,95.079c-1.52,1.002,1.384,18.99,2.127,21.004
		c-57.723-23.495,28.367-63.376,0.653-83.064c-50.863-36.139-104.936,129.864,10.707,96.375
		c129.038-37.363-13.021-278.156-115.919-87.465c-30.984,57.414,0.367,138.742,62.201,160.83
		c29.338,10.484,52.475,1.257,82.207,0.027c36.751-1.516,43.919,23.027,81.26,4.882C435.513,417.862,464.982,369.09,511.5,360.312
		L511.5,360.312z M368.148,354.809C320.256,321.801,370.168,420.462,368.148,354.809L368.148,354.809z M386.19,238.431
		c-48.949,10.516,11.414,46.255,32.128,48.397C414.753,266.727,404.337,247.6,386.19,238.431L386.19,238.431z M304.428,166.785
		c11.487,35.24,48.492-3.103,67.392-13.668C351.178,147.849,310.267,139.556,304.428,166.785L304.428,166.785z M128.531,460.416
		c-3.692-11.523-21.335-61.167-34.551-62.419c-11.667-1.107-32.336,72.894-37.862,87.093c0.413,0.408,0.826,0.826,1.243,1.238
		C80.367,457.798,117.599,471.208,128.531,460.416L128.531,460.416z"></path></g></svg>