<?xml version="1.0" encoding="iso-8859-1"?>
<!DOCTYPE svg PUBLIC "-//W3C//DTD SVG 1.1//EN" "http://www.w3.org/Graphics/SVG/1.1/DTD/svg11.dtd">
<svg  version="1.1" xmlns="http://www.w3.org/2000/svg" xmlns:xlink="http://www.w3.org/1999/xlink" x="0px" y="0px" width="512px"
	 height="512px" viewBox="0 0 512 512" enable-background="new 0 0 512 512" xml:space="preserve"><g id="3e91140ac1bfb9903b91c1b0ca09a889"><path d="M251.208,143.953c0.414,3.454-1.019,6.724-15.083,7.741c-29.515,2.135-32.58,5.325-38.111,11.209
		c-7.787,8.298-18.057-10.774-18.057-10.774c-6.165-1.293-13.636-11.228-9.598-20.506c3.965-9.18,11.299-6.423,13.598-3.566
		c2.797,3.48,8.764,9.166,16.505,8.961c7.75-0.21,16.686-1.832,29.147-1.832C242.237,135.187,250.733,139.903,251.208,143.953z
		 M311.732,400.784c-0.237,0-0.44,0.091-0.59,0.258c-3.319,3.825-4.75,5.106-7.133,7.027c-5.764,4.629-12.351-0.599-16.563-3.081
		c-9.391-5.502-16.942-2.042-18.772,2.241c-1.842,4.283,0.188,9.44,5.303,8.774c7.148-0.923,7.46,0.179,12.646,3.46
		c9.632,6.113,16.659,2.786,20.252-0.092c2.994-2.378,4.662-4.429,6.213-7.327c2.77-5.473,0.504-9.78-0.811-11.069
		C312.141,400.858,311.94,400.784,311.732,400.784z M300.675,94.571c-0.49-0.008-0.977-0.015-1.459-0.015
		c-2.753,0.027-5.618,0.179-8.555,0.48c-9.769,0.998-18.306,3.394-24.032,6.421c-0.274,0.125-0.457,0.395-0.457,0.703
		c0,0.42,0.366,0.782,0.827,0.782c0.038,0,0.083-0.006,0.129-0.013c1.639-0.258,3.331-0.48,5.065-0.657
		c15.844-1.588,29.205,1.044,29.854,5.876c0.478,3.651-6.409,7.519-16.631,9.882c-0.516,0.125-0.89,0.558-0.89,1.069
		c0,0.514,0.374,0.952,0.873,1.077c4.292,1.241,9.262,2.004,14.563,2.129c16.385,0.366,29.813-5.543,30.004-13.199
		C330.163,101.445,317.052,94.937,300.675,94.571z M470.505,424.412v-0.008c-9.847-2.263-20.293-3.692-30.864-3.692
		c-18.068,0-34.508,3.135-46.646,8.184c-1.335,0.657-2.283,2.063-2.283,3.651c0,0,0,0,0,0.008c0,0.57,0.15,1.165,0.375,1.655
		c0.175,0.516,0.299,1.04,0.349,1.572c0.342,3.676-2.753,7.41-13.016,9.664c-17.399,3.83-28.387,21.782-34.674,27.737
		c-6.924,6.57-25.642,10.775-25.409,7.843c0.017-0.19,0.117-0.424,0.313-0.682c2.453-3.269,11.839-13.457,17.549-24.481
		c5.103-9.843,9.647-12.638,15.906-22.027c1.843-2.762,8.962-12.438,11.037-20.094c2.32-7.478,1.534-16.851,2.429-20.71
		c1.28-5.568,6.537-17.657,6.932-24.473v-0.004c0-0.009,0-0.009,0-0.017c0.229-3.852-16.105,5.51-23.857,5.51
		c-7.76,0-15.315-4.637-22.235-4.97c-8.575-0.407-14.085,6.604-21.837,5.39c-4.433-0.715-8.159-4.624-15.906-4.911
		c-11.016-0.396-24.481,6.125-49.777,5.311c-24.885-0.807-47.865-31.438-51.004-36.309c-3.67-5.714-8.161-5.714-13.054-1.227
		c-4.898,4.483-10.926,0.965-12.652-2.05c-3.258-5.702-11.983-22.398-25.502-25.904c-17.516-4.536-26.931,8.534-27.026,20.152
		c-0.008,0.782,0.029,1.547,0.104,2.305c1.248,12.268,9.18,15.706,12.856,22.227c3.666,6.525,5.55,10.742,12.457,13.636
		c3.67,1.522,5.618,3.605,5.743,6.246c0.042,0.882-0.121,1.817-0.484,2.824c-1.272,3.493-6.369,4.296-9.716,4.458
		c-7.125,0.341-12.11-1.598-15.752-3.905c-4.235-2.711-7.677-6.45-11.374-12.825c-4.275-7.02-11.003-10.093-18.851-10.093
		c-3.743,0-7.236,1.003-10.342,2.591c-12.291,6.413-26.927,10.197-42.686,10.197l-17.761,0.008c0,0,0,0.009,0.002,0.009h-0.002
		C5.189,341.558,0.5,314.095,0.5,285.534c0-141.115,114.401-255.51,255.506-255.51c141.114,0,255.494,114.395,255.494,255.51
		C511.5,336.734,496.446,384.424,470.505,424.412z M400.185,217.553c-2.521,8.483-6.113,19.344-22.09,27.544
		c-2.321,1.183-3.211-0.767-2.13-2.599c6.026-10.269,7.104-12.837,8.858-16.894c2.453-5.917,3.742-14.34-1.148-31.912
		c-9.605-34.583-29.658-80.803-44.222-95.792c-14.063-14.472-39.539-18.549-62.569-12.64c-8.475,2.179-25.074,10.808-55.842,3.874
		c-53.256-11.998-61.149,14.675-64.202,26.29c-3.054,11.623-10.396,44.636-10.396,44.636c-2.441,13.442-5.645,36.83,77.041,52.576
		c38.524,7.34,40.487,17.295,42.188,24.458c3.061,12.837,7.942,20.177,13.448,23.847c5.506,3.673,0,6.712-6.108,7.336
		c-16.401,1.701-77.041-15.688-112.911-36.069c-29.351-17.938-29.843-34.089-23.125-47.794
		c-44.334-4.793-77.598,4.163-83.632,25.148c-10.355,36.021,79.193,97.539,181.151,128.412
		c107.003,32.398,217.042,9.78,229.272-57.471C469.332,249.944,443.591,227.342,400.185,217.553z"/></g></svg>