<?xml version="1.0" encoding="iso-8859-1"?>
<!DOCTYPE svg PUBLIC "-//W3C//DTD SVG 1.1//EN" "http://www.w3.org/Graphics/SVG/1.1/DTD/svg11.dtd">
<svg  version="1.1" xmlns="http://www.w3.org/2000/svg" xmlns:xlink="http://www.w3.org/1999/xlink" x="0px" y="0px" width="512px"
	 height="512px" viewBox="0 0 512 512" enable-background="new 0 0 512 512" xml:space="preserve"><g id="3e91140ac1bfb9903b91c1b0ca09b2ad"><path display="inline" d="M255.996,0.504C114.949,0.504,0.6,114.803,0.5,255.831v197.72c0.075,32.021,26.047,57.945,58.088,57.945
		H256.1c141.065-0.055,255.4-114.41,255.4-255.486C511.5,114.901,397.107,0.504,255.996,0.504z M353.842,119.238
		c-8.071,0-11.004-1.551-22.83-1.551c-34.915,0-63.234,28.279-63.293,63.194v54.999c0,4.928,4,8.922,8.94,8.922l41.581,0.009
		c15.491,0,28.008,12.357,28.008,27.889c0.009,15.633-12.646,27.941-28.303,27.941h-50.227v63.555
		c0,66.221-53.688,119.916-119.911,119.916c-10.047,0-17.191-1.136-26.492-3.564c-13.561-3.551-24.643-14.671-24.647-27.604
		c0-15.627,11.347-27.001,28.309-27.001c8.074,0,11.001,1.551,22.831,1.551c34.913,0,63.232-28.281,63.295-63.192V309.3
		c0-4.932-4.007-8.924-8.941-8.924l-41.581-0.005c-15.493,0-28.01-12.358-28.01-27.891c-0.008-15.635,12.646-27.939,28.305-27.939
		h50.22v-63.559c0-66.221,53.695-119.914,119.916-119.914c10.047,0,17.191,1.134,26.489,3.566
		c13.565,3.547,24.644,14.667,24.652,27.6C382.153,107.867,370.805,119.238,353.842,119.238z"></path></g></svg>