<?xml version="1.0" encoding="iso-8859-1"?>
<!DOCTYPE svg PUBLIC "-//W3C//DTD SVG 1.1//EN" "http://www.w3.org/Graphics/SVG/1.1/DTD/svg11.dtd">
<svg  version="1.1" xmlns="http://www.w3.org/2000/svg" xmlns:xlink="http://www.w3.org/1999/xlink" x="0px" y="0px" width="512px"
	 height="512px" viewBox="0 0 512 512" enable-background="new 0 0 512 512" xml:space="preserve"><g id="3e91140ac1bfb9903b91c1b0ca098cda"><path display="inline" d="M256,0.504C114.889,0.504,0.5,114.893,0.5,256.002c0,141.101,114.389,255.494,255.5,255.494
		c141.107,0,255.5-114.394,255.5-255.494C511.5,114.893,397.111,0.504,256,0.504z M313.325,88.49
		c9.428-16.316,30.278-21.909,46.597-12.496c16.313,9.425,21.898,30.277,12.476,46.594c-9.415,16.316-30.266,21.896-46.584,12.476
		C309.508,125.648,303.914,104.796,313.325,88.49z M255.996,107.813c13.719,0,26.985,1.907,39.593,5.386
		c2.221,13.706,10.355,26.334,23.33,33.821c12.949,7.464,27.929,8.213,40.898,3.313c25.222,24.805,41.64,58.539,44.031,96.113
		l-48.609,0.718c-4.483-50.898-47.187-90.808-99.239-90.808c-14.996,0-29.22,3.335-41.972,9.27l-23.701-42.476
		C210.121,113.352,232.417,107.813,255.996,107.813z M82.269,290.112c-18.851,0-34.121-15.27-34.121-34.11
		c0-18.847,15.27-34.119,34.121-34.119c18.838,0,34.108,15.272,34.108,34.119C116.377,274.843,101.107,290.112,82.269,290.112z
		 M112.51,293.148c10.769-8.787,17.662-22.165,17.662-37.146c0-14.994-6.893-28.372-17.662-37.158
		c9.228-35.703,31.435-66.188,61.28-86.138l24.938,41.77c-25.621,18.034-42.365,47.817-42.365,81.526
		c0,33.711,16.744,63.495,42.365,81.518l-24.938,41.781C143.932,359.352,121.725,328.861,112.51,293.148z M359.922,435.985
		c-16.318,9.428-37.169,3.834-46.584-12.484c-9.424-16.305-3.83-37.156,12.483-46.579c16.311-9.411,37.169-3.822,46.584,12.483
		C381.829,405.724,376.231,426.574,359.922,435.985z M359.822,361.664c-12.975-4.903-27.945-4.167-40.903,3.311
		c-12.967,7.502-21.104,20.114-23.33,33.825c-12.604,3.484-25.874,5.394-39.589,5.394c-23.581,0-45.877-5.539-65.671-15.35
		l23.702-42.475c12.75,5.935,26.974,9.27,41.97,9.27c52.057,0,94.756-39.894,99.23-90.811l48.622,0.72
		C401.457,303.124,385.043,336.854,359.822,361.664z"></path></g></svg>