<?xml version="1.0" encoding="iso-8859-1"?>
<!DOCTYPE svg PUBLIC "-//W3C//DTD SVG 1.1//EN" "http://www.w3.org/Graphics/SVG/1.1/DTD/svg11.dtd">
<svg  version="1.1" xmlns="http://www.w3.org/2000/svg" xmlns:xlink="http://www.w3.org/1999/xlink" x="0px" y="0px" width="512px"
	 height="512px" viewBox="0 0 512 512" enable-background="new 0 0 512 512" xml:space="preserve"><g id="3e91140ac1bfb9903b91c1b0ca098e64"><path display="inline" d="M64.707,110.514c0.647,3.548,8.161-4.957,2.28,8.292C55.665,126.721,65.618,122.27,64.707,110.514z
		 M64.707,110.514c-0.016-0.203-0.026-0.402-0.049-0.609C64.654,110.143,64.674,110.338,64.707,110.514z M55.272,148.685
		c-7.332,9.371-3.373,11.367-4.146,17.742C53.779,158.285,54.259,153.396,55.272,148.685z M285.788,0.5
		c-7.91,0.666-15.79,1.061-23.571,2.063l3.427,0.468C271.37,0.933,279.716,1.881,285.788,0.5z M272.779,10l0.217-0.397l-3.194,0.659
		L272.779,10z M263.972,7.091c4.517,0.811,9.765,1.433,9.024,2.512C277.94,8.52,279.063,7.521,263.972,7.091z M216.814,281.583
		c-2.944-3.256-4.689-7.178-6.639-11.086c1.865,6.869,5.687,12.767,9.244,18.767L216.814,281.583z M308.734,276.543
		c3.053-2.387,5.822-4.799,8.292-7.145c-6.887,1.685-13.89,1.722-20.946,1.077C287.613,270.597,297.681,274.838,308.734,276.543z
		 M341.521,259.148c5.048-6.958,8.725-14.578,10.014-22.457c-1.132,5.616-4.176,10.467-7.049,15.582
		c-15.823,9.964-1.484-5.916-0.009-11.954C327.46,261.743,342.14,253.166,341.521,259.148z M358.3,215.498
		c1.019-15.247-3.007-10.428-4.358-4.608C355.518,211.712,356.773,221.638,358.3,215.498z M261.244,325.086
		c-12.183-5.706-23.338-14.318-32.514-24.864c4.868,7.128,10.12,14.052,16.911,19.495c-11.488-3.893-26.835-27.837-31.316-28.814
		c19.805,35.46,80.345,62.183,112.05,48.921c-14.672,0.545-33.306,0.304-49.786-5.788c-6.271-3.227-14.59-9.59-14.846-11.783
		C261.43,323.059,260.924,323.873,261.244,325.086z M261.904,321.749c-0.131,0.126-0.186,0.294-0.161,0.503
		C261.809,322.085,261.864,321.918,261.904,321.749z M202.472,288.037c5.564,7.561,9.978,15.748,17.085,21.658
		c-5.113-9.98-8.91-14.106-15.898-27.597L202.472,288.037z M443.778,183.099c0.142-7.774,2.162-4.074,2.948-5.988
		c-1.526-0.877-5.53-6.837-7.972-18.269c1.768-2.685,4.725,6.965,7.128,7.36c-1.547-9.09-4.209-16.021-4.316-22.995
		c-7.02-14.673-2.483,1.957-8.18-6.298c-7.474-23.311,6.2-5.412,7.123-16.002c11.328,16.412,17.79,41.845,20.751,52.381
		c-2.262-12.846-5.917-25.288-10.38-37.327c3.443,1.447-5.539-26.43,4.475-7.968c-10.699-39.354-45.776-76.126-78.051-93.38
		c3.946,3.612,8.937,8.153,7.144,8.864c-16.047-9.559-13.228-10.301-15.523-14.339c-13.078-5.319-13.931,0.429-22.593,0.008
		c-24.648-13.07-29.397-11.681-52.078-19.872l1.04,4.822c-16.335-5.438-19.025,2.064-36.67,0.019
		c-1.073-0.838,5.655-3.034,11.19-3.838c-15.786,2.082-15.047-3.111-30.492,0.572c3.807-2.67,7.833-4.437,11.891-6.708
		c-12.871,0.782-30.729,7.489-25.217,1.389c-20.994,9.369-58.284,22.519-79.211,42.141l-0.657-4.398
		c-9.589,11.511-41.814,34.379-44.382,49.287l-2.563,0.599c-4.99,8.448-8.217,18.023-12.174,26.714
		c-6.527,11.12-9.566,4.279-8.637,6.022c-12.835,26.026-19.21,47.892-24.718,65.825c3.923,5.868,0.094,35.316,1.578,58.885
		c-6.448,116.401,81.694,229.422,178.039,255.513c14.118,5.057,35.123,4.861,52.983,5.381c-21.075-6.03-23.803-3.193-44.33-10.354
		c-14.809-6.97-18.056-14.938-28.544-24.036l4.15,7.335c-20.57-7.281-11.964-9.012-28.698-14.313l4.433-5.789
		c-6.668-0.503-17.662-11.24-20.668-17.179l-7.294,0.287c-8.762-10.816-13.432-18.605-13.093-24.644l-2.356,4.196
		c-2.67-4.583-32.245-40.55-16.9-32.183c-2.851-2.604-6.641-4.238-10.75-11.702l3.125-3.568
		c-7.383-9.502-13.588-21.679-13.118-25.733c3.938,5.319,6.67,6.313,9.377,7.22c-18.646-46.26-19.692-2.549-33.815-47.083
		l2.99-0.249c-2.293-3.443-3.683-7.19-5.523-10.866l1.3-12.958c-13.424-15.52-3.757-65.994-1.819-93.675
		c1.343-11.257,11.205-23.24,18.707-42.03l-4.572-0.788c8.737-15.239,49.879-61.197,68.934-58.833
		c9.232-11.596-1.83-0.042-3.637-2.963c20.277-20.982,26.652-14.823,40.335-18.599c14.759-8.76-12.667,3.416-5.668-3.342
		c25.508-6.514,18.079-14.811,51.36-18.121c3.51,1.998-8.148,3.085-11.074,5.679c21.256-10.398,67.262-8.035,97.141,5.77
		c34.678,16.208,73.635,64.108,75.17,109.176l1.75,0.47c-0.886,17.917,2.741,38.635-3.543,57.667l4.279-9.01
		c0.499,13.694-4.009,20.335-8.071,32.098l-7.319,3.657c-5.988,11.628,0.578,7.382-3.705,16.63
		c-9.349,8.317-28.374,26.012-34.458,27.63c-4.449-0.1,3.007-5.248,3.984-7.261c-12.513,8.591-10.043,12.899-29.181,18.114
		l-0.562-1.239c-47.207,22.207-112.773-21.799-111.91-81.85c-0.507,3.811-1.435,2.859-2.481,4.402
		c-2.435-30.898,14.27-61.929,42.44-74.6c27.554-13.64,59.857-8.042,79.598,10.353c-10.841-14.201-32.42-29.255-57.999-27.847
		c-25.051,0.395-48.488,16.318-56.31,33.601c-12.837,8.082-14.326,31.152-19.919,35.373c-7.523,55.304,14.156,79.195,50.83,107.302
		c2.921,1.971,3.3,3.094,3.063,4.107c0.012-0.012,0.018-0.025,0.03-0.036c43.265,16.16,87.961,12.243,125.392-17.765
		c9.523-7.419,19.928-20.036,22.935-20.211c-4.528,6.804,0.773,3.272-2.707,9.286c9.494-15.308-4.121-6.233,9.81-26.432l5.148,7.086
		c-1.913-12.7,15.777-28.128,13.981-48.218c4.059-6.145,4.524,6.61,0.22,20.747c5.972-15.682,1.576-18.202,3.11-31.141
		c1.66,4.348,3.835,8.97,4.953,13.561c-3.893-15.154,3.992-25.521,5.942-34.327C448.802,193.447,444.714,201,443.778,183.099z"/></g></svg>