<?xml version="1.0" encoding="iso-8859-1"?>
<!DOCTYPE svg PUBLIC "-//W3C//DTD SVG 1.1//EN" "http://www.w3.org/Graphics/SVG/1.1/DTD/svg11.dtd">
<svg  version="1.1" xmlns="http://www.w3.org/2000/svg" xmlns:xlink="http://www.w3.org/1999/xlink" x="0px" y="0px" width="512px"
	 height="512px" viewBox="0 0 512 512" enable-background="new 0 0 512 512" xml:space="preserve"><g id="3e91140ac1bfb9903b91c1b0ca099d6d"><path d="M110.417,133.588l-40.715,40.724V69.213h105.073l-41.394,41.401l-3.116,3.117l3.116,3.118l96.131,96.156
		v15.72h-17.68l-95.117-95.138l-3.185-3.186L110.417,133.588z M229.513,200.47V69.213H187.31l-44.51,44.519L229.513,200.47z
		 M113.532,143.006l-43.83,43.844v41.876H199.23L113.532,143.006z M283.102,199.858l86.104-86.127l-45.118-45.13h-40.986V199.858z
		 M381.805,113.731l-3.185,3.118l-95.519,95.613v16.263h16.732l95.318-95.342l3.118-3.118l3.182,3.118l41.733,41.74V68.602H336.62
		l42,42.013L381.805,113.731z M238.389,60.27v4.472v144.605l17.613,17.617l18.223-18.229V64.198v-4.474h4.47h36.516L256.002,0.5
		l-59.753,59.77h37.668H238.389z M312.433,228.726h130.753v-40.996l-44.915-44.926L312.433,228.726z M226.736,256.239
		l-18.562-18.568H65.23h-4.403v-4.472v-37.472L0.531,256.033l60.295,60.313v-38.698v-4.399h4.403h144.501L226.736,256.239z
		 M283.102,313.295v128.948h41.797l43.56-43.571L283.102,313.295z M113.737,369.267l87.119-87.145H69.702v43.094L113.737,369.267z
		 M398.271,369.267l44.915-44.924v-42.221H311.215L398.271,369.267z M452.126,315.395l59.343-59.361l-59.343-59.36v36.526v4.472
		h-4.475H303.493l-18.362,18.362l17.21,17.216h145.311h4.475v4.399V315.395z M398.271,381.799l-3.118-3.11l-96.537-96.566h-15.514
		v18.637l94.774,94.794l3.114,3.119l-3.114,3.185l-40.379,40.387h105.688V336.941l-41.733,41.747L398.271,381.799z M274.225,451.125
		v-4.474V304.413l-18.562-18.561l-17.006,17.002v143.797v4.474h-4.468h-38.954l60.428,60.375l60.362-60.375h-37.331H274.225z
		 M130.266,398.672l3.116-3.119l96.402-96.424v-17.007h-16.393l-96.539,96.566l-3.115,3.11l-3.118-3.11l-40.917-40.932v104.486
		h104.056l-40.376-40.387L130.266,398.672z M229.784,311.735L142.8,398.672l43.558,43.571h43.426V311.735z"/>
</g></svg>