<?xml version="1.0" encoding="iso-8859-1"?>
<!DOCTYPE svg PUBLIC "-//W3C//DTD SVG 1.1//EN" "http://www.w3.org/Graphics/SVG/1.1/DTD/svg11.dtd">
<svg  version="1.1" xmlns="http://www.w3.org/2000/svg" xmlns:xlink="http://www.w3.org/1999/xlink" x="0px" y="0px" width="512px"
	 height="512px" viewBox="0 0 512 512" enable-background="new 0 0 512 512" xml:space="preserve"><g id="e6c6b53d3c8160b22dad35a0f710ac4e"><path display="inline" d="M471.393,71.202c-53.797-63.269-163.163-56.778-266.749,7.92l-49.328-65.891
		C140.16-7.05,99.947-2.625,65.495,23.118c-34.452,25.741-50.094,63.051-34.941,83.333l57.327,76.725
		C47.356,233.389,20.453,287.919,9.485,338.602c1.081-0.074,2.157-0.14,3.237-0.206c11.054-49.387,38.071-102.325,78.702-150.479
		l23.325,31.217c-29.829,38.976-49.863,81.022-58.72,120.866c-11.277,50.73-4.457,97.878,23.306,130.534
		c55.173,64.884,171.679,51.287,269.588-30.802c0.074,0.297,17.277-14.271,24.81-21.368
		C494.234,304.917,537.956,149.487,471.393,71.202z M278.019,214.888c-15.741,13.651-57.088,11.584-65.612,2.229l-85.031-113.805
		c0.28-0.214,0.541-0.438,0.826-0.65c16.674-12.459,34.522-19.94,49.767-21.942L278.019,214.888z M218.473,231.005
		c25.511,10.073,54.021-0.388,65.107-8.666l1.426,1.912l13.136,88.998c-3.938,0.792-7.931,2.518-11.563,5.231
		c-3.631,2.713-6.415,6.047-8.289,9.593l-76.726-34.766C207.298,284.361,223.667,257.822,218.473,231.005z M238.314,124.098
		c70.242-34.647,141.936-33.915,176.927,7.242c44.884,52.797,12.391,152.085-72.564,221.904c-0.012,0.01-5.501,4.341-6.957,5.675
		l-10.097,8.133l-19.392-152.233L238.314,124.098z M77.517,39.207c15.913-11.889,46.056-21.169,59.627-11.847
		c-15.471,1.799-33.753,9.349-50.799,22.086C68.273,62.948,55.398,79.43,49.732,94.464C41.968,78.135,60.556,51.881,77.517,39.207z
		 M79.26,134.563L61.129,110.3c5.193-15.603,18.384-33.024,37.33-47.182c16.756-12.521,34.698-20.021,49.994-21.975l19.145,25.67
		c-15.618,1.646-34.205,9.243-51.513,22.176C97.792,102.656,84.814,119.38,79.26,134.563z M90.811,150.023
		c4.447-13.516,14.941-28.393,29.977-41.361l84.827,113.527c0,0,12.945,33.148-12.001,65.419L90.811,150.023z M445.004,312.474
		c-26.625,49.646-61.991,84.49-97.956,115.801C258,505.794,143.634,511.89,92.29,451.463c-23.77-27.973-31.11-66.841-24.106-109.099
		c6.268-37.803,24.039-78.317,51.827-116.19l61.651,82.511l102.006,43.911c1.012,0.562,2.082,1.024,3.21,1.383l38.638,16.632
		l1.33,2.1l20.837-16.328l-0.026-0.021c1.52-1.218,3.037-2.429,4.538-3.692c89.572-75.199,124.044-180.959,76.998-236.213
		c-9.341-10.973-21.231-19.079-34.935-24.515c0.063-0.059,0.121-0.122,0.185-0.184c-0.969-0.32-1.973-0.59-2.957-0.886
		c-42.382-15.408-101.383-5.741-158.406,26.233l-21.729-29.026c94.686-52.91,192.166-54.943,241.464,2.944
		c44.061,51.758,38.096,137.876-7.506,221.32C445.206,312.388,445.1,312.433,445.004,312.474z"></path></g></svg>