<?xml version="1.0" encoding="iso-8859-1"?>
<!DOCTYPE svg PUBLIC "-//W3C//DTD SVG 1.1//EN" "http://www.w3.org/Graphics/SVG/1.1/DTD/svg11.dtd">
<svg  version="1.1" xmlns="http://www.w3.org/2000/svg" xmlns:xlink="http://www.w3.org/1999/xlink" x="0px" y="0px" width="512px"
	 height="512px" viewBox="0 0 512 512" enable-background="new 0 0 512 512" xml:space="preserve"><g id="e6c6b53d3c8160b22dad35a0f710bd89"><path display="inline" d="M448.101,101.298C364.357,13.841,225.482-3.505,120.149,59.183
		C-17.548,141.116-20.307,299.247,31.604,389.13c76.845,133.102,241.338,135.638,300.438,110.471
		c39.112-16.63,21.719-67.538-15.944-52.347c-74.367,30.039-199.509-0.063-243.232-100.993
		c-40.126-92.536,1.178-191.062,65.712-235.571c60.714-41.85,174.872-54.118,259.952,20.344
		c91.283,79.87,52.532,217.721,20.138,251.012c-8.305,8.475-23.268,1.655-21.931-11.557l-0.096-201.744
		c0-5.683-3.895-23.618-22.849-23.618l-3.067,0.016c-12.13,0-20.858,9.785-20.858,22.758v-0.101
		c-26.95-27.03-63.675-44.292-102.729-44.292c-77.163,0-145.057,68.684-145.057,146.612c0,77.163,67.894,145.04,145.057,145.04
		c39.054,0,74.897-15.595,101.832-42.322l0.403,14.406c-0.366,44.068,57.084,73.491,95.767,43.251
		C530.527,363.946,535.632,192.735,448.101,101.298z M246.623,367.618c-51.418,0-90.631-36.932-90.631-95.379
		c0-52.214,32.41-98.177,90.854-98.177h1.921c50.638,0,92.578,33.976,95.48,90.472l0.127,11.414
		C341.646,325.625,303.951,367.618,246.623,367.618z"></path></g></svg>