<?xml version="1.0" encoding="iso-8859-1"?>
<!DOCTYPE svg PUBLIC "-//W3C//DTD SVG 1.1//EN" "http://www.w3.org/Graphics/SVG/1.1/DTD/svg11.dtd">
<svg  version="1.1" xmlns="http://www.w3.org/2000/svg" xmlns:xlink="http://www.w3.org/1999/xlink" x="0px" y="0px" width="512px"
	 height="512px" viewBox="0 0 512 512" enable-background="new 0 0 512 512" xml:space="preserve"><g id="2069a460dcf28295e231f3111e03d206"><path display="inline" d="M397.395,301.142l2.132,34.705l-19.135-34.705C357.02,167.975,250.064,97.854,250.064,97.854
		l-16.998-24.08l15.592,1.411C371.2,136.804,397.395,301.142,397.395,301.142z M138.152,237.399l43.918-36.833l-22.664-16.3
		L138.152,237.399z M419.669,486.202l-4.563-6.56c-55.246-109.795-68.684-110.797-68.684-110.797s-30.795-27.469-69.083-4.16
		c0,0-39.537,18.119-42.858,54.747c0,0-3.28,37.219,9.214,48.868c0,0,22.801,29.461,71.932,17.901
		c14.146-3.339-25.804-36.628-25.804-36.628c4.99-2.495,13.319-2.495,13.319-2.495c49.938,3.343,66.579,22.474,66.579,22.474
		c-39.949,73.248-147.312,28.3-147.312,28.3c-62.424-30.79-74.251-94.053-74.251-94.053c-9.993-50.773,10.997-89.058,10.997-89.058
		c18.305-43.283,13.311-52.429,13.311-52.429c-28.295,21.639-79.903,36.623-79.903,36.623
		c-4.99-143.16,55.769-181.449,55.769-181.449c33.294,0.83,84.059,72.413,84.059,72.413C215.75,73.374,63.438,0.961,63.438,0.961
		s149.816-12.485,273.837,92.387c0,0,68.239,55.764,102.373,157.306C444.275,264.437,465.443,378.835,419.669,486.202z
		 M394.555,229.596c0,0-23.137-73.221-77.911-123.958c-9.563-8.846-49.585-46.745-120.415-68.697l-46.047-12.044
		c0,0,55.954,43.202,74.368,84.997c0,0,29.043,68.711,13.465,109.786l-6.379,12.04c0.01,0.004-40.357-62.328-75.071-85.705
		c0,0-38.247,55.269-36.837,114.044c0,0,54.539-20.537,68.711-31.874c0,0,15.584,29.741,6.37,63.035l-7.785,21.254
		c0,0-39.668,92.088,20.537,148.047c0,0-14.077-72.604,12.045-119.008l31.874-63.748c0,0,40.367-68.702,2.123-152.991
		c0,0,30.522,14.521,39.668,56.661c8.683,40.049,12.747,70.83-41.084,158.667c0,0,21.813-18.228,29.748-23.377
		c20.419-13.273,61.62-32.591,94.201,24.788c0,0,26.921,43.211,31.874,58.077C408.01,399.59,432.1,313.187,394.555,229.596z"></path></g></svg>