<?xml version="1.0" encoding="iso-8859-1"?>
<!DOCTYPE svg PUBLIC "-//W3C//DTD SVG 1.1//EN" "http://www.w3.org/Graphics/SVG/1.1/DTD/svg11.dtd">
<svg  version="1.1" xmlns="http://www.w3.org/2000/svg" xmlns:xlink="http://www.w3.org/1999/xlink" x="0px" y="0px" width="512px"
	 height="512px" viewBox="0 0 512 512" enable-background="new 0 0 512 512" xml:space="preserve"><g id="2069a460dcf28295e231f3111e03ec8e"><path display="inline" d="M383.116,234.527c14.689,55.95,33.375,133.562,28.371,167.646c-6.968,47.267-36.288,71.583-81.531,60.464
		c-37.473-9.196-73.103-68.48-128.839-115.692c-41.805-35.417-60.523-50.315-79.269-57.393c1.298-12.439,4.555-21.894,14.195-24.783
		c-12.054,2.354-20.442,7.653-22.343,25.709c-0.29,2.386-0.431,5.171-0.386,8.288c0,0.068,0,0.122,0,0.195
		c0.386,35.82,20.619,115.801,14.825,136.065c-4.69,16.413-26.316,28.935-44.717,34.188c-30.495,8.715-37.876-2.358-42.068-4.604
		c-17.089-9.2-51.808-98.698-37.463-180.783c7.231-41.419,30.912-83.486,74.277-95.322c41.351-11.278,98.826,8.483,175.802,76.932
		c18.001,57.896,45.157,128.721,42.607,143.274c3.557-18.591-31.188-129.466-43.724-187.348c-1.987-10.221-3.615-19.875-4.94-29.084
		c-1.143-16.718,19.476-33.703,40.648-41.909c25.173-9.763,66.483-8.058,74.055,6.732c2.191,11.006,5.599,24.842,10.797,42.122
		C376.288,210.438,379.568,222.278,383.116,234.527z M368.535,148.699c2.123-1.252,4.042-2.481,5.712-3.611
		c-2.305-0.83-4.496-1.46-6.578-1.932C367.914,144.894,368.19,146.749,368.535,148.699z M363.871,66.964
		c5.036,9.522,7.146,21.876,7.146,32.496c0,8.955-1.502,16.607-4.037,20.305c-0.168,0.55-0.622,2.618-0.622,7.286
		c0,2.241,0.123,5.086,0.427,8.574c4.191,0.703,8.91,2.178,13.945,4.237c22.674-21.367,30.001-53.577,24.843-64.297
		c-26.952-21.218-51.917-34.41-76.415-36.075C343.874,44.041,356.771,53.595,363.871,66.964z M446.7,180.945
		c9.405-8.919,26.04-27.224,32.414-35.676c-23.739-25.577-51.876-51.436-51.876-51.436c-4.373-3.924-8.691-7.662-12.965-11.228
		c0.276,6.301-0.844,13.886-3.326,21.952c-2.717,8.655-9.199,24.466-23.113,38.461C406.466,151.971,428.396,167.127,446.7,180.945z
		 M381.224,198.893c6.429,5.616,13.434,11.854,20.638,17.951c7.83-2.641,28.067-20.805,37.943-29.669l1.475-1.33
		c-19.008-14.249-41.283-29.446-59.171-37.563c-3.548,2.849-8.497,5.87-12.194,7.976c1.824,9.182,4.537,20.441,8.497,34.196
		C379.337,193.335,380.285,196.161,381.224,198.893z M282.925,144.866c-5.313-19.435-15.588-63.839-7.218-88.908
		c-25.391,19.575-36.383,56.254-30.05,118.273C253.174,161.774,267.959,151.24,282.925,144.866z M360.496,144.894
		c-2.926-20.151-0.676-26.902-0.168-28.096c0.168-0.358,0.372-0.689,0.608-0.979c3.625-4.097,5.117-29.279-3.448-45.461
		c-11.613-21.853-40.884-32.056-65.477-23.958c-18.8,7.948-13.237,55.609-2.313,95.895
		C311.393,135.172,343.86,134.455,360.496,144.894z M511.415,189.819c-0.952-7.767-12.812-23.037-27.337-39.133
		c-7.019,8.987-22.107,25.6-31.543,34.71c15.242,11.759,27.155,21.875,31.103,25.272c7.199-2.187,24.715-13.927,27.832-18.169
		C511.528,191.552,511.497,190.663,511.415,189.819z M463.182,246.01c8.303-2.913,17.076-9.097,25.215-15.43
		c7.39-5.757,15.062-15.9,19.435-25.409c-7.34,5.354-16.703,10.757-22.429,12.476C481.859,227.01,471.112,238.438,463.182,246.01z
		 M447.154,190.313l-2.509,2.241c-13.683,12.28-27.56,24.421-36.705,29.384c15.465,12.734,31.12,23.763,42.897,25.555
		c7.626-6.547,23.391-21.54,27.614-31.788C472.768,210.742,461.182,201.061,447.154,190.313z"></path></g></svg>