<?xml version="1.0" encoding="iso-8859-1"?>
<!DOCTYPE svg PUBLIC "-//W3C//DTD SVG 1.1//EN" "http://www.w3.org/Graphics/SVG/1.1/DTD/svg11.dtd">
<svg  version="1.1" xmlns="http://www.w3.org/2000/svg" xmlns:xlink="http://www.w3.org/1999/xlink" x="0px" y="0px" width="512px"
	 height="512px" viewBox="0 0 512 512" style="enable-background:new 0 0 512 512;" xml:space="preserve"><g id="7935ec95c421cee6d86eb22ecd126749"><path style="display: inline;" d="M284.625,84.486c0-46.384,37.902-83.986,84.646-83.986c46.746,0,84.648,37.602,84.648,83.986
		c0,46.396-37.902,84.01-84.648,84.01C322.527,168.496,284.625,130.882,284.625,84.486z M369.271,188.582
		c-29.777,0-56.938,10.916-77.809,28.844c-12.215-34.545-45.281-59.359-84.268-59.359c-23.915,0-45.586,9.382-61.616,24.552
		c-8.073-24.889-31.588-42.916-59.366-42.916c-34.439,0-62.359,27.696-62.359,61.879h-0.206v107.24h93.91v91.558h132.247V511.5
		h238.546V306.737C488.352,241.479,435.031,188.582,369.271,188.582z M207.195,142.996c35.088,0,63.52-28.22,63.52-63.039
		c0-34.807-28.432-63.027-63.52-63.027c-35.068,0-63.513,28.22-63.513,63.027C143.682,114.776,172.126,142.996,207.195,142.996z
		 M86.213,129.173c24.484,0,44.332-19.687,44.332-43.989c0-24.302-19.848-43.989-44.332-43.989
		c-24.477,0-44.326,19.687-44.326,43.989C41.887,109.487,61.736,129.173,86.213,129.173z"></path></g></svg>