<?xml version="1.0" encoding="iso-8859-1"?>
<!DOCTYPE svg PUBLIC "-//W3C//DTD SVG 1.1//EN" "http://www.w3.org/Graphics/SVG/1.1/DTD/svg11.dtd">
<svg  version="1.1" xmlns="http://www.w3.org/2000/svg" xmlns:xlink="http://www.w3.org/1999/xlink" x="0px" y="0px" width="512px"
	 height="512px" viewBox="0 0 512 512" style="enable-background:new 0 0 512 512;" xml:space="preserve"><g id="7935ec95c421cee6d86eb22ecd126d84"><path style="display: inline; fill-rule: evenodd; clip-rule: evenodd;" d="M255.645,28.909C113.896,28.909,0.5,140.835,0.5,280.416
		c0,82.742,37.839,155.748,97.268,202.676c35.538-49.92,93.886-82.477,159.829-82.477c65.111,0,122.794,31.713,158.454,80.58
		c58.114-46.871,95.449-118.613,95.449-198.594C511.5,142.299,397.378,28.909,255.645,28.909z M256.377,379.281
		c-52.337,0-95.233-43.6-95.233-96.68c0-51.618,42.896-93.043,95.233-93.043c52.326,0,95.238,42.136,95.238,93.764
		C351.615,335.682,308.703,379.281,256.377,379.281z"></path></g></svg>