<?xml version="1.0" encoding="iso-8859-1"?>
<!DOCTYPE svg PUBLIC "-//W3C//DTD SVG 1.1//EN" "http://www.w3.org/Graphics/SVG/1.1/DTD/svg11.dtd">
<svg  version="1.1" xmlns="http://www.w3.org/2000/svg" xmlns:xlink="http://www.w3.org/1999/xlink" x="0px" y="0px" width="512px"
	 height="512px" viewBox="0 0 512 512" style="enable-background:new 0 0 512 512;" xml:space="preserve"><g id="7935ec95c421cee6d86eb22ecd1276c6"><path style="display: inline;" d="M460.405,392.268v-85.154h-51.104v51.104v34.051h-34.051v-34.051H136.776v34.051H85.673v-85.154
		H51.604v85.154H0.5V256.009h51.104v-51.095h34.069v-34.078h51.104v-51.095h51.095v51.095h136.276v-51.095h51.104v51.095h34.051
		v34.078h51.104v51.095H511.5v51.104v85.154H460.405z M187.871,204.915h-51.095v51.095h51.095V204.915z M375.251,204.915h-51.104
		v51.095h51.104V204.915z M273.044,443.361v-51.094h102.207v51.094H273.044z M238.975,443.361H136.776v-51.094h102.198V443.361z
		 M85.673,68.638h51.104v51.104H85.673V68.638z M426.346,68.638v51.104h-51.095V68.638H426.346z"></path></g></svg>