<?xml version="1.0" encoding="iso-8859-1"?>
<!DOCTYPE svg PUBLIC "-//W3C//DTD SVG 1.1//EN" "http://www.w3.org/Graphics/SVG/1.1/DTD/svg11.dtd">
<svg  version="1.1" xmlns="http://www.w3.org/2000/svg" xmlns:xlink="http://www.w3.org/1999/xlink" x="0px" y="0px" width="512px"
	 height="512px" viewBox="0 0 512 512" style="enable-background:new 0 0 512 512;" xml:space="preserve"><g id="7935ec95c421cee6d86eb22ecd127dd3"><path style="display: inline;" d="M240.864,0.5c10.518,0,21.033,0,31.538,0c0,52.797,0,105.568,0,158.353
		c14.435-9.407,30.079-20.547,44.427-31.189c-0.837-25.513,15.556-43.19,37.638-43.065c20.11,0.112,38.763,17.179,36.966,42.379
		c-1.386,19.337-16.231,35.418-36.966,35.605c-9.107,0.087-15.271-3.169-21.37-6.774c-20.423,14.047-40.658,28.282-60.694,42.716
		c0,34.146,0,68.279,0,102.4c14.746-9.669,30.653-21.109,45.437-31.863c-1.273-21.52,10.504-34.719,23.055-40.009
		c32.212-13.561,59.696,20.235,48.829,49.84c-5.913,16.118-25.375,31.239-47.793,22.381c-3.044-1.197-4.517-2.021-7.81-4.066
		c-20.859,14.159-41.395,28.682-61.718,43.402c0,33.235,0,66.457,0,99.68c14.935-9.356,30.403-21.134,45.437-31.525
		c-0.898-14.746,3.842-24.24,10.866-31.538c7.023-7.286,15.706-12.912,30.502-11.516c18.364,1.697,31.963,17.403,33.235,36.279
		c0.861,12.838-5.215,25.263-13.909,32.886c-9.794,8.608-32.375,12.376-44.413,1.696c-20.723,14.31-41.258,28.819-61.718,43.403
		c0,10.504,0,21.021,0,31.525c-10.63,0-21.233,0-31.875,0c0-29.58,0-59.284,0-90.186c0-4.242,0.936-10.056,0-12.888
		c-0.937-2.907-12.351-9.157-15.245-11.19c-13.287-9.332-25.313-18.115-38.662-27.472c-1.622-1.123-6.475-5.352-7.447-5.427
		c-1.111-0.05-7.024,4.217-8.483,4.741c-30.628,11.34-60.17-20.897-47.482-51.861c6.2-15.12,22.068-26.673,41.031-23.067
		c16.656,3.169,29.418,15.831,30.854,34.595c0.161,2.121-0.812,4.978,0,7.448c0.873,2.657,8.309,6.425,11.189,8.483
		c11.777,8.445,22.631,15.794,34.246,24.065c0-28.719,0-58.66,0-88.489c0-4.242,0.874-9.868,0-12.551
		c-0.474-1.497-5.228-4.517-7.448-6.088c-18.7-13.287-36.753-25.351-54.942-38.325c-3.53,1.547-5.851,3.58-9.157,4.74
		c-14.109,4.94-27.446-0.474-34.932-6.437c-8.097-6.476-14.521-17.067-14.571-30.516c-0.074-21.732,16.307-37.626,34.932-38.999
		c24.103-1.771,41.095,18.614,39.672,42.717c14.835,11.727,31.064,22.082,46.447,33.234c0-28.968,0-59.109,0-89.175
		c0-4.279,0.874-9.793,0-12.551c-0.599-1.958-5.04-4.067-7.448-5.764c-18.251-12.85-35.705-25.462-53.595-37.976
		c-3.394,1.871-4.816,3.281-7.785,4.417c-12.887,4.89-25.237,1.584-32.897-3.394c-8.06-5.252-14.634-13.761-16.942-24.09
		c-5.352-23.891,10.829-45.786,32.213-47.794c23.928-2.258,40.956,16.043,41.705,37.29c0.05,1.36-0.749,3.618-0.35,5.09
		c0.724,2.57,8.109,6.537,10.854,8.471c11.652,8.259,22.756,15.956,34.246,23.741c0-28.257,0-56.514,0-84.771
		C240.503,1.049,240.478,0.563,240.864,0.5z"></path></g></svg>