<?xml version="1.0" encoding="iso-8859-1"?>
<!DOCTYPE svg PUBLIC "-//W3C//DTD SVG 1.1//EN" "http://www.w3.org/Graphics/SVG/1.1/DTD/svg11.dtd">
<svg  version="1.1" xmlns="http://www.w3.org/2000/svg" xmlns:xlink="http://www.w3.org/1999/xlink" x="0px" y="0px" width="512px"
	 height="512px" viewBox="0 0 512 512" style="enable-background:new 0 0 512 512;" xml:space="preserve"><g id="7935ec95c421cee6d86eb22ecd128789"><path style="display: inline;" d="M256.018,259.156c71.423,0,129.31-57.899,129.31-129.334C385.327,58.387,327.44,0.5,256.018,0.5
		c-71.448,0-129.359,57.887-129.359,129.322C126.658,201.257,184.57,259.156,256.018,259.156z M256.018,66.196
		c35.131,0,63.612,28.482,63.612,63.625c0,35.144-28.481,63.625-63.612,63.625c-35.168,0-63.638-28.481-63.638-63.625
		C192.38,94.678,220.849,66.196,256.018,66.196z M405.075,274.938c-7.285-14.671-27.508-26.872-54.394-5.701
		c-36.341,28.619-94.664,28.619-94.664,28.619s-58.361,0-94.702-28.619c-26.873-21.171-47.083-8.97-54.381,5.701
		c-12.75,25.563,1.634,37.926,34.096,58.761c27.721,17.803,65.821,24.452,90.411,26.935l-20.535,20.535
		c-28.918,28.905-56.826,56.838-76.201,76.213c-11.59,11.577-11.59,30.354,0,41.931l3.48,3.506c11.59,11.577,30.354,11.577,41.943,0
		l76.201-76.214c28.943,28.919,56.851,56.839,76.225,76.214c11.59,11.577,30.354,11.577,41.943,0l3.48-3.506
		c11.59-11.59,11.59-30.354,0-41.943l-76.201-76.2l-20.584-20.598c24.614-2.545,62.29-9.22,89.786-26.872
		C403.441,312.863,417.801,300.5,405.075,274.938z"></path></g></svg>