<?xml version="1.0" encoding="iso-8859-1"?>
<!DOCTYPE svg PUBLIC "-//W3C//DTD SVG 1.1//EN" "http://www.w3.org/Graphics/SVG/1.1/DTD/svg11.dtd">
<svg  version="1.1" xmlns="http://www.w3.org/2000/svg" xmlns:xlink="http://www.w3.org/1999/xlink" x="0px" y="0px" width="512px"
	 height="512px" viewBox="0 0 512 512" enable-background="new 0 0 512 512" xml:space="preserve"><g id="3e91140ac1bfb9903b91c1b0ca08b5fa"><path display="inline" d="M426.333,0.5H85.667C38.825,0.5,0.5,38.825,0.5,85.667v340.667c0,46.842,38.325,85.167,85.167,85.167
		h340.667c46.842,0,85.167-38.325,85.167-85.167V85.667C511.5,38.825,473.175,0.5,426.333,0.5z M268.347,110.865
		c12.68-15.459,34.44-27.319,53.034-28.621c3.147,21.184-5.498,41.822-16.88,56.421c-12.205,15.684-33.197,27.848-53.506,27.211
		C247.29,145.672,256.842,124.879,268.347,110.865z M382.527,379.367c-14.671,22.306-35.298,50.102-60.848,50.318
		c-22.73,0.225-28.577-14.805-59.425-14.639c-30.796,0.158-37.257,14.93-60.01,14.705c-25.543-0.217-45.095-25.338-59.762-47.645
		c-30.17-45.964-40.281-97.726-33.514-137.471c2.439-14.168,6.914-26.889,13.52-37.121c17.963-27.7,46.289-43.918,72.895-43.918
		c27.132,0,44.141,14.925,66.555,14.925c21.757,0,34.998-14.925,66.328-14.925c23.679,0,48.768,12.945,66.641,35.248
		c-17.687,9.746-29.08,24.188-34.836,40.242c-13.315,37.023,3.668,82.526,44.971,98.104
		C396.92,355.285,392.965,363.369,382.527,379.367z"></path></g></svg>