<?xml version="1.0" encoding="iso-8859-1"?>
<!DOCTYPE svg PUBLIC "-//W3C//DTD SVG 1.1//EN" "http://www.w3.org/Graphics/SVG/1.1/DTD/svg11.dtd">
<svg  version="1.1" xmlns="http://www.w3.org/2000/svg" xmlns:xlink="http://www.w3.org/1999/xlink" x="0px" y="0px" width="512px"
	 height="512px" viewBox="0 0 512 512" enable-background="new 0 0 512 512" xml:space="preserve"><g id="3e91140ac1bfb9903b91c1b0ca0876de"><path d="M248.639,123.48c-5.447-29.712,8.601-60.286,25.518-80.894C292.803,19.854,324.799,2.415,352.141,0.5
			c4.624,31.149-8.088,61.499-24.822,82.965C309.37,106.526,278.506,124.412,248.639,123.48z M409.029,231.128
			c8.463-23.604,25.222-44.841,51.226-59.172c-26.282-32.794-63.169-51.828-97.992-51.828c-46.064,0-65.534,21.944-97.53,21.944
			c-32.96,0-57.97-21.944-97.866-21.944c-39.124,0-80.776,23.845-107.187,64.578c-9.714,15.046-16.297,33.751-19.882,54.585
			c-9.951,58.444,4.916,134.558,49.279,202.143c21.57,32.802,50.318,69.738,87.878,70.063c33.46,0.324,42.958-21.392,88.244-21.624
			c45.361-0.25,53.957,21.849,87.375,21.524c37.572-0.316,67.9-41.194,89.475-73.988c15.354-23.529,21.167-35.414,33.11-62.021
			C414.428,352.482,389.455,285.571,409.029,231.128z"></path></g></svg>