<?xml version="1.0" encoding="iso-8859-1"?>
<!DOCTYPE svg PUBLIC "-//W3C//DTD SVG 1.1//EN" "http://www.w3.org/Graphics/SVG/1.1/DTD/svg11.dtd">
<svg  version="1.1" xmlns="http://www.w3.org/2000/svg" xmlns:xlink="http://www.w3.org/1999/xlink" x="0px" y="0px" width="512px"
	 height="512px" viewBox="0 0 512 512" enable-background="new 0 0 512 512" xml:space="preserve"><g id="3e91140ac1bfb9903b91c1b0ca08a1f6"><path display="inline" d="M260.219,256.096c0,29.737-10.935,53.337-32.042,53.337c-20.909,0-32.23-23.791-32.23-52.761
		c0-27.051,10.169-52.763,32.424-52.763C250.051,203.908,260.219,229.042,260.219,256.096z M511.5,85.667v340.667
		c0,46.842-38.325,85.167-85.167,85.167H85.667C38.825,511.5,0.5,473.175,0.5,426.333V85.667C0.5,38.825,38.825,0.5,85.667,0.5
		h340.667C473.175,0.5,511.5,38.825,511.5,85.667z M146.446,223.674h-28.396v106.863h28.396V223.674z M147.404,194.508
		c0-8.827-6.138-15.158-15.347-15.158c-8.827,0-15.16,6.331-15.16,15.158c0,8.633,6.14,15.158,15.16,15.158
		C140.881,209.666,147.404,203.719,147.404,194.508z M289.959,254.946c0-39.333-19.953-74.25-60.823-74.25
		c-38.56,0-62.927,32.424-62.927,76.553c0,42.782,22.061,75.402,61.01,75.402C263.868,332.65,289.959,306.364,289.959,254.946z
		 M395.103,287.946c0-19.379-10.554-33-34.149-43.553c-18.036-8.25-25.33-13.047-25.33-23.6c0-8.25,6.717-16.308,21.683-16.308
		c12.085,0,21.104,3.645,26.286,6.331l5.947-23.217c-6.912-3.454-17.653-6.714-31.659-6.714c-31.851,0-50.842,18.609-50.842,42.787
		c0,19.183,13.814,32.998,36.066,42.59c16.31,7.103,23.412,13.432,23.412,23.986c0,10.933-8.25,18.414-23.986,18.414
		c-11.893,0-24.173-3.644-31.846-8.247l-5.564,23.791c6.903,4.217,21.679,8.251,36.259,8.251
		C375.724,332.459,395.103,313.654,395.103,287.946z"></path></g></svg>