<?xml version="1.0" encoding="iso-8859-1"?>
<!DOCTYPE svg PUBLIC "-//W3C//DTD SVG 1.1//EN" "http://www.w3.org/Graphics/SVG/1.1/DTD/svg11.dtd">
<svg  version="1.1" xmlns="http://www.w3.org/2000/svg" xmlns:xlink="http://www.w3.org/1999/xlink" x="0px" y="0px" width="512px"
	 height="512px" viewBox="0 0 512 512" enable-background="new 0 0 512 512" xml:space="preserve"><g id="3e91140ac1bfb9903b91c1b0ca089c52"><path display="inline" d="M242.93,136.455c2.291,0,4.454,0.603,6.408,1.726c1.955,1.098,3.71,2.732,5.19,4.736
		c1.455,2.013,2.653,4.425,3.472,7.137c0.823,2.703,1.272,5.697,1.272,8.883c0,3.173-0.453,6.171-1.285,8.891
		c-0.831,2.744-2.034,5.189-3.518,7.231c-1.489,2.046-3.277,3.697-5.257,4.841s-4.166,1.768-6.487,1.768
		c-2.328,0-4.532-0.624-6.521-1.768c-1.987-1.144-3.768-2.795-5.248-4.841c-1.476-2.042-2.661-4.487-3.46-7.231
		c-0.807-2.72-1.23-5.718-1.21-8.891c0.038-3.186,0.512-6.18,1.36-8.883c0.84-2.712,2.063-5.124,3.56-7.137
		c1.497-2.004,3.269-3.639,5.248-4.736C238.443,137.058,240.63,136.455,242.93,136.455 M270.464,139.516
		c-2.212,0-4.308,0.565-6.213,1.572c-1.908,1.031-3.626,2.503-5.064,4.316c-1.439,1.83-2.604,4.005-3.407,6.421
		c-0.803,2.42-1.247,5.094-1.247,7.889c0.004,2.79,0.453,5.451,1.272,7.885c0.819,2.424,1.993,4.641,3.444,6.491
		c1.468,1.854,3.197,3.36,5.127,4.399c1.938,1.048,4.059,1.63,6.296,1.63c2.204,0,4.3-0.582,6.213-1.63
		c1.905-1.039,3.618-2.553,5.045-4.399c1.435-1.88,2.582-4.084,3.372-6.517c0.795-2.449,1.215-5.14,1.189-7.935
		c-0.025-2.782-0.499-5.443-1.322-7.847c-0.823-2.408-2.005-4.574-3.46-6.388c-1.451-1.834-3.169-3.285-5.073-4.316
		C274.731,140.081,272.651,139.516,270.464,139.516 M121.173,387.692c1.942-0.396,3.909-0.749,5.872-1.048
		c1.971-0.313,3.942-0.562,5.922-0.778c1.979-0.216,3.971-0.374,5.946-0.482c1.988-0.116,3.968-0.187,5.938-0.187
		c17.416,0,32.396,1.759,45.063,4.823c12.695,3.062,23.096,7.452,31.334,12.726c8.255,5.29,14.335,11.465,18.352,18.106
		c4.034,6.657,5.98,13.781,5.964,20.904c-0.009,1.231-0.059,2.396-0.15,3.51c-0.1,1.106-0.241,2.18-0.433,3.194
		c-0.19,0.998-0.428,1.963-0.706,2.878c-0.283,0.914-0.616,1.775-0.99,2.595c1.023,0.066,2.055,0.116,3.086,0.166
		c1.022,0.042,2.054,0.083,3.085,0.1c1.023,0.033,2.063,0.05,3.082,0.059c1.035,0.017,2.059,0.017,3.09,0.017
		c0.258,0,0.466,0,0.665,0c0.191,0,0.366,0,0.541,0c0.166,0,0.341,0,0.516,0c0.183,0,0.382,0,0.615,0c0.936,0,1.871,0,2.807-0.017
		c0.928,0,1.867-0.025,2.799-0.042c0.924-0.024,1.847-0.05,2.77-0.083c0.932-0.033,1.854-0.07,2.762-0.116
		c-0.383-0.815-0.716-1.672-1.007-2.595c-0.291-0.915-0.54-1.872-0.748-2.895c-0.2-1.015-0.35-2.088-0.462-3.219
		c-0.104-1.123-0.162-2.304-0.162-3.552c-0.017-7.123,1.934-14.247,5.963-20.904c4.018-6.642,10.105-12.816,18.373-18.106
		c8.233-5.273,18.639-9.664,31.343-12.726c12.688-3.064,27.675-4.823,45.111-4.823c2.092,0,4.18,0.07,6.267,0.203
		c2.088,0.117,4.167,0.296,6.238,0.532c2.079,0.25,4.142,0.533,6.188,0.887c2.055,0.361,4.088,0.761,6.105,1.218
		c1.871-3.942,3.501-8.059,4.89-12.351c1.39-4.292,2.521-8.745,3.394-13.387c0.873-4.641,1.489-9.443,1.821-14.417
		c0.341-4.974,0.403-10.114,0.184-15.424c-0.475-11.565-2.396-24.166-5.881-36.94c-3.46-12.696-8.458-25.559-15.111-37.801
		c-6.612-12.16-14.863-23.729-24.872-33.917c-9.956-10.122-21.662-18.921-35.285-25.642c5.272-1.181,10.196-3.04,14.588-5.456
		c4.383-2.412,8.25-5.348,11.439-8.712c3.174-3.344,5.677-7.115,7.349-11.157c1.663-4.042,2.508-8.367,2.379-12.842
		c-0.167-5.414-1.73-10.546-4.412-15.212c-2.675-4.641-6.467-8.824-11.083-12.326c-4.616-3.493-10.063-6.32-16.077-8.267
		c-6.005-1.946-12.575-3.023-19.437-3.023c-5.979,0-11.71,0.819-17.009,2.325c-5.31,1.488-10.2,3.676-14.492,6.403
		c-4.304,2.753-8.005,6.038-10.933,9.756c-2.936,3.718-5.099,7.86-6.296,12.293c-0.599-6.62-2.354-12.858-5.033-18.489
		c-2.67-5.613-6.258-10.612-10.563-14.804c-4.283-4.171-9.281-7.511-14.779-9.831c-5.489-2.295-11.481-3.568-17.782-3.568
		c0,0-0.017,0-0.024,0c-0.017,0-0.025,0-0.033,0c-0.009,0-0.017,0-0.033,0c-0.009,0-0.025,0-0.033,0
		c-6.688,0-13.092,1.423-18.93,4.018c-5.859,2.591-11.174,6.358-15.687,11.004c-4.516,4.665-8.233,10.255-10.87,16.459
		c-2.653,6.238-4.217,13.124-4.425,20.352v0.083c-0.142,4.841,0.346,9.565,1.381,14.057c1.031,4.508,2.62,8.791,4.674,12.745
		c2.071,3.968,4.6,7.614,7.54,10.858c2.939,3.243,6.275,6.08,9.926,8.408c-11.993,7.22-22.322,16.136-31.122,26.091
		c-8.85,10.047-16.156,21.175-22.02,32.744c-5.901,11.66-10.351,23.778-13.436,35.705c-3.111,12.001-4.832,23.799-5.281,34.687
		c-0.216,5.293-0.15,10.4,0.191,15.341c0.349,4.957,0.956,9.73,1.821,14.338c0.881,4.604,2.004,9.032,3.381,13.291
		C117.705,379.695,119.326,383.787,121.173,387.692 M257.664,43.134c8.825,0.118,17.549,0.882,26.083,2.258
		c8.533,1.374,16.883,3.364,24.955,5.949c8.08,2.586,15.897,5.764,23.35,9.487c7.465,3.742,14.572,8.049,21.226,12.896
		c6.138,4.46,11.785,9.307,16.879,14.461c5.111,5.155,9.678,10.628,13.603,16.3c3.942,5.688,7.257,11.586,9.873,17.591
		c2.619,6.021,4.532,12.168,5.672,18.313c0.715,3.826,1.355,7.395,1.921,10.763c0.574,3.372,1.082,6.529,1.539,9.54
		s0.873,5.847,1.256,8.574c0.383,2.72,0.74,5.314,1.09,7.835c0.378,2.67,0.728,5.198,1.081,7.639
		c0.357,2.445,0.715,4.804,1.081,7.115c0.374,2.316,0.766,4.592,1.206,6.87c0.44,2.296,0.923,4.566,1.455,6.903
		c3.564,6.333,7.228,11.428,10.888,15.636c3.659,4.2,7.327,7.502,10.878,10.288c3.544,2.778,6.995,5.032,10.214,7.137
		c3.235,2.104,6.246,4.059,8.949,6.237c4.142,3.339,8.782,6.771,13.61,10.247c4.828,3.484,9.852,7.036,14.722,10.662
		c4.891,3.635,9.631,7.327,13.91,11.078c4.283,3.768,8.097,7.606,11.111,11.503c1.771,2.291,3.335,4.665,4.541,6.944
		c1.215,2.271,2.097,4.475,2.495,6.421c0.403,1.954,0.333,3.659-0.324,4.957c-0.657,1.28-1.913,2.179-3.888,2.495
		c-0.254,0.05-0.512,0.066-0.778,0.116c-0.266,0.025-0.523,0.05-0.79,0.066c-0.266,0.025-0.54,0.033-0.814,0.042
		c-0.267,0.008-0.537,0.024-0.815,0.024c-4.125,0-8.75-1.122-13.606-2.877c-4.866-1.738-9.973-4.109-15.096-6.621
		c-5.123-2.503-10.247-5.136-15.162-7.41c-4.907-2.296-9.614-4.233-13.881-5.323c-0.587-0.166-1.186-0.312-1.788-0.437
		c-0.616-0.125-1.223-0.237-1.847-0.328c-0.615-0.1-1.243-0.191-1.863-0.25c-0.632-0.091-1.256-0.124-1.888-0.17
		c0.565,2.823,0.965,5.659,1.16,8.629c0.195,2.985,0.199,6.096,0,9.465c-0.195,3.376-0.603,7.003-1.219,11.003
		c-0.623,4.018-1.455,8.4-2.52,13.278c-0.449,2.146-1.239,5.414-2.512,9.544c-1.265,4.134-3.011,9.132-5.381,14.721
		c-2.388,5.618-5.39,11.819-9.166,18.373c-3.792,6.57-8.351,13.474-13.848,20.427c6.778,2.274,13.24,5.069,19.171,8.288
		c5.938,3.227,11.336,6.874,15.985,10.815c4.666,3.959,8.566,8.218,11.502,12.659c2.944,4.429,4.903,9.049,5.677,13.735
		c0.424,2.595,0.628,5.061,0.628,7.398c-0.008,2.345-0.232,4.532-0.665,6.587c-0.433,2.046-1.073,3.926-1.922,5.639
		c-0.848,1.726-1.908,3.256-3.177,4.62c-1.147,1.248-2.462,2.346-3.926,3.281c-1.48,0.944-3.103,1.722-4.882,2.357
		c-1.78,0.633-3.718,1.094-5.797,1.419c-2.079,0.312-4.309,0.461-6.683,0.461c-6.642,0-13.278,0-19.857,0.013
		c-6.57,0-13.1,0-19.516,0c-6.417,0-12.746,0.017-18.917,0.024c-6.172,0.018-12.21,0.029-18.057,0.063c-4.62,0-9.124,0-13.478,0
		c-4.354,0-8.571,0-12.613,0s-7.922,0-11.61,0c-3.685,0-7.187,0-10.472,0c-3.451,0-6.944-0.07-10.354-0.332
		c-3.41-0.267-6.736-0.716-9.848-1.464c-3.118-0.761-6.021-1.83-8.6-3.327c-2.562-1.477-4.79-3.405-6.554-5.851
		c-1.031,0.033-2.063,0.083-3.094,0.12c-1.035,0.05-2.063,0.092-3.11,0.121c-1.04,0.021-2.092,0.058-3.145,0.074
		c-1.048,0.017-2.12,0.033-3.193,0.033h-4.5c-1.122,0-2.232-0.017-3.335-0.033c-1.105-0.017-2.204-0.054-3.285-0.083
		c-1.09-0.041-2.175-0.083-3.252-0.133c-1.081-0.066-2.162-0.116-3.235-0.188c-1.763,2.482-3.992,4.412-6.562,5.909
		c-2.57,1.51-5.469,2.574-8.588,3.344c-3.114,0.761-6.441,1.21-9.852,1.477c-3.41,0.262-6.895,0.332-10.354,0.332
		c-3.285,0-6.778,0-10.472,0c-3.685,0-7.568,0-11.602,0c-4.055,0-8.259,0-12.613,0c-4.354,0-8.857,0-13.478,0
		c-5.855-0.033-11.885-0.045-18.061-0.063c-6.184-0.008-12.497-0.024-18.917-0.024c-6.429,0-12.95,0-19.529,0
		c-6.57-0.013-13.199-0.013-19.844-0.013c-2.396,0-4.633-0.149-6.72-0.461c-2.083-0.325-4.017-0.786-5.797-1.419
		c-1.771-0.636-3.394-1.413-4.857-2.357c-1.464-0.936-2.77-2.033-3.917-3.281c-1.264-1.364-2.32-2.895-3.168-4.62
		c-0.849-1.713-1.497-3.593-1.921-5.639c-0.433-2.055-0.657-4.242-0.666-6.587c-0.008-2.338,0.2-4.804,0.628-7.398
		c0.761-4.703,2.745-9.353,5.718-13.802c2.965-4.458,6.912-8.725,11.61-12.684c4.699-3.968,10.147-7.619,16.144-10.837
		c5.972-3.219,12.488-6.005,19.312-8.259c-5.472-6.962-10.022-13.856-13.806-20.41c-3.759-6.537-6.762-12.742-9.132-18.34
		c-2.371-5.589-4.117-10.579-5.39-14.704c-1.264-4.113-2.05-7.382-2.503-9.527c-1.064-4.903-1.896-9.294-2.52-13.319
		c-0.62-4.018-1.023-7.652-1.223-11.028c-0.2-3.369-0.2-6.487-0.008-9.465c0.2-2.978,0.59-5.818,1.156-8.638
		c-0.69,0.046-1.394,0.096-2.092,0.154c-0.703,0.07-1.41,0.166-2.117,0.249c-0.699,0.116-1.397,0.241-2.096,0.37
		c-0.69,0.154-1.38,0.3-2.054,0.486c-4.275,1.09-8.974,3.027-13.881,5.323c-4.915,2.274-10.042,4.907-15.153,7.41
		c-5.119,2.512-10.222,4.883-15.079,6.621c-4.857,1.755-9.457,2.877-13.565,2.877c-0.274,0-0.541-0.017-0.815-0.024
		c-0.274-0.009-0.537-0.017-0.799-0.042c-0.266-0.017-0.532-0.041-0.798-0.066c-0.258-0.05-0.511-0.066-0.765-0.116
		c-1.979-0.316-3.235-1.215-3.896-2.495c-0.661-1.298-0.719-3.003-0.32-4.957c0.408-1.946,1.277-4.15,2.495-6.421
		c1.214-2.279,2.77-4.653,4.542-6.944c3.019-3.896,6.836-7.735,11.12-11.503c4.267-3.751,9.016-7.443,13.89-11.078
		c4.874-3.626,9.872-7.178,14.696-10.662c4.815-3.477,9.439-6.908,13.565-10.247c2.794-2.279,5.938-4.309,9.307-6.495
		c3.36-2.188,6.961-4.566,10.671-7.544c3.705-2.957,7.523-6.513,11.328-11.087c3.793-4.565,7.577-10.113,11.228-17.091
		c0.441-2.055,0.836-4.075,1.206-6.113c0.358-2.046,0.699-4.092,1.027-6.188c0.32-2.075,0.636-4.222,0.952-6.417
		c0.324-2.225,0.641-4.504,0.981-6.891c0.349-2.521,0.707-5.115,1.089-7.835c0.383-2.728,0.799-5.563,1.248-8.574
		c0.466-3.011,0.965-6.168,1.539-9.54c0.565-3.368,1.202-6.937,1.921-10.763c1.131-6.146,3.053-12.292,5.672-18.313
		c2.611-6.005,5.922-11.902,9.864-17.591c3.93-5.672,8.483-11.145,13.599-16.3c5.09-5.154,10.741-10.001,16.875-14.461
		c6.654-4.847,13.757-9.153,21.226-12.896c7.443-3.724,15.253-6.901,23.338-9.487c8.059-2.585,16.4-4.575,24.926-5.949
		c8.525-1.376,17.225-2.14,26.032-2.258H257.664 M257.032,166.039c-0.258,1.604-0.583,3.186-0.973,4.749
		c-0.399,1.547-0.857,3.077-1.373,4.57c-0.523,1.492-1.102,2.965-1.738,4.396c-0.632,1.431-1.322,2.84-2.059,4.2
		c-4.72,0.266-9.485,1.081-13.993,2.204c-4.508,1.105-8.766,2.553-12.492,4.1c-3.718,1.563-6.898,3.239-9.248,4.808
		c-2.346,1.563-3.868,3.048-4.25,4.225c-0.383,1.148-0.433,2.296-0.258,3.41c0.17,1.106,0.565,2.163,1.072,3.136
		c0.491,0.973,1.094,1.871,1.688,2.637c0.599,0.765,1.182,1.397,1.639,1.867c0.449,0.494,2.403,2.482,5.123,5.227
		c2.729,2.753,6.222,6.263,9.748,9.798c3.534,3.526,7.103,7.069,9.955,9.864c2.853,2.794,4.982,4.823,5.639,5.339
		c0.666,0.541,1.285,1.048,1.913,1.514c0.641,0.466,1.289,0.882,1.996,1.231c0.707,0.366,1.489,0.648,2.371,0.849
		c0.89,0.19,1.892,0.308,3.061,0.308h0.532h0.266h0.528c1.169,0,2.167-0.117,3.044-0.308c0.878-0.2,1.646-0.482,2.346-0.849
		c0.698-0.35,1.335-0.766,1.959-1.231c0.623-0.466,1.239-0.973,1.888-1.514c0.669-0.516,2.811-2.545,5.659-5.339
		c2.849-2.795,6.417-6.338,9.956-9.864c3.53-3.535,7.023-7.045,9.752-9.798c2.724-2.744,4.683-4.732,5.131-5.227
		c0.458-0.47,1.036-1.103,1.631-1.867c0.59-0.766,1.201-1.664,1.696-2.637c0.499-0.973,0.898-2.029,1.073-3.136
		c0.175-1.114,0.124-2.262-0.258-3.41c-0.366-1.114-1.714-2.495-3.81-3.959c-2.104-1.48-4.94-3.027-8.301-4.499
		c-3.352-1.477-7.21-2.874-11.344-4.025c-4.13-1.147-8.525-2.071-12.975-2.566c0.308,0.021,0.606,0.038,0.915,0.051
		c0.295,0.021,0.606,0.045,0.906,0.054c0.3,0.033,0.607,0.046,0.906,0.066c0.304,0.009,0.607,0.029,0.915,0.054
		c-1.331-1.326-2.554-2.715-3.651-4.146c-1.114-1.447-2.104-2.944-2.969-4.483c-0.873-1.547-1.605-3.135-2.213-4.773
		C257.831,169.424,257.356,167.752,257.032,166.039"></path></g></svg>