<?xml version="1.0" encoding="iso-8859-1"?>
<!DOCTYPE svg PUBLIC "-//W3C//DTD SVG 1.1//EN" "http://www.w3.org/Graphics/SVG/1.1/DTD/svg11.dtd">
<svg  version="1.1" xmlns="http://www.w3.org/2000/svg" xmlns:xlink="http://www.w3.org/1999/xlink" x="0px" y="0px" width="512px"
	 height="512px" viewBox="0 0 512 512" enable-background="new 0 0 512 512" xml:space="preserve"><g id="3e91140ac1bfb9903b91c1b0ca08d1e5"><path display="inline" d="M341.516,300.601c0.125,3.098,0.092,6.096-0.107,8.994c-0.195,2.903-0.554,5.706-1.064,8.413
		c-0.508,2.707-1.169,5.307-1.979,7.81c-0.808,2.499-1.764,4.903-2.854,7.203c-1.173-0.267-2.361-0.499-3.56-0.712
		c-1.189-0.207-2.396-0.37-3.609-0.516c-1.206-0.137-2.42-0.241-3.635-0.308c-1.223-0.079-2.44-0.12-3.659-0.12
		c-10.172,0-18.913,1.027-26.315,2.815c-7.41,1.784-13.481,4.346-18.285,7.419c-4.819,3.085-8.371,6.69-10.717,10.563
		c-2.349,3.884-3.488,8.042-3.476,12.196c0,0.729,0.033,1.419,0.091,2.071c0.066,0.661,0.158,1.285,0.271,1.876
		c0.12,0.599,0.267,1.155,0.437,1.688c0.171,0.541,0.366,1.04,0.587,1.515c-0.528,0.028-1.069,0.05-1.609,0.07
		c-0.537,0.021-1.073,0.033-1.614,0.046c-0.547,0.008-1.091,0.024-1.634,0.024c-0.545,0.009-1.092,0.009-1.637,0.009
		c-0.137,0-0.253,0-0.359,0c-0.104,0-0.204,0-0.302,0c-0.1,0-0.202,0-0.314,0c-0.116,0-0.239,0-0.389,0c-0.601,0-1.2,0-1.803-0.009
		c-0.595-0.004-1.2-0.017-1.796-0.033c-0.603-0.008-1.204-0.033-1.803-0.058c-0.599-0.029-1.2-0.059-1.796-0.096
		c0.218-0.479,0.409-0.981,0.574-1.519c0.164-0.532,0.301-1.094,0.414-1.676c0.11-0.59,0.196-1.218,0.251-1.862
		c0.056-0.649,0.085-1.327,0.09-2.047c0.01-4.154-1.127-8.313-3.481-12.196c-2.343-3.872-5.891-7.478-10.704-10.563
		c-4.805-3.073-10.873-5.635-18.277-7.419c-7.392-1.788-16.128-2.815-26.288-2.815c-1.149,0-2.304,0.041-3.462,0.108
		c-1.154,0.062-2.314,0.153-3.47,0.278c-1.154,0.129-2.306,0.274-3.454,0.457c-1.148,0.175-2.293,0.383-3.427,0.611
		c-1.077-2.278-2.021-4.666-2.826-7.152c-0.802-2.482-1.459-5.069-1.973-7.756c-0.503-2.687-0.859-5.473-1.061-8.362
		c-0.199-2.882-0.237-5.859-0.112-8.949c0.26-6.351,1.267-13.232,3.082-20.231c1.799-6.957,4.394-14.031,7.837-20.826
		c3.42-6.753,7.681-13.245,12.846-19.104c5.131-5.81,11.159-11.01,18.152-15.22c-2.129-1.358-4.075-3.011-5.789-4.903
		c-1.713-1.893-3.192-4.021-4.397-6.336c-1.198-2.308-2.125-4.805-2.728-7.435c-0.603-2.62-0.888-5.375-0.803-8.199v-0.048
		c0.119-4.219,1.033-8.236,2.578-11.873c1.539-3.618,3.708-6.88,6.344-9.6c2.63-2.711,5.73-4.909,9.147-6.42
		c3.408-1.514,7.144-2.344,11.043-2.344c0.006,0,0.015,0,0.021,0c0.008,0,0.013,0,0.019,0c0.006,0,0.01,0,0.019,0
		c0.006,0,0.015,0,0.019,0c3.672,0,7.167,0.743,10.37,2.082c3.206,1.354,6.123,3.302,8.623,5.737c2.51,2.445,4.604,5.36,6.161,8.635
		c1.148,2.414,2.002,5.021,2.515,7.767c-0.375-0.816-0.805-1.574-1.294-2.247c-0.861-1.168-1.884-2.123-3.027-2.763
		c-1.14-0.655-2.401-1.008-3.736-1.008c-1.343,0-2.616,0.354-3.776,1.008c-1.154,0.641-2.189,1.595-3.063,2.763
		c-0.873,1.173-1.584,2.581-2.075,4.161c-0.495,1.581-0.773,3.325-0.794,5.182c-0.011,1.853,0.235,3.602,0.707,5.19
		c0.466,1.601,1.156,3.025,2.019,4.217c0.863,1.193,1.898,2.158,3.061,2.824c1.161,0.665,2.443,1.029,3.803,1.029
		c1.352,0,2.628-0.364,3.784-1.029c1.156-0.666,2.196-1.63,3.065-2.824c0.116-0.16,0.222-0.334,0.332-0.502
		c-0.072,0.224-0.126,0.456-0.203,0.677c-0.308,0.869-0.645,1.728-1.015,2.563c-0.37,0.834-0.771,1.657-1.202,2.449
		c-2.755,0.158-5.533,0.63-8.164,1.285c-2.63,0.649-5.115,1.493-7.286,2.396c-2.171,0.911-4.025,1.888-5.396,2.803
		c-1.37,0.913-2.256,1.778-2.48,2.464c-0.223,0.671-0.25,1.339-0.15,1.99c0.1,0.647,0.331,1.26,0.626,1.83
		c0.287,0.565,0.638,1.089,0.985,1.536c0.35,0.447,0.688,0.815,0.957,1.09c0.262,0.287,1.399,1.447,2.988,3.048
		c1.591,1.605,3.628,3.653,5.685,5.718c2.063,2.056,4.144,4.123,5.809,5.753c1.662,1.63,2.907,2.813,3.29,3.112
		c0.387,0.316,0.749,0.611,1.114,0.884c0.375,0.272,0.751,0.514,1.165,0.717c0.414,0.214,0.867,0.378,1.383,0.495
		c0.52,0.112,1.104,0.181,1.786,0.181h0.31h0.154h0.31c0.682,0,1.264-0.068,1.776-0.181c0.514-0.117,0.96-0.281,1.368-0.495
		c0.407-0.204,0.777-0.445,1.144-0.717c0.361-0.272,0.724-0.567,1.102-0.884c0.387-0.299,1.635-1.482,3.298-3.112
		c1.663-1.63,3.747-3.697,5.81-5.753c2.059-2.065,4.096-4.113,5.688-5.718c1.589-1.601,2.732-2.762,2.994-3.048
		c0.263-0.274,0.604-0.643,0.948-1.09c0.346-0.447,0.703-0.971,0.99-1.536c0.291-0.57,0.523-1.183,0.628-1.83
		c0.1-0.651,0.07-1.318-0.15-1.99c-0.216-0.649-1.002-1.456-2.225-2.308c-1.227-0.863-2.882-1.765-4.84-2.624
		c-1.955-0.863-4.205-1.678-6.616-2.352c-2.412-0.669-4.974-1.208-7.569-1.495c0.175,0.011,0.354,0.021,0.532,0.029
		c0.175,0.01,0.354,0.025,0.528,0.033c0.179,0.017,0.354,0.025,0.528,0.035c0.179,0.008,0.357,0.019,0.532,0.034
		c-0.773-0.776-1.484-1.584-2.129-2.42c-0.646-0.844-1.227-1.717-1.73-2.614c-0.038-0.068-0.069-0.14-0.106-0.209
		c0.688,0.714,1.451,1.309,2.277,1.756c1.132,0.611,2.371,0.95,3.677,0.95c1.284,0,2.507-0.339,3.622-0.95
		c1.114-0.607,2.108-1.486,2.944-2.565c0.835-1.096,1.509-2.381,1.967-3.801c0.466-1.43,0.707-2.998,0.69-4.628
		c-0.013-1.622-0.287-3.175-0.77-4.579c-0.479-1.403-1.169-2.667-2.017-3.724c-0.849-1.071-1.847-1.919-2.961-2.518
		c-1.106-0.588-2.321-0.919-3.598-0.919c-1.293,0-2.516,0.331-3.622,0.919c-0.605,0.325-1.174,0.733-1.704,1.202
		c0.433-0.701,0.895-1.387,1.413-2.044c1.709-2.167,3.867-4.083,6.379-5.689c2.504-1.59,5.356-2.867,8.455-3.734
		c3.089-0.882,6.433-1.358,9.918-1.358c4.009,0,7.839,0.63,11.344,1.765c3.502,1.135,6.679,2.784,9.374,4.822
		c2.694,2.04,4.906,4.481,6.466,7.188c1.564,2.722,2.479,5.718,2.574,8.876c0.075,2.609-0.416,5.132-1.389,7.487
		c-0.973,2.358-2.433,4.56-4.283,6.51c-1.863,1.961-4.117,3.676-6.675,5.084c-2.565,1.408-5.435,2.493-8.512,3.181
		c7.946,3.919,14.779,9.051,20.584,14.958c5.839,5.942,10.654,12.689,14.51,19.78c3.88,7.145,6.799,14.646,8.812,22.053
		C340.119,286.507,341.241,293.851,341.516,300.601z M511.5,85.667v340.667c0,46.842-38.325,85.167-85.167,85.167H85.667
		C38.825,511.5,0.5,473.175,0.5,426.333V85.667C0.5,38.825,38.825,0.5,85.667,0.5h340.667C473.175,0.5,511.5,38.825,511.5,85.667z
		 M404.892,282.706c-0.232-1.135-0.74-2.42-1.451-3.742c-0.702-1.331-1.617-2.72-2.648-4.055c-1.76-2.275-3.984-4.513-6.479-6.708
		c-2.499-2.188-5.265-4.342-8.117-6.462c-2.841-2.117-5.772-4.188-8.588-6.224c-2.814-2.027-5.526-4.028-7.938-5.976
		c-1.576-1.272-3.335-2.412-5.223-3.639c-1.88-1.227-3.889-2.541-5.955-4.161c-2.071-1.626-4.209-3.551-6.346-6.005
		c-2.138-2.453-4.275-5.425-6.354-9.12c-0.308-1.364-0.591-2.686-0.849-4.025c-0.254-1.329-0.482-2.657-0.698-4.007
		c-0.217-1.349-0.425-2.726-0.632-4.152c-0.208-1.422-0.412-2.9-0.633-4.458c-0.208-1.47-0.411-2.982-0.632-4.568
		c-0.229-1.591-0.466-3.246-0.74-5c-0.266-1.757-0.558-3.599-0.89-5.568c-0.333-1.965-0.707-4.046-1.123-6.277
		c-0.665-3.584-1.784-7.169-3.311-10.681c-1.525-3.506-3.46-6.945-5.755-10.263c-2.296-3.308-4.957-6.5-7.938-9.506
		c-2.974-3.007-6.268-5.834-9.848-8.436c-3.88-2.828-8.026-5.34-12.38-7.523c-4.35-2.173-8.907-4.025-13.623-5.535
		c-4.708-1.507-9.577-2.667-14.556-3.47c-4.978-0.803-10.067-1.248-15.216-1.316h-1.501c-5.138,0.068-10.215,0.513-15.187,1.316
		c-4.974,0.803-9.839,1.963-14.542,3.47c-4.713,1.51-9.269,3.362-13.611,5.535c-4.356,2.183-8.502,4.695-12.382,7.523
		c-3.579,2.601-6.874,5.429-9.845,8.436c-2.982,3.006-5.639,6.198-7.931,9.506c-2.299,3.318-4.233,6.757-5.755,10.263
		c-1.528,3.512-2.649,7.097-3.308,10.681c-0.42,2.231-0.792,4.313-1.121,6.277c-0.335,1.969-0.628,3.811-0.896,5.568
		c-0.262,1.755-0.505,3.41-0.728,5c-0.227,1.586-0.432,3.098-0.636,4.568c-0.2,1.393-0.385,2.722-0.572,4.021
		c-0.185,1.281-0.37,2.533-0.557,3.745c-0.191,1.223-0.389,2.414-0.601,3.608c-0.214,1.189-0.445,2.368-0.703,3.566
		c-2.127,4.069-4.335,7.309-6.55,9.972c-2.218,2.667-4.445,4.741-6.606,6.466c-2.164,1.736-4.264,3.125-6.227,4.4
		c-1.965,1.274-3.799,2.459-5.429,3.788c-2.403,1.948-5.1,3.949-7.909,5.976c-2.815,2.035-5.733,4.106-8.573,6.224
		c-2.846,2.12-5.614,4.274-8.105,6.462c-2.497,2.195-4.724,4.433-6.487,6.708c-1.033,1.335-1.94,2.724-2.649,4.055
		c-0.709,1.322-1.216,2.607-1.453,3.742c-0.233,1.14-0.198,2.138,0.187,2.891c0.385,0.748,1.119,1.272,2.271,1.455
		c0.15,0.029,0.299,0.037,0.449,0.07c0.156,0.013,0.308,0.025,0.464,0.038c0.154,0.012,0.308,0.021,0.468,0.021
		c0.158,0.009,0.314,0.017,0.474,0.017c2.397,0,5.082-0.657,7.914-1.676c2.832-1.015,5.81-2.399,8.795-3.863
		c2.982-1.46,5.972-2.994,8.839-4.325c2.863-1.339,5.604-2.466,8.097-3.102c0.395-0.108,0.796-0.196,1.202-0.283
		c0.405-0.079,0.813-0.149,1.223-0.216c0.412-0.051,0.821-0.108,1.233-0.146c0.408-0.038,0.817-0.067,1.221-0.092
		c-0.331,1.643-0.558,3.298-0.674,5.04c-0.114,1.734-0.114,3.556,0.004,5.519c0.116,1.971,0.351,4.092,0.713,6.433
		c0.362,2.35,0.851,4.911,1.468,7.772c0.267,1.248,0.724,3.156,1.464,5.556c0.74,2.404,1.761,5.314,3.142,8.575
		c1.382,3.269,3.133,6.887,5.329,10.704c2.204,3.817,4.861,7.843,8.053,11.901c-3.981,1.314-7.783,2.944-11.268,4.82
		c-3.495,1.875-6.674,4.005-9.415,6.32c-2.743,2.309-5.044,4.795-6.774,7.398c-1.734,2.595-2.89,5.307-3.335,8.051
		c-0.25,1.514-0.37,2.953-0.366,4.316c0.004,1.368,0.135,2.646,0.387,3.843c0.25,1.189,0.626,2.287,1.121,3.285
		c0.495,1.011,1.11,1.904,1.848,2.699c0.672,0.728,1.433,1.368,2.285,1.913c0.854,0.553,1.801,1.006,2.836,1.376
		c1.038,0.366,2.165,0.641,3.381,0.823c1.217,0.184,2.522,0.274,3.919,0.274c3.876,0,7.741,0,11.578,0.009c3.836,0,7.639,0,11.39,0
		c3.745,0,7.429,0.008,11.035,0.013c3.604,0.012,7.122,0.017,10.534,0.037c2.697,0,5.323,0,7.864,0c2.539,0,4.992,0,7.356,0
		c2.355,0,4.618,0,6.77,0c2.152,0,4.189,0,6.107,0c2.017,0,4.052-0.042,6.04-0.195c1.99-0.154,3.93-0.42,5.747-0.861
		c1.819-0.449,3.512-1.072,5.009-1.954c1.5-0.873,2.799-1.996,3.83-3.443c0.626,0.042,1.254,0.066,1.884,0.108
		c0.63,0.028,1.264,0.054,1.898,0.074c0.632,0.021,1.272,0.042,1.915,0.05c0.645,0.009,1.293,0.021,1.948,0.021h2.625
		c0.625,0,1.249-0.013,1.862-0.021c0.613-0.008,1.225-0.028,1.832-0.041c0.611-0.017,1.215-0.042,1.817-0.071
		c0.603-0.021,1.202-0.054,1.801-0.07c1.031,1.427,2.333,2.554,3.825,3.414c1.506,0.873,3.198,1.493,5.016,1.942
		c1.817,0.433,3.76,0.698,5.747,0.853c1.988,0.153,4.025,0.195,6.038,0.195c1.922,0,3.959,0,6.109,0c2.149,0,4.416,0,6.773,0
		c2.354,0,4.816,0,7.356,0c2.541,0,5.17,0,7.864,0c3.41-0.021,6.928-0.025,10.529-0.037c3.602-0.005,7.294-0.013,11.037-0.013
		c3.742,0,7.552,0,11.386,0c3.834-0.009,7.706-0.009,11.581-0.009c1.385,0,2.683-0.091,3.897-0.274
		c1.214-0.183,2.345-0.457,3.385-0.823c1.039-0.37,1.983-0.823,2.845-1.376c0.856-0.545,1.621-1.186,2.295-1.913
		c0.736-0.795,1.355-1.688,1.851-2.699c0.495-0.998,0.869-2.096,1.119-3.285c0.253-1.197,0.382-2.475,0.391-3.843
		c0-1.363-0.121-2.803-0.366-4.316c-0.453-2.732-1.597-5.431-3.314-8.014c-1.713-2.591-3.988-5.073-6.707-7.381
		c-2.712-2.3-5.864-4.429-9.324-6.313c-3.46-1.876-7.228-3.506-11.187-4.833c3.207-4.059,5.868-8.084,8.08-11.918
		c2.2-3.817,3.955-7.436,5.344-10.717c1.381-3.26,2.404-6.175,3.145-8.587c0.74-2.408,1.197-4.316,1.464-5.564
		c0.619-2.849,1.105-5.406,1.468-7.747c0.361-2.333,0.599-4.449,0.711-6.417c0.116-1.963,0.116-3.78,0-5.522
		c-0.112-1.733-0.345-3.385-0.674-5.031c0.366,0.024,0.732,0.046,1.098,0.096c0.362,0.037,0.728,0.087,1.09,0.146
		c0.357,0.054,0.715,0.12,1.073,0.191c0.354,0.074,0.702,0.157,1.048,0.258c2.486,0.636,5.231,1.763,8.092,3.102
		c2.87,1.331,5.859,2.865,8.846,4.325c2.99,1.464,5.968,2.849,8.804,3.863c2.836,1.019,5.53,1.676,7.938,1.676
		c0.162,0,0.32-0.008,0.479-0.017c0.157,0,0.315-0.009,0.474-0.021c0.154-0.013,0.308-0.025,0.462-0.038
		c0.153-0.033,0.304-0.041,0.453-0.07c1.151-0.183,1.888-0.707,2.271-1.455C405.092,284.844,405.133,283.846,404.892,282.706z"></path></g></svg>