<?xml version="1.0" encoding="iso-8859-1"?>
<!DOCTYPE svg PUBLIC "-//W3C//DTD SVG 1.1//EN" "http://www.w3.org/Graphics/SVG/1.1/DTD/svg11.dtd">
<svg  version="1.1" xmlns="http://www.w3.org/2000/svg" xmlns:xlink="http://www.w3.org/1999/xlink" x="0px" y="0px" width="512px"
	 height="512px" viewBox="0 0 512 512" enable-background="new 0 0 512 512" xml:space="preserve"><g id="3e91140ac1bfb9903b91c1b0ca087449"><path display="inline" d="M511.5,350.54h-40.762l-16.946-36.591c-6.384-13.012-10.808-23.084-15.474-34.379h-0.732
		c-3.934,11.295-8.35,21.612-14.006,34.628l-15.465,36.342H368.33l48.871-96.013l-47.149-92.826h40.521l16.942,37.078
		c4.911,10.812,8.6,20.385,13.016,30.948h0.491c4.42-11.794,7.609-20.394,12.28-31.189l15.96-36.836h40.025l-48.371,92.577
		L511.5,350.54z M158.898,253.788c0,65.813-33.401,99.455-80.301,99.455c-49.861,0-78.097-41.748-78.097-96.512
		c0-56.48,31.189-97.975,80.551-97.975C133.356,158.757,158.898,203.444,158.898,253.788z M120.831,255.256
		c0-34.62-13.016-66.791-40.762-66.791c-28.494,0-41.511,32.911-41.511,67.535c0,37.077,14.493,67.53,41.261,67.53
		C106.833,323.53,120.831,293.327,120.831,255.256z M249.758,240.28c-23.084-10.554-32.416-16.7-32.416-30.199
		c0-10.563,8.601-20.876,27.755-20.876c15.47,0,27.014,4.666,33.643,8.101l7.609-29.713c-8.841-4.42-22.593-8.596-40.521-8.596
		c-40.762,0-65.072,23.82-65.072,54.76c0,24.561,17.682,42.242,46.163,54.519c20.881,9.082,29.963,17.19,29.963,30.698
		c0,13.993-10.563,23.574-30.698,23.574c-15.229,0-30.939-4.662-40.762-10.563l-7.12,30.453
		c8.833,5.401,27.746,10.554,46.409,10.554c43.956,0,68.758-24.061,68.758-56.963C293.469,271.229,279.966,253.788,249.758,240.28z"></path></g></svg>