<?xml version="1.0" encoding="iso-8859-1"?>
<!DOCTYPE svg PUBLIC "-//W3C//DTD SVG 1.1//EN" "http://www.w3.org/Graphics/SVG/1.1/DTD/svg11.dtd">
<svg  version="1.1" xmlns="http://www.w3.org/2000/svg" xmlns:xlink="http://www.w3.org/1999/xlink" x="0px" y="0px" width="512px"
	 height="512px" viewBox="0 0 512 512" enable-background="new 0 0 512 512" xml:space="preserve"><g id="3e91140ac1bfb9903b91c1b0ca08ad89"><path display="inline" d="M426.333,0.5H85.667C38.825,0.5,0.5,38.825,0.5,85.667v340.667c0,46.842,38.325,85.167,85.167,85.167
		h340.667c46.842,0,85.167-38.325,85.167-85.167V85.667C511.5,38.825,473.175,0.5,426.333,0.5z M105.484,332.65
		c-39.298,0-61.557-32.907-61.557-76.07c0-44.521,24.583-77.23,63.49-77.23c41.229,0,61.361,35.227,61.361,74.908
		C168.779,306.135,142.454,332.65,105.484,332.65z M220.657,332.459c-14.709,0-29.617-4.067-36.583-8.325l5.612-24.004
		c7.741,4.649,20.129,8.326,32.133,8.326c15.871,0,24.196-7.553,24.196-18.581c0-10.649-7.161-17.041-23.618-24.198
		c-22.45-9.677-36.389-23.612-36.389-42.972c0-24.388,19.163-43.161,51.293-43.161c14.13,0,24.97,3.287,31.94,6.772l-6.001,23.421
		c-5.224-2.707-14.322-6.388-26.517-6.388c-15.098,0-21.874,8.13-21.874,16.456c0,10.644,7.354,15.486,25.55,23.808
		c23.81,10.646,34.455,24.39,34.455,43.939C274.854,313.487,255.306,332.459,220.657,332.459z M414.581,330.521l-13.356-28.843
		c-5.032-10.256-8.518-18.189-12.193-27.098h-0.582c-3.099,8.908-6.583,17.033-11.037,27.293l-12.192,28.647H333.86l38.521-75.681
		l-37.165-73.169h31.941l13.354,29.226c3.871,8.521,6.774,16.069,10.259,24.394h0.391c3.481-9.292,5.997-16.071,9.678-24.585
		l12.579-29.035h31.547l-38.126,72.974l39.872,75.876H414.581z M138.775,255.416c0,30.006-11.033,53.814-32.324,53.814
		c-21.101,0-32.522-24.003-32.522-53.229c0-27.292,10.259-53.231,32.715-53.231C128.518,202.769,138.775,228.125,138.775,255.416z"></path></g></svg>