<?xml version="1.0" encoding="iso-8859-1"?>
<!DOCTYPE svg PUBLIC "-//W3C//DTD SVG 1.1//EN" "http://www.w3.org/Graphics/SVG/1.1/DTD/svg11.dtd">
<svg  version="1.1" xmlns="http://www.w3.org/2000/svg" xmlns:xlink="http://www.w3.org/1999/xlink" x="0px" y="0px" width="512px"
	 height="512px" viewBox="0 0 512 512" enable-background="new 0 0 512 512" xml:space="preserve"><g id="3e91140ac1bfb9903b91c1b0ca089917"><path display="inline" d="M106.667,52.438c0,0,102.125-55.527,189.487,11.393l-48.892,167.992c0,0-54.755-37.668-95.359-33.601
		c-40.604,4.08-94.132,23.508-94.132,23.508L106.667,52.438z M0.5,420.565c22.539-11.652,56.373-17.558,95.347-20.821
		c39.015-3.257,93.912,32.466,93.912,32.466l49.403-169.776c-7.818-5.614-44.168-30.092-89.67-33.348
		c-45.516-3.252-100.354,22.244-100.354,22.244L0.5,420.565z M216.104,447.163c8.928,3.527,38.221,31.381,86.971,33.855
		c48.764,2.42,102.541-22.743,102.541-22.743s47.895-167.605,48.863-168.254c0.332-0.175-0.604,0.482-0.969,0.648
		c-45.595,17.849-68.87,20.506-102.496,21.309c-34.142,0.823-86.269-33.094-86.269-33.094L216.104,447.163z M322.004,81.575
		l-48.987,167.019c0,0,39.802,38.999,95.866,35.771c56.095-3.269,86.531-20.95,93.975-23.45L511.5,92.416
		c0,0-64.607,26.985-106.85,22.09C362.384,109.612,336.093,91.659,322.004,81.575z"></path></g></svg>