<?xml version="1.0" encoding="iso-8859-1"?>
<!DOCTYPE svg PUBLIC "-//W3C//DTD SVG 1.1//EN" "http://www.w3.org/Graphics/SVG/1.1/DTD/svg11.dtd">
<svg  version="1.1" xmlns="http://www.w3.org/2000/svg" xmlns:xlink="http://www.w3.org/1999/xlink" x="0px" y="0px" width="512px"
	 height="512px" viewBox="0 0 512 512" enable-background="new 0 0 512 512" xml:space="preserve"><g id="3e91140ac1bfb9903b91c1b0ca08bd1d"><path display="inline" d="M426.333,0.5H85.667C38.825,0.5,0.5,38.825,0.5,85.667v340.667c0,46.842,38.325,85.167,85.167,85.167
		h340.667c46.842,0,85.167-38.325,85.167-85.167V85.667C511.5,38.825,473.175,0.5,426.333,0.5z M225.031,358.666
		c-32.262,0-64.523,0-96.781,0c-11.419-3.202-18.664-10.588-21.292-22.581c0-31.396,0-62.802,0-94.199c39.356,0,78.712,0,118.073,0
		C225.031,280.81,225.031,319.742,225.031,358.666z M225.031,230.271c-39.36,0-78.717,0-118.073,0c0-18.065,0-36.129,0-54.198
		c6.117-27.588,32.553-21.932,68.391-21.932c18.127,0,36.262,0,49.682,0C225.031,179.516,225.031,204.892,225.031,230.271z
		 M405.042,333.507c-1.801,13.897-9.632,21.766-21.937,25.159c-48.821,0-97.643,0-146.464,0c0-26.453,0-52.905,0-79.357
		c56.137,0,112.269,0,168.4,0C405.042,297.373,405.042,315.438,405.042,333.507z M405.042,268.338c-56.132,0-112.269,0-168.4,0
		c0-38.066,0-76.13,0-114.197c32,0,76.983,0,112.269,0c13.673,0,28.756-2.188,37.418,0.64c9.872,3.223,17.687,13.312,18.714,24.519
		C405.042,208.984,405.042,238.659,405.042,268.338z"></path></g></svg>