<?xml version="1.0" encoding="iso-8859-1"?>
<!DOCTYPE svg PUBLIC "-//W3C//DTD SVG 1.1//EN" "http://www.w3.org/Graphics/SVG/1.1/DTD/svg11.dtd">
<svg  version="1.1" xmlns="http://www.w3.org/2000/svg" xmlns:xlink="http://www.w3.org/1999/xlink" x="0px" y="0px" width="512px"
	 height="512px" viewBox="0 0 512 512" enable-background="new 0 0 512 512" xml:space="preserve"><g id="3e91140ac1bfb9903b91c1b0ca08be07"><path display="inline" d="M349.617,120.948c20.052-1.921,40.362,1.102,60.41,9.606v85.928c-7.972-3.027-25.546-8.504-36.258-8.504
		h-24.152V120.948z M349.617,232.949v83.74c23.342-1.102,41.178,2.475,60.41,8.787v-84.556
		C389.979,232.949,369.669,230.479,349.617,232.949z M511.5,85.667v340.667c0,46.842-38.325,85.167-85.167,85.167H85.667
		C38.825,511.5,0.5,473.175,0.5,426.333V85.667C0.5,38.825,38.825,0.5,85.667,0.5h340.667C473.175,0.5,511.5,38.825,511.5,85.667z
		 M76.717,338.659l-12.342,6.313v11.262l12.342-5.498V338.659z M76.717,299.951l-12.342,6.03v11.261l12.342-5.497V299.951z
		 M76.717,262.333l-12.342,6.051v11.241l12.342-5.481V262.333z M76.717,222.794l-12.342,6.047v11.527l12.342-5.498V222.794z
		 M76.717,184.091l-12.342,5.759v11.528l12.342-5.211V184.091z M76.717,146.473l-12.342,6.046v11.523l12.342-5.494V146.473z
		 M76.717,107.216l-12.342,6.313v11.261l12.342-5.498V107.216z M107.47,344.419l-15.919,9.605v16.206l15.919-8.791V344.419z
		 M107.47,305.433l-15.919,9.606v16.488l15.919-9.074V305.433z M107.47,268.097l-15.919,9.606v16.202l15.919-9.054V268.097z
		 M107.47,228.558l-15.919,9.623v16.468l15.919-9.069V228.558z M107.47,189.588l-15.919,9.602v16.468l15.919-9.049V189.588z
		 M107.47,152.232l-15.919,9.623v16.189l15.919-8.792V152.232z M107.47,112.976l-15.919,9.606v16.206l15.919-9.053V112.976z
		 M143.171,356.495l-21.97,10.446v19.495l21.97-9.894V356.495z M143.171,317.509l-21.97,10.442v19.761l21.97-10.155V317.509z
		 M143.171,279.907l-21.97,10.422v19.781l21.97-10.159V279.907z M143.171,240.634l-21.97,10.442v19.491l21.97-9.889V240.634z
		 M143.171,201.378l-21.97,10.704v19.5l21.97-9.872V201.378z M143.171,164.333l-21.97,10.417v19.495l21.97-9.889V164.333z
		 M143.171,125.052l-21.97,10.442v19.5l21.97-9.893V125.052z M179.687,352.939l-26.914,12.63v27.18l26.914-12.916V352.939z
		 M179.687,313.953l-26.914,12.892v26.914l26.914-12.63V313.953z M179.687,276.618l-26.914,12.896v27.176l26.914-12.892V276.618z
		 M179.687,237.345l-26.914,12.625v27.181l26.914-12.896V237.345z M179.687,198.371l-26.914,12.609v27.201l26.914-12.916V198.371z
		 M179.687,160.753l-26.914,12.892v27.18l26.914-12.892V160.753z M179.687,121.497l-26.914,12.634v27.176l26.914-12.917V121.497z
		 M218.391,351.022l-31.572,15.919v30.731l31.572-15.919V351.022z M218.391,312.032l-31.572,15.919v31.019l31.572-16.206V312.032z
		 M218.391,274.41l-31.572,15.919v31.039l31.572-16.202V274.41z M218.391,235.157l-31.572,15.919v31.019l31.572-16.185V235.157z
		 M218.391,196.167l-31.572,15.915v30.761l31.572-15.919V196.167z M218.391,158.832l-31.572,15.918v30.757l31.572-15.919V158.832z
		 M218.391,119.559l-31.572,15.936v30.756l31.572-15.939V119.559z M253.8,425.401c-0.079,0-0.183,0-0.262,0l0.142,1.244
		L253.8,425.401z M259.298,340.576l-34.042,16.472v34.046l34.042-17.84V340.576z M259.298,301.59l-34.042,16.468v34.046
		l34.042-17.574V301.59z M259.298,261.784l-34.042,16.755v33.759l34.042-17.578V261.784z M259.298,223.609l-34.042,16.492v34.042
		l34.042-17.856V223.609z M259.298,184.644l-34.042,16.468v34.046l34.042-17.578V184.644z M259.298,145.919l-34.042,16.755v34.042
		l34.042-17.84V145.919z M259.298,107.216l-34.042,16.468v34.046l34.042-17.84V107.216z M264.774,253.692
		c-0.079,0.041-0.183,0.079-0.262,0.12v82.376c0.079-0.041,0.183-0.083,0.262-0.124V253.692z M264.774,142.239
		c-0.079,0.042-0.183,0.083-0.262,0.125v84.821c0.079-0.037,0.183-0.079,0.262-0.121V142.239z M341.649,425.401
		c-0.079,0-0.184,0-0.267,0l0.142,1.244L341.649,425.401z M447.625,107.769c-63.409-30.203-124.074-28.552-182.847-3.027v37.498
		c24.032-10.625,43.728-16.347,60.956-17.449v85.108c-20.493,1.634-40.729,7.91-60.956,17.166v26.628
		c22.419-10.896,42.646-15.799,60.956-17.167v81.271c-21.579,3.821-42.342,9.544-60.956,18.269v38.291
		c57.662-33.514,118.889-30.203,182.847,0.819V107.769z"></path></g></svg>