<?xml version="1.0" encoding="iso-8859-1"?>
<!DOCTYPE svg PUBLIC "-//W3C//DTD SVG 1.1//EN" "http://www.w3.org/Graphics/SVG/1.1/DTD/svg11.dtd">
<svg  version="1.1" xmlns="http://www.w3.org/2000/svg" xmlns:xlink="http://www.w3.org/1999/xlink" x="0px" y="0px" width="512px"
	 height="512px" viewBox="0 0 512 512" enable-background="new 0 0 512 512" xml:space="preserve"><g id="3e91140ac1bfb9903b91c1b0ca08d8a1"><path display="inline" d="M426.333,0.5H85.667C38.825,0.5,0.5,38.825,0.5,85.667v340.667c0,46.842,38.325,85.167,85.167,85.167
		h340.667c46.842,0,85.167-38.325,85.167-85.167V85.667C511.5,38.825,473.175,0.5,426.333,0.5z M230.203,321.044
		c0,19.753,0,39.506,0,59.233c-22.148-3.11-48.458-6.067-68.487-8.883c-19.108-2.682-37.35-5.248-54.757-7.697
		c0-17.107,0-34.237,0-51.37s0-34.262,0-51.416c17.407,0.125,35.649,0.258,54.789,0.396c20.027,0.141,46.307,0.295,68.456,0.457
		C230.203,281.537,230.203,301.295,230.203,321.044z M230.203,190.836c0,19.753,0,39.506,0,59.255
		c-22.148,0.133-48.428,0.258-68.456,0.374c-19.108,0.117-37.381,0.225-54.789,0.329c0-17.133,0-34.262,0-51.395
		c0-17.129,0-34.283,0-51.454c17.437-2.433,35.68-4.978,54.789-7.639c20.027-2.791,46.336-5.722,68.456-8.804
		C230.203,151.305,230.203,171.083,230.203,190.836z M405.042,334.347c0,23.749,0,47.503,0,71.223
		c-31.838-4.466-61.884-8.687-90.141-12.658c-26.739-3.755-46.875-7.314-70.868-10.688c0-20.035,0-40.097,0-60.153
		c0-20.064,0-40.125,0-60.211c23.993,0.175,44.128,0.357,70.868,0.549c28.257,0.204,58.303,0.424,90.141,0.653
		C405.042,286.844,405.042,310.593,405.042,334.347z M405.042,177.774c0,23.753,0,47.503,0,71.256
		c-31.838,0.191-61.884,0.366-90.141,0.532c-26.739,0.158-46.875,0.308-70.868,0.449c0-20.061,0-40.122,0-60.182
		c0-20.061,0-40.143,0-60.257c23.993-3.339,44.128-6.874,70.834-10.592c28.262-3.938,58.336-8.122,90.174-12.55
		C405.042,130.242,405.042,154.024,405.042,177.774z"></path></g></svg>