<?xml version="1.0" encoding="iso-8859-1"?>
<!DOCTYPE svg PUBLIC "-//W3C//DTD SVG 1.1//EN" "http://www.w3.org/Graphics/SVG/1.1/DTD/svg11.dtd">
<svg  version="1.1" xmlns="http://www.w3.org/2000/svg" xmlns:xlink="http://www.w3.org/1999/xlink" x="0px" y="0px" width="512px"
	 height="512px" viewBox="0 0 512 512" enable-background="new 0 0 512 512" xml:space="preserve"><g id="3e91140ac1bfb9903b91c1b0ca089178"><path display="inline" d="M118.365,350.46l35.884-17.19v36.237l-35.884,16.838V350.46z M76.269,328.15l29.292-13.549v-26.723
		l-29.292,13.89V328.15z M36.737,202.213l21.221-12.068v-22.697l-21.221,12.804V202.213z M36.737,99.716l21.221-12.072V65.3
		L36.737,78.108V99.716z M36.737,152.055l21.221-11.719v-22.695l-21.221,12.833V152.055z M76.269,429.909l29.292-13.183v-26.731
		l-29.292,13.923V429.909z M76.269,121.321l29.292-13.187V81.401L76.269,95.324V121.321z M76.269,275.42l29.292-13.183v-26.727
		l-29.292,13.918V275.42z M118.365,438.326l35.884-17.217v-35.854l-35.884,16.838V438.326z M76.269,173.661l29.292-13.185v-26.702
		l-29.292,13.892V173.661z M76.269,223.438l29.292-13.157v-27.11l-29.292,14.272V223.438z M76.269,378.276l29.292-13.54V338.01
		l-29.292,13.919V378.276z M0.5,235.157l16.451-7.332v-16.098L0.5,219.787V235.157z M0.5,287.496l16.451-7.303v-15.752L0.5,272.509
		V287.496z M0.5,389.638l16.451-7.327v-16.102L0.5,374.626V389.638z M0.5,183.171l16.451-6.949v-16.102L0.5,167.801V183.171z
		 M36.737,254.199l21.221-12.098v-22.697l-21.221,12.833V254.199z M0.5,337.656l16.451-7.336v-15.719L0.5,322.644V337.656z
		 M36.737,306.542l21.221-12.072v-22.344l-21.221,12.809V306.542z M36.737,356.702l21.221-12.102v-22.688l-21.221,12.8V356.702z
		 M0.5,81.05l16.451-7.328V57.619L0.5,66.036V81.05z M0.5,133.39l16.451-7.328V109.96L0.5,118.023V133.39z M36.737,408.306
		l21.221-11.723v-22.689l-21.221,12.805V408.306z M163.755,343.154l42.101-21.6v-41.012l-42.101,21.226V343.154z M215.01,228.204
		l45.39-23.429v-43.92l-45.39,21.963V228.204z M215.01,280.193l45.39-23.812v-43.569l-45.39,21.986V280.193z M215.01,384.141
		l45.39-23.438v-43.919l-45.39,21.962V384.141z M215.01,331.061l45.39-23.433v-43.919l-45.39,22.34V331.061z M215.01,176.954
		l45.39-23.787v-43.945l-45.39,22.344V176.954z M118.365,336.916l35.884-17.188v-36.241l-35.884,17.195V336.916z M215.01,124.971
		l45.39-23.787V57.619l-45.39,21.959V124.971z M215.01,436.122l45.39-23.787v-43.564l-45.39,21.961V436.122z M511.5,58.355v356.542
		c-85.279-41.36-166.911-45.776-243.798-1.089v-51.059c24.822-11.636,52.506-19.263,81.278-24.36V230.034
		c-24.415,1.821-51.387,8.359-81.278,22.888v-35.505c26.972-12.342,53.953-20.705,81.278-22.888V81.05
		c-22.976,1.472-49.232,9.101-81.278,23.269V54.323C346.065,20.29,426.957,18.084,511.5,58.355z M461.369,235.889
		c-26.735-10.621-53.812-13.918-80.547-10.621V336.92c31.122-1.472,54.909,3.298,80.547,11.715V235.889z M461.369,88.735
		c-26.735-11.336-53.812-15.368-80.547-12.807v116.038h32.204c14.284,0,37.718,7.303,48.343,11.336V88.735z M163.755,444.896
		l42.101-21.226v-40.978l-42.101,21.225V444.896z M118.365,182.435l35.884-17.191v-36.239l-35.884,17.189V182.435z M118.365,129.74
		l35.884-17.22V76.661l-35.884,16.842V129.74z M118.365,284.198l35.884-17.195v-35.88l-35.884,16.834V284.198z M118.365,232.238
		l35.884-17.216v-35.863l-35.884,16.817V232.238z M163.755,188.673l42.101-21.225v-41.005l-42.101,21.223V188.673z M163.755,136.333
		l42.101-21.254V74.076l-42.101,21.248V136.333z M163.755,393.289l42.101-21.607v-40.975l-42.101,21.222V393.289z M163.755,290.79
		l42.101-21.575v-41.011l-42.101,21.225V290.79z M163.755,238.45l42.101-21.225v-41.003l-42.101,21.221V238.45z"></path></g></svg>