<?xml version="1.0" encoding="iso-8859-1"?>
<!DOCTYPE svg PUBLIC "-//W3C//DTD SVG 1.1//EN" "http://www.w3.org/Graphics/SVG/1.1/DTD/svg11.dtd">
<svg  version="1.1" xmlns="http://www.w3.org/2000/svg" xmlns:xlink="http://www.w3.org/1999/xlink" x="0px" y="0px" width="512px"
	 height="512px" viewBox="0 0 512 512" enable-background="new 0 0 512 512" xml:space="preserve"><g id="3e91140ac1bfb9903b91c1b0ca0899f5"><path display="inline" fill-rule="evenodd" clip-rule="evenodd" d="M510.598,0.5c-54.386,7.566-105.76,14.713-154.032,21.439
		c-45.623,6.35-80.019,12.388-121.005,18.094c0,34.36,0,68.664,0,102.934c0,34.266,0,68.532,0,102.803
		c40.986-0.241,75.382-0.495,121.055-0.77c48.272-0.283,99.597-0.582,153.982-0.907c0-40.579,0-81.145,0-121.72
		C510.598,81.801,510.598,41.177,510.598,0.5L510.598,0.5z M211.932,43.329c-37.784,5.265-82.729,10.271-116.938,15.04
		C62.35,62.913,31.186,67.261,1.402,71.417c0,29.33,0,58.633,0,87.893c0,29.268,0,58.527,0,87.794
		c29.733-0.174,60.947-0.361,93.592-0.557c34.208-0.2,79.104-0.416,116.938-0.641c0-33.738,0-67.48,0-101.223
		S211.932,77.156,211.932,43.329L211.932,43.329z M1.402,264.388c0,29.306,0,58.564,0,87.832s0,58.527,0,87.754
		c29.733,4.184,60.897,8.566,93.538,13.149c34.216,4.807,79.157,9.859,116.991,15.174c0-33.7,0-67.442,0-101.186
		c0-33.737,0-67.484,0-101.268c-37.834-0.275-82.729-0.537-116.938-0.782C62.3,264.829,31.136,264.604,1.402,264.388L1.402,264.388z
		 M235.561,471.62c40.986,5.759,75.382,11.839,121.055,18.256c48.272,6.782,99.597,13.993,153.982,21.624
		c0-40.521,0-81.096,0-121.666c0-40.579,0-81.146,0-121.771c-54.386-0.391-105.71-0.769-153.982-1.114
		c-45.673-0.328-80.068-0.641-121.055-0.939c0,34.308,0,68.578,0,102.856C235.561,403.125,235.561,437.391,235.561,471.62z"></path></g></svg>