<?xml version="1.0" encoding="iso-8859-1"?>
<!DOCTYPE svg PUBLIC "-//W3C//DTD SVG 1.1//EN" "http://www.w3.org/Graphics/SVG/1.1/DTD/svg11.dtd">
<svg  version="1.1" xmlns="http://www.w3.org/2000/svg" xmlns:xlink="http://www.w3.org/1999/xlink" x="0px" y="0px" width="512px"
	 height="512px" viewBox="0 0 512 512" enable-background="new 0 0 512 512" xml:space="preserve"><g id="3e91140ac1bfb9903b91c1b0ca08caa6"><path display="inline" d="M426.333,0.5H85.667C38.825,0.5,0.5,38.825,0.5,85.667v340.667c0,46.842,38.325,85.167,85.167,85.167
		h340.667c46.842,0,85.167-38.325,85.167-85.167V85.667C511.5,38.825,473.175,0.5,426.333,0.5z M168.889,137.255
		c0,0,59.573-32.391,110.536,6.645l-28.521,97.996c0,0-31.942-21.974-55.626-19.602c-23.685,2.381-54.912,13.715-54.912,13.715
		L168.889,137.255z M162.579,339.853c-22.737,1.904-42.473,5.348-55.62,12.143l28.374-98.719c0,0,31.987-14.873,58.54-12.977
		c26.542,1.9,47.746,16.177,52.306,19.454l-28.819,99.037C217.359,358.79,185.336,337.952,162.579,339.853z M343.275,373.994
		c0,0-31.368,14.68-59.813,13.266c-28.44-1.443-45.527-17.69-50.736-19.749l28.376-98.162c0,0,30.407,19.786,50.322,19.304
		c19.616-0.465,33.193-2.021,59.791-12.43c0.146-0.066,0.445-0.266,0.554-0.349c0.004-0.005,0.012-0.029,0.012-0.029
		c0.059-0.029,0.038-0.009-0.012,0.029C371.05,276.797,343.275,373.994,343.275,373.994z M376.668,258.867
		c-4.346,1.458-22.099,11.771-54.822,13.676c-32.702,1.888-55.919-20.864-55.919-20.864l28.577-97.428
		c8.217,5.882,23.554,16.355,48.21,19.21c24.644,2.855,62.328-12.885,62.328-12.885L376.668,258.867z"></path></g></svg>