<?xml version="1.0" encoding="iso-8859-1"?>
<!DOCTYPE svg PUBLIC "-//W3C//DTD SVG 1.1//EN" "http://www.w3.org/Graphics/SVG/1.1/DTD/svg11.dtd">
<svg  version="1.1" xmlns="http://www.w3.org/2000/svg" xmlns:xlink="http://www.w3.org/1999/xlink" x="0px" y="0px" width="512px"
	 height="512px" viewBox="0 0 512 512" enable-background="new 0 0 512 512" xml:space="preserve"><g id="3e91140ac1bfb9903b91c1b0ca088df9"><path display="inline" fill-rule="evenodd" clip-rule="evenodd" d="M117.744,81.381c31.072,0,62.166,0,85.167,0
		c0,43.502,0,87.009,0,130.515c-67.472,0-134.94,0-202.41,0c0-30.973,0-61.941,0-92.91C10.986,71.688,56.308,81.381,117.744,81.381z
		 M479.421,82.483c-14.854-4.845-40.703-1.102-64.149-1.102c-60.49,0-137.605,0-192.455,0c0,65.255,0,130.515,0,195.771
		c96.226,0,192.455,0,288.683,0c0-50.879,0-101.754,0-152.634C509.741,105.301,496.347,88.005,479.421,82.483z M0.5,393.291
		c4.508,20.56,16.921,33.218,36.501,38.707c55.3,0,110.603,0,165.909,0c0-66.731,0-133.464,0-200.195c-67.472,0-134.94,0-202.41,0
		C0.5,285.631,0.5,339.459,0.5,393.291z M222.817,431.998c83.693,0,167.387,0,251.078,0c21.092-5.821,34.52-19.304,37.605-43.136
		c0-30.969,0-61.938,0-92.906c-96.229,0-192.452,0-288.683,0C222.817,341.301,222.817,386.653,222.817,431.998z"></path></g></svg>