<?xml version="1.0" encoding="iso-8859-1"?>
<!DOCTYPE svg PUBLIC "-//W3C//DTD SVG 1.1//EN" "http://www.w3.org/Graphics/SVG/1.1/DTD/svg11.dtd">
<svg  version="1.1" xmlns="http://www.w3.org/2000/svg" xmlns:xlink="http://www.w3.org/1999/xlink" x="0px" y="0px" width="512px"
	 height="512px" viewBox="0 0 512 512" style="enable-background:new 0 0 512 512;" xml:space="preserve"><g id="7935ec95c421cee6d86eb22ecd129018"><path style="display: inline;" d="M361.335,23.917c0,3.61,0,158.656,0,170.384c-8.728-7.931-187.813-170.483-194.573-176.608
		c28.815-10.806,58.762-16.657,89.22-16.657C292.576,1.035,327.982,8.791,361.335,23.917L361.335,23.917z M124.472,474.749
		c0-9.996,0-207.918,0-219.695c-8.535,7.769-102.621,93.284-105.565,95.948C39.386,402.355,76.765,445.904,124.472,474.749
		L124.472,474.749z M0.5,256.535c0,21.937,3.312,44.246,9.281,66.368c6.928-6.299,222.042-201.73,226.474-205.765
		c-4.32-3.934-93.782-85.129-96.695-87.781C53.778,73.392,0.5,160.189,0.5,256.535L0.5,256.535z M151.313,367.572
		c0,5.304,0,118.257,0,121.905c25.964,11.652,53.134,18.886,81.09,21.487h46.916c88.254-8.217,167.034-62.621,206.175-143.393
		C476.28,367.572,156.803,367.572,151.313,367.572L151.313,367.572z M388.263,38.583c0,10.146,0,296.62,0,302.073
		c5.254,0,104.675,0,108.733,0c9.524-27.227,14.504-55.499,14.504-84.121C511.5,167.746,464.292,84.857,388.263,38.583
		L388.263,38.583z"></path></g></svg>