<?xml version="1.0" encoding="iso-8859-1"?>
<!DOCTYPE svg PUBLIC "-//W3C//DTD SVG 1.1//EN" "http://www.w3.org/Graphics/SVG/1.1/DTD/svg11.dtd">
<svg  version="1.1" xmlns="http://www.w3.org/2000/svg" xmlns:xlink="http://www.w3.org/1999/xlink" x="0px" y="0px" width="512px"
	 height="512px" viewBox="0 0 512 512" enable-background="new 0 0 512 512" xml:space="preserve"><g id="4b39c30df42af5ed8a0646b495006806"><path display="inline" d="M49.215,218.22c-10.465,0-20.688,1.745-31.731,4.649L0.5,326.762h18.056l6.829-38.799
		c3.196,1.019,7.41,1.892,11.188,1.892c21.94,0,37.489-14.675,41.261-35.742C81.469,232.899,71.153,218.22,49.215,218.22z
		 M57.495,254.112c-2.325,12.638-8.718,19.32-18.017,19.32c-4.213,0-8.138-0.582-11.334-1.306l6.394-36.034
		c3.341-0.874,7.7-1.454,11.769-1.454C55.607,234.64,59.676,241.322,57.495,254.112z M109.489,273.433
		c2.466,0,5.082-0.724,7.115-1.451l-2.765,15.981c-3.194,1.019-7.987,1.892-11.906,1.892c-12.213,0-18.456-5.955-15.985-19.324
		l8.862-50.42h19.325l-8.571,48.382C104.983,272.127,106.285,273.433,109.489,273.433z M119.361,195.99
		c-1.017,5.812-6.681,10.604-12.492,10.604c-5.959,0-9.879-4.793-8.721-10.604c1.019-5.957,6.537-10.752,12.497-10.752
		C116.458,185.238,120.376,190.033,119.361,195.99z M168.765,218.22c6.371,0,10.542,1.274,15.715,3.052l-4.217,14.915l-9.754-1.258
		c-1.453-0.144-3.052-0.289-4.645-0.289c-11.192,0-18.458,5.67-20.928,19.473c-2.325,13.656,2.907,19.32,14.093,19.32
		c6.537,0,12.638-1.16,18.888-3.053l-2.905,16.427c-5.229,1.593-13.077,3.048-18.895,3.048c-24.119,0-35.304-13.952-31.525-35.742
		C128.51,232.167,144.645,218.22,168.765,218.22z M392.482,273.433c2.462,0,5.082-0.724,7.111-1.451l-2.757,15.981
		c-3.193,1.019-7.993,1.892-11.914,1.892c-12.21,0-18.447-5.955-15.985-19.324l4.508-26.155c1.164-5.957-2.762-9.735-9.881-9.735
		c-4.067,0-8.434,0.58-11.769,1.454l-9.157,51.87H324.99c8.521-9.107,13.748-21.338,13.748-34.793
		c0-11.317-3.693-21.764-9.935-30.22l0.295-0.081c11.045-2.905,26.914-4.649,37.377-4.649c18.447,0,29.201,10.172,26.436,26.155
		l-4.358,24.117C387.975,272.127,389.281,273.433,392.482,273.433z M443.445,195.99c-1.019,5.812-6.683,10.604-12.492,10.604
		c-5.959,0-9.876-4.793-8.72-10.604c1.019-5.957,6.537-10.752,12.5-10.752C440.543,185.238,444.465,190.033,443.445,195.99z
		 M433.569,273.433c2.47,0,5.09-0.724,7.119-1.451l-2.761,15.981c-3.194,1.019-7.993,1.892-11.91,1.892
		c-12.214,0-18.456-5.955-15.985-19.324l8.861-50.42h19.325l-8.571,48.382C429.069,272.127,430.367,273.433,433.569,273.433z
		 M471.952,254.112c-2.32,13.656,2.911,19.32,14.098,19.32c6.537,0,12.642-1.16,18.888-3.048l-2.902,16.422
		c-5.231,1.597-13.074,3.048-18.896,3.048c-24.119,0-35.302-13.952-31.521-35.742c3.917-21.945,20.053-35.893,44.172-35.893
		c6.371,0,10.538,1.274,15.711,3.052l-4.217,14.915l-9.752-1.258c-1.451-0.144-3.052-0.289-4.645-0.289
		C481.691,234.64,474.427,240.31,471.952,254.112z M249.043,220.11c-4.124,4.826-7.354,10.432-9.457,16.563h-13.331l-4.801,27.028
		c-1.017,5.955-0.285,9.731,6.833,9.731c4.645,0,6.337-0.582,9.827-1.888l-2.909,16.418c-3.487,1.164-5.759,1.892-9.685,1.892
		c-18.601,0-26.151-10.172-23.383-26.153l4.786-27.028h-12.494l4.685-16.563h10.721l3.196-17.872l19.764-2.904l-3.635,20.776
		H249.043z M318.927,253.17c0,17.193-13.947,31.133-31.139,31.133c-17.184,0-31.133-13.939-31.133-31.133
		c0-17.195,13.95-31.135,31.133-31.135C304.979,222.035,318.927,235.975,318.927,253.17z M307.807,326.229l3.705-20.984h3.647
		l-3.705,20.984H307.807z M336.284,322.936c-0.411,0.537-0.897,1.035-1.451,1.497c-0.553,0.466-1.177,0.873-1.867,1.215
		c-0.69,0.349-1.451,0.619-2.278,0.814c-0.832,0.2-1.738,0.3-2.729,0.3c-1.401,0-2.678-0.217-3.821-0.653
		c-1.147-0.437-2.13-1.048-2.948-1.838c-0.824-0.79-1.456-1.738-1.913-2.845c-0.453-1.105-0.683-2.332-0.683-3.672
		c0-1.821,0.316-3.518,0.948-5.098c0.633-1.581,1.506-2.961,2.624-4.134c1.115-1.177,2.425-2.104,3.926-2.786
		c1.502-0.683,3.123-1.023,4.861-1.023c0.77,0,1.514,0.079,2.237,0.237c0.72,0.158,1.394,0.378,2.013,0.652
		c0.624,0.274,1.182,0.611,1.676,1.007c0.495,0.395,0.898,0.832,1.215,1.306l-2.874,2.162c-0.158-0.236-0.366-0.49-0.624-0.757
		c-0.258-0.266-0.573-0.507-0.947-0.724c-0.375-0.216-0.795-0.398-1.256-0.536c-0.466-0.137-0.986-0.204-1.56-0.204
		c-1.243,0-2.383,0.267-3.423,0.799c-1.035,0.532-1.926,1.243-2.666,2.134c-0.74,0.89-1.317,1.896-1.733,3.022
		c-0.416,1.123-0.624,2.279-0.624,3.469c0,0.864,0.133,1.68,0.399,2.445c0.271,0.757,0.652,1.422,1.156,1.983
		c0.507,0.562,1.131,1.011,1.884,1.348c0.752,0.337,1.609,0.503,2.578,0.503c1.048,0,2.042-0.216,2.994-0.648
		c0.948-0.437,1.797-1.119,2.549-2.046L336.284,322.936z M352.083,304.713c1.501,0,2.856,0.212,4.071,0.637
		c1.218,0.428,2.258,1.027,3.127,1.809c0.873,0.782,1.543,1.734,2.017,2.861c0.475,1.123,0.711,2.387,0.711,3.792
		c0,1.776-0.299,3.456-0.906,5.036c-0.599,1.58-1.435,2.957-2.503,4.121c-1.064,1.164-2.329,2.088-3.793,2.77
		c-1.46,0.683-3.061,1.023-4.799,1.023c-1.543,0-2.936-0.208-4.18-0.624c-1.243-0.416-2.308-1.015-3.186-1.805
		c-0.877-0.79-1.555-1.751-2.029-2.878c-0.474-1.123-0.711-2.387-0.711-3.792c0-1.78,0.312-3.456,0.932-5.036
		c0.624-1.58,1.48-2.957,2.565-4.121c1.086-1.165,2.371-2.088,3.852-2.77C348.735,305.054,350.34,304.713,352.083,304.713z
		 M350.008,323.56c1.322,0,2.495-0.267,3.51-0.799c1.019-0.532,1.88-1.247,2.578-2.133c0.703-0.89,1.235-1.896,1.602-3.023
		c0.365-1.127,0.549-2.283,0.549-3.468c0-0.849-0.138-1.66-0.416-2.429c-0.279-0.773-0.682-1.439-1.215-2.001
		c-0.532-0.561-1.193-1.01-1.983-1.352c-0.79-0.332-1.7-0.499-2.728-0.499c-1.265,0-2.404,0.267-3.423,0.799
		s-1.884,1.243-2.591,2.134c-0.715,0.89-1.264,1.896-1.646,3.022c-0.387,1.123-0.578,2.279-0.578,3.469
		c0,0.864,0.137,1.68,0.412,2.445c0.278,0.757,0.682,1.422,1.218,1.983c0.532,0.562,1.193,1.011,1.983,1.348
		C348.07,323.394,348.98,323.56,350.008,323.56z M378.723,326.229l-6.874-16.302h-0.059l-2.878,16.302h-3.643l3.701-20.984h4.74
		l6.758,15.794h0.062l2.786-15.794h3.643l-3.705,20.984H378.723z M405.777,308.447l-1.035,5.806h8.771l-0.536,3.085h-8.771
		l-1.568,8.892h-3.646l3.705-20.984h12.979l-0.562,3.202H405.777z M429.81,304.713c1.506,0,2.861,0.212,4.075,0.637
		c1.215,0.428,2.259,1.027,3.128,1.809c0.869,0.782,1.538,1.734,2.013,2.861c0.474,1.123,0.715,2.387,0.715,3.792
		c0,1.776-0.304,3.456-0.906,5.036c-0.604,1.58-1.439,2.957-2.504,4.121s-2.328,2.088-3.792,2.77
		c-1.464,0.683-3.061,1.023-4.799,1.023c-1.543,0-2.937-0.208-4.18-0.624s-2.308-1.015-3.186-1.805
		c-0.882-0.79-1.56-1.751-2.033-2.878c-0.475-1.123-0.707-2.387-0.707-3.792c0-1.78,0.308-3.456,0.932-5.036
		s1.476-2.957,2.562-4.121c1.09-1.165,2.37-2.088,3.854-2.77C426.462,305.054,428.071,304.713,429.81,304.713z M427.739,323.56
		c1.322,0,2.49-0.267,3.51-0.799c1.015-0.532,1.875-1.247,2.578-2.133c0.698-0.89,1.235-1.896,1.601-3.023
		c0.362-1.127,0.545-2.283,0.545-3.468c0-0.849-0.137-1.66-0.411-2.429c-0.279-0.773-0.683-1.439-1.219-2.001
		c-0.532-0.561-1.193-1.01-1.983-1.352c-0.79-0.332-1.701-0.499-2.725-0.499c-1.264,0-2.407,0.267-3.426,0.799
		c-1.016,0.532-1.88,1.243-2.591,2.134c-0.712,0.89-1.261,1.896-1.643,3.022c-0.387,1.123-0.583,2.279-0.583,3.469
		c0,0.864,0.142,1.68,0.416,2.445c0.279,0.757,0.683,1.422,1.215,1.983c0.536,0.562,1.197,1.011,1.987,1.348
		S426.708,323.56,427.739,323.56z M456.449,326.229l-6.874-16.302h-0.058l-2.874,16.302h-3.647l3.706-20.984h4.74l6.758,15.794
		h0.058l2.787-15.794h3.646l-3.705,20.984H456.449z M478.353,308.447l-3.14,17.782h-3.647l3.11-17.782h-6.225l0.565-3.202h16.06
		l-0.561,3.202H478.353z M498.326,309.574c-0.399-0.632-0.915-1.098-1.556-1.393c-0.645-0.3-1.339-0.445-2.092-0.445
		c-0.374,0-0.79,0.059-1.243,0.179c-0.458,0.116-0.873,0.3-1.26,0.549c-0.387,0.245-0.707,0.574-0.965,0.99
		c-0.254,0.415-0.387,0.919-0.387,1.514c0,0.748,0.266,1.33,0.79,1.746c0.52,0.416,1.227,0.79,2.116,1.127
		c1.838,0.67,3.248,1.477,4.237,2.416c0.99,0.94,1.48,2.204,1.48,3.81c0,1.201-0.236,2.229-0.711,3.077
		c-0.474,0.853-1.094,1.543-1.867,2.075c-0.77,0.536-1.639,0.928-2.607,1.173s-1.946,0.37-2.932,0.37
		c-0.69,0-1.389-0.071-2.088-0.208c-0.702-0.138-1.372-0.345-2.004-0.624c-0.632-0.274-1.219-0.624-1.764-1.048
		c-0.54-0.429-1.002-0.936-1.376-1.53l2.965-2.046c0.391,0.694,0.99,1.264,1.792,1.705c0.799,0.444,1.685,0.669,2.649,0.669
		c0.495,0,0.985-0.062,1.468-0.179c0.486-0.116,0.919-0.312,1.306-0.578c0.387-0.266,0.703-0.611,0.948-1.035s0.37-0.956,0.37-1.589
		c0-0.474-0.104-0.89-0.312-1.256c-0.208-0.365-0.487-0.689-0.828-0.965c-0.349-0.274-0.748-0.523-1.201-0.74
		c-0.454-0.216-0.94-0.415-1.452-0.594c-0.632-0.237-1.23-0.504-1.792-0.799c-0.565-0.295-1.064-0.657-1.497-1.081
		c-0.437-0.429-0.777-0.936-1.022-1.526c-0.246-0.595-0.37-1.298-0.37-2.104c0-1.048,0.225-1.976,0.665-2.786
		c0.445-0.811,1.031-1.493,1.763-2.046c0.732-0.553,1.576-0.973,2.537-1.256c0.957-0.291,1.946-0.433,2.978-0.433
		c0.532,0,1.081,0.059,1.643,0.179c0.562,0.116,1.106,0.291,1.63,0.521c0.524,0.225,1.02,0.507,1.485,0.84
		c0.461,0.341,0.853,0.731,1.168,1.189L498.326,309.574z"></path></g></svg>