<?xml version="1.0" encoding="iso-8859-1"?>
<!DOCTYPE svg PUBLIC "-//W3C//DTD SVG 1.1//EN" "http://www.w3.org/Graphics/SVG/1.1/DTD/svg11.dtd">
<svg  version="1.1" xmlns="http://www.w3.org/2000/svg" xmlns:xlink="http://www.w3.org/1999/xlink" x="0px" y="0px" width="512px"
	 height="512px" viewBox="0 0 512 512" enable-background="new 0 0 512 512" xml:space="preserve"><g id="4b39c30df42af5ed8a0646b49500684b"><path d="M49.215,218.219c-10.465,0-20.688,1.745-31.731,4.649L0.5,326.763h18.056l6.829-38.799
		c3.196,1.015,7.41,1.888,11.188,1.888c21.94,0,37.489-14.675,41.261-35.74C81.469,232.898,71.153,218.219,49.215,218.219z
		 M57.495,254.111c-2.325,12.636-8.718,19.322-18.017,19.322c-4.213,0-8.138-0.582-11.334-1.306l6.394-36.035
		c3.341-0.874,7.7-1.454,11.769-1.454C55.607,234.639,59.676,241.321,57.495,254.111z M109.489,273.434
		c2.466,0,5.082-0.723,7.115-1.455l-2.765,15.985c-3.194,1.015-7.987,1.888-11.906,1.888c-12.213,0-18.456-5.955-15.985-19.32
		l8.862-50.422h19.325l-8.571,48.385C104.983,272.128,106.285,273.434,109.489,273.434z M119.361,195.989
		c-1.017,5.812-6.681,10.604-12.492,10.604c-5.959,0-9.879-4.793-8.721-10.604c1.019-5.957,6.537-10.752,12.497-10.752
		C116.458,185.237,120.376,190.032,119.361,195.989z M168.765,218.219c6.371,0,10.542,1.274,15.715,3.053l-4.217,14.914
		l-9.754-1.258c-1.453-0.144-3.052-0.289-4.645-0.289c-11.192,0-18.458,5.671-20.928,19.473
		c-2.325,13.654,2.907,19.322,14.093,19.322c6.537,0,12.638-1.164,18.888-3.052l-2.905,16.422
		c-5.229,1.593-13.077,3.048-18.895,3.048c-24.119,0-35.304-13.947-31.525-35.74C128.51,232.167,144.645,218.219,168.765,218.219z
		 M392.482,273.434c2.462,0,5.082-0.723,7.111-1.455l-2.757,15.985c-3.193,1.015-7.993,1.888-11.914,1.888
		c-12.21,0-18.447-5.955-15.985-19.32l4.508-26.157c1.164-5.957-2.762-9.735-9.881-9.735c-4.067,0-8.434,0.58-11.769,1.454
		l-9.157,51.871H324.99c8.521-9.107,13.748-21.342,13.748-34.795c0-11.317-3.693-21.764-9.935-30.22l0.295-0.081
		c11.045-2.904,26.914-4.649,37.377-4.649c18.447,0,29.201,10.172,26.436,26.155l-4.358,24.12
		C387.975,272.128,389.281,273.434,392.482,273.434z M443.445,195.989c-1.019,5.812-6.683,10.604-12.492,10.604
		c-5.959,0-9.876-4.793-8.72-10.604c1.019-5.957,6.537-10.752,12.5-10.752C440.543,185.237,444.465,190.032,443.445,195.989z
		 M433.569,273.434c2.47,0,5.09-0.723,7.119-1.455l-2.761,15.985c-3.194,1.015-7.993,1.888-11.91,1.888
		c-12.214,0-18.456-5.955-15.985-19.32l8.861-50.422h19.325l-8.571,48.385C429.069,272.128,430.367,273.434,433.569,273.434z
		 M471.952,254.111c-2.32,13.654,2.911,19.322,14.098,19.322c6.537,0,12.642-1.164,18.888-3.052l-2.902,16.422
		c-5.231,1.597-13.074,3.048-18.896,3.048c-24.119,0-35.302-13.947-31.521-35.74c3.917-21.944,20.053-35.893,44.172-35.893
		c6.371,0,10.538,1.274,15.711,3.053l-4.217,14.914l-9.752-1.258c-1.451-0.144-3.052-0.289-4.645-0.289
		C481.691,234.639,474.427,240.31,471.952,254.111z M249.043,220.109c-4.124,4.826-7.354,10.432-9.457,16.563h-13.331l-4.801,27.03
		c-1.017,5.951-0.285,9.73,6.833,9.73c4.645,0,6.337-0.582,9.827-1.888l-2.909,16.418c-3.487,1.16-5.759,1.888-9.685,1.888
		c-18.601,0-26.151-10.172-23.383-26.148l4.786-27.03h-12.494l4.685-16.563h10.721l3.196-17.871l19.764-2.905l-3.635,20.776H249.043
		z M318.927,253.169c0,17.196-13.947,31.136-31.139,31.136c-17.184,0-31.133-13.939-31.133-31.136
		c0-17.195,13.95-31.135,31.133-31.135C304.979,222.034,318.927,235.974,318.927,253.169z"></path></g></svg>