<?xml version="1.0" encoding="iso-8859-1"?>
<!DOCTYPE svg PUBLIC "-//W3C//DTD SVG 1.1//EN" "http://www.w3.org/Graphics/SVG/1.1/DTD/svg11.dtd">
<svg  version="1.1" xmlns="http://www.w3.org/2000/svg" xmlns:xlink="http://www.w3.org/1999/xlink" x="0px" y="0px" width="512px"
	 height="512px" viewBox="0 0 512 512" enable-background="new 0 0 512 512" xml:space="preserve"><g id="3e91140ac1bfb9903b91c1b0ca08e3fa"><path display="inline" d="M459.771,408.315c-63.025,86.732-182.717,125.474-283.328,90.201
		C85.662,469.027,14.54,386.341,3.555,291.512c-7.172-41.628-1.562-88.465,29.721-119.689c21.971-24.285,53.774-39.898,86.732-39.32
		v-0.16c22.839-2.887,24.459,4.827,8.962,16.074c-55.855,63.025-51.113,168.842,10.467,226.663
		c48.513,48.457,128.362,61.866,189.659,30.702C371.243,419.603,416.983,418.272,459.771,408.315z M154.816,169.174
		c-47.877,53.197-39.318,143.399,15.729,187.921c13.239-1.387,17.289-41.166,30.065-56.549c8.385-25.095,36.95-49.265,29.548-75.748
		c-11.854-26.54-22.435-62.623-51.172-74.59v-0.635C168.174,151.422,161.234,161.136,154.816,169.174z M244.903,268.745
		c-13.299,31.802-30.645,63.601-33.535,98.296c4.625,34.113,57.822,22.553,83.266,16.77c-28.854-31.799-37.239-75.284-49.15-115.065
		H244.903z M507.534,213.87C490.764,94.756,376.855-1.344,256.006,1.084V0.507C179.681-0.07,105.091,36.934,57.674,96.491
		c41.634-20.816,93.674-18.502,132.992,6.362c60.714-27.178,138.197-12.143,184.457,35.849
		c61.866,59.557,63.599,170.572,1.732,230.711c31.799,4.046,67.075-1.159,93.67-20.816
		C513.313,319.107,515.63,260.707,507.534,213.87z M218.306,128.872c37.006,45.103,42.788,106.394,64.182,159.009
		c13.302,27.176,21.976,63.607,53.197,75.172c34.113-24.866,53.778-66.498,53.778-108.128
		c1.732-68.23-57.824-128.365-125.478-132.413l0.232,0.578C248.722,121.991,233.05,124.12,218.306,128.872z"></path></g></svg>