<?xml version="1.0" encoding="iso-8859-1"?>
<!DOCTYPE svg PUBLIC "-//W3C//DTD SVG 1.1//EN" "http://www.w3.org/Graphics/SVG/1.1/DTD/svg11.dtd">
<svg  version="1.1" xmlns="http://www.w3.org/2000/svg" xmlns:xlink="http://www.w3.org/1999/xlink" x="0px" y="0px" width="512px"
	 height="512px" viewBox="0 0 512 512" enable-background="new 0 0 512 512" xml:space="preserve"><g id="3e91140ac1bfb9903b91c1b0ca08e33b"><path display="inline" d="M0.5,277.241l90.837-134.19l-1.05,238.544L1.712,293.019L0.5,277.241z M404.613,485.945
		c-0.457,0.153-11.245,3.78-22.24,5.552c-12.396,1.996-23.762-1.069-25.915-1.705l-0.815-0.263l-221.741-77.452l86.29,99.422
		l205.127-3.639l12.68-38.021l-32.337,15.749L404.613,485.945z M293.02,1.715l-15.782-1.214L143.048,91.338l238.544-1.05
		L293.02,1.715z M412.073,133.904l77.595,222.145l0.12,0.412c0.641,2.15,3.705,13.52,1.705,25.916
		c-1.771,10.995-5.397,21.782-5.547,22.239l-0.358,1.049l-15.752,32.332l38.017-12.675l3.647-205.13L412.073,133.904z
		 M107.715,384.456l253.682,88.61c0,0,9.091,2.678,18.202,1.214c9.682-1.563,19.421-4.857,19.421-4.857l39.044-19.021
		L108.875,121.211L107.715,384.456z M473.063,361.397l-88.609-253.682l-263.244,1.16l329.189,329.192l19.021-39.049
		c0,0,3.294-9.735,4.857-19.416C475.745,370.487,473.063,361.397,473.063,361.397z"></path></g></svg>