<?xml version="1.0" encoding="iso-8859-1"?>
<!DOCTYPE svg PUBLIC "-//W3C//DTD SVG 1.1//EN" "http://www.w3.org/Graphics/SVG/1.1/DTD/svg11.dtd">
<svg  version="1.1" xmlns="http://www.w3.org/2000/svg" xmlns:xlink="http://www.w3.org/1999/xlink" x="0px" y="0px" width="512px"
	 height="512px" viewBox="0 0 512 512" enable-background="new 0 0 512 512" xml:space="preserve"><g id="3e91140ac1bfb9903b91c1b0ca08f2d2"><path display="inline" d="M511.5,198.026L334.949,172.09l-0.881-1.806c2.77-12.163,4.486-24.595,4.924-36.91
		c0.781-21.991-0.309-44.214-13.437-57.816c-4.924-5.103-13.748-11.178-27.842-11.183c-4.441,0-9.211,0.626-14.467,1.828L256,10.403
		l-70.518,144.418c-3.834,5.057-8.336,11.17-13.085,17.952L0.5,198.026l127.75,125.86l-30.162,177.71l106.951-56.826
		c3.679,2.033,7.213,2.857,11.126,2.857c3.456,0,14.655-1.556,50.804-11.943c5.086-1.46,9.881-2.94,14.547-4.434l132.396,70.346
		l-30.162-177.71L511.5,198.026z M261.069,415.341h0.004c-21.221,6.097-41.398,11.095-44.924,11.12
		c-6.145-0.096-45.245-55.005-41.398-58.153c1.057-0.856,18.851-7.011,39.543-13.673c83.116-26.756,109.452-48.031,109.415-88.402
		l-0.029-27.877l-0.045,0.073v-0.075l-12.746,20.522c-24.781,39.897-57.891,61.33-93.322,61.33c-1.967,0-3.942-0.066-5.926-0.199
		c-5.984-0.403-12.022-1.41-18.09-3.049c-26.037-7.011-40.824-27.721-40.824-57.165c0-37.644,97.605-163.555,133.833-172.649
		c1.847-0.462,3.561-0.788,5.22-1.051c0.341-0.054,0.694-0.122,1.026-0.168c1.73-0.239,3.382-0.383,4.907-0.383
		c16.11,0,21.317,13.511,20.128,47.083c-0.046,1.335-0.138,2.661-0.213,3.99l-0.041-0.083
		c-3.793,65.188-43.989,122.487-81.031,122.493c-5.683-0.006-11.296-1.359-16.686-4.248c-11.769-6.296-13.507-12.297-10.725-36.994
		c3.146-27.918,26.951-71.724,38.992-71.77c10.355,0.046,12.204,25.194,3.055,41.706c-10.771,19.437-12.272,44.745-2.999,50.479
		c1.314,0.812,2.708,1.198,4.167,1.198c0.006,0,0.012-0.002,0.017-0.002c0.01,0,0.019,0.004,0.029,0.004
		c19.615,0,50.805-69.967,50.805-118.572c0-15.157-4.366-22.71-12.763-22.71c-0.008,0-0.013,0.003-0.017,0.003
		c-0.013,0-0.021-0.005-0.029-0.005c-10.155,0-26.194,11.037-47.536,33.002c-53.237,54.806-74.109,110.638-54.963,147.017
		c10.005,19.005,18.029,24.323,40.286,25.019c1.495,0.045,3.054,0.074,4.685,0.083c0.058,0,0.112,0,0.175,0
		c29.705,0,64.998-35.681,76.746-77.643c5.609-20.033,12.4-31.772,16.654-31.811c2.467,0.029,4.076,4.04,4.076,12.717
		c0,6.937,6.204,30.641,13.785,52.677C376.972,354.114,359.401,387.079,261.069,415.341z"></path></g></svg>