<?xml version="1.0" encoding="iso-8859-1"?>
<!DOCTYPE svg PUBLIC "-//W3C//DTD SVG 1.1//EN" "http://www.w3.org/Graphics/SVG/1.1/DTD/svg11.dtd">
<svg  version="1.1" xmlns="http://www.w3.org/2000/svg" xmlns:xlink="http://www.w3.org/1999/xlink" x="0px" y="0px" width="512px"
	 height="512px" viewBox="0 0 512 512" enable-background="new 0 0 512 512" xml:space="preserve"><g id="3e91140ac1bfb9903b91c1b0ca08f1f2"><path display="inline" d="M464.824,224.488l-46.679,1.653l-3.023-6.628c-2.346-5.15-5.053-6.626-12.159-6.626
		c-5.028,0-10.713,1.892-12.63,4.204c-3.165,3.813-3.705,3.813-5.843,0c-2.707-4.838-13.066-5.593-17.396-1.266
		c-2.083,2.085-4.482,2.112-8.259,0.091c-6.641-3.556-30.407-3.348-34.936,0.306c-6.487,5.233-19.453-9.663-43.535-50.029
		c-23.325-39.094-23.935-39.83-27.817-33.618c-2.183,3.493-8.353,13.334-13.707,21.868c-5.356,8.534-9.737,16.029-9.737,16.655
		c0,1.84-22.129,37.314-26.55,42.563c-2.948,3.499-6.159,4.346-11.792,3.108c-5.438-1.193-9.292-0.295-12.956,3.021
		c-2.867,2.595-6.03,3.903-7.026,2.907c-0.996-0.998-2.354-12.116-3.015-24.71c-1.075-20.508-1.905-23.452-7.947-28.205
		c-3.709-2.917-8.795-5.304-11.301-5.304c-12.03,0-39.069,25.506-56.976,53.747l-4.235,6.683l-43.405-0.877
		C20.031,223.546,0.5,223.705,0.5,224.382c0,0.676,7.564,3.913,16.809,7.192c40.774,14.459,66.566,25.089,66.566,27.434
		c0,1.394,3.098,5.631,6.884,9.42c6.294,6.291,6.525,7.281,2.688,11.519c-5.872,6.487-5.468,8.251,5.793,25.351
		c10.409,15.807,13.272,17.092,27.207,12.234c4.626-1.613,9.583-2.521,11.018-2.017c1.433,0.503-6.408,15.19-17.424,32.64
		c-11.016,17.454-20.032,32.279-20.032,32.948c0,2.15,1.805,1.518,47.678-16.555c79.104-31.169,106.076-41.395,109.201-41.395
		c1.674,0,15.173,4.808,29.993,10.688c75.157,29.809,123.492,48.48,125.479,48.48c1.215,0-3.21-8.38-9.839-18.622
		c-6.629-10.247-12.047-19.229-12.047-19.961c0-0.74,4.154-2.711,9.236-4.392c5.081-1.672,13.465-7.727,18.63-13.44
		c11.519-12.75,14.505-28.27,9.922-51.553c-1.759-8.945-2.811-16.528-2.341-16.849c0.474-0.315,19.923-7.666,43.22-16.331
		c23.296-8.664,42.358-16.334,42.358-17.046C511.5,223.417,490.495,223.58,464.824,224.488z M83.271,237.943
		c-1.586,4.709-3.009,8.683-3.159,8.831c-0.96,0.95-44.65-16.119-44.656-17.447c-0.002-0.906,11.403-1.264,25.348-0.796
		l25.353,0.853L83.271,237.943z M331.677,223.644c1.193,0,4.163,6.959,6.604,15.463c5.349,18.668,7.91,22.188,16.119,22.188
		c11.993,0,14.555-16.011,4.408-27.567c-5.406-6.157-8.509-5.99-6.846,0.37c2.088,7.984-3.821,9.247-8.666,1.853
		c-9.115-13.912,6.454-17.268,19.063-4.11c6.979,7.283,7.968,10.45,8.87,28.367c0.836,16.479,0.149,21.136-3.73,25.423
		c-11.552,12.763-22.788,1.93-30.839-29.712c-3.194-12.573-6.907-24.182-8.251-25.797
		C325.942,227.146,327.71,223.644,331.677,223.644z M314.519,227.006c12.65,13.505,13.74,32.224,2.578,44.374
		c-11.527,12.551-34.149,5.81-38.486-11.469c-2.034-8.101,3.438-29.659,8.92-35.14C293.473,218.829,307.99,220.032,314.519,227.006z
		 M213.483,214.549c1.223-4.857,40.917-71.404,42.654-71.504c1.476-0.085,40.205,63.328,40.205,65.832
		c0,0.726-1.68,1.321-3.738,1.321c-2.055,0-6.592,2.322-10.08,5.163c-5.423,4.41-6.953,4.624-10.455,1.472
		c-2.258-2.029-8.986-4.471-14.949-5.425c-9.191-1.468-12.106-0.672-19.117,5.229c-7.381,6.21-8.652,6.508-11.76,2.763
		c-1.915-2.31-5.758-3.604-8.536-2.878C214.581,217.34,212.972,216.587,213.483,214.549z M263.618,272.091
		c-15.139,15.142-34.553,8.347-34.486-12.065c0.042-13.098,11.96-35.911,19.784-37.876c10.527-2.643,17.996,1.212,22.3,11.509
		C276.722,246.832,273.724,261.983,263.618,272.091z M182.132,230.023c3.714-4.853,3.916-4.816,5.556,1.017
		c0.936,3.329,2.88,6.051,4.321,6.051c1.438,0,5.007-2.722,7.926-6.051c3.681-4.192,5.741-5.02,6.708-2.69
		c1.657,3.994,9.016,4.543,9.016,0.673c0-1.478,1.21-2.69,2.688-2.69c4.999,0,2.732,8.271-4.152,15.158
		c-3.764,3.764-8.303,6.244-10.086,5.515c-14.222-5.829-13.625-6.02-11.671,3.745c2.574,12.875,10.164,20.036,17.227,16.255
		c4.916-2.628,5.533-1.967,6.635,7.128c0.684,5.635-0.075,10.887-1.73,12.002c-8.529,5.722-23.115-2.612-23.115-13.199
		c0-8.521-6.229-30.932-9.509-34.21C178.847,235.629,178.878,234.275,182.132,230.023z M134.561,305.339
		c-8.363,2.403-16.318,4.366-17.676,4.366c-2.396,0-17.798-21.625-16.283-22.864c0.414-0.336,7.411-2.757,15.547-5.372
		c32.682-10.521,43.034-18.889,43.02-34.761l-0.01-10.962l-5.011,8.069c-11.923,19.198-28.75,27.523-46.154,22.836
		c-10.236-2.757-16.052-10.897-16.052-22.475c0-14.802,38.377-64.308,52.622-67.884c9.789-2.456,12.86,2.011,12.299,17.882
		c-1.071,30.226-22.309,56.708-38.522,48.031c-4.626-2.476-5.311-4.838-4.215-14.548c1.237-10.983,10.606-28.218,15.339-28.218
		c4.082,0,4.813,9.901,1.212,16.399c-4.236,7.642-4.826,17.595-1.179,19.847c7.456,4.61,21.612-25.614,21.612-46.147
		c0-13.168-8.375-11.738-23.706,4.046c-20.934,21.548-29.141,43.5-21.612,57.804c4.196,7.97,7.504,9.818,17.661,9.868
		c11.696,0.054,25.617-13.996,30.245-30.528c3.5-12.499,8.169-16.79,8.169-7.506c0,2.728,2.439,12.047,5.42,20.711
		C180.132,281.261,173.223,294.223,134.561,305.339z M394.204,365.546c1.256,2.129-3.326,1.264-12.292-2.313
		c-7.864-3.136-18.535-7.248-23.712-9.141c-5.178-1.896-29.987-11.577-55.134-21.516c-43.249-17.092-46.23-17.891-55.134-14.718
		c-5.178,1.843-29.384,11.112-53.791,20.594c-24.407,9.485-51.335,20.173-59.841,23.757c-8.504,3.581-15.463,5.765-15.463,4.85
		c0-0.911,7.425-13.674,16.499-28.354c11.234-18.181,19.711-28.727,26.561-33.052c5.533-3.493,12.534-9.498,15.56-13.341
		l5.501-6.994l6.814,6.815c7.475,7.474,18.497,8.842,29.793,3.693c3.768-1.718,6.851-4.87,6.851-7.012
		c0-2.698,1.441-3.256,4.706-1.821c11.856,5.206,23.521,4.316,33.653-2.565l10.118-6.879l8.708,5.311
		c11.813,7.203,25.966,6.8,37.572-1.077l9.439-6.408l4.404,9.236c2.42,5.077,8.055,11.29,12.521,13.802
		c11.645,6.55,13.063,15.217,4.034,24.64c-6.063,6.329-6.804,8.55-4.375,13.091c3.751,7.003,11.045,9.266,22.789,7.062
		C379.725,341.38,380.153,341.775,394.204,365.546z M401.157,328.252c-10.504,5.905-28.136,8.725-40.99,6.554l-7.448-1.26
		l5.432-6.903c2.985-3.797,5.431-9.894,5.431-13.553c0-4.965,1.077-6.233,4.267-5.007c19.932,7.644,37.136,3.489,42.925-10.375
		c5.58-13.354,4.932-21.001-0.803-9.516c-5.802,11.615-14.775,13.753-20.41,4.87c-2.167-3.418-5.244-16.214-6.841-28.437
		c-1.593-12.217-4.824-25.947-7.182-30.504c-2.358-4.558-3.672-8.901-2.924-9.652c3.136-3.134,7.29,3.027,11.262,16.696
		c5.132,17.651,11.66,26.496,17.811,24.134c8.953-3.435,8.384-15.659-1.867-40.005c-1.58-3.753-1.147-4.753,1.655-3.842
		c4.055,1.316,7.469,11.149,14.313,41.19C423.972,298.585,419.68,317.843,401.157,328.252z M452.332,239.839
		c-15.531,5.831-28.402,10.623-28.598,10.65c-0.869,0.121-3.605-12.492-3.639-16.761c-0.033-4.21,3.144-4.695,30.22-4.597
		l30.254,0.11L452.332,239.839z M269.448,244.218c0,5.498-11.19,17.078-16.5,17.078c-1.279,0-4.747-2.421-7.706-5.377
		c-2.958-2.959-5.339-8.708-5.293-12.775c0.079-6.725,0.412-6.97,3.659-2.69c4.015,5.29,11.149,6.207,13.881,1.784
		c0.994-1.609,0.462-4.271-1.185-5.917c-4.229-4.229-3.716-9.987,0.888-9.987C262.313,226.333,269.448,236.748,269.448,244.218z
		 M288.445,237.61c0.141-8.205,0.569-8.945,2.461-4.254c2.787,6.891,8.625,9.492,13.748,6.125c3.178-2.09,3.028-3.077-0.914-6.101
		c-5.265-4.032-6.288-9.737-1.755-9.737c4.059,0,18.563,15.867,18.563,20.302c0,4.331-10.301,11.972-16.135,11.972
		c-2.305,0-6.879-1.884-10.164-4.188C289.834,248.639,288.32,244.948,288.445,237.61z"></path></g></svg>