<?xml version="1.0" encoding="iso-8859-1"?>
<!DOCTYPE svg PUBLIC "-//W3C//DTD SVG 1.1//EN" "http://www.w3.org/Graphics/SVG/1.1/DTD/svg11.dtd">
<svg  version="1.1" xmlns="http://www.w3.org/2000/svg" xmlns:xlink="http://www.w3.org/1999/xlink" x="0px" y="0px" width="512px"
	 height="512px" viewBox="0 0 512 512" style="enable-background:new 0 0 512 512;" xml:space="preserve"><g id="7935ec95c421cee6d86eb22ecd12a06c"><path style="display: inline;" d="M255.998,511.496c-31.807,0-62.234-5.863-90.329-16.48V440.1v-22.793V237.935l1.435,2.097
		c7.547-42.255,44.45-74.354,88.894-74.354c49.882,0,90.328,40.445,90.328,90.322c0,49.889-40.445,90.323-90.328,90.323
		c-7.754,0-16.518,0-16.518,0s-14.191,6.275-22.038,18.514c-7.542,11.752-8.758,29.492-8.758,29.492s0.923,17.027,8.009,27.57
		c6.3,9.355,16.299,15.045,20.641,17.203c6.149,0.6,12.356,0.998,18.663,0.998c104.051,0,188.41-83.398,188.41-186.246
		c0-102.86-84.358-186.258-188.41-186.258C151.953,67.596,67.6,150.994,67.6,253.854c0,1.011,0.062,1.996,0.081,3.007H67.6v171.686
		C25.938,383.1,0.5,322.52,0.5,256C0.5,114.903,114.894,0.503,255.998,0.503C397.101,0.503,511.5,114.903,511.5,256
		C511.5,397.109,397.101,511.496,255.998,511.496z"></path></g></svg>