<?xml version="1.0" encoding="iso-8859-1"?>
<!DOCTYPE svg PUBLIC "-//W3C//DTD SVG 1.1//EN" "http://www.w3.org/Graphics/SVG/1.1/DTD/svg11.dtd">
<svg  version="1.1" xmlns="http://www.w3.org/2000/svg" xmlns:xlink="http://www.w3.org/1999/xlink" x="0px" y="0px" width="512px"
	 height="512px" viewBox="0 0 512 512" enable-background="new 0 0 512 512" xml:space="preserve"><g id="5151e0c8492e5103c096af88a51f4333"><path display="inline" fill-rule="evenodd" clip-rule="evenodd" d="M494.657,127.735c-4.55,77.706-60.874,144.672-122.181,206.362
		c-3.419-75.23-19.783-123.187-45.333-190.611C303.023,75.533,373.537,2.676,431.549,0.5
		C466.303,18.201,496.153,64.677,494.657,127.735z M278.585,280.458c-8.703,15.572-20.134,32.473-35.025,51.002
		c-31.312,39.463-62.872,104.172-53.174,180.04c129.33-14.267,169.713-111.337,173.256-164.674
		C339.27,310.056,295.047,287.412,278.585,280.458z M17.797,47.66c-4.596,59.359,20.802,147.617,123.727,175.712
		c43.34,12.833,73.696,20.739,106.577,32.679c48.065,17.46,85.795,39.754,115.68,78.233c-5.544-66.205-32.807-142.061-76.35-201.242
		C225.322,48.631,117.75,8.107,17.797,47.66z"></path></g></svg>