<?xml version="1.0" encoding="iso-8859-1"?>
<!DOCTYPE svg PUBLIC "-//W3C//DTD SVG 1.1//EN" "http://www.w3.org/Graphics/SVG/1.1/DTD/svg11.dtd">
<svg  version="1.1" xmlns="http://www.w3.org/2000/svg" xmlns:xlink="http://www.w3.org/1999/xlink" x="0px" y="0px" width="512px"
	 height="512px" viewBox="0 0 512 512" enable-background="new 0 0 512 512" xml:space="preserve"><g id="5151e0c8492e5103c096af88a51e2ea6"><path display="inline" d="M401.054,224c3.714,4.115,4.595,11.181,2.653,21.19c-2.029,10.425-5.935,17.862-11.723,22.32
		c-5.793,4.458-14.602,6.687-26.432,6.687h-17.849l10.957-56.37h20.103C389.913,217.827,397.34,219.886,401.054,224z
		 M149.754,217.827h-20.103l-10.958,56.37h17.848c11.827,0,20.639-2.229,26.432-6.687c5.789-4.458,9.694-11.896,11.723-22.32
		c1.942-10.01,1.06-17.075-2.653-21.19C168.33,219.886,160.903,217.827,149.754,217.827z M511.5,256
		c0,74.229-114.393,134.403-255.5,134.403S0.5,330.229,0.5,256c0-74.228,114.393-134.403,255.5-134.403S511.5,181.772,511.5,256z
		 M198.542,265.286c3.04-5.448,5.203-11.461,6.483-18.037c3.102-15.967,0.761-28.403-7.024-37.313
		c-7.781-8.91-20.165-13.363-37.136-13.363h-56.423L78.265,331.261h29.342l6.958-35.805h25.134c11.087,0,20.21-1.164,27.372-3.497
		c7.161-2.329,13.669-6.233,19.528-11.719C191.514,275.72,195.493,270.738,198.542,265.286z M301.814,295.456l12.181-62.682
		c2.479-12.747,0.619-21.971-5.572-27.664c-6.196-5.688-17.449-8.537-33.768-8.537h-25.933l6.961-35.81h-29.11l-26.182,134.692
		h29.11l14.996-77.165h23.267c7.448,0,12.317,1.232,14.604,3.698c2.287,2.467,2.773,7.091,1.455,13.869l-11.581,59.598H301.814z
		 M427.011,209.937c-7.78-8.91-20.164-13.363-37.135-13.363h-56.424l-26.178,134.688h29.343l6.957-35.805h25.135
		c11.086,0,20.21-1.164,27.371-3.497c7.161-2.329,13.669-6.233,19.528-11.719c4.92-4.521,8.896-9.502,11.943-14.954
		c3.044-5.448,5.202-11.461,6.483-18.037C437.137,231.282,434.796,218.846,427.011,209.937z"></path></g></svg>