<?xml version="1.0" encoding="iso-8859-1"?>
<!DOCTYPE svg PUBLIC "-//W3C//DTD SVG 1.1//EN" "http://www.w3.org/Graphics/SVG/1.1/DTD/svg11.dtd">
<svg  version="1.1" xmlns="http://www.w3.org/2000/svg" xmlns:xlink="http://www.w3.org/1999/xlink" x="0px" y="0px" width="512px"
	 height="512px" viewBox="0 0 512 512" enable-background="new 0 0 512 512" xml:space="preserve"><g id="5151e0c8492e5103c096af88a51fbe2a"><path display="inline" d="M343.158,24.759l0.009-0.74c-0.096,0-0.191-0.004-0.287-0.004c-1.318,0-2.604,0.116-3.867,0.312
		c-2.013,0.108-3.984,0.665-5.931,1.68c-14.695,6.03-26.281,25.28-40.275,48.589c-20.493,34.142-45.993,76.629-89.724,87.313
		c-17.25,4.208-37.639,28.647-57.046,53.32c-1.771,2.245-3.402,4.316-4.857,6.138l-0.482,0.599L0.5,279.95l113.657,80.011
		c47.719-22.41,62.32,20.51,101.834,128.024c79.515-8.925,132.87-136.009,177.182-144.359
		c54.955-10.351,59.563,31.729,118.327,67.983C452.449,283.864,389.775,36.669,343.158,24.759z M172.019,316.313l-56.789,28.785
		l-88.381-62.224L145.99,233.6l23.125,17.184l35.397,26.847C194.62,291.332,183.845,304.365,172.019,316.313z M212.078,266.797
		l-35.264-26.206l-21.595-16.381c0.283-0.357,0.565-0.72,0.856-1.085c12.451-15.832,35.63-45.291,50.04-48.81
		c40.188-9.817,65.588-41.959,85.416-73.182C272.418,149.307,248.71,212.35,212.078,266.797z"></path></g></svg>