<?xml version="1.0" encoding="iso-8859-1"?>
<!DOCTYPE svg PUBLIC "-//W3C//DTD SVG 1.1//EN" "http://www.w3.org/Graphics/SVG/1.1/DTD/svg11.dtd">
<svg  version="1.1" xmlns="http://www.w3.org/2000/svg" xmlns:xlink="http://www.w3.org/1999/xlink" x="0px" y="0px" width="512px"
	 height="512px" viewBox="0 0 512 512" enable-background="new 0 0 512 512" xml:space="preserve"><g id="5151e0c8492e5103c096af88a51eea86"><path display="inline" d="M489.893,354.61c-1.497-2.021-3.843-4.861-6.504-7.59c-27.663-28.39-48.33-61.907-59.479-99.042
		c-0.503-1.732-1.019-3.452-1.472-5.182c-0.479-1.745-0.898-3.524-1.335-5.288c-8.899-37.706-7.814-77.089,2.004-115.486
		c0,0,1.493-6.344,1.88-8.964c8.242-48.507-21.633-96.222-70.113-109.215C305.47-9.393,254.819,18.316,238.671,66.11
		c-0.669,1.784-2.021,6.288-2.046,6.36c-10.625,37.641-29.076,71.826-55.15,99.8c-29.6,31.094-67.264,53.192-109.473,64.497
		C20.573,250.551-9.979,303.506,3.81,354.951c13.794,51.433,66.666,81.978,118.123,68.179c38.404-9.801,77.79-10.907,115.499-1.996
		c1.759,0.438,3.522,0.869,5.277,1.344c1.755,0.457,3.493,0.978,5.24,1.472c37.115,11.137,70.674,31.792,99.023,59.484
		c3.484,3.484,6.495,5.938,9.307,7.917c38.108,29.044,92.336,26.814,127.089-7.917C518.632,448.177,520.67,392.478,489.893,354.61z
		 M371.823,305.299c-13.498,50.347-65.247,80.234-115.606,66.731c-50.344-13.478-80.227-65.247-66.736-115.599
		c13.494-50.35,65.247-80.227,115.591-66.738C355.435,203.189,385.318,254.936,371.823,305.299z"></path></g></svg>