<?xml version="1.0" encoding="iso-8859-1"?>
<!DOCTYPE svg PUBLIC "-//W3C//DTD SVG 1.1//EN" "http://www.w3.org/Graphics/SVG/1.1/DTD/svg11.dtd">
<svg  version="1.1" xmlns="http://www.w3.org/2000/svg" xmlns:xlink="http://www.w3.org/1999/xlink" x="0px" y="0px" width="512px"
	 height="512px" viewBox="0 0 512 512" enable-background="new 0 0 512 512" xml:space="preserve"><g id="5151e0c8492e5103c096af88a51efbc8"><path display="inline" d="M503.02,80.983l-14.206-8.695l-41.688,84.638c0,0-17.716,16.53-39.719,4.404
		c-22.007-12.122-21.191-36.869-21.191-36.869l46.691-80.177l-16.742-6.978c0,0-120.322,55.134-126.922,70.416
		c-22.095,34.524-28.682,77.561-69.381,122.364C179.166,274.883,50.268,344.23,21.699,367.02
		c-28.569,22.801-26.374,65.804-4.674,88.655c21.699,22.855,62.294,25.587,83.578,5.609
		c21.284-19.978,118.576-121.711,167.801-160.336c49.233-38.615,182.867-32.387,221.712-73.605
		C528.955,186.11,503.02,80.983,503.02,80.983z M83.133,434.762c-11.291,12.629-30.673,13.723-43.29,2.437
		c-12.625-11.286-13.703-30.665-2.416-43.299c11.294-12.616,30.673-13.715,43.294-2.428
		C93.342,402.749,94.419,422.136,83.133,434.762z"></path></g></svg>