<?xml version="1.0" encoding="iso-8859-1"?>
<!DOCTYPE svg PUBLIC "-//W3C//DTD SVG 1.1//EN" "http://www.w3.org/Graphics/SVG/1.1/DTD/svg11.dtd">
<svg  version="1.1" xmlns="http://www.w3.org/2000/svg" xmlns:xlink="http://www.w3.org/1999/xlink" x="0px" y="0px" width="512px"
	 height="512px" viewBox="0 0 512 512" enable-background="new 0 0 512 512" xml:space="preserve"><g id="5151e0c8492e5103c096af88a51e787d"><path display="inline" d="M511.5,279.439c-3.373,14.068-8.679,25.814-15.919,35.246s-16.23,16.547-26.968,21.352
		c-10.741,4.799-24.402,7.201-40.995,7.201c-20.123,0-36.57-2.928-49.328-8.777c-12.763-5.852-23.771-16.131-33.035-30.865
		c-9.262-14.725-13.894-33.58-13.894-56.558c0-30.63,8.15-54.175,24.443-70.626c16.293-16.453,39.353-24.683,69.165-24.683
		c23.325,0,41.66,4.72,55.009,14.149c13.349,9.434,23.263,23.922,29.746,43.455l-50.526,11.241
		c-1.764-5.639-3.618-9.769-5.556-12.376c-3.202-4.379-7.119-7.75-11.748-10.105c-4.637-2.356-9.81-3.541-15.536-3.541
		c-12.975,0-22.909,5.217-29.816,15.648c-5.215,7.739-7.827,19.895-7.827,36.462c0,20.526,3.115,34.595,9.341,42.21
		c6.237,7.609,14.995,11.41,26.281,11.41c10.945,0,19.221-3.068,24.822-9.219c5.598-6.143,9.66-15.076,12.188-26.777L511.5,279.439z
		 M111.666,206.663c2.299,9.269,3.447,19.707,3.447,31.31c0,13.263-1.56,24.715-4.687,34.364
		c-3.127,9.648-7.353,17.615-12.663,23.902c-5.31,6.297-11.527,10.967-18.651,14.02c-7.119,3.049-14.638,4.578-22.547,4.578
		c-9.494,0-17.765-1.713-24.81-5.148c-7.048-3.426-12.887-8.379-17.52-14.861c-4.637-6.48-8.084-14.373-10.347-23.68
		S0.5,251.35,0.5,239.667c0-13.112,1.547-24.487,4.637-34.135c3.085-9.646,7.29-17.613,12.601-23.905
		c5.31-6.29,11.511-10.964,18.593-14.016c7.082-3.053,14.584-4.577,22.493-4.577c9.494,0,17.765,1.734,24.814,5.2
		c7.044,3.464,12.904,8.419,17.574,14.863C105.885,189.538,109.37,197.393,111.666,206.663z M94.204,239.442
		c0-8.664-0.657-16.597-1.975-23.793c-1.323-7.194-3.452-13.395-6.392-18.593c-2.936-5.2-6.725-9.23-11.357-12.095
		c-4.637-2.865-10.23-4.295-16.788-4.295c-6.325,0-11.773,1.526-16.331,4.578c-4.562,3.053-8.309,7.197-11.249,12.432
		c-2.936,5.24-5.123,11.38-6.554,18.426c-1.431,7.045-2.146,14.524-2.146,22.436c0,8.743,0.674,16.711,2.034,23.91
		c1.355,7.193,3.485,13.373,6.388,18.535c2.898,5.16,6.645,9.172,11.245,12.037c4.595,2.865,10.134,4.293,16.613,4.293
		c6.329,0,11.793-1.523,16.389-4.574c4.599-3.053,8.384-7.195,11.361-12.436c2.978-5.238,5.182-11.359,6.612-18.367
		C93.485,254.926,94.204,247.431,94.204,239.442z M226.075,254.024c0,9.421-1.302,17.841-3.896,25.265
		c-2.603,7.418-6.296,13.715-11.083,18.871c-4.782,5.166-10.604,9.119-17.461,11.869c-6.857,2.752-14.58,4.125-23.171,4.125
		c-6.708,0-13.561-0.641-20.572-1.922c-7.007-1.281-13.939-3.311-20.797-6.104V153.086h19.666v43.97l-0.902,21.023
		c5.647-7.61,11.698-12.981,18.144-16.108c6.438-3.125,13.353-4.689,20.739-4.689c6.479,0,12.168,1.354,17.066,4.069
		c4.899,2.711,9.003,6.537,12.322,11.471s5.805,10.891,7.46,17.859C225.244,237.654,226.075,245.435,226.075,254.024z
		 M205.952,254.926c0-5.949-0.428-11.415-1.297-16.389c-0.865-4.974-2.242-9.23-4.125-12.773c-1.884-3.541-4.296-6.311-7.236-8.309
		c-2.936-1.994-6.441-2.994-10.508-2.994c-2.487,0-5.011,0.395-7.573,1.187c-2.566,0.79-5.219,2.108-7.972,3.955
		c-2.749,1.849-5.651,4.296-8.704,7.348c-3.048,3.053-6.309,6.839-9.777,11.361v55.048c3.843,1.506,7.764,2.695,11.756,3.561
		c3.992,0.863,7.801,1.297,11.415,1.297c4.524,0,8.837-0.715,12.941-2.146c4.104-1.43,7.727-3.826,10.854-7.178
		c3.127-3.352,5.614-7.801,7.46-13.34C205.029,270.016,205.952,263.141,205.952,254.926z M230.18,215.591h55.616v95.853
		c0,10.549-2.453,18.539-7.353,23.961c-4.898,5.426-11.64,8.143-20.227,8.143c-2.716,0-5.506-0.17-8.367-0.512
		c-2.861-0.338-5.71-0.844-8.538-1.525c-2.824-0.68-5.572-1.506-8.246-2.488c-2.678-0.977-5.186-2.07-7.519-3.275v18.762
		c4.296,1.811,9.099,3.223,14.414,4.242c5.311,1.016,10.754,1.521,16.331,1.521c7.689,0,14.601-1.088,20.743-3.275
		c6.142-2.188,11.319-5.391,15.54-9.607c4.217-4.225,7.465-9.402,9.723-15.545c2.258-6.141,3.39-13.166,3.39-21.078V199.316H230.18
		V215.591z M304.842,156.249c-1.397-1.426-3.035-2.541-4.92-3.333c-1.883-0.79-3.917-1.188-6.1-1.188
		c-2.188,0-4.226,0.397-6.105,1.188c-1.888,0.792-3.526,1.907-4.919,3.333c-1.394,1.433-2.487,3.094-3.281,4.976
		c-0.786,1.884-1.186,3.882-1.186,5.99c0,2.188,0.399,4.203,1.186,6.049c0.794,1.846,1.888,3.487,3.281,4.916
		c1.393,1.433,3.031,2.543,4.919,3.333c1.88,0.794,3.918,1.187,6.105,1.187c2.183,0,4.217-0.393,6.1-1.187
		c1.885-0.79,3.522-1.9,4.92-3.333c1.389-1.429,2.487-3.069,3.272-4.916c0.795-1.846,1.189-3.861,1.189-6.049
		c0-2.108-0.395-4.106-1.189-5.99C307.329,159.342,306.23,157.681,304.842,156.249z"></path></g></svg>