<?xml version="1.0" encoding="iso-8859-1"?>
<!DOCTYPE svg PUBLIC "-//W3C//DTD SVG 1.1//EN" "http://www.w3.org/Graphics/SVG/1.1/DTD/svg11.dtd">
<svg  version="1.1" xmlns="http://www.w3.org/2000/svg" xmlns:xlink="http://www.w3.org/1999/xlink" x="0px" y="0px" width="512px"
	 height="512px" viewBox="0 0 512 512" enable-background="new 0 0 512 512" xml:space="preserve"><g id="5151e0c8492e5103c096af88a51f0aa3"><path display="inline" fill-rule="evenodd" clip-rule="evenodd" d="M115.889,151.885l-24.053-13.773
		c-1.512-0.891-2.451-2.499-2.451-4.244v-29.306c0-1.745-0.928-3.364-2.443-4.232l-10.239-5.899
		c-0.742-0.444-1.601-0.662-2.432-0.662c-0.854,0-1.689,0.218-2.451,0.662l-10.246,5.899c-1.516,0.869-2.44,2.488-2.44,4.232v29.306
		c0,1.745-0.928,3.342-2.446,4.244l-24.061,13.773c-0.747,0.458-1.675,0.458-2.429,0c-0.766-0.421-1.22-1.234-1.22-2.107
		l-0.089-62.733c0-1.759,0.938-3.375,2.447-4.247L71.819,59.5c0.695-0.403,1.46-0.61,2.232-0.643c0.06,0,0.352,0,0.422,0
		c0.776,0.033,1.541,0.24,2.229,0.643l40.48,23.299c1.52,0.873,2.443,2.488,2.443,4.247l-0.078,62.733
		c0,0.873-0.469,1.686-1.216,2.107C117.586,152.344,116.643,152.344,115.889,151.885z M271.617,135.07V88.317
		c0-1.748,0.932-3.36,2.443-4.232l40.503-23.373c1.508-0.873,3.371-0.876,4.887-0.004l10.136,5.844c0.532,0.307,1.187,0.307,1.715,0
		c0.525-0.307,0.854-0.872,0.854-1.482V2.943c0-0.869,0.459-1.667,1.205-2.11c0.751-0.437,1.675-0.444,2.433-0.022l24.098,13.448
		c1.552,0.861,2.51,2.499,2.51,4.27V135.07c0,1.749-0.932,3.36-2.447,4.236l-40.502,23.388c-1.512,0.88-3.379,0.88-4.895,0
		l-40.495-23.388C272.549,138.43,271.617,136.818,271.617,135.07z M301.781,119.711c0,0.436,0.232,0.839,0.609,1.057l13.906,8.014
		c0.377,0.214,0.843,0.214,1.22,0l13.906-8.014c0.377-0.218,0.609-0.621,0.609-1.057v-16.058c0-0.436-0.232-0.843-0.609-1.057
		l-13.902-8.033c-0.381-0.218-0.847-0.218-1.228,0l-13.906,8.033c-0.373,0.214-0.605,0.621-0.605,1.057V119.711z M480.675,83.449
		l-40.235-23.365c-1.513-0.88-3.383-0.883-4.898-0.004l-40.487,23.369c-1.512,0.873-2.443,2.488-2.443,4.236v46.738
		c0,1.759,0.946,3.378,2.47,4.251l40.232,22.921c1.481,0.851,3.304,0.854,4.794,0.03L464.44,148.1
		c0.772-0.433,1.253-1.242,1.257-2.122c0.007-0.88-0.462-1.697-1.228-2.137l-40.738-23.384c-0.758-0.436-1.228-1.246-1.228-2.122
		v-14.645c0-0.873,0.466-1.682,1.224-2.122l12.679-7.312c0.754-0.433,1.686-0.433,2.439,0l12.687,7.312
		c0.758,0.44,1.224,1.25,1.224,2.122v11.525c0,0.873,0.469,1.682,1.227,2.118c0.758,0.433,1.689,0.433,2.447-0.004l24.245-14.095
		c1.512-0.876,2.437-2.487,2.437-4.232V87.678C483.111,85.933,482.187,84.321,480.675,83.449z M152.783,138.441l40.48,23.387
		c1.516,0.873,3.378,0.873,4.894,0l40.495-23.387c1.512-0.876,2.443-2.488,2.443-4.236V87.434c0-1.745-0.932-3.364-2.447-4.236
		l-40.491-23.365c-1.516-0.876-3.378-0.876-4.891,0l-40.483,23.365c-1.516,0.873-2.447,2.492-2.447,4.236v46.771
		C150.336,135.954,151.268,137.565,152.783,138.441z M393.945,246.323l-124.834-72.14c-7.833-4.465-18.338-4.465-26.237,0
		l-124.838,72.14c-8.088,4.658-13.093,13.396-13.093,22.755v144.073c0,9.353,5.005,18.102,13.093,22.767l32.732,18.856
		c15.861,7.807,21.547,7.807,28.759,7.807c23.477,0,36.968-14.202,36.968-38.969V281.373c0-2.012-1.641-3.597-3.618-3.597h-15.832
		c-2.011,0-3.626,1.585-3.626,3.597v142.239c0,10.979-11.363,21.905-29.916,12.639l-34.199-19.769
		c-1.205-0.654-1.971-1.948-1.971-3.331V269.078c0-1.367,0.766-2.728,1.978-3.423l124.764-72.015c1.156-0.673,2.694-0.673,3.844,0
		l124.79,71.996c1.193,0.714,1.937,2.029,1.937,3.441v144.073c0,1.383-0.743,2.706-1.907,3.371l-124.841,72.06
		c-1.068,0.65-2.706,0.65-3.867,0l-32.022-19.015c-0.953-0.547-2.173-0.754-3.098-0.229c-8.864,5.031-10.542,5.692-18.845,8.576
		c-2.055,0.717-5.09,1.948,1.128,5.419l41.682,24.663c3.992,2.313,8.535,3.504,13.093,3.504c4.624,0,9.152-1.19,13.145-3.504
		l124.834-72.078c8.084-4.705,13.114-13.414,13.114-22.767V269.078C407.06,259.719,402.029,250.999,393.945,246.323z
		 M299.448,399.408c-37.253,0-45.448-9.359-48.194-27.886c-0.318-1.978-2.012-3.453-4.044-3.453h-18.202
		c-2.255,0-4.065,1.804-4.065,4.07c0,23.705,12.904,51.983,74.506,51.983c44.605,0,70.182-17.559,70.182-48.231
		c0-30.415-20.553-38.503-63.809-44.232c-43.719-5.785-48.161-8.768-48.161-19.007c0-8.436,3.763-19.717,36.144-19.717
		c28.918,0,39.578,6.231,43.962,25.716c0.385,1.837,2.056,3.176,3.948,3.176h18.271c1.135,0,2.211-0.488,2.979-1.294
		c0.772-0.854,1.183-1.967,1.075-3.135c-2.827-33.579-25.143-49.226-70.236-49.226c-40.14,0-64.078,16.94-64.078,45.333
		c0,30.813,23.819,39.334,62.333,43.134c46.092,4.525,49.67,11.256,49.67,20.327C341.729,392.703,329.105,399.408,299.448,399.408z
		 M438.328,101.044c-0.288-0.17-0.646-0.17-0.935,0l-7.767,4.484c-0.292,0.167-0.47,0.477-0.47,0.81v8.979
		c0,0.333,0.178,0.644,0.47,0.81l7.767,4.484c0.288,0.167,0.646,0.167,0.935,0l7.773-4.484c0.293-0.166,0.47-0.477,0.47-0.81v-8.979
		c0-0.333-0.177-0.643-0.47-0.81L438.328,101.044z"></path></g></svg>