<?xml version="1.0" encoding="iso-8859-1"?>
<!DOCTYPE svg PUBLIC "-//W3C//DTD SVG 1.1//EN" "http://www.w3.org/Graphics/SVG/1.1/DTD/svg11.dtd">
<svg  version="1.1" xmlns="http://www.w3.org/2000/svg" xmlns:xlink="http://www.w3.org/1999/xlink" x="0px" y="0px" width="512px"
	 height="512px" viewBox="0 0 512 512" enable-background="new 0 0 512 512" xml:space="preserve"><g id="5151e0c8492e5103c096af88a51f82af"><path display="inline" d="M452.635,488.716c-0.142-1.698-0.237-3.396-0.142-5.088c0.799-1.293-1.095-10.527-4.273-20.344
		c-5.057-15.607-5.439-18.102-2.846-28.683c0.451-1.837,1.151-7.941,1.423-13.627c0.521-10.909,1.018-13.656,3.867-20.749
		c2.556-6.357,3.306-9.165,3.661-15.665c0.405-7.551-0.485-11.988-3.255-18.511c-2.747-6.446-3.103-9.396-1.833-16.273
		c1.373-7.452,1.373-24.935,0-30.512c-1.357-5.555-2.058-25.673-1.828-51.468l2.846-31.533c4.388-17.062,7.058-23.19,10.577-23.19
		c3.226,0,6.259,5.268,8.344,14.85c1.277,8.887,0.635,18.003,2.237,26.851c2.077,12.219-1.247,24.444-7.528,34.987
		c-3.726,6.538-5.007,11.235-4.066,14.651c0.75,2.716,3.527,5.758,5.692,6.305c0.941,0.237,2.127-0.138,3.458-0.812
		c1.66-0.834,3.348-2.915,9.154-11.599c3.944-5.884,7.693-12.104,8.344-13.833c5.417-23.748,5.639-41.284,2.644-64.688
		c0-15.203-2.104-20.887-12.613-32.344c-19.662-24.487-31.023-45.986-42.313-74.86c-3.891-6.473-9.567-14.323-13.833-19.124
		c-6.641-7.475-10.607-14.881-14.238-26.04c-5.237-13.282-9.721-28.981-17.494-40.481c-7.325-8.202-14.153-17.207-24.819-21.361
		c-13.515-6.327-24.257-5.271-39.463-4.472c-11.266,2.353-21.747,7.586-32.551,11.388c-16.705,6.557-32.776,17.766-39.666,34.789
		c-1.729,3.776-9.3,16.013-13.225,21.56c-7.349,8.573-16.667,15.608-26.036,21.767c-11.633,6.917-21.124,16.06-32.546,31.331
		c-11.545,15.868-12.551,29.663-18.309,47.6c-8.875,9.392-15.895-3.561-13.63-12.612c5.428-21.896,15.191-41.651,13.833-64.891
		c-3.363-30.604-15.971-71.456-52.282-73.842c-8.11,0.023-10.417,1.308-19.529,9.56c-6.102,5.528-10.157,7.406-20.137,9.965
		c-11.913,2.926-24.628,0.903-35.802,6.105c-5.348,3.133-11.801,12.681-13.225,19.529c-1.182,5.715,1.66,11.373,7.326,14.441
		c11.415,5.367,30.895,1.37,33.362,17.291c-3.887,16.874-14.445,28.526-13.833,45.366c-0.75,18.423,1.588,33.641,2.846,51.67
		c1.653,22.096,17.616,33.813,28.683,52.279c16.656,21.261,46.227,43.472,74.657,34.789c9.866-3.19,13.821-2.628,17.494,2.644
		c2.506,3.6,2.861,6.908,1.423,14.846c-1.749,9.694-1.729,28.102,0,38.45c1.285,7.67,2.238,19.326,2.238,25.833
		c0,5.329,1.056,11.988,2.44,17.497c0.903,3.589,1.063,7.349,1.427,19.529c0.241,8.225,0.673,16.262,1.018,17.899
		c1.147,5.577,0.895,10.114-1.63,27.466c-1.067,7.338-4.778,20.757-7.322,26.441c-1.374,3.072-4.908,10.245-7.934,16.071
		c-0.344,0.654-0.497,1.021-0.815,1.626c-3.527,0.367-5.306,0.78-5.581,1.224H20.964V511.5h470.07v-22.784H452.635z
		 M279.174,366.252c2.265-2.184,7.165-7.042,10.784-10.779c7.486-7.739,7.686-8.126,9.56-19.124
		c1.706-9.969,1.744-10.13,8.749-20.344c2.509-3.653,3.699-6.978,6.714-18.309c2.78-10.474,4.035-13.067,6.304-14.238
		c1.087-0.559,1.844-0.864,2.644-0.811c0.804,0.05,1.557,0.521,2.444,1.217c2.498,1.966,3.087,4.177,4.472,19.123
		c0.728,7.8,1.653,17.585,2.238,21.767c2.57,18.473,2.977,24.257,2.238,30.516c-0.379,3.213-0.77,9.858-1.018,14.644
		c-0.696,13.484-2.613,19.46-9.966,32.142c-2.245,3.871-4.996,8.863-6.105,11.189c-2.199,4.621-4.556,7.73-6.916,8.951
		c-2.311,1.197-5.341,0.976-8.34-0.608c-4.131-2.188-11.645-8.01-15.256-11.801c-3.863-4.056-5.513-6.243-9.969-14.242
		c-5.065-9.09-5.696-10.995-5.696-15.05C272.055,375.192,273.986,371.26,279.174,366.252z M284.87,463.491
		c-2.77,2.746-4.679,4.032-10.168,6.71c-7.56,3.688-10.413,6.09-10.986,9.158c-0.229,1.247,0.152,2.222,0.611,3.251
		c-25.73-0.233-51.479,0.662-77.305,2.647c1.484-7.299,2.95-15.099,3.255-20.547c0.295-5.122,0.991-10.998,1.833-15.053
		c0.761-3.669,1.519-9.797,1.829-13.63c0.727-9.001,1.431-11.622,5.696-20.749c1.939-4.15,4.139-9.637,4.885-12.207
		c1.301-4.491,1.335-5.363,1.22-18.512c-0.111-11.95,0.165-14.402,1.221-20.749c2.096-12.593,3.064-16.346,7.119-24.616
		c5.516-11.239,5.983-12.953,6.511-23.19c0.616-11.928,2.567-18.117,6.71-22.375c2.33-2.402,4.349-3.66,8.136-4.066
		c1.267-0.142,2.773,0,4.476,0c7.184-0.022,10.394,0.953,12.612,3.864c2.085,2.728,2.314,6.09,0.612,13.427
		c-0.765,3.29-1.718,9.25-2.035,13.221c-0.7,8.707-2.219,13.657-6.102,20.547c-4.946,8.787-5.081,9.552-5.088,24.207
		c-0.004,11.768,0.096,12.969,1.22,16.477c0.677,2.092,2.012,4.904,3.053,6.304c2.307,3.118,9.185,9.017,16.477,14.242
		c7.065,5.062,15.091,12.85,19.938,19.326c5.142,6.813,12.502,13.554,13.424,22.375C294.04,450.003,290.287,458.136,284.87,463.491z
		 M301.35,483.835c2.988-1.871,5.149-4.239,6.917-7.935c2.058-4.322,3.649-6.487,5.696-6.308c2.046,0.18,4.384,2.766,7.524,7.524
		c2.735,4.146,5.352,6.855,7.934,8.546C320.007,484.895,310.745,484.302,301.35,483.835z M435.814,432.57
		c-0.333,6.254-0.46,7.065-3.868,17.088c-4.996,14.697-6.147,18.989-7.119,26.441c-0.761,5.853-1.347,8.133-3.316,12.616h-61.027
		c-7.046-0.834-14.077-1.591-21.094-2.241c3.489-1.943,5.834-6.431,6.917-13.833c0.527-3.604,0.509-5.233-0.203-9.357
		c-1.63-9.444-3.879-13.121-10.581-18.714c-2.261-1.89-4.729-4.346-5.489-5.493c-2.023-3.049-2.651-7.077-1.832-10.983
		c0.998-4.755,5.646-13.186,10.986-20.34c4.777-6.419,7.295-10.428,11.186-17.902c1.465-2.805,3.626-5.555,6.916-8.952
		c2.64-2.724,5.532-6.533,6.511-8.339l1.626-3.256v-18.511c-0.061-13.198,0.7-25.99,2.444-39.058
		c1.446-15.669,7.005-28.033,14.645-41.499c4.376-9.027,6.423-11.599,10.172-11.599c5.022,0,8.079,5.57,9.56,17.291
		c1.69,11.515,7.291,21.361,10.783,32.348c2.123,7.819,3.65,11.339,8.543,21.155c4.647,9.311,8.564,19.693,9.766,26.04
		c0.636,3.354,0.812,8.006,0.812,17.7c0,14.276,0.478,19.957,2.237,27.256C435.723,405.972,436.376,421.878,435.814,432.57z"></path></g></svg>