<?xml version="1.0" encoding="iso-8859-1"?>
<!DOCTYPE svg PUBLIC "-//W3C//DTD SVG 1.1//EN" "http://www.w3.org/Graphics/SVG/1.1/DTD/svg11.dtd">
<svg  version="1.1" xmlns="http://www.w3.org/2000/svg" xmlns:xlink="http://www.w3.org/1999/xlink" x="0px" y="0px" width="512px"
	 height="512px" viewBox="0 0 512 512" enable-background="new 0 0 512 512" xml:space="preserve"><g id="5151e0c8492e5103c096af88a51f1feb"><path display="inline" d="M451.118,349.092c-1.501,85.54-74.591,145.39-145.309,162.408c33.468-14.379,63.313-42.856,67.384-83.803
		c3.74-37.771-14.831-70.34-39.978-94.423c-23.92-22.918-52.445-37.696-78.45-57.251c-14.986-11.263-37.752-33.889-29.738-56.829
		c-10.409,9.77-18.645,23.447-21.887,38.048c-6.48,29.128,9.988,51.817,27.018,71.896c17.214,20.286,15.883,55.1-13.156,62.026
		c-12.435,2.95-25.598-2.473-33.113-13.658c-8.088-12.024-6.302-24.319-3.039-37.76c-27.15,20.944-48.974,52.822-48.904,90.379
		c0.067,34.443,26.363,68.097,54.468,81.352c-55.706-13.983-105.035-53.503-120.42-115.6
		c-15.399-62.142,5.552-124.767,39.785-174.565c17.104-24.885,37.131-47.211,57.949-68.422
		c19.381-19.732,40.731-37.867,58.286-59.598C240.12,70.884,262.761,30.804,245.568,0.5c31.21,25.41,56.356,67.867,52.157,111.604
		c-3.367,34.895-27.383,70.425-3.852,103.383c14.712,20.6,44.568,16.139,55.373-3.917c-0.321,0.423-0.617,0.869-0.983,1.259
		c1.845-3.227,3.234-6.746,4.059-10.55c-0.011,0.658-0.114,1.257-0.188,1.874c0.766-2.976,1.161-6.183,1.116-9.607
		c-0.036,2.676-0.384,5.247-0.928,7.733c0.06-3.035-0.436-6.417-1.947-10.398c1.013,0.562,1.874,1.139,2.879,1.708
		C408.099,224.587,452.356,278.737,451.118,349.092z"></path></g></svg>