<?xml version="1.0" encoding="iso-8859-1"?>
<!DOCTYPE svg PUBLIC "-//W3C//DTD SVG 1.1//EN" "http://www.w3.org/Graphics/SVG/1.1/DTD/svg11.dtd">
<svg  version="1.1" xmlns="http://www.w3.org/2000/svg" xmlns:xlink="http://www.w3.org/1999/xlink" x="0px" y="0px" width="512px"
	 height="512px" viewBox="0 0 512 512" enable-background="new 0 0 512 512" xml:space="preserve"><g id="e6c6b53d3c8160b22dad35a0f7103c3a"><path display="inline" d="M392.607,3.461H119.38C53.725,3.461,0.5,56.677,0.5,122.351v267.295
		c0,65.655,53.231,118.893,118.88,118.893h273.228c65.655,0,118.893-53.246,118.893-118.893V122.351
		C511.5,56.677,458.259,3.461,392.607,3.461z M255.998,129.705c59.062,0,106.938,47.879,106.938,106.939
		c0,2.277-0.096,4.526-0.237,6.768c-11.012,7.321-20.601,19.895-30.54,32.943c-18.797,24.693-40.113,52.677-76.161,52.677
		c-36.046,0-57.356-27.983-76.157-52.672c-9.941-13.05-19.526-25.627-30.546-32.951c-0.14-2.239-0.235-4.491-0.235-6.766
		C149.059,177.584,196.937,129.705,255.998,129.705z M401.033,356.994H110.969V253.879c1.376-2.316,7.231-10.918,18.345-10.918
		c8.812,0,16.509,4.381,23.922,11.271c0.008,0.008,0.017,0.019,0.027,0.027c1.008,0.94,2.013,1.928,3.013,2.955
		c0.054,0.054,0.106,0.11,0.158,0.165c0.977,1.006,1.95,2.052,2.919,3.133c0.046,0.05,0.087,0.098,0.133,0.146
		c2.019,2.256,4.034,4.657,6.063,7.178c0.036,0.046,0.071,0.092,0.108,0.133c0.973,1.215,1.95,2.449,2.932,3.71
		c0.079,0.1,0.16,0.199,0.239,0.304c0.96,1.234,1.925,2.482,2.898,3.755c0.073,0.092,0.147,0.191,0.222,0.287
		c1.011,1.322,2.032,2.661,3.061,4.013c19.657,25.816,41.937,55.067,80.987,55.067c39.055,0,61.34-29.26,80.993-55.067
		c1.02-1.339,2.029-2.661,3.027-3.972c0.096-0.12,0.191-0.245,0.283-0.365c0.952-1.244,1.896-2.467,2.836-3.677
		c0.1-0.125,0.2-0.249,0.291-0.37c0.965-1.23,1.922-2.44,2.869-3.626c0.059-0.07,0.117-0.142,0.175-0.217
		c2.013-2.499,4.018-4.886,6.021-7.125c0.059-0.066,0.117-0.131,0.175-0.197c0.957-1.065,1.913-2.092,2.874-3.084
		c0.063-0.068,0.129-0.136,0.195-0.202c0.981-1.012,1.971-1.983,2.961-2.908c0.024-0.023,0.05-0.048,0.074-0.071
		c1.031-0.955,2.063-1.861,3.103-2.716c0-0.002,0.009-0.004,0.009-0.008c0,0,0,0,0,0.002c6.458-5.296,13.216-8.54,20.797-8.54
		c11.028,0,16.929,8.552,18.352,10.931V356.994z"></path></g></svg>