<?xml version="1.0" encoding="iso-8859-1"?>
<!DOCTYPE svg PUBLIC "-//W3C//DTD SVG 1.1//EN" "http://www.w3.org/Graphics/SVG/1.1/DTD/svg11.dtd">
<svg  version="1.1" xmlns="http://www.w3.org/2000/svg" xmlns:xlink="http://www.w3.org/1999/xlink" x="0px" y="0px" width="512px"
	 height="512px" viewBox="0 0 512 512" enable-background="new 0 0 512 512" xml:space="preserve"><g id="5151e0c8492e5103c096af88a51eb408"><path display="inline" d="M299.742,145.895c-33.913,16.888-61.335,50.954-89.534,84.048c-0.087,0.105-0.179,0.212-0.266,0.315
		c-47.952-65.146-132.221-81.594-178.655-39.563C16.733,203.862,5.9,222.772,1.06,247.729
		c-7.76,76.958,66.303,141.938,153.038,121.749c33.023-10.026,63.318-29.076,92.178-52.51c6.417,9.98,13.936,20.069,23.883,30.32
		c79.087,72.72,230.54,34.1,240.649-77.943C521.819,150.895,399.301,96.399,299.742,145.895z M48.317,312.272
		c-5.348-21.3-0.574-41.922,2.923-48.559c21.171-44.698,88.494-55.049,143.236-16.079
		C151.993,293.26,100.224,330.741,48.317,312.272z M375.697,348.007c-36.761-5.905-76.525-21.841-112.708-45.194
		c0.432-0.383,0.864-0.766,1.301-1.148c43.411-39.031,93.912-75.311,136.043-94.194c0.028-0.013,0.045-0.021,0.07-0.033
		C428.099,256.413,417.553,320.61,375.697,348.007z"></path></g></svg>