<?xml version="1.0" encoding="iso-8859-1"?>
<!DOCTYPE svg PUBLIC "-//W3C//DTD SVG 1.1//EN" "http://www.w3.org/Graphics/SVG/1.1/DTD/svg11.dtd">
<svg  version="1.1" xmlns="http://www.w3.org/2000/svg" xmlns:xlink="http://www.w3.org/1999/xlink" x="0px" y="0px" width="512px"
	 height="512px" viewBox="0 0 512 512" enable-background="new 0 0 512 512" xml:space="preserve"><g id="5151e0c8492e5103c096af88a51fc328"><path display="inline" d="M397.27,173.265l-16.749,11.557c-12.268-13.347-26.762-24.597-42.89-33.177L477.685,35.25L371.655,0.5
		l-93.948,133.242c-3.327-0.307-6.683-0.52-10.07-0.621L349.44,0.724L248.618,1.445l-42.446,141.973
		c-2.634,1.003-5.239,2.071-7.808,3.204L222.25,17.52L139.06,50.534l10.46,129.669c-1.274,1.281-2.522,2.587-3.752,3.915
		L122.264,71.898l-58.243,56.154l51.788,102.092c-0.96,2.248-1.869,4.521-2.728,6.819l-52.903-76.2L35.466,218.62l68.385,57.68
		c-0.256,2.493-0.455,5.008-0.595,7.533l-64.452-48.002l-4.489,56.684l71.07,28.122c0.339,1.94,0.711,3.864,1.119,5.776
		l-66.333-18.301l14.526,48.353l61.555,0.361c0.592,1.356,1.205,2.706,1.833,4.045l-56.875,6.852l28.678,35.504l42.883-17.294
		c7.014,9.804,15.1,18.792,24.099,26.77l5.203-10.673c0,0,8.735-12.997,50.222-14.447c19.401-0.686,41.332,2.414,59.181,5.906
		L325.125,511.5c0,0,12.809-3.655,27.422-12.809c14.613-9.133,25.574-29.227,25.574-29.227s-18.268-54.844-38.38-76.76
		c-20.115-21.923-43.86-32.92-54.844-45.708c-8.691-10.139-21.984-19.13-27.115-22.413l-2.706-4.85l164.113-36.817L397.27,173.265z
		 M149.603,239.951c-27.422,68.562,29.226,135.283,29.226,135.283l-23.771,8.19c0,0-1.382-1.774-3.568-5.036l4.579-1.852
		l-12.019-10.373c-13.563-24.435-32.611-71.72-13.682-121.638c27.483-72.173,107.88-90.47,107.88-90.47l9.154,2.749
		C247.402,156.805,170.66,187.344,149.603,239.951z M208.64,395.981c23.309,0,41.198,9.616,41.198,9.616s-32.903-2.184-51.947,1.808
		c-10.684,2.223-22.251,10.052-28.84,15.082c-0.7-0.506-1.4-1.011-2.085-1.53l7.621-13.552
		C174.586,407.405,185.334,395.981,208.64,395.981z"></path></g></svg>