<?xml version="1.0" encoding="iso-8859-1"?>
<!DOCTYPE svg PUBLIC "-//W3C//DTD SVG 1.1//EN" "http://www.w3.org/Graphics/SVG/1.1/DTD/svg11.dtd">
<svg  version="1.1" xmlns="http://www.w3.org/2000/svg" xmlns:xlink="http://www.w3.org/1999/xlink" x="0px" y="0px" width="512px"
	 height="512px" viewBox="0 0 512 512" enable-background="new 0 0 512 512" xml:space="preserve"><g id="5151e0c8492e5103c096af88a51f5afa"><path display="inline" d="M1.149,69.182C1.157,31.448,31.747,0.824,69.499,0.824c33.975,0.017,62.166,24.806,67.455,57.292
		c36.882-8.649,77.245,1.41,106.005,30.162l3.925,3.93l-50.451,50.414l-3.905-3.917c-16.372-16.355-42.903-16.355-59.288,0.012
		c-16.43,16.431-16.401,43.049-0.091,59.355l9.872,9.852l50.447,50.406l53.362,53.32l-50.397,50.443l-53.412-53.346L92.57,258.329
		l-9.827-9.819c-30.486-30.478-39.917-74.026-28.37-112.625C23.896,128.99,1.149,101.744,1.149,69.182z M148.989,201.947
		l50.455,50.422l53.362-53.316l50.456-50.418l9.843-9.823c16.435-16.435,42.908-16.401,59.227-0.096
		c16.367,16.364,16.367,42.92-0.017,59.289l-3.893,3.905l50.409,50.459l3.918-3.951c30.174-30.187,39.764-73.14,28.752-111.461
		c33.509-4.4,59.354-33.073,59.354-67.776c0.008-37.759-30.599-68.358-68.358-68.358c-34.549,0-63.113,25.642-67.709,58.926
		c-38.462-11.294-81.731-1.738-112.102,28.615l-9.839,9.818l-50.447,50.41L148.989,201.947z M452.744,375.15
		c9.036-37.111-0.985-77.914-29.995-106.907l-9.894-9.914l-50.401-50.443l-53.225-53.271l-50.451,50.397l53.271,53.317
		l50.405,50.446l9.86,9.877c16.438,16.443,16.4,42.908,0.091,59.229c-16.368,16.356-42.916,16.356-59.301-0.012l-3.875-3.885
		l-50.401,50.46l3.858,3.851c30.698,30.698,74.663,40.093,113.462,28.153c6.304,31.243,33.9,54.727,66.998,54.727
		c37.73,0,68.354-30.573,68.354-68.342C511.5,408.344,485.958,379.808,452.744,375.15z M356.479,314.76l-50.405-50.442
		l-53.267,53.316l-50.405,50.431l-9.873,9.88c-16.326,16.331-42.933,16.36-59.359-0.063c-16.376-16.396-16.384-42.911-0.021-59.296
		l3.896-3.872l-50.443-50.396l-3.859,3.842c-29.326,29.31-39.207,70.687-29.667,108.143C22.935,383.409,0.5,410.506,0.5,442.834
		c-0.008,37.752,30.603,68.342,68.358,68.342c32.486-0.017,59.675-22.635,66.636-53.021c37.277,9.249,78.347-0.648,107.465-29.779
		l9.889-9.897l50.414-50.446L356.479,314.76z"></path></g></svg>