<?xml version="1.0" encoding="iso-8859-1"?>
<!DOCTYPE svg PUBLIC "-//W3C//DTD SVG 1.1//EN" "http://www.w3.org/Graphics/SVG/1.1/DTD/svg11.dtd">
<svg  version="1.1" xmlns="http://www.w3.org/2000/svg" xmlns:xlink="http://www.w3.org/1999/xlink" x="0px" y="0px" width="512px"
	 height="512px" viewBox="0 0 512 512" enable-background="new 0 0 512 512" xml:space="preserve"><g id="5151e0c8492e5103c096af88a51ed7cd"><path display="inline" fill-rule="evenodd" clip-rule="evenodd" d="M511.446,65.792c0,36.032-29.199,65.244-65.271,65.244
		c-36.025,0-65.229-29.211-65.229-65.244c0-36.083,29.204-65.292,65.229-65.292C482.247,0.5,511.446,29.709,511.446,65.792z
		 M343.677,350.74l-18.431,2.794c-14.049,1.996-20.477,7.446-20.477,17.067c0,11.43,6.647,17.633,18.48,17.633
		c13.205,0,25.873-6.42,30.883-15.824c1.376-2.611,1.376-3.23,1.376-8.461v-3.588v-1.418l0.221-12.02v-0.217
		c-0.221,0-1.019,0.624-1.597,1.023C352.939,348.924,349.302,349.946,343.677,350.74z M446.175,288.65
		c0,123.078-99.754,222.85-222.809,222.85c-123.063,0-222.813-99.771-222.813-222.85c0-123.09,99.75-222.858,222.813-222.858
		C346.421,65.792,446.175,165.561,446.175,288.65z M164.024,382.608H90.999v-126.54H71.146v144.006h92.878V382.608z
		 M265.903,295.161h-17.853v59.795v1.813c0,5.584-3.019,14.627-6.827,20.257c-4.433,6.776-12.452,10.813-21.271,10.813
		c-14.049,0-21.046-7.396-21.046-22.468v-70.21h-17.865v76.413v1.634c0,17.646,14.272,29.877,34.524,29.877
		c15.417,0,25.832-5.804,33.282-18.26v15.25h17.055V295.161z M385.424,387.045c-2.836,0.574-4.216,0.794-5.851,0.794
		c-3.986,0-5.808-1.816-5.808-6.199v-59.974c0-18.48-14.843-29.523-39.706-29.523c-27.253,0-41.518,11.662-42.499,34.933h16.447
		c1.992-14.277,9.209-20.261,24.057-20.261c16.219,0,24.284,5.983,24.284,17.646c0,10.814-1.417,11.608-30.313,14.622
		c-9.837,0.803-13.025,1.422-18.027,3.019c-13.649,4.428-21.674,15.646-21.674,30.094c0,19.232,13.255,30.891,35.099,30.891
		c13.43,0,22.639-4.432,35.715-16.847c0.573,10.644,6.203,15.824,16.843,15.824c3.982,0,6.024-0.399,11.434-1.987V387.045z
		 M380.945,196.323c0-36.037-29.244-65.288-65.274-65.288c-36.026,0-65.271,29.251-65.271,65.288
		c0,36.034,29.245,65.285,65.271,65.285C351.701,261.608,380.945,232.357,380.945,196.323z"></path></g></svg>