<?xml version="1.0" encoding="iso-8859-1"?>
<!DOCTYPE svg PUBLIC "-//W3C//DTD SVG 1.1//EN" "http://www.w3.org/Graphics/SVG/1.1/DTD/svg11.dtd">
<svg  version="1.1" xmlns="http://www.w3.org/2000/svg" xmlns:xlink="http://www.w3.org/1999/xlink" x="0px" y="0px" width="512px"
	 height="512px" viewBox="0 0 512 512" enable-background="new 0 0 512 512" xml:space="preserve"><g id="5151e0c8492e5103c096af88a51f4c5a"><path display="inline" d="M511.5,136.833c0,0,0,67.667-67.668,67.667H240.83c0,0,0-67.667,67.667-67.667H511.5z M240.83,290.965
		h101.501c67.668,0,67.668-67.667,67.668-67.667H308.497C240.83,223.297,240.83,290.965,240.83,290.965z M240.83,377.43h33.833
		c67.668,0,67.668-67.668,67.668-67.668h-33.834C240.83,309.762,240.83,377.43,240.83,377.43z M247.354,133.398H20.345v53.986
		h120.339L0.5,378.602h217.612v-53.978H107.819L247.354,133.398z"></path></g></svg>