<?xml version="1.0" encoding="iso-8859-1"?>
<!DOCTYPE svg PUBLIC "-//W3C//DTD SVG 1.1//EN" "http://www.w3.org/Graphics/SVG/1.1/DTD/svg11.dtd">
<svg  version="1.1" xmlns="http://www.w3.org/2000/svg" xmlns:xlink="http://www.w3.org/1999/xlink" x="0px" y="0px" width="512px"
	 height="512px" viewBox="0 0 512 512" enable-background="new 0 0 512 512" xml:space="preserve"><g id="5151e0c8492e5103c096af88a51ea5ef"><path display="inline" d="M295.333,318.026c0.828,4.138,1.241,11.378,1.241,21.721v81.051h-22.341v-80.182
		c0-9.102-0.869-15.903-2.606-20.418c-1.738-4.509-4.82-8.108-9.247-10.798c-4.427-2.686-9.62-4.034-15.577-4.034
		c-9.516,0-17.729,3.021-24.638,9.061c-6.909,6.041-10.364,17.501-10.364,34.382v71.989h-22.341V288.982h20.107v18.742
		c9.681-14.48,23.666-21.721,41.952-21.721c7.944,0,15.247,1.428,21.908,4.282s11.646,6.599,14.956,11.232
		S294.01,311.655,295.333,318.026z M511.5,421.608c-6.289,1.324-11.915,1.986-16.88,1.986c-8.109,0-14.398-1.283-18.866-3.848
		c-4.469-2.565-7.613-5.938-9.434-10.116c-1.82-4.175-2.73-12.971-2.73-26.375v-79.594h-48.506c0.111,0.12,0.235,0.219,0.348,0.339
		c11.171,11.998,16.756,28.879,16.756,50.641c0,1.324-0.041,3.311-0.124,5.958h-98.303c0.827,14.48,4.924,25.568,12.288,33.264
		s16.549,11.543,27.555,11.543c8.191,0,15.184-2.151,20.976-6.454c5.793-4.303,10.385-11.17,13.777-20.604l23.086,2.854
		c-3.641,13.488-10.384,23.955-20.231,31.402c-9.847,7.447-22.424,11.171-37.731,11.171c-19.28,0-34.567-5.937-45.862-17.812
		c-11.295-11.869-16.942-28.526-16.942-49.958c0-22.176,5.709-39.387,17.128-51.634c11.419-12.246,26.231-18.369,44.436-18.369
		c2.2,0,4.356,0.095,6.458,0.281h84.894v-28.598h22.218v28.598h22.465v17.377h-22.465v80.835c0,6.371,0.393,10.467,1.179,12.287
		c0.786,1.821,2.068,3.269,3.848,4.345c1.779,1.075,4.323,1.613,7.634,1.613c2.482,0,5.751-0.289,9.805-0.869L511.5,421.608z
		 M408.604,342.229c-0.992-11.088-3.806-19.403-8.439-24.947c-7.116-8.606-16.343-12.909-27.679-12.909
		c-10.261,0-18.887,3.435-25.879,10.303c-6.992,6.867-10.86,16.053-11.605,27.554H408.604z M318.816,261.742
		c-4.455,2.731-11.179,4.717-20.173,5.958c-11.961,1.655-19.896,2.482-23.807,2.482h-91.703V98.803l-60.124,171.38H65.431
		L0.5,88.224h55.531l38.696,130.946l38.2-130.946h50.207h3.711h95.733c16.574,0,29.301,4.344,38.175,13.032
		c8.87,8.688,13.31,19.446,13.31,32.271c0,10.757-3.169,19.983-9.499,27.678c-4.224,5.132-10.396,9.185-18.531,12.164
		c12.354,3.146,21.444,8.545,27.266,16.197c5.825,7.654,8.737,17.273,8.737,28.858c0,9.433-2.072,17.917-6.214,25.444
		C331.676,251.399,326.008,257.357,318.816,261.742z M236.724,159.592h23.103c8.291,0,14.055-1.508,17.298-4.53
		c3.248-3.021,4.87-7.385,4.87-13.095c0-5.294-1.622-9.433-4.87-12.412c-3.243-2.979-8.891-4.468-16.942-4.468h-23.458V159.592z
		 M288.797,212.095c0-5.378-1.858-9.7-5.573-12.971c-3.711-3.268-10.224-4.902-19.524-4.902h-26.975v36.863h27.091
		c9.147,0,15.598-1.717,19.351-5.151C286.918,222.502,288.797,217.887,288.797,212.095z M157.652,393.959
		c-4.038,0-7.464,1.436-10.286,4.356c-2.821,2.9-4.22,6.408-4.22,10.555c0,4.038,1.398,7.533,4.22,10.479
		c2.822,2.945,6.248,4.427,10.286,4.427c4.142,0,7.667-1.481,10.567-4.427c2.908-2.946,4.352-6.441,4.352-10.479
		c0-4.047-1.444-7.556-4.352-10.497C165.318,395.415,161.793,393.959,157.652,393.959z"></path></g></svg>