<?xml version="1.0" encoding="iso-8859-1"?>
<!DOCTYPE svg PUBLIC "-//W3C//DTD SVG 1.1//EN" "http://www.w3.org/Graphics/SVG/1.1/DTD/svg11.dtd">
<svg  version="1.1" xmlns="http://www.w3.org/2000/svg" xmlns:xlink="http://www.w3.org/1999/xlink" x="0px" y="0px" width="512px"
	 height="512px" viewBox="0 0 512 512" enable-background="new 0 0 512 512" xml:space="preserve"><g id="5151e0c8492e5103c096af88a51f5fb6"><path display="inline" d="M256,0.5C115.117,0.5,0.5,115.109,0.5,255.992C0.5,396.874,115.117,511.5,256,511.5
		c140.879,0,255.5-114.626,255.5-255.508C511.5,115.109,396.879,0.5,256,0.5z M26.287,255.992c0-33.306,7.145-64.923,19.89-93.488
		l109.582,300.225C79.117,425.502,26.287,346.914,26.287,255.992z M256,485.722c-22.547,0-44.309-3.307-64.898-9.361l68.932-200.274
		l70.604,193.446c0.466,1.135,1.035,2.179,1.646,3.165C308.406,481.102,282.748,485.722,256,485.722z M287.659,148.286
		c13.827-0.724,26.29-2.179,26.29-2.179c12.376-1.464,10.916-19.658-1.468-18.93c0,0-37.207,2.919-61.23,2.919
		c-22.568,0-60.494-2.919-60.494-2.919c-12.388-0.728-13.839,18.198-1.456,18.93c0,0,11.715,1.455,24.095,2.179l35.784,98.063
		l-50.277,150.767l-83.649-248.83c13.84-0.724,26.286-2.179,26.286-2.179c12.372-1.464,10.912-19.658-1.468-18.93
		c0,0-37.198,2.919-61.222,2.919c-4.309,0-9.386-0.108-14.784-0.283C105.141,67.457,175.745,26.274,256,26.274
		c59.8,0,114.251,22.868,155.121,60.315c-0.989-0.058-1.958-0.183-2.978-0.183c-22.563,0-38.574,19.653-38.574,40.771
		c0,18.93,10.92,34.948,22.564,53.874c8.737,15.299,18.938,34.953,18.938,63.355c0,19.657-7.56,42.475-17.479,74.259l-22.917,76.554
		L287.659,148.286z M371.486,454.545l70.163-202.861c13.104-32.77,17.47-58.977,17.47-82.272c0-8.458-0.558-16.31-1.547-23.625
		c17.932,32.715,28.137,70.262,28.137,110.205C485.709,340.738,439.782,414.727,371.486,454.545z"></path></g></svg>