<?xml version="1.0" encoding="iso-8859-1"?>
<!DOCTYPE svg PUBLIC "-//W3C//DTD SVG 1.1//EN" "http://www.w3.org/Graphics/SVG/1.1/DTD/svg11.dtd">
<svg  version="1.1" xmlns="http://www.w3.org/2000/svg" xmlns:xlink="http://www.w3.org/1999/xlink" x="0px"
	 y="0px" width="512px" height="512px" viewBox="0 0 512 512" enable-background="new 0 0 512 512" xml:space="preserve"><g id="daace373335058d6ae019a3401000b70"><path d="M511.5,456.205H0.5V274.549c2.425-4.08,12.739-19.233,32.318-19.233c15.524,0,29.084,7.718,42.143,19.856
	c0.015,0.014,0.029,0.033,0.049,0.048c1.775,1.655,3.545,3.396,5.307,5.205c0.096,0.094,0.187,0.194,0.279,0.29
	c1.721,1.772,3.436,3.615,5.142,5.52c0.081,0.088,0.154,0.172,0.235,0.256c3.557,3.975,7.105,8.205,10.681,12.646
	c0.063,0.08,0.125,0.161,0.191,0.233c1.714,2.141,3.436,4.314,5.164,6.536c0.14,0.175,0.282,0.351,0.422,0.535
	c1.692,2.174,3.392,4.373,5.106,6.614c0.128,0.162,0.26,0.338,0.391,0.506c1.781,2.33,3.58,4.688,5.393,7.069
	c34.63,45.48,73.879,97.011,142.674,97.011c68.803,0,108.062-51.546,142.685-97.011c1.796-2.358,3.575-4.688,5.333-6.997
	c0.169-0.211,0.338-0.432,0.499-0.644c1.678-2.191,3.341-4.346,4.996-6.477c0.176-0.221,0.353-0.439,0.513-0.652
	c1.7-2.168,3.386-4.299,5.055-6.388c0.104-0.124,0.206-0.25,0.308-0.382c3.546-4.402,7.078-8.607,10.608-12.552
	c0.103-0.117,0.206-0.23,0.308-0.348c1.686-1.877,3.37-3.686,5.063-5.434c0.109-0.12,0.227-0.239,0.344-0.355
	c1.729-1.782,3.472-3.494,5.216-5.124c0.043-0.041,0.088-0.084,0.131-0.123c1.817-1.683,3.636-3.279,5.466-4.786
	c0-0.004,0.016-0.008,0.016-0.015c0,0,0,0,0,0.004c11.377-9.328,23.282-15.043,36.638-15.043c19.428,0,29.822,15.065,32.329,19.256
	V456.205z M121.83,314.154c33.121,43.493,70.662,92.791,134.164,92.791c63.505,0,101.058-49.298,134.172-92.8
	c17.511-22.987,34.403-45.14,53.802-58.035c0.25-3.95,0.418-7.912,0.418-11.923c0-104.044-84.344-188.393-188.392-188.393
	c-104.047,0-188.392,84.349-188.392,188.393c0,4.006,0.168,7.973,0.414,11.919C87.431,269.006,104.317,291.165,121.83,314.154z"></path></g></svg>