<?xml version="1.0" encoding="iso-8859-1"?>
<!DOCTYPE svg PUBLIC "-//W3C//DTD SVG 1.1//EN" "http://www.w3.org/Graphics/SVG/1.1/DTD/svg11.dtd">
<svg  version="1.1" xmlns="http://www.w3.org/2000/svg" xmlns:xlink="http://www.w3.org/1999/xlink" x="0px" y="0px" width="512px"
	 height="512px" viewBox="0 0 512 512" enable-background="new 0 0 512 512" xml:space="preserve"><g id="5151e0c8492e5103c096af88a51f8be8"><path display="inline" d="M211.028,189.103c0.263,41.007,0.267,42.774-1.597,43.365c-3.676,1.165-5.401-0.441-5.406-5.04
		c-0.004-5.489-2.731-21.625-4.666-27.392c-1.484-4.412-6.856-15.749-11.182-23.587c-3.031-5.506-15.221-17.3-20.76-20.148
		c-8.524-4.375-14.642-5.273-35.015-5.281c-19.433-0.012-34.063,1.634-38.329,4.3c-1.155,0.724-2.387,2.271-2.702,3.439
		c-0.313,1.168-0.604,21.188-0.611,44.471c-0.013,33.126,0.337,42.296,1.352,42.383c11.976,0.99,31.841-1.655,38.204-5.036
		c9.935-5.281,16.987-23.587,20.272-53.071c0.698-6.321,0.79-6.45,3.439-6.146l2.703,0.25l0.365,67.318l0.245,67.201h-3.193h-3.069
		v-7.003c-0.024-9.082-2.586-26.515-4.79-33.048c-4.221-12.483-8.513-17.137-18.797-20.389c-7.011-2.221-29.741-4.608-33.908-3.568
		l-2.823,0.74l0.12,49.016c0.029,40.084,0.3,49.44,1.477,50.979c2.221,2.936,9.456,4.599,22.972,5.285
		c6.812,0.346,15.964,0.886,20.393,1.227c7.632,0.591,8.109,0.716,8.109,3.073v2.583H72.579c-61.288,0-71.247-0.3-71.746-1.602
		c-1.327-3.456,0.369-3.738,22.976-5.16c10.841-0.683,17.948-2.325,20.514-4.542c1.705-1.479,1.842-7.451,1.842-98.897v-97.417
		l-2.578-1.722c-3.438-2.246-20.493-4.658-32.432-4.666c-9.665-0.008-11.229-0.569-10.076-3.563
		c0.437-1.127,5.976-1.468,48.771-1.477c14.269,0,32.665-0.058,56.39,0l104.545,0.375L211.028,189.103z M312.38,291.189
		l-0.49,23.093c-0.591,26.414-2.009,33.675-7.494,39.56c-8.263,8.87-19.973,7.531-24.447-2.703
		c-2.458-5.618-2.342-1.917-2.213-63.268l0.125-52.701l18.917-0.246l18.917-0.37l0.37-5.896l0.245-6.021h-19.287H277.86v-33.659
		c0-18.522-0.396-34.474-0.74-35.38c-0.853-2.225-7.132-2.225-7.984,0c-0.345,0.906-0.724,4.175-0.736,7.127
		c-0.054,16.692-9.36,39.348-21.254,51.84c-6.542,6.87-16.904,13.042-27.026,16.094c-2.341,0.707-3.069,1.551-3.069,3.443
		c0,2.499-0.021,2.528,12.65,2.823c12.172,0.274,12.763,0.37,13.27,2.579c0.292,1.268,0.712,25.4,0.861,53.686
		c0.287,56.826-0.188,52.992,7.123,64.004c2.865,4.316,9.337,8.417,16.215,10.563l30.137,0.291c0.952-0.199,1.838-0.407,2.541-0.657
		c9.406-3.318,15.341-10.679,17.324-21.624c0.615-3.385,1.106-16.604,1.106-29.359v-23.217h-2.949H312.38z M509.922,364.408
		c-3.036,1.165-175.81,0.683-176.537-0.49c-1.389-2.254,1.784-4.142,7.128-4.18c7.602-0.054,18.801-2.466,20.759-4.42
		c1.493-1.489,1.722-7.81,1.722-59.708c0-61.18-0.029-62.128-4.67-64.615c-1.164-0.628-7.044-1.447-13.021-1.846
		c-9.988-0.657-10.891-0.936-11.178-2.944c-0.278-1.93,0.304-2.292,5.156-2.828c15.013-1.659,54.564-4.167,56.145-3.564
		c1.563,0.603,1.842,2.25,1.842,13.145c0,7.639,0.47,12.534,1.106,12.534c0.569,0,0.981-0.549,0.981-1.231s1.95-4.346,4.3-8.234
		c4.388-7.261,8.979-12.134,14.251-14.862c3.11-1.605,14.996-2.687,24.078-2.454c3.027,0.075,5.751,0.362,7.739,0.732
		c13.398,2.512,24.385,10.866,30.099,22.976l3.073,6.758l0.611,53.192c0.37,36.757,0.932,53.507,1.722,54.297
		c0.628,0.633,5.768,1.622,11.424,2.213c5.655,0.59,11.244,1.352,12.529,1.597C511.872,360.99,512.354,363.473,509.922,364.408z
		 M449.232,303.844c-0.021-27.771-0.569-53.977-1.106-58.111c-1.759-13.569-7.522-21.05-16.339-21.004
		c-13.119,0.062-24.193,12.463-30.22,33.783c-3.938,13.927-4.362,19.657-4.055,59.214l0.246,38.449l3.809,1.23
		c9.315,3.044,21.6,3.498,36.732,1.228C450.223,356.844,449.27,361.922,449.232,303.844z"></path></g></svg>