<?xml version="1.0" encoding="iso-8859-1"?>
<!DOCTYPE svg PUBLIC "-//W3C//DTD SVG 1.1//EN" "http://www.w3.org/Graphics/SVG/1.1/DTD/svg11.dtd">
<svg  version="1.1" xmlns="http://www.w3.org/2000/svg" xmlns:xlink="http://www.w3.org/1999/xlink" x="0px" y="0px" width="512px"
	 height="512px" viewBox="0 0 512 512" enable-background="new 0 0 512 512" xml:space="preserve"><g id="5151e0c8492e5103c096af88a51e6a46"><path display="inline" d="M338.892,272.218l48.41,14.63c-3.257,13.582-8.38,24.918-15.366,34.021
		c-6.99,9.103-15.669,15.973-26.032,20.609c-10.367,4.633-23.554,6.949-39.572,6.949c-19.425,0-35.298-2.819-47.615-8.467
		c-12.318-5.647-22.943-15.578-31.888-29.796c-0.468-0.744-0.874-1.543-1.316-2.309l-15.451,106.583h-25.67l45.682-316.879H256
		l-12.149,83.803c15.118-11.84,35.079-17.793,59.922-17.793c22.519,0,40.217,4.556,53.1,13.659
		c12.888,9.104,22.456,23.09,28.715,41.945l-48.771,10.852c-1.704-5.443-3.493-9.43-5.364-11.948
		c-3.09-4.227-6.87-7.479-11.34-9.753c-4.475-2.275-9.47-3.419-14.996-3.419c-12.525,0-22.115,5.036-28.781,15.106
		c-5.036,7.471-7.556,19.204-7.556,35.195c0,19.813,3.007,33.395,9.016,40.739c6.021,7.348,14.476,11.02,25.371,11.02
		c10.563,0,18.551-2.965,23.957-8.899C332.529,292.138,336.451,283.517,338.892,272.218z M114.207,298.067
		c-5.406,5.935-13.395,8.899-23.957,8.899c-10.896,0-19.35-3.672-25.371-11.02c-6.009-7.345-9.016-20.926-9.016-40.739
		c0-15.991,2.52-27.725,7.556-35.195c6.666-10.07,16.256-15.106,28.781-15.106c5.527,0,10.521,1.144,14.996,3.419
		c4.471,2.274,8.25,5.526,11.34,9.753c1.872,2.519,3.66,6.505,5.365,11.948l48.771-10.852
		c-6.259-18.855-15.827-32.841-28.715-41.945c-12.883-9.104-30.582-13.659-53.1-13.659c-28.777,0-51.033,7.945-66.761,23.827
		C8.368,203.276,0.5,226.005,0.5,255.572c0,22.177,4.47,40.375,13.411,54.593c8.945,14.218,19.57,24.148,31.888,29.796
		s28.191,8.467,47.615,8.467c16.019,0,29.205-2.316,39.572-6.949c10.363-4.637,19.042-11.507,26.033-20.609
		c6.986-9.104,12.109-20.439,15.366-34.021l-48.41-14.63C123.534,283.517,119.613,292.138,114.207,298.067z M483.479,244.319
		v-28.017h-23.504v28.017h-33.722v-28.017H402.75v28.017h-27.874v23.508h27.874v27.87h23.504v-27.87h33.722v27.87h23.504v-27.87
		H511.5v-23.508H483.479z"></path></g></svg>