<?xml version="1.0" encoding="iso-8859-1"?>
<!DOCTYPE svg PUBLIC "-//W3C//DTD SVG 1.1//EN" "http://www.w3.org/Graphics/SVG/1.1/DTD/svg11.dtd">
<svg  version="1.1" xmlns="http://www.w3.org/2000/svg" xmlns:xlink="http://www.w3.org/1999/xlink" x="0px" y="0px" width="512px"
	 height="512px" viewBox="0 0 512 512" enable-background="new 0 0 512 512" xml:space="preserve"><g id="5151e0c8492e5103c096af88a51ecc7d"><path display="inline" d="M395.723,75.955c0-31.239,25.283-56.529,56.477-56.529c31.23,0,56.515,25.29,56.515,56.529
		c0,31.197-25.284,56.489-56.515,56.489C421.006,132.444,395.723,107.152,395.723,75.955z M363.456,322.672l-15.96,2.416
		c-12.164,1.727-17.728,6.45-17.728,14.775c0,9.897,5.755,15.271,16.002,15.271c11.432,0,22.401-5.561,26.739-13.698
		c1.189-2.267,1.189-2.803,1.189-7.327v-3.111v-1.227l0.19-10.404v-0.188c-0.19,0-0.881,0.541-1.38,0.882
		C371.474,321.096,368.326,321.981,363.456,322.672z M259.289,75.955c106.542,0,192.91,86.383,192.91,192.953
		c0,106.564-86.368,192.95-192.91,192.95c-106.55,0-192.914-86.386-192.914-192.95C66.375,162.338,152.739,75.955,259.289,75.955z
		 M207.911,350.26h-63.227V240.701h-17.191V365.38h80.418V350.26z M399.598,354.103c-2.453,0.499-3.646,0.69-5.064,0.69
		c-3.452,0-5.027-1.581-5.027-5.373v-51.924c0-16.002-12.851-25.561-34.379-25.561c-23.596,0-35.946,10.096-36.795,30.243h14.239
		c1.726-12.359,7.976-17.541,20.83-17.541c14.043,0,21.025,5.182,21.025,15.279c0,9.36-1.227,10.047-26.245,12.658
		c-8.517,0.694-11.277,1.23-15.61,2.611c-11.819,3.834-18.764,13.549-18.764,26.058c0,16.65,11.474,26.748,30.387,26.748
		c11.627,0,19.603-3.839,30.923-14.589c0.499,9.216,5.372,13.703,14.584,13.703c3.447,0,5.215-0.346,9.896-1.727V354.103z
		 M282.693,188.971c0,31.199,25.321,56.527,56.515,56.527s56.515-25.328,56.515-56.527s-25.321-56.526-56.515-56.526
		S282.693,157.771,282.693,188.971z M256.333,354.793c-12.164,0-18.223-6.404-18.223-19.454V274.55h-15.466v66.158v1.418
		c0,15.27,12.354,25.866,29.892,25.866c13.349,0,22.364-5.024,28.814-15.812v13.199h14.767v-90.83H280.66v51.77v1.567
		c0,4.837-2.611,12.667-5.909,17.541C270.912,351.295,263.968,354.793,256.333,354.793z M33.344,205.048l17.225,5.605l-1.921,5.87
		L0.5,200.866l1.842-5.604l4.832,1.574c-0.191-0.385-0.42-0.574-0.495-0.77c-2.994-4.681-3.381-7.097-1.925-11.588
		c2.807-8.635,11.589-12.126,22.103-8.712c11.511,3.724,17.149,12.205,14.155,21.414C39.673,201.326,37.482,203.553,33.344,205.048z
		 M35.91,195.725c1.926-5.795-2.033-10.977-10.508-13.7c-8.559-2.801-13.773-0.998-15.886,5.489
		c-1.842,5.753,2.225,10.704,11.128,13.621C28.316,203.63,33.997,201.597,35.91,195.725z M20.145,147.525
		c4.604-9.019,14.654-11.63,24.743-6.485c10.209,5.18,14.043,14.813,9.402,23.944c-4.45,8.71-14.659,11.322-24.668,6.217
		C19.529,166.099,15.658,156.389,20.145,147.525z M32.383,165.446c7.672,3.913,14.384,2.724,17.304-3.071
		c2.874-5.679-0.079-11.781-7.598-15.58c-7.677-3.913-14.197-2.724-17.112,3.032C22.062,155.545,24.977,161.685,32.383,165.446z
		 M71.016,135.168L52.793,112.41l26.972,11.245l3.838-5.103L61.082,88.118l-3.759,4.99l18.339,23.178l-27.084-11.667l-4.146,5.489
		l18.526,22.949l-27.005-11.783l-4.067,5.375l35.298,13.584L71.016,135.168z M78.921,97.099c-8.171-8.903-8.325-19.033-0.382-26.325
		c7.402-6.831,16.576-5.065,25.82,5.027L84.868,93.722c5.755,5.642,10.783,6.294,15.615,1.882c3.688-3.379,4.566-8.252,2.229-11.743
		l4.566-4.261c1.302,1.919,2.067,4.528,2.3,7.522c0.308,4.644-1.38,8.559-5.448,12.28c-2.686,2.493-5.448,4.067-8.055,4.566
		C90.204,105.158,84.141,102.779,78.921,97.099z M81.533,90.077L96.3,76.491c-4.948-4.797-10.126-5.296-14.388-1.383
		C77.62,79.063,77.541,85.317,81.533,90.077z M125.385,80.868l-12.625-17.77c-2.99-4.184-1.796-9.824,2.687-13.01
		c0.271-0.191,0.886-0.651,1.497-0.996l-3.68-5.182c-0.844,0.383-1.459,0.729-1.884,1.075c-2.953,2.07-4.221,6.138-3.792,11.474
		l-3.535-4.988l-4.753,3.376l21.059,29.588L125.385,80.868z M126.766,57.957c-5.714-10.632-3.377-20.494,6.104-25.599
		c8.857-4.797,17.3-0.803,23.782,11.245l-23.288,12.548c4.184,6.907,8.904,8.752,14.655,5.681c4.412-2.378,6.487-6.907,5.065-10.859
		l5.485-2.957c0.769,2.189,0.886,4.876,0.391,7.83c-0.886,4.566-3.46,7.943-8.288,10.555c-3.269,1.764-6.334,2.607-8.945,2.456
		C135.706,68.548,130.45,64.75,126.766,57.957z M131.024,51.816l17.69-9.517c-3.646-5.872-8.558-7.638-13.623-4.913
		C129.951,40.151,128.337,46.213,131.024,51.816z M160.337,38.77c-3.685-10.44-0.42-19.228,8.097-22.22
		c4.45-1.571,8.363-0.884,12.28,2.073l0.112-0.116l-6.138-17.425l5.83-2.07l16.576,47.05l-5.522,1.954l-1.655-4.718
		c-0.919,4.718-3.414,7.6-7.826,9.132C172.846,55.692,164.441,50.356,160.337,38.77z M166.513,37.041
		c2.994,8.521,8.176,12.357,13.894,10.324c3.182-1.113,5.598-3.876,6.213-7.178c0.383-2.416,0.154-4.566-1.035-7.982
		c-3.377-9.553-8.06-12.969-14.464-10.744C165.29,23.534,163.677,28.984,166.513,37.041z M219.771,40.956l-5.26-49.619l6.175-0.653
		l1.884,18.038l0.574-0.692c2.84-4.067,5.219-5.564,9.557-6.025c8.824-0.957,15.765,5.643,16.842,16.157
		c1.343,12.586-3.913,21.107-13.582,22.103c-4.832,0.539-7.369-0.536-10.783-4.449l0.462,4.489L219.771,40.956z M223.913,23.302
		c0.844,8.023,5.023,12.396,11.165,11.745c6.139-0.652,9.245-6.333,8.284-15.197c-0.919-8.749-4.753-12.973-11.203-12.28
		l-0.267,0.04C225.563,8.528,222.915,13.861,223.913,23.302z M264.467,42.147l-0.844,1.803c-1.344,2.762-2.226,3.375-4.721,3.261
		c-1.38-0.077-2.07-0.23-3.488-0.844l-0.271,5.604c1.65,0.575,2.267,0.729,3.685,0.807c1.65,0.074,3.605-0.193,4.678-0.578
		c2.611-0.919,4.529-3.836,7.831-11.474c0.881-1.996,1.646-3.685,2.262-5.142c1.073-2.381,1.764-3.951,2.071-4.683l11.623-28.243
		l-6.866-0.27l-10.974,29.205l-8.476-30.05l-6.982-0.308l11.853,37.803C265.231,40.611,264.929,41.225,264.467,42.147z
		 M505.429,254.189l5.776-0.337c-0.458-7.781-1.285-15.615-2.462-23.286l-5.723,0.878
		C504.173,238.939,504.979,246.592,505.429,254.189z M343.055,30.631c-7.319-2.563-14.667-4.73-22.469-6.62l-1.368,5.624
		c7.618,1.847,14.788,3.959,21.924,6.458L343.055,30.631z M385.468,50.345c-7.091-4.097-13.869-7.646-20.723-10.85l-2.457,5.241
		c6.703,3.136,13.34,6.61,20.289,10.621L385.468,50.345z M51.496,412.085c4.42,6.425,9.174,12.704,14.135,18.659l4.45-3.701
		c-4.853-5.822-9.498-11.96-13.811-18.239L51.496,412.085z M418.665,457.101l3.734,4.425c5.935-5.016,11.706-10.376,17.158-15.932
		l-4.134-4.055C430.101,446.971,424.462,452.206,418.665,457.101z M450.648,424.493l4.491,3.647
		c4.902-6.034,9.577-12.367,13.89-18.825l-4.812-3.219C460.001,412.409,455.435,418.597,450.648,424.493z M488.565,163.494
		c-3.239-7.036-6.865-14.033-10.767-20.793l-5.011,2.895c3.813,6.605,7.353,13.444,10.517,20.318L488.565,163.494z M382.577,482.451
		l-1.401,0.803l2.874,5.027l1.418-0.815c6.274-3.626,12.454-7.552,18.372-11.677l-3.311-4.749
		C394.745,475.074,388.707,478.908,382.577,482.451z M493.955,344.487l5.515,1.771c2.374-7.394,4.437-14.991,6.125-22.593
		l-5.647-1.252C498.293,329.837,496.279,337.269,493.955,344.487z M339.541,502.112l1.888,5.465
		c7.336-2.528,14.654-5.448,21.753-8.662l-2.387-5.273C353.854,496.785,346.706,499.634,339.541,502.112z M505.716,277.071
		c-0.263,7.592-0.882,15.265-1.839,22.804l5.743,0.731c0.981-7.714,1.613-15.569,1.88-23.337L505.716,277.071z M12.551,280.612
		l-5.784,0.213c0.287,7.813,0.973,15.669,2.025,23.337l5.73-0.785C13.496,295.892,12.834,288.235,12.551,280.612z M476.02,386.514
		l5.09,2.753c3.688-6.82,7.111-13.91,10.172-21.075l-5.323-2.271C482.969,372.92,479.625,379.852,476.02,386.514z M504.114,207.613
		c-1.892-7.541-4.158-15.085-6.749-22.423l-5.456,1.926c2.524,7.167,4.745,14.538,6.591,21.903L504.114,207.613z M81.441,448.01
		c5.51,5.478,11.34,10.763,17.341,15.703l3.68-4.467c-5.859-4.823-11.561-9.988-16.938-15.341L81.441,448.01z M295.136,512.933
		l0.84,5.73c7.698-1.135,15.433-2.641,22.984-4.482l-1.372-5.622C310.211,510.354,302.654,511.827,295.136,512.933z M13.15,327.188
		c1.817,7.502,4.046,15.058,6.633,22.464l5.464-1.904c-2.524-7.231-4.699-14.604-6.471-21.924L13.15,327.188z M15.088,234.96
		l-5.73-0.823c-1.127,7.812-1.913,15.645-2.349,23.277l5.776,0.326C13.212,250.274,13.982,242.609,15.088,234.96z M28.524,371.377
		c3.177,6.944,6.745,13.956,10.617,20.834l5.044-2.836c-3.793-6.741-7.286-13.606-10.393-20.406L28.524,371.377z M249.496,515.324
		l-0.237,5.784c3.377,0.138,6.828,0.208,10.264,0.208c4.362,0,8.791-0.116,13.153-0.345l-0.3-5.785
		C264.762,515.595,257.085,515.632,249.496,515.324z M202.904,514.896c7.564,1.738,15.315,3.145,23.029,4.176l0.77-5.739
		c-7.539-1.011-15.116-2.383-22.51-4.079L202.904,514.896z M158.479,500.274c7.132,3.106,14.496,5.913,21.874,8.338l1.809-5.502
		c-7.215-2.37-14.405-5.11-21.371-8.143L158.479,500.274z M117.513,477.739c6.441,4.362,13.153,8.471,19.957,12.218l2.794-5.069
		c-6.649-3.659-13.211-7.677-19.503-11.943L117.513,477.739z"></path></g></svg>