<?xml version="1.0" encoding="iso-8859-1"?>
<!DOCTYPE svg PUBLIC "-//W3C//DTD SVG 1.1//EN" "http://www.w3.org/Graphics/SVG/1.1/DTD/svg11.dtd">
<svg  version="1.1" xmlns="http://www.w3.org/2000/svg" xmlns:xlink="http://www.w3.org/1999/xlink" x="0px" y="0px" width="512px"
	 height="512px" viewBox="0 0 512 512" enable-background="new 0 0 512 512" xml:space="preserve"><g id="5151e0c8492e5103c096af88a51fa794"><path display="inline" fill-rule="evenodd" clip-rule="evenodd" d="M499.217,160.212c0,0,7.598-7.103,9.61-20.435
		c2.479-16.476,0.299-36.537,0.299-36.537s-5.106,15.204-13.132,24.839c-6.176,7.415-16.593,12.317-16.593,12.317
		s-31.908,3.082-48.792-3.955c-11.985-4.99-10.663-20.818-10.663-20.818s7.161-9.074,16.609-18.871
		c7.02-7.27,15.67-14.202,21.637-22.02c8.542-11.199,9.648-21.866,9.648-21.866s-27.813,13.657-49.961,29.139
		c-14.654,10.243-26.835,24.536-26.835,24.536l-4.13-6.604c0,0,12.347-13.128,15.728-28.436c3.627-16.443-1.688-35.148-1.688-35.148
		s-4.113,16.56-12.626,28.998c-7.531,11.008-19.578,18.069-19.578,18.069s-6.088,0.978-9.527-2.911
		c-5.539-6.254-9.465-18.555-9.465-18.555s-6.383,4.171-12.13,1.946c-6.937-2.687-13.466-11.86-13.466-11.86
		s-8.067,5.988-18.189,8.413c-8.778,2.1-19.795,0.669-19.795,0.669s-3.692,5.473-12.517,8.142
		c-8.929,2.703-22.997,2.595-22.997,2.595s4.047,10.164-1.622,17.649c-5.893,7.785-21.496,12.908-21.496,12.908l14.043,14.035
		c0,0-7.173,3.156-18.472,13.021c-8.6,7.51-17.187,18.988-25.188,26.764c-7.689,7.477-14.971,11.411-14.971,11.411
		s-42.379,3.9-68.849,42.933c-20.946,30.902-9.598,80.102-9.598,80.102s-29.721,30.631-62.707,2.753
		c-37.585-31.771-14.913-80.373-14.913-80.373s-49.395,31.301-13.041,97.331c36.708,66.678,101.397,34.79,101.397,34.79
		l-3.306,15.687l-6.604,8.259l3.302,7.431c0,0,1.955,9.739,1.713,17.388c-0.154,4.957-2.537,9.032-2.537,9.032
		s-3.905,8.662-2.699,13.49c1.269,5.073,7.648,6.329,7.648,6.329s2.719,6.766,7.028,8.021c5.464,1.593,12.796-2.241,12.796-2.241
		s8.358,4.267,14.609,2.856c6.541-1.479,10.987-8.637,10.987-8.637s7.36,0.956,11.199-1.389c3.584-2.188,3.664-7.693,3.664-7.693
		l-17.341-15.687l-0.828-23.948c0,0,15.44-17.171,22.381-34.279c5.189-12.809,2.391-26.826,2.391-26.826s6.658-4.962,14.542-1.889
		c6.616,2.583,12.679,12.28,19.125,16.518c7.581,4.982,15.054,4.362,15.054,4.362s-1.206,9.682-0.757,17.479
		c0.37,6.541,2.408,11.424,2.408,11.424s5.656,4.017,8.658,10.209c3.497,7.215,4.807,17.195,11.182,24.132
		c4.508,4.907,10.151,4.583,14.697,7.19c7.231,4.146,12.529,9.664,12.529,9.664s6.209,9.028,6.209,19.683
		c0,7.373-6.521,14.389-8.01,20.863c-1.605,6.974,1.801,13.129,1.801,13.129s6.916-0.125,11.161,1.763
		c6.434,2.856,11.137,8.143,11.137,8.143s7.918-5.756,16.543-6.4c7.852-0.595,16.484,3.926,16.484,3.926s5.56-0.357,8.563-3.435
		c2.604-2.662,2.44-7.922,5.423-9.873c5.468-3.58,9.959-2.383,9.959-2.383s5.964-6.578,2.861-12.642
		c-2.212-4.316-8.6-6.088-12.555-9.889c-5.099-4.907-7.644-11.324-7.644-11.324l9.083-10.732c0,0,7.36,3.68,13.474,4.52
		c5.854,0.812,10.471-1.218,10.471-1.218l0.823-5.78c0,0-12.234-21.259-14.072-51.242c-1.343-21.948,7.735-46.696,8.991-67.726
		c1.435-23.986-4.824-42.878-4.824-42.878s3.127-6.799,13.062-8.379c14.842-2.362,63.751,12.488,85.242,10.438
		c27.479-2.628,26.382-21.874,26.382-21.874s-8.155,4.591-17.142-0.366c-11.033-6.076-23.317-21.932-23.317-21.932
		s11.369-6.524,29.912-0.416c13.694,4.512,20.456,22.714,20.456,22.714s13.553-11.324,13.923-26.39
		C511.938,184.265,499.217,160.212,499.217,160.212z M303.188,357.144l-3.602-30.149l11.702-3.601l2.25,42.754L303.188,357.144z"></path></g></svg>