<?xml version="1.0" encoding="iso-8859-1"?>
<!DOCTYPE svg PUBLIC "-//W3C//DTD SVG 1.1//EN" "http://www.w3.org/Graphics/SVG/1.1/DTD/svg11.dtd">
<svg  version="1.1" xmlns="http://www.w3.org/2000/svg" xmlns:xlink="http://www.w3.org/1999/xlink" x="0px" y="0px" width="512px"
	 height="512px" viewBox="0 0 512 512" enable-background="new 0 0 512 512" xml:space="preserve"><g id="5151e0c8492e5103c096af88a51ef0ed"><path display="inline" d="M499.161,364.63c0,0-63.554,171.386-282.354,131.488c-3.443-0.641-6.745-1.838-10.089-2.849
		c-0.782-0.229-1.572-0.479-2.354-0.703c-3.285-1.022-6.537-2.07-9.769-3.197c-0.37-0.129-0.723-0.25-1.098-0.383
		c-2.944-1.035-5.872-2.134-8.762-3.244c-0.757-0.295-1.51-0.582-2.263-0.89c-3.114-1.23-6.212-2.516-9.277-3.859
		c-0.565-0.249-1.11-0.499-1.684-0.752c-2.683-1.193-5.332-2.429-7.959-3.685c-0.682-0.346-1.368-0.666-2.055-0.99
		c-0.374-0.187-0.777-0.374-1.16-0.565c-1.696-0.848-3.352-1.729-5.023-2.604c-1.289-0.665-2.599-1.313-3.88-2
		c-2.366-1.289-4.699-2.599-7.02-3.938c-0.861-0.491-1.73-0.965-2.583-1.46c-3.152-1.854-6.271-3.78-9.344-5.727
		c-0.869-0.557-1.729-1.147-2.586-1.722c-2.004-1.297-4.009-2.595-5.972-3.95c-0.208-0.142-0.407-0.291-0.611-0.437
		c-0.761-0.516-1.484-1.044-2.241-1.593c-2.071-1.439-4.121-2.911-6.15-4.408c-0.981-0.74-1.959-1.484-2.932-2.229
		c-1.838-1.402-3.667-2.837-5.481-4.284c-0.902-0.723-1.817-1.438-2.719-2.17c-2.212-1.822-4.417-3.677-6.575-5.548
		c-0.408-0.357-0.84-0.707-1.256-1.081c-0.042-0.017-0.071-0.05-0.117-0.088c-2.449-2.146-4.853-4.346-7.236-6.591
		c-0.719-0.657-1.435-1.36-2.158-2.05c-1.78-1.71-3.543-3.432-5.277-5.178c-0.72-0.707-1.431-1.422-2.121-2.138
		c-2.241-2.304-4.454-4.611-6.616-6.97c-0.079-0.107-0.158-0.17-0.253-0.274c-0.038-0.041-0.092-0.096-0.129-0.142
		c-2.212-2.437-4.383-4.928-6.508-7.427c-0.595-0.703-1.193-1.422-1.78-2.133c-1.584-1.909-3.144-3.813-4.674-5.743
		c-0.636-0.803-1.272-1.613-1.9-2.42c-1.717-2.217-3.414-4.45-5.057-6.721c-0.308-0.424-0.636-0.84-0.932-1.256
		c-0.063-0.07-0.116-0.146-0.158-0.216c-1.904-2.633-3.742-5.315-5.547-8.001c-0.561-0.824-1.089-1.672-1.63-2.521
		c-1.306-1.987-2.587-3.976-3.826-5.988c-0.648-1.031-1.264-2.066-1.888-3.103c-1.127-1.879-2.229-3.759-3.298-5.655
		c-0.611-1.073-1.214-2.121-1.805-3.223c-0.329-0.582-0.686-1.182-1.006-1.792c-0.562-1.016-1.069-2.075-1.618-3.111
		c-0.848-1.626-1.709-3.26-2.528-4.915c-34.557-69.094-40.196-153.694,5.048-218.723l35.314-44.789
		c-39.843,77.007-21.936,170.778,27.908,238.76c1.8,2.475,3.643,4.916,5.526,7.356c0.583,0.736,1.168,1.477,1.751,2.184
		c1.567,1.996,3.168,3.967,4.786,5.918c0.583,0.686,1.152,1.359,1.747,2.066c2.163,2.554,4.375,5.09,6.646,7.564
		c0.108,0.12,0.212,0.229,0.316,0.345c2.146,2.342,4.333,4.653,6.558,6.933c0.69,0.698,1.393,1.389,2.096,2.088
		c1.747,1.783,3.531,3.514,5.344,5.235c0.686,0.682,1.376,1.339,2.088,2.017c2.449,2.279,4.919,4.545,7.435,6.758
		c0.262,0.229,0.532,0.44,0.773,0.652c2.329,2.025,4.687,3.997,7.074,5.96c0.832,0.678,1.68,1.355,2.528,2.029
		c1.875,1.509,3.772,2.978,5.681,4.437c0.911,0.699,1.846,1.41,2.791,2.108c2.075,1.539,4.171,3.053,6.288,4.55
		c0.719,0.486,1.418,1.015,2.146,1.505c2.188,1.514,4.417,2.986,6.654,4.425c0.84,0.558,1.672,1.14,2.52,1.681
		c3.086,1.954,6.205,3.875,9.357,5.73c0.811,0.466,1.622,0.902,2.42,1.352c2.379,1.376,4.762,2.731,7.19,4.029
		c1.314,0.731,2.666,1.393,3.996,2.096c1.988,1.023,3.976,2.063,5.988,3.044c0.761,0.374,1.501,0.724,2.246,1.077
		c2.566,1.235,5.14,2.425,7.743,3.605c0.616,0.267,1.214,0.545,1.834,0.811c3.032,1.327,6.096,2.6,9.186,3.817
		c0.794,0.316,1.589,0.62,2.387,0.937c2.811,1.089,5.643,2.146,8.508,3.156c0.445,0.158,0.89,0.32,1.322,0.478
		c3.194,1.099,6.408,2.146,9.648,3.136c0.827,0.258,1.655,0.508,2.503,0.757c3.318,0.981,6.616,2.042,10.018,2.812
		C351.039,452.521,445.783,434.173,499.161,364.63z M182.44,254.758c4.907,7.024,10.338,15.386,16.846,21.031
		c2.354,2.598,4.824,5.13,7.34,7.621c0.632,0.648,1.285,1.272,1.938,1.908c2.437,2.371,4.932,4.704,7.494,6.97
		c0.108,0.079,0.204,0.188,0.308,0.263c0.029,0.033,0.054,0.041,0.075,0.074c2.845,2.487,5.781,4.887,8.758,7.244
		c0.662,0.508,1.318,1.036,1.988,1.552c2.99,2.291,6.039,4.545,9.166,6.69c0.096,0.066,0.17,0.134,0.266,0.2
		c1.376,0.956,2.782,1.846,4.175,2.761c0.674,0.433,1.31,0.898,1.983,1.306c2.237,1.435,4.496,2.828,6.795,4.167
		c0.325,0.2,0.641,0.366,0.961,0.553c1.975,1.14,3.992,2.267,6.005,3.356c0.698,0.391,1.414,0.74,2.129,1.114
		c1.389,0.724,2.786,1.468,4.2,2.171c0.212,0.1,0.433,0.199,0.637,0.287c2.882,1.418,5.788,2.79,8.762,4.079
		c0.632,0.283,1.289,0.532,1.934,0.799c2.375,1.006,4.77,1.992,7.178,2.915c1.022,0.387,2.059,0.757,3.073,1.127
		c2.191,0.815,4.383,1.556,6.595,2.296c1.003,0.319,1.984,0.648,2.986,0.956c3.144,0.973,6.254,2.212,9.535,2.753
		C472.501,366.942,511.5,236.873,511.5,236.873c-35.16,50.633-103.243,74.791-175.897,55.936c-3.223-0.849-6.403-1.776-9.56-2.77
		c-0.974-0.292-1.922-0.607-2.883-0.928c-2.245-0.728-4.479-1.501-6.694-2.308c-1.011-0.37-2.025-0.74-3.02-1.123
		c-2.425-0.932-4.824-1.896-7.198-2.902c-0.653-0.283-1.306-0.533-1.942-0.824c-2.981-1.299-5.917-2.663-8.812-4.094
		c-1.493-0.729-2.953-1.499-4.425-2.254c-0.849-0.437-1.701-0.875-2.549-1.312c-1.88-1.021-3.751-2.08-5.594-3.154
		c-0.437-0.252-0.894-0.491-1.339-0.755c-2.283-1.339-4.537-2.718-6.77-4.134c-0.687-0.438-1.352-0.915-2.038-1.366
		c-1.477-0.954-2.944-1.921-4.392-2.902c-3.11-2.146-6.138-4.399-9.128-6.678c-0.69-0.543-1.376-1.073-2.059-1.616
		c-31.796-25.111-57-59.423-68.994-98.33c-12.555-40.352-9.847-85.647,11.914-122.406l-26.735,37.738
		c-32.715,47.085-30.939,110.113-5.419,159.91C172.252,238.95,177.063,247.046,182.44,254.758z M360.5,196.506
		c1.393,0.52,2.782,0.981,4.191,1.458c0.616,0.189,1.231,0.401,1.851,0.584c1.988,0.626,3.963,1.352,6.018,1.738
		c93.284,18.023,118.58-47.869,125.317-57.566c-22.165,31.91-59.405,39.57-105.111,28.481c-3.605-0.881-7.572-2.185-11.058-3.416
		c-4.462-1.591-8.849-3.404-13.124-5.456c-8.121-3.899-15.848-8.629-23.025-14.045c-40.891-31.029-66.291-90.221-39.61-138.425
		L291.51,29.76c-19.287,28.386-21.179,63.638-7.801,94.991C297.823,158.025,326.745,184.132,360.5,196.506z"></path></g></svg>