<?xml version="1.0" encoding="iso-8859-1"?>
<!DOCTYPE svg PUBLIC "-//W3C//DTD SVG 1.1//EN" "http://www.w3.org/Graphics/SVG/1.1/DTD/svg11.dtd">
<svg  version="1.1" xmlns="http://www.w3.org/2000/svg" xmlns:xlink="http://www.w3.org/1999/xlink" x="0px" y="0px" width="512px"
	 height="512px" viewBox="0 0 512 512" enable-background="new 0 0 512 512" xml:space="preserve"><g id="5151e0c8492e5103c096af88a51fcf48"><path display="inline" fill-rule="evenodd" clip-rule="evenodd" d="M272.38,241.227c-88.585,8.209-179.856,27.131-271.88,33.099
		c13.981-14.314,42.671-12.472,68.562-16.547c45.478-7.161,102.645-12.002,153.669-18.918
		C239.195,236.632,260.669,227.732,272.38,241.227z M184.905,274.325c-29.659,3.368-54.751,5.048-80.38,7.094
		c-17.391,1.39-36.312-2.162-47.287,9.457c36.283,9.876,80.442-6.246,118.21-4.729c5.186-4.292,62.856,5.065,87.474-16.547
		C242.742,256.801,213.766,271.048,184.905,274.325z M449.69,307.427c-23.213,20.464-34.832,35.88-68.562,28.369
		c-10.837-10.638-9.539-29.01-9.456-30.735c0.532-10.929,7.672-24.59,7.09-35.46c-5.215,18.443-35.589,24.27-35.46,40.188
		c-23.981,16.21-43.847,36.537-87.474,33.098c-23.075-28.606,11.781-76.209,30.736-99.293c8.421-10.263,16.871-21.088,26.003-30.735
		c20.007-21.134,22.955-28.29,49.648-40.192c40.242-17.931,56.419,29.834,30.731,54.377c-9.855,2.517-10.425,0.615-21.274,0
		c9.718-9.598,7.535-28.402,11.818-37.825c-0.262-4.467-7.814-1.639-7.091-7.095c-38.429,15.632-63.222,44.072-85.107,78.022
		c-9.22,14.297-19.342,28.498-21.279,52.006c0.262,4.467,7.813,1.643,7.094,7.095c2.616,0.075,5.099,0.017,7.485-0.142v-0.054h0.861
		c38.309-2.974,47.856-34.711,69.668-54.182c-14.884-6.691-30.282,14.098-44.917,2.366c12.352-23.408,47.245-15.574,78.015-23.642
		c2.444,7.719,5.992,5.012,0,11.818c32.116-23.254,50.243-92.9,118.21-80.38C526.677,228.231,481.886,279.036,449.69,307.427z
		 M489.878,193.944c-45.743,9.598-87.886,58.989-101.658,115.844c30.585,9.656,50.222-25.013,73.289-37.825
		C474.986,251.644,500.188,222.875,489.878,193.944z"></path></g></svg>