<?xml version="1.0" encoding="iso-8859-1"?>
<!DOCTYPE svg PUBLIC "-//W3C//DTD SVG 1.1//EN" "http://www.w3.org/Graphics/SVG/1.1/DTD/svg11.dtd">
<svg  version="1.1" xmlns="http://www.w3.org/2000/svg" xmlns:xlink="http://www.w3.org/1999/xlink" x="0px" y="0px" width="512px"
	 height="512px" viewBox="0 0 512 512" enable-background="new 0 0 512 512" xml:space="preserve"><g id="5151e0c8492e5103c096af88a51f35a1"><path display="inline" d="M255.991,0.5C114.889,0.5,0.5,114.882,0.5,255.985C0.5,397.105,114.889,511.5,255.991,511.5
		C397.11,511.5,511.5,397.105,511.5,255.985C511.5,114.882,397.11,0.5,255.991,0.5z M393.788,148.373
		c-11.83,0.416-19.993-6.649-20.376-17.391c-0.121-3.941,0.89-7.368,3.597-11.402c2.633-5.16,3.202-5.759,3.136-8.013
		c-0.245-6.758-10.463-7.012-13.257-6.883c-38.354,1.272-48.464,53.028-56.656,95.12l-4.009,22.193
		c22.082,3.231,37.759-0.752,46.509-6.412c12.31-7.988-3.452-16.205-1.473-25.296c2.029-9.265,10.451-13.739,17.143-13.918
		c9.377-0.245,16.072,9.489,15.86,19.357c-0.329,16.322-21.981,38.74-65.293,37.821c-5.273-0.117-10.127-0.495-14.646-1.044
		l-8.176,45.102c-7.311,34.133-17.024,80.79-51.795,121.493c-29.87,35.529-60.178,41.031-73.747,41.492
		c-25.4,0.874-42.229-12.675-42.841-30.747c-0.582-17.507,14.891-27.071,25.051-27.388c13.549-0.449,22.93,9.373,23.292,20.692
		c0.345,9.564-4.653,12.559-7.972,14.363c-2.204,1.784-5.527,3.605-5.402,7.544c0.079,1.68,1.884,5.563,7.522,5.381
		c10.741-0.366,17.874-5.677,22.852-9.231c24.739-20.602,34.258-56.53,46.725-121.926l2.611-15.839
		c4.259-21.271,8.967-44.974,16.161-68.602c-17.434-13.128-27.892-29.4-51.342-35.767c-16.077-4.37-25.883-0.661-32.77,8.055
		c-8.162,10.321-5.455,23.753,2.429,31.629l13.029,14.405c15.96,18.455,24.705,32.813,21.408,52.113
		c-5.211,30.847-41.951,54.491-85.379,41.143c-37.073-11.419-44.001-37.667-39.544-52.138c3.926-12.721,14.035-15.124,23.925-12.102
		c10.587,3.285,14.741,16.156,11.71,26.023c-0.346,1.057-0.886,2.845-1.988,5.198c-1.234,2.729-3.505,5.119-4.495,8.292
		c-2.379,7.768,8.259,13.282,15.67,15.561c16.588,5.106,32.777-3.567,36.878-16.991c3.813-12.338-3.988-20.945-7.224-24.243
		l-15.707-16.817c-7.182-8.009-22.98-30.311-15.282-55.364c2.973-9.656,9.24-19.902,18.318-26.689
		c19.179-14.288,40.034-16.642,59.896-10.924c25.687,7.386,38.038,24.381,54.048,37.496c8.953-26.269,21.375-51.992,40.047-73.703
		c16.867-19.778,39.522-34.096,65.477-34.985c25.936-0.856,45.539,10.899,46.184,29.504
		C414.153,132.455,409.604,147.846,393.788,148.373z"></path></g></svg>