<?xml version="1.0" encoding="iso-8859-1"?>
<!DOCTYPE svg PUBLIC "-//W3C//DTD SVG 1.1//EN" "http://www.w3.org/Graphics/SVG/1.1/DTD/svg11.dtd">
<svg  version="1.1" xmlns="http://www.w3.org/2000/svg" xmlns:xlink="http://www.w3.org/1999/xlink" x="0px" y="0px" width="512px"
	 height="512px" viewBox="0 0 512 512" enable-background="new 0 0 512 512" xml:space="preserve"><g id="e6c6b53d3c8160b22dad35a0f7102fb3"><path display="inline" d="M256,118.365L49.217,0.5v235.734l68.238-38.896v-79.396l69.646,39.699L49.217,236.234V511.5L256,393.637
		v-0.007L462.783,511.5V275.766v-39.533V0.5L256,118.365z M241.524,385.223L63.692,486.588V244.646l177.832-101.366v45.224
		L110.286,263.31l-7.306,4.163v8.414v118.174v24.912l21.643-12.338l116.901-66.633V385.223z M117.455,394.061v-79.401l69.646,39.7
		L256,315.086L117.455,394.061z M152.339,255.999L256,196.914v-0.002l103.661,59.087L256,315.086L152.339,255.999z M394.546,394.054
		l-69.645-39.694l69.645-39.7V394.054z M394.546,297.999l-84.262,48.03l-39.671-22.613l103.661-59.087l20.271,11.555V297.999z
		 M394.546,197.337l-69.645-39.698l69.645-39.697V197.337z M448.308,227.982l-39.286-22.396v-87.646V93.029l-21.645,12.337
		l-77.093,43.941l-39.667-22.61l177.69-101.285V227.982z"></path></g></svg>