<?xml version="1.0" encoding="iso-8859-1"?>
<!DOCTYPE svg PUBLIC "-//W3C//DTD SVG 1.1//EN" "http://www.w3.org/Graphics/SVG/1.1/DTD/svg11.dtd">
<svg  version="1.1" xmlns="http://www.w3.org/2000/svg" xmlns:xlink="http://www.w3.org/1999/xlink" x="0px" y="0px" width="512px"
	 height="512px" viewBox="0 0 512 512" enable-background="new 0 0 512 512" xml:space="preserve"><g id="5151e0c8492e5103c096af88a51e7e7e"><path display="inline" d="M218.195,257.521c0,64.719,4.624,119.1-27.309,151.283c-17.961,18.105-46.301,28.772-81.17,28.772
		c-57.192,0-88.947-27.862-109.215-66.416c19.512-12.459,39.452-24.502,59.775-36.154c8.292,23.188,36.291,49.258,67.888,33.21
		c20.027-10.18,17.715-41.04,17.715-74.537c0-69.549,0-149.78,0-212.528c-0.063-1.044-0.125-2.087,0.732-2.214
		c23.866,0,47.728,0,71.585,0C218.195,134.832,218.195,198.069,218.195,257.521z M399.727,215.462
		c-18.247-7.814-40.928-17.058-46.488-33.952c-6.233-18.934,4.396-34.533,16.231-39.841c26.023-11.688,57.038,7.556,63.463,27.301
		c19.583-11.657,39.103-23.384,56.826-36.896c-20.826-34.584-51.354-59.342-107.003-57.561
		c-30.64,0.979-53.657,10.652-70.841,25.088c-16.771,14.085-29.721,33.854-31.737,61.989
		c-6.025,84.212,56.988,105.708,110.695,129.137c16.93,7.385,35.751,14.842,43.54,29.517c16.061,30.282-12.389,50.26-36.898,52.397
		c-39.336,3.427-65.858-19.587-81.175-43.54c-19.133,11.86-39.938,22.045-58.298,34.683c25.537,44.908,67.409,73.98,132.831,73.793
		c66.74-0.188,116.219-32.366,120.281-92.977C516.677,262.216,454.956,239.105,399.727,215.462z"></path></g></svg>