<?xml version="1.0" encoding="iso-8859-1"?>
<!DOCTYPE svg PUBLIC "-//W3C//DTD SVG 1.1//EN" "http://www.w3.org/Graphics/SVG/1.1/DTD/svg11.dtd">
<svg  version="1.1" xmlns="http://www.w3.org/2000/svg" xmlns:xlink="http://www.w3.org/1999/xlink" x="0px" y="0px" width="512px"
	 height="512px" viewBox="0 0 512 512" enable-background="new 0 0 512 512" xml:space="preserve"><g id="5151e0c8492e5103c096af88a51e24bd"><path display="inline" d="M126.67,460.244h7.134v29.038h-12.896c-15.04,0-25.932-0.989-32.692-2.959
		c-9.824-2.843-17.956-7.429-24.404-13.782c-6.439-6.353-10.623-14.394-12.541-24.135c-1.927-9.737-2.959-25.706-3.116-47.902
		c-0.147-22.191-1.458-37.544-3.914-46.053c-2.456-8.506-7.403-15.228-14.85-20.161c-7.438-4.93-17.071-7.516-28.891-7.763v-30.15
		c11.82-0.242,21.454-2.799,28.891-7.676c7.447-4.869,12.394-11.56,14.85-20.065c2.456-8.509,3.767-23.057,3.914-43.648
		c0.156-20.595,0.616-34.153,1.389-40.69c1.38-10.355,3.949-18.681,7.707-24.971c3.767-6.285,8.41-11.306,13.929-15.072
		c5.528-3.761,12.584-6.624,21.185-8.599c5.832-1.23,15.344-1.851,28.544-1.851h12.896v29.039h-7.134
		c-15.969,0-26.557,2.309-31.772,6.936c-5.225,4.62-7.828,14.951-7.828,30.979c0,32.303-0.851,52.713-2.534,61.22
		c-2.76,13.193-7.481,23.365-14.164,30.517c-6.674,7.15-17.149,13.499-31.425,19.049c16.889,5.672,29.125,14.333,36.728,25.988
		c7.594,11.651,11.395,30.731,11.395,57.24c0,24.045,0.304,38.347,0.92,42.907c1.224,8.384,4.331,14.242,9.321,17.57
		S112.082,460.244,126.67,460.244z M197.133,214.245l54.003,194.595h-24.478l-11.482-42.43h-68.635l-11.612,42.43h-23.341
		l54.763-194.595H197.133z M208.745,342.734l-27.889-104.072l-27.88,104.072H208.745z M373.4,380.404
		c3.198-6.947,4.795-15.036,4.795-24.27c0-7.742-1.24-14.441-3.723-20.101c-2.482-5.658-5.741-10.592-9.781-14.814
		c-4.035-4.218-8.64-7.862-13.812-10.943c-5.173-3.072-10.454-5.901-15.839-8.487c-5.381-2.578-10.657-5.082-15.834-7.517
		c-5.173-2.43-9.776-5.138-13.816-8.114c-4.036-2.977-7.299-6.353-9.776-10.124c-2.482-3.771-3.724-8.283-3.724-13.549
		c0-8.538,3.029-15.335,9.087-20.397c6.053-5.063,15.518-7.594,28.388-7.594c6.058,0,12.323,0.573,18.798,1.712
		c6.479,1.142,12.953,2.806,19.432,4.988v-23.82c-2.772-0.797-5.78-1.541-9.021-2.235c-3.237-0.692-6.518-1.316-9.842-1.861
		c-3.319-0.543-6.6-0.968-9.842-1.265c-3.236-0.3-6.244-0.447-9.021-0.447c-10.766,0-20.039,1.54-27.819,4.617
		c-7.78,3.074-14.15,7.123-19.119,12.133c-4.96,5.012-8.617,10.744-10.974,17.196c-2.356,6.455-3.532,13.005-3.532,19.653
		c0,7.646,1.241,14.241,3.723,19.805c2.478,5.559,5.737,10.396,9.776,14.515c4.036,4.118,8.645,7.693,13.816,10.723
		c5.173,3.024,10.454,5.827,15.835,8.409c5.385,2.582,10.661,5.086,15.834,7.516c5.173,2.439,9.776,5.116,13.816,8.046
		c4.035,2.925,7.299,6.248,9.781,9.972c2.481,3.723,3.723,8.214,3.723,13.478c0,4.86-0.737,9.178-2.213,12.949
		c-1.467,3.774-3.823,6.978-7.061,9.606c-3.241,2.63-7.407,4.617-12.497,5.954c-5.086,1.336-11.247,2.009-18.481,2.009
		c-10.011,0-18.949-0.794-26.813-2.382c-7.862-1.589-14.953-3.771-21.258-6.553v25.61c2.859,0.895,6.053,1.736,9.585,2.53
		c3.537,0.799,7.299,1.488,11.296,2.087c3.996,0.595,8.157,1.094,12.492,1.488c4.331,0.396,8.684,0.595,13.058,0.595
		c9.672,0,18.524-1.141,26.561-3.428c8.032-2.282,14.91-5.729,20.63-10.345C365.746,393.132,370.203,387.352,373.4,380.404z
		 M445.542,268.636c-2.456-8.509-3.767-23.861-3.914-46.053c-0.156-22.195-1.188-38.164-3.115-47.902
		c-1.918-9.741-6.102-17.784-12.541-24.137c-6.448-6.354-14.58-10.938-24.404-13.777c-6.761-1.973-17.652-2.962-32.692-2.962
		h-12.896v29.039h7.134c14.589,0,24.369,1.666,29.359,4.994c4.99,3.33,8.098,9.187,9.321,17.57c0.616,4.561,0.92,18.862,0.92,42.907
		c0,26.509,3.802,45.589,11.396,57.239c7.603,11.656,19.839,20.317,36.728,25.988c-14.276,5.551-24.751,11.898-31.425,19.05
		c-6.683,7.151-11.404,17.323-14.164,30.515c-1.684,8.51-2.534,28.917-2.534,61.219c0,16.03-2.604,26.362-7.828,30.983
		c-5.216,4.626-15.804,6.935-31.772,6.935h-7.134v29.038h12.896c13.2,0,22.712-0.62,28.544-1.849
		c8.601-1.979,15.656-4.843,21.185-8.601c5.52-3.767,10.163-8.787,13.93-15.074c3.758-6.288,6.326-14.615,7.706-24.969
		c0.772-6.535,1.232-20.096,1.389-40.689c0.147-20.591,1.458-35.141,3.914-43.649c2.456-8.506,7.403-15.197,14.85-20.065
		c7.438-4.878,17.07-7.434,28.891-7.677V296.56c-11.82-0.247-21.453-2.833-28.891-7.763
		C452.945,283.863,447.998,277.142,445.542,268.636z M509.895,90.162c-1.072-2.745-2.612-5.175-4.612-7.29
		c-2.005-2.111-4.405-3.841-7.204-5.186c-2.799-1.346-5.932-2.294-9.39-2.843c5.381-2.142,9.563-5.229,12.558-9.265
		c2.994-4.035,4.491-9.318,4.491-15.854c0-4.113-0.776-7.85-2.309-11.197c-1.54-3.346-3.831-6.188-6.878-8.525
		c-3.046-2.332-6.804-4.129-11.282-5.392c-4.478-1.26-9.677-1.894-15.608-1.894c-2.465,0-4.852,0.082-7.16,0.245
		c-2.304,0.167-4.582,0.442-6.834,0.824c-2.248,0.384-4.504,0.854-6.752,1.399c-2.252,0.551-4.617,1.237-7.082,2.057v16.885
		c4.448-1.369,8.757-2.469,12.932-3.294c4.165-0.824,8.396-1.236,12.679-1.236c5.98,0,10.397,1.144,13.257,3.417
		c2.855,2.278,4.279,5.615,4.279,10.007c0,2.139-0.352,4.188-1.068,6.136c-0.711,1.948-1.909,3.639-3.579,5.062
		c-1.68,1.43-3.928,2.569-6.757,3.417c-2.829,0.855-6.379,1.278-10.662,1.278h-10.956v15.318h11.941
		c4.557,0,8.496,0.368,11.816,1.108c3.328,0.742,6.053,1.788,8.196,3.133c2.14,1.346,3.732,2.975,4.778,4.899
		c1.041,1.92,1.562,4.063,1.562,6.422c0,2.69-0.503,5.105-1.522,7.247c-1.016,2.142-2.591,3.942-4.73,5.396
		c-2.144,1.454-4.859,2.563-8.157,3.333c-3.294,0.77-7.221,1.154-11.777,1.154c-4.665,0-9.156-0.206-13.456-0.618
		c-4.313-0.413-8.197-0.948-11.66-1.606v17.46c1.541,0.271,3.268,0.505,5.194,0.696c1.914,0.193,3.896,0.358,5.928,0.497
		c2.026,0.132,4.074,0.245,6.136,0.327c2.053,0.085,4.018,0.124,5.884,0.124c8.396,0,15.704-0.797,21.909-2.387
		c6.197-1.595,11.348-3.884,15.439-6.878c4.088-2.99,7.116-6.613,9.1-10.87c1.975-4.253,2.964-9.043,2.964-14.369
		C511.5,95.955,510.967,92.906,509.895,90.162z"></path></g></svg>