<?xml version="1.0" encoding="iso-8859-1"?>
<!DOCTYPE svg PUBLIC "-//W3C//DTD SVG 1.1//EN" "http://www.w3.org/Graphics/SVG/1.1/DTD/svg11.dtd">
<svg  version="1.1" xmlns="http://www.w3.org/2000/svg" xmlns:xlink="http://www.w3.org/1999/xlink" x="0px" y="0px" width="512px"
	 height="512px" viewBox="0 0 512 512" enable-background="new 0 0 512 512" xml:space="preserve"><g id="5151e0c8492e5103c096af88a51f8fd4"><path display="inline" d="M105.399,309.365c8.163-1.066,14.268-2.771,18.314-5.115c6.533-3.76,11.682-8.875,15.445-15.338
		c3.764-6.453,5.643-13.734,5.643-21.832c0-9.938-2.645-18.189-7.934-24.76c-5.29-6.562-13.541-11.194-24.76-13.897
		c7.386-2.554,12.991-6.03,16.826-10.434c5.751-6.604,8.629-14.517,8.629-23.749c0-11.003-4.03-20.235-12.089-27.688
		c-8.059-7.457-19.612-11.183-34.666-11.183H0.5v156.125h83.279C87.33,311.494,94.537,310.783,105.399,309.365z M49.167,186.996
		h21.3c7.311,0,12.442,1.281,15.387,3.834c2.948,2.562,4.42,6.113,4.42,10.654c0,4.898-1.472,8.641-4.42,11.236
		c-2.944,2.591-8.18,3.884-15.707,3.884H49.167V186.996z M49.167,277.943v-31.626h24.494c8.45,0,14.359,1.401,17.732,4.204
		c3.373,2.807,5.061,6.516,5.061,11.127c0,4.975-1.705,8.934-5.115,11.877c-3.406,2.945-9.265,4.418-17.57,4.418H49.167z
		 M195.776,225.017c3.551-2.275,8.874-3.406,15.973-3.406c5.539,0,9.411,1.065,11.611,3.194c2.2,2.129,3.302,5.855,3.302,11.183
		c-5.398,2.129-10.509,3.851-15.337,5.165c-4.828,1.314-15.37,3.605-31.629,6.866c-13.561,2.703-22.859,6.82-27.9,12.359
		c-5.044,5.535-7.564,12.6-7.564,21.191c0,9.158,3.497,16.859,10.492,23.105c6.995,6.25,17.233,9.373,30.723,9.373
		c10.151,0,19.063-1.564,26.731-4.682c5.61-2.346,11.253-6.246,16.934-11.719c0.495,3.268,0.994,5.662,1.489,7.189
		c0.499,1.525,1.563,3.746,3.198,6.658h40.679c-2.271-4.691-3.743-8.539-4.421-11.557c-0.674-3.016-1.011-7.191-1.011-12.514V237.48
		c0-5.327-1.064-10.92-3.193-16.775c-2.129-5.855-5.04-10.384-8.732-13.578c-5.257-4.616-11.823-7.647-19.704-9.103
		s-18.314-2.188-31.31-2.188c-8.092,0-15.62,0.607-22.577,1.813c-6.957,1.206-12.426,2.911-16.401,5.111
		c-5.535,3.053-9.776,6.658-12.725,10.808c-2.944,4.154-5.198,9.852-6.762,17.092l41.427,4.366
		C190.773,230.128,193.007,226.792,195.776,225.017z M226.662,264.738c0,5.395-0.869,9.785-2.612,13.154
		c-1.738,3.373-4.682,6.229-8.836,8.574c-4.155,2.342-8.646,3.51-13.474,3.51c-4.612,0-8.109-1.08-10.488-3.242
		c-2.379-2.172-3.568-4.957-3.568-8.363c0-2.982,1.206-5.643,3.622-7.988c2.341-2.271,7.914-4.574,16.717-6.92
		c6.462-1.631,12.675-3.514,18.639-5.648V264.738z M349.695,279.664c0-3.119-1.63-5.531-4.898-7.227
		c-2.341-1.207-8.554-2.695-18.634-4.467c-15.05-2.629-25.505-5.057-31.364-7.291c-5.854-2.232-10.791-6.008-14.8-11.331
		c-4.013-5.315-6.018-11.378-6.018-18.189c0-7.448,2.162-13.865,6.496-19.254c4.328-5.394,10.292-9.419,17.89-12.076
		c7.598-2.662,17.786-3.992,30.565-3.992c13.49,0,23.445,1.031,29.87,3.09s11.785,5.252,16.081,9.585
		c4.296,4.329,7.864,10.188,10.704,17.57l-41.106,4.046c-1.065-3.618-2.841-6.28-5.327-7.984c-3.406-2.271-7.523-3.41-12.352-3.41
		c-4.898,0-8.467,0.869-10.704,2.603c-2.237,1.738-3.355,3.851-3.355,6.33c0,2.77,1.422,4.857,4.263,6.271
		c2.84,1.422,9.016,2.695,18.526,3.834c14.413,1.63,25.134,3.901,32.162,6.803c7.031,2.911,12.408,7.062,16.135,12.451
		c3.726,5.389,5.593,11.311,5.593,17.766c0,6.527-1.971,12.875-5.913,19.045c-3.938,6.168-10.151,11.078-18.635,14.734
		c-8.483,3.65-20.04,5.477-34.665,5.477c-20.659,0-35.372-2.943-44.143-8.842c-8.767-5.889-14.393-14.268-16.88-25.129l43.024-4.047
		c1.775,5.111,4.258,8.766,7.456,10.971c3.193,2.195,7.456,3.301,12.779,3.301c5.822,0,10.33-1.238,13.523-3.725
		C348.457,284.738,349.695,282.434,349.695,279.664z M511.5,239.609v71.885h-43.557v-62.196c0-7.099-1.313-12.126-3.942-15.07
		c-2.624-2.944-6.316-4.417-11.074-4.417c-5.252,0-9.515,1.988-12.778,5.963c-3.265,3.976-4.899,11.112-4.899,21.404v54.315h-43.344
		V155.37h43.344v57.508c5.893-6.104,11.748-10.471,17.57-13.099c5.821-2.628,12.708-3.942,20.663-3.942
		c11.785,0,21.067,3.584,27.846,10.754C508.11,213.768,511.5,224.771,511.5,239.609z M0.5,335.338h511v21.293H0.5V335.338z"></path></g></svg>