<?xml version="1.0" encoding="iso-8859-1"?>
<!DOCTYPE svg PUBLIC "-//W3C//DTD SVG 1.1//EN" "http://www.w3.org/Graphics/SVG/1.1/DTD/svg11.dtd">
<svg  version="1.1" xmlns="http://www.w3.org/2000/svg" xmlns:xlink="http://www.w3.org/1999/xlink" x="0px" y="0px" width="512px"
	 height="512px" viewBox="0 0 512 512" enable-background="new 0 0 512 512" xml:space="preserve"><g id="5151e0c8492e5103c096af88a51ec286"><path display="inline" d="M194.734,246.879h121.768c33.9,0,60.956-27.908,60.956-61.95V68.846c0-33.035-27.87-57.855-60.956-63.371
		c-20.943-3.484-42.673-5.069-63.51-4.971c-20.845,0.097-40.74,1.874-58.258,4.971c-51.586,9.117-60.952,28.191-60.952,63.371
		v46.463H255.69v15.486H133.782h-45.75c-35.434,0-66.459,21.295-76.158,61.808c-11.192,46.435-11.694,75.409,0,123.898
		c8.666,36.088,29.359,61.807,64.79,61.807h41.917v-55.699C118.581,282.37,153.39,246.879,194.734,246.879z M187.063,84.333
		c-12.636,0-22.877-10.355-22.877-23.161c0-12.849,10.241-23.3,22.877-23.3c12.594,0,22.873,10.451,22.873,23.3
		C209.936,73.979,199.658,84.333,187.063,84.333z M499.37,192.603c-8.761-35.27-25.484-61.808-60.96-61.808h-45.75v54.134
		c0,41.972-35.582,77.292-76.158,77.292H194.734c-33.349,0-60.952,28.547-60.952,61.954v116.079
		c0,33.037,28.726,52.476,60.952,61.943c38.589,11.353,75.59,13.409,121.768,0c30.688-8.876,60.956-26.764,60.956-61.943v-46.461
		H255.69v-15.486h121.768h60.952c35.431,0,48.638-24.715,60.96-61.807C512.092,278.314,511.549,241.589,499.37,192.603z
		 M324.178,424.766c12.64,0,22.873,10.356,22.873,23.156c0,12.85-10.233,23.305-22.873,23.305
		c-12.595,0-22.877-10.455-22.877-23.305C301.301,435.122,311.583,424.766,324.178,424.766z"></path></g></svg>