<?xml version="1.0" encoding="iso-8859-1"?>
<!DOCTYPE svg PUBLIC "-//W3C//DTD SVG 1.1//EN" "http://www.w3.org/Graphics/SVG/1.1/DTD/svg11.dtd">
<svg  version="1.1" xmlns="http://www.w3.org/2000/svg" xmlns:xlink="http://www.w3.org/1999/xlink" x="0px" y="0px" width="512px"
	 height="512px" viewBox="0 0 512 512" enable-background="new 0 0 512 512" xml:space="preserve"><g id="5151e0c8492e5103c096af88a51edbbc"><path display="inline" d="M323.306,282.457c-9.298,34.689-44.953,55.279-79.648,45.977c-34.687-9.291-55.275-44.954-45.981-79.645
		c9.298-34.69,44.954-55.275,79.64-45.981C312.016,212.106,332.604,247.758,323.306,282.457z M511.5,7.444v497.111H0.5V7.444H511.5z
		 M404.655,316.432c-1.031-1.393-2.649-3.352-4.483-5.231c-19.059-19.558-33.297-42.649-40.978-68.235
		c-0.35-1.193-0.703-2.379-1.015-3.57c-0.329-1.201-0.62-2.429-0.92-3.643c-6.134-25.979-5.385-53.113,1.381-79.567
		c0,0,1.027-4.37,1.294-6.176c5.68-33.42-14.904-66.295-48.306-75.246c-34.038-9.119-68.936,9.97-80.06,42.899
		c-0.462,1.229-1.393,4.331-1.41,4.381c-7.319,25.935-20.031,49.486-37.996,68.762c-20.394,21.423-46.343,36.646-75.423,44.436
		c-35.435,9.496-56.485,45.981-46.983,81.425c9.502,35.438,45.931,56.48,81.382,46.975c26.46-6.754,53.595-7.519,79.578-1.373
		c1.21,0.3,2.424,0.595,3.634,0.924c1.21,0.315,2.408,0.674,3.61,1.015c25.571,7.672,48.692,21.902,68.225,40.978
		c2.399,2.404,4.475,4.093,6.412,5.461c26.257,20.011,63.617,18.476,87.562-5.461C424.454,380.897,425.859,342.522,404.655,316.432z
		"></path></g></svg>