<?xml version="1.0" encoding="iso-8859-1"?>
<!DOCTYPE svg PUBLIC "-//W3C//DTD SVG 1.1//EN" "http://www.w3.org/Graphics/SVG/1.1/DTD/svg11.dtd">
<svg  version="1.1" xmlns="http://www.w3.org/2000/svg" xmlns:xlink="http://www.w3.org/1999/xlink" x="0px" y="0px" width="512px"
	 height="512px" viewBox="0 0 512 512" enable-background="new 0 0 512 512" xml:space="preserve"><g id="5151e0c8492e5103c096af88a51f757a"><path display="inline" d="M142.631,105.33c-10.388-9.689-11.428-19.736-3.119-29.775c3.464-4.15,7.619-5.54,35.318-9.694
		c12.463-2.075,30.121,4.154,30.121,10.388c0,4.154-3.805,4.845-20.427,2.77c-12.808-1.385-22.851-0.694-27.7,1.73
		c-8.658,4.845-9.003,8.309-1.385,15.927c8.309,8.309,41.203,5.194,60.594-5.884c8.304-4.849,20.771-12.118,28.39-16.277
		c7.269-4.15,21.117-9.693,30.815-12.118c57.819-14.888,120.144,2.424,120.144,32.894c0,19.046-27.354,32.199-64.399,31.509
		c-21.815-0.345-31.854-2.773-40.167-10.388c-8.309-6.924-7.963-10.043,2.425-16.622c7.964-5.19,8.658-4.845,15.927,1.73
		c14.197,13.157,58.515,7.618,58.515-6.92c0-9.349-11.772-14.197-34.278-14.197c-25.275-0.345-43.623,4.849-82.056,23.545
		C205.296,126.456,165.478,126.8,142.631,105.33z M35.295,134.07c13.852,11.772,39.818,21.121,83.1,29.775
		c51.241,10.043,78.592,12.122,157.533,11.772c98.333-0.345,169.311-11.427,212.593-32.894
		c26.656-13.499,29.426-32.545,6.574-46.047c-10.038-5.884-10.388-5.884-8.309,0.694c3.115,10.039-0.69,17.308-13.503,25.275
		c-12.463,7.619-54.36,19.387-80.326,22.506c-9.353,1.036-20.427,2.766-25.275,3.805c-18.352,4.504-164.461,3.809-199.085-0.694
		c-57.82-7.614-97.638-20.427-109.062-35.314c-6.583-7.963-6.583-9.348-1.734-16.967c6.233-9.348,3.809-9.689-10.388-2.075
		C22.142,107.064,18.329,119.876,35.295,134.07z M499.943,165.924c-18.696,12.463-48.472,22.161-85.865,28.045
		c-6.924,1.036-15.931,2.77-20.085,3.464c-33.235,6.579-170.346,9.344-218.473,3.809c-68.902-7.618-120.834-21.815-139.88-38.433
		l-7.959-7.273l2.079,14.542c1.036,7.964,5.19,26.315,9.344,40.508l7.618,25.97l-17.657,19.042
		c-38.088,41.893-38.088,95.558,0,128.453c22.506,19.042,60.24,23.196,84.48,9.348c5.885-3.459,5.54-3.809-3.114-4.154
		c-18.701,0-47.782-20.081-61.629-41.548c-7.273-11.078-12.813-36.703-11.083-49.86c1.734-11.424,13.852-36.699,17.657-36.699
		c1.389,0,5.889,7.619,10.043,16.622c4.5,9.349,19.736,33.925,34.624,54.701c23.887,33.584,42.242,68.208,42.587,79.985
		c0,8.653,27.005,25.616,52.971,33.925c22.855,7.27,33.584,8.658,72.367,8.658c83.786,0,122.909-18.007,135.372-62.319
		c3.119-10.389,12.468-28.395,20.776-39.822c42.588-58.86,50.896-73.049,65.784-114.255c4.849-13.502,11.078-35.318,14.542-48.472
		c3.119-13.502,6.233-26.315,6.924-28.39C512.407,159.345,507.213,161.079,499.943,165.924z"></path></g></svg>