<?xml version="1.0" encoding="iso-8859-1"?>
<!DOCTYPE svg PUBLIC "-//W3C//DTD SVG 1.1//EN" "http://www.w3.org/Graphics/SVG/1.1/DTD/svg11.dtd">
<svg  version="1.1" xmlns="http://www.w3.org/2000/svg" xmlns:xlink="http://www.w3.org/1999/xlink" x="0px" y="0px" width="512px"
	 height="512px" viewBox="0 0 512 512" enable-background="new 0 0 512 512" xml:space="preserve"><g id="5151e0c8492e5103c096af88a51fee66"><path display="inline" d="M410.162,0.5c0,40.592-195.902,71.846-308.324,79.192v115.43c47.487,3.101,109.829,10.708,166.048,21.284
		c-56.215,10.568-118.568,17.987-166.048,21.088v115.433c47.427,3.102,109.69,10.531,165.856,21.092
		c-56.167,10.554-118.43,17.987-165.856,21.092V511.5l55.801-8.055c103.905-15.649,218.559-45.225,252.523-71.134V315.727
		c0-7.261-13.309-15.138-34.709-23.199c15.002-6.075,26.993-12.135,34.709-18.021V158.117c0-7.227-13.14-15.19-34.321-23.204
		c14.848-6.022,26.65-12.176,34.321-18.024V0.5z M375.513,304.947c15.364,6.097,20.889,10.226,22.722,11.965
		c-1.234,2.461-5.965,7.558-19.312,14.031c-2.148,1.027-4.505,2.059-6.522,2.932l0.016,0.038
		c-23.083,9.929-59.016,19.661-104.733,28.341c-22.417-4.171-46.535-7.983-70.811-11.242
		C265.142,338.783,332.588,321.681,375.513,304.947z M375.894,147.338c15.13,6.052,20.557,10.188,22.349,11.927
		c-0.93,1.863-3.906,5.367-11.441,9.887l-0.034-0.057c-1.456,0.877-3.207,1.871-4.9,2.789
		c-22.007,11.472-61.262,22.789-113.604,32.755c-22.567-4.211-46.737-8.05-70.999-11.333
		C265.898,181.162,332.667,164.248,375.894,147.338z"></path></g></svg>