<?xml version="1.0" encoding="iso-8859-1"?>
<!DOCTYPE svg PUBLIC "-//W3C//DTD SVG 1.1//EN" "http://www.w3.org/Graphics/SVG/1.1/DTD/svg11.dtd">
<svg  version="1.1" xmlns="http://www.w3.org/2000/svg" xmlns:xlink="http://www.w3.org/1999/xlink" x="0px" y="0px" width="512px"
	 height="512px" viewBox="0 0 512 512" enable-background="new 0 0 512 512" xml:space="preserve"><g id="5151e0c8492e5103c096af88a51f2639"><path display="inline" d="M317.616,299.695c-13.419,12.875-25.163,21.957-34.687,26.502c-10.021,4.753-20.372,7.153-30.748,7.153
		c-12.68,0-22.976-4.038-30.574-12.015c-7.61-7.955-11.465-19.366-11.465-33.934l0.985-14.58l2.017-0.349
		c35.555-5.997,62.374-12.858,79.681-20.418c17.121-7.46,29.617-16.339,37.148-26.378c7.473-9.956,11.245-19.973,11.245-29.704
		c0-11.811-4.475-21.267-13.703-28.985c-9.257-7.706-22.609-11.611-39.659-11.611c-23.691,0-46.11,5.531-66.637,16.438
		c-20.485,10.9-36.87,26-48.692,44.883c-11.777,18.88-17.761,38.874-17.761,59.4c0,22.918,7.065,41.29,20.992,54.576
		c13.981,13.324,33.514,20.057,58.049,20.057c17.428,0,33.917-3.497,49.017-10.408c14.438-6.604,29.372-18.057,44.455-33.501
		C324.407,304.702,319.65,301.2,317.616,299.695z M213.495,257.956c5.29-29.878,14.625-53.69,27.729-70.849
		c9.27-12.28,19.537-18.497,30.537-18.497c5.817,0,10.745,2.237,14.634,6.679c3.768,4.333,5.692,10.296,5.692,17.707
		c0,17.175-7.718,32.802-22.942,46.513c-11.037,9.839-28.76,17.046-52.651,21.412l-3.656,0.674L213.495,257.956z M267.439,426.04
		C138.471,446.898,24.59,404.448,3.797,323.037c-13.291-51.994,14.435-108.392,68.154-153.895l-41.02-24.269l153.878-39.697
		c-1.443,0.491-3.293,1.322-5.373,2.312c2.033-0.757,3.963-1.609,6.017-2.345C103.332,142.84,55.504,225.449,75.702,304.481
		C95.884,383.502,177.412,432.743,267.439,426.04z M440.052,342.844l41.016,24.273l-153.874,39.693
		c1.435-0.499,3.294-1.314,5.369-2.329c-2.029,0.773-3.959,1.618-6.01,2.366c82.127-37.696,129.942-120.311,109.748-199.347
		C416.124,128.485,334.588,79.244,244.56,85.968c128.964-20.88,242.846,21.587,263.646,102.978
		C521.488,240.94,493.771,297.342,440.052,342.844z"></path></g></svg>