<?xml version="1.0" encoding="iso-8859-1"?>
<!DOCTYPE svg PUBLIC "-//W3C//DTD SVG 1.1//EN" "http://www.w3.org/Graphics/SVG/1.1/DTD/svg11.dtd">
<svg  version="1.1" xmlns="http://www.w3.org/2000/svg" xmlns:xlink="http://www.w3.org/1999/xlink" x="0px" y="0px" width="512px"
	 height="512px" viewBox="0 0 512 512" enable-background="new 0 0 512 512" xml:space="preserve"><g id="5151e0c8492e5103c096af88a51e5ef0"><path display="inline" d="M215.6,283.804l82.983,25.085c-5.576,23.274-14.354,42.712-26.336,58.314
		c-11.988,15.611-26.864,27.388-44.629,35.331c-17.77,7.942-40.379,11.914-67.838,11.914c-33.301,0-60.511-4.841-81.624-14.518
		c-21.117-9.681-39.331-26.702-54.664-51.075C8.164,324.487,0.5,293.29,0.5,255.268c0-50.69,13.486-89.649,40.446-116.875
		c26.964-27.224,65.114-40.841,114.451-40.841c38.604,0,68.948,7.81,91.03,23.413c22.094,15.609,38.496,39.581,49.228,71.907
		l-83.611,18.603c-2.923-9.332-5.993-16.164-9.195-20.485c-5.298-7.244-11.777-12.819-19.445-16.721
		c-7.665-3.899-16.231-5.855-25.708-5.855c-21.466,0-37.909,8.633-49.337,25.893c-8.633,12.808-12.954,32.921-12.954,60.336
		c0,33.965,5.153,57.245,15.461,69.845c10.313,12.592,24.81,18.888,43.486,18.888c18.11,0,31.8-5.086,41.074-15.262
		C204.696,317.949,211.42,303.17,215.6,283.804z M463.469,235.977v-48.031h-40.296v48.031h-57.804v-48.031h-40.296v48.031h-47.781
		v40.296h47.781v47.782h40.296v-47.782h57.804v47.782h40.296v-47.782H511.5v-40.296H463.469z"></path></g></svg>