<?xml version="1.0" encoding="iso-8859-1"?>
<!DOCTYPE svg PUBLIC "-//W3C//DTD SVG 1.1//EN" "http://www.w3.org/Graphics/SVG/1.1/DTD/svg11.dtd">
<svg  version="1.1" xmlns="http://www.w3.org/2000/svg" xmlns:xlink="http://www.w3.org/1999/xlink" x="0px" y="0px" width="512px"
	 height="512px" viewBox="0 0 512 512" enable-background="new 0 0 512 512" xml:space="preserve"><g id="e6c6b53d3c8160b22dad35a0f71041fc"><path display="inline" d="M471,290.083L511.5,256L471,221.919l28.058-44.894l-49.079-19.84l12.733-51.381l-52.813-3.703
		l-3.701-52.811l-51.383,12.729l-19.844-49.077l-44.888,28.06L256,0.5l-34.081,40.502l-44.894-28.06l-19.84,49.077l-51.381-12.731
		l-3.705,52.809L49.29,105.8l12.729,51.383l-49.075,19.844L41,221.919L0.5,256L41,290.083l-28.056,44.892l49.075,19.84
		l-12.733,51.383l52.813,3.701l3.701,52.813l51.385-12.733l19.844,49.079l44.89-28.062L256,511.5l34.083-40.504l44.892,28.062
		l19.84-49.079l51.383,12.733l3.701-52.809l52.813-3.706l-12.733-51.383l49.079-19.844L471,290.083z M441.998,335.074l-17.129,6.929
		l4.441,17.936l6.642,26.793l-27.542,1.934l-18.456,1.294l-1.293,18.455l-1.934,27.538l-26.789-6.642l-17.936-4.441l-6.929,17.129
		l-10.33,25.555l-23.375-14.613l-15.673-9.797l-11.906,14.143L256,478.432l-17.79-21.143l-11.902-14.146l-15.676,9.797
		l-23.375,14.613l-10.334-25.555l-6.926-17.129l-17.934,4.441l-26.795,6.642l-1.93-27.542l-1.293-18.456l-18.458-1.297l-27.542-1.93
		l6.639-26.789l4.445-17.936L70,335.074l-25.554-10.33l14.611-23.375l9.795-15.678L54.71,273.794L33.569,256l21.14-17.79
		l14.143-11.902l-9.795-15.673l-14.611-23.379l25.556-10.334l17.127-6.926l-4.443-17.932l-6.637-26.795l27.54-1.932l18.456-1.295
		l1.295-18.454l1.932-27.542l26.793,6.639L170,87.13L176.926,70l10.33-25.554l23.379,14.611l15.673,9.797L238.21,54.71L256,33.569
		l17.794,21.142l11.902,14.146l15.673-9.8l23.371-14.611l10.334,25.556l6.929,17.127l17.932-4.443l26.793-6.637l1.934,27.542
		l1.293,18.456l18.456,1.295l27.542,1.932l-6.642,26.792L424.865,170l17.133,6.926l25.559,10.33l-14.613,23.379l-9.793,15.673
		l14.139,11.902L478.432,256l-21.143,17.794l-14.143,11.902l9.797,15.673l14.613,23.371L441.998,335.074z M302.168,360.732
		l0.524,36.965c0,0-62.414,7.228-104.806-2.149c-61.257-13.549-68.167-55.604-68.167-55.604l-5.543-29.11
		c2.551,8.351,15.364,38.268,69.736,48.609C235.816,367.415,296.704,361.307,302.168,360.732z M245.97,162.714l27.505,42.908
		l114.667,28.228l-1.838,12.958l-104.929-28.862l19.188,29.941c-14.105,3.071-29.192,5.188-44.914,6.15
		c-76.689,4.687-141.627-19.666-152.895-55.604l12.419,65.177c8.594,12.325,28.091,29.688,71.473,36.836
		c41.253,6.799,99.17,2.462,116.187,0.948l0.042,10.08c0,0-69.809,7.419-117.05-0.731c-40.922-7.053-59.893-23.787-68.541-36.067
		l4.68,24.573c0.144,0.249,0.274,0.49,0.42,0.74c2.085,7.235,14.349,38.628,72.246,49.162c37.959,6.911,91.02,2.978,107.396,1.497
		l-0.478-33.335l78.592,28.502l7.132-17.516l12.151-143.217c-1.023,3.212-2.429,6.383-4.238,9.492L245.97,162.714z M381.255,298.358
		l-79.977-21.998l-0.05-11.111l81.864,20.151L381.255,298.358z M101.053,189.505l1.701,8.929
		C101.843,195.527,101.24,192.555,101.053,189.505z"></path></g></svg>