<?xml version="1.0" encoding="iso-8859-1"?>
<!DOCTYPE svg PUBLIC "-//W3C//DTD SVG 1.1//EN" "http://www.w3.org/Graphics/SVG/1.1/DTD/svg11.dtd">
<svg  version="1.1" xmlns="http://www.w3.org/2000/svg" xmlns:xlink="http://www.w3.org/1999/xlink" x="0px" y="0px" width="512px"
	 height="512px" viewBox="0 0 512 512" enable-background="new 0 0 512 512" xml:space="preserve"><g id="5151e0c8492e5103c096af88a51ff8b4"><path display="inline" d="M91.497,226.895c0-25.974-12.343-42.55-39.419-42.55H0.5v143.311h51.578
		c23.396,0,39.419-14.181,39.419-38.316c0-13.632-1.655-23.392-12.155-33.339C89.102,247.338,91.497,237.578,91.497,226.895z
		 M52.078,309.233h-33.16v-44.022h33.16c16.763,0,21,8.658,21,24.128C73.079,303.337,65.34,309.233,52.078,309.233z M52.078,246.789
		h-33.16v-44.026h33.16c16.763,0,21,8.658,21,24.132C73.079,240.893,65.34,246.789,52.078,246.789z M160.574,193.734
		c-1.289-4.786-3.497-9.39-9.573-9.39c-5.897,0-7.922,4.416-9.398,9.39l-36.104,124.71c-1.289,4.421,3.685,9.211,8.841,9.211
		c5.709,0,8.658-4.79,9.947-9.211l7.003-22.103h39.235l6.812,22.103c1.293,4.421,4.237,9.211,9.951,9.211
		c5.157,0,10.13-4.79,8.841-9.211L160.574,193.734z M136.446,277.92l14.368-49.919h0.37l14.185,49.919H136.446z M228.919,205.345
		c0,1.655,2.025,3.868,2.766,4.974l63.364,81.232c3.685,4.791,6.449,9.024,6.449,15.287c0,13.819-10.5,20.817-23.213,20.817h-40.524
		c-6.999,0-13.079-1.289-18.605-5.896c-4.974-4.051-8.658-10.684-8.658-17.129c0-5.893,3.314-11.054,9.764-11.054
		c5.339,0,8.658,4.421,8.658,9.395c0,5.526,2.949,6.263,8.105,6.263h39.972c1.477,0,6.08,0.553,6.08-2.208
		c0-1.477-2.578-4.237-3.314-5.344l-63.185-81.232c-3.867-4.974-6.08-8.658-6.08-15.104c0-7.368,3.501-13.631,9.764-17.686
		c5.156-3.314,9.394-3.314,15.291-3.314h39.053c6.994,0,12.892,1.472,18.235,6.08c4.786,4.233,8.657,11.049,8.657,17.499
		c0,5.893-2.948,10.679-9.581,10.679c-5.522,0-8.841-3.497-8.841-8.654c0-6.267-3.132-7.186-8.841-7.186h-39.053
		C233.157,202.763,228.919,202.21,228.919,205.345z M370.206,202.763v106.471h27.08c4.79,0,9.211,2.578,9.211,9.211
		s-4.421,9.211-9.211,9.211h-72.579c-4.786,0-9.211-2.578-9.211-9.211s4.425-9.211,9.211-9.211h27.08V202.763h-27.08
		c-4.786,0-9.211-2.578-9.211-9.211c0-6.629,4.425-9.207,9.211-9.207h72.579c4.79,0,9.211,2.578,9.211,9.207
		c0,6.633-4.421,9.211-9.211,9.211H370.206z M511.5,318.444c0,6.633-4.978,9.211-9.211,9.211h-32.241
		c-13.814,0-21.732-5.526-27.629-17.499l-16.946-34.266c-3.132-6.263-4.974-12.156-4.974-19.337c0-8.105,1.472-13.083,5.156-20.448
		l16.946-34.079c6.267-12.708,14.185-17.682,28.369-17.682h31.318c4.05,0,9.211,2.208,9.211,9.207c0,6.633-4.978,9.211-9.211,9.211
		h-30.765c-7.923,0-9.212,0.736-12.713,7.739l-16.027,32.05c-2.391,4.974-3.867,8.288-3.867,14.002
		c0,5.156,1.659,8.287,3.867,12.708l15.661,31.871c3.685,7.552,5.527,8.101,13.814,8.101h30.029
		C506.339,309.233,511.5,311.445,511.5,318.444z"></path></g></svg>