<?xml version="1.0" encoding="iso-8859-1"?>
<!DOCTYPE svg PUBLIC "-//W3C//DTD SVG 1.1//EN" "http://www.w3.org/Graphics/SVG/1.1/DTD/svg11.dtd">
<svg  version="1.1" xmlns="http://www.w3.org/2000/svg" xmlns:xlink="http://www.w3.org/1999/xlink" x="0px" y="0px" width="512px"
	 height="512px" viewBox="0 0 512 512" enable-background="new 0 0 512 512" xml:space="preserve"><g id="5151e0c8492e5103c096af88a51ff1a6"><path display="inline" d="M322.903,218.752h-77.357c-37.023,0-37.527,53.616,0,53.616c51.549,1.422,78.821,36.736,78.821,78.284
		c0,44.534-32.898,78.284-73.507,78.284l-170.77,1.647c-40.084-1.007-76.858-30.512-79.59-82.202l0.453-183.828
		c0-38.708,52.714-39.327,52.714,0.433l0.998,177.287c0,25.088,15.453,36.262,35.983,36.262h151.683
		c36.021,0,36.84-53.329-0.354-53.329c-47.819,0-78.214-38.416-78.646-82.692c-0.428-44.276,36.458-78.525,77.045-78.525
		l82.526-0.998C357.203,162.99,358.089,218.752,322.903,218.752z M434.452,81.416c0,0-203.806,0-262.966,0
		c-58.153,0-88.868,47.05-88.868,86.049c0,39.997,1.002,158.382,1.002,158.382c0,36.021,52.543,36.579,52.543,0V170.451
		c-0.499-19.013,11.07-34.271,36.928-34.271h262.549c35.61,0,34.537,53.616,0,53.616c-46.525,0.532-80.783,36.009-80.783,68.541
		l-1.002,93.684c0,36.237,52.547,34.524,52.547-2.004l0.715-72.367c0-21.566,9.769-34.516,32.841-34.516
		c31.063,0,71.36-31.571,71.535-84.11C511.996,120.977,485.481,81.915,434.452,81.416z"></path></g></svg>