<?xml version="1.0" encoding="iso-8859-1"?>
<!DOCTYPE svg PUBLIC "-//W3C//DTD SVG 1.1//EN" "http://www.w3.org/Graphics/SVG/1.1/DTD/svg11.dtd">
<svg  version="1.1" xmlns="http://www.w3.org/2000/svg" xmlns:xlink="http://www.w3.org/1999/xlink" x="0px" y="0px" width="512px"
	 height="512px" viewBox="0 0 512 512" enable-background="new 0 0 512 512" xml:space="preserve"><g id="5151e0c8492e5103c096af88a51f4f8f"><path display="inline" d="M367.271,95.532c-26.104-16.261-50.725-22.656-75.346-38.895C276.691,46.292,255.52,21.671,237.797,0.5
		c-3.449,33.984-13.795,47.756-25.625,57.6c-25.1,19.709-40.858,25.602-62.511,37.432c-18.203,9.342-117.164,68.426-117.164,195.434
		S139.315,511.5,257.965,511.5c118.647,0,221.538-86.148,221.538-216.605C479.503,164.438,383.029,105.376,367.271,95.532z
		 M67.813,192.441c-3.929-6.875,1.484-22.154,19.731-42.321c1.658-1.877,3.71-3.82,5.98-5.806
		c25.013-27.916,59.542-46.905,70.324-52.296c4.889-2.466,26.585-12.79,48.717-29.531c13.271-10.346,23.136-20.189,27.588-52.689
		c0.35,1.288,0.699,2.532,1.048,3.754c5.719,18.05,4.846,27.523,4.846,31.692c0,4.431-2.488,16.261-10.346,22.176
		c-3.448,2.444-4.452,4.409-4.452,4.911c0,1.964,4.452,3.449,4.452,7.879c0,5.413-2.444,16.239-28.549,42.343
		c-26.104,26.083-63.515,49.219-92.544,63.493C85.535,200.321,71.785,199.338,67.813,192.441z M370.108,465.185
		c-2.488,2.466-25.101,18.203-51.685,20.669c-26.585,2.467-62.555,3.951-84.207-15.736c-3.448-3.448-2.444-8.382,0-10.346
		c2.488-1.965,4.453-3.448,7.378-3.448c2.968,0,2.488,0,3.972,0.981c9.822,7.88,24.621,14.274,56.095,14.274
		c31.517,0,53.649-8.861,63.515-16.238c4.452-3.449,6.417-0.502,6.897,1.462C372.553,458.789,373.557,461.735,370.108,465.185z
		 M283.938,420.375c5.413-4.911,14.274-12.791,22.656-16.239c8.381-3.448,12.79-2.946,20.691-2.946
		c7.857,0,16.238,0.48,22.132,4.409c5.894,3.95,9.386,12.812,11.35,17.744c1.965,4.911,0,7.88-3.973,9.844
		c-3.448,1.965-3.929,0.982-7.377-5.413c-3.448-6.417-6.373-12.812-23.616-12.812s-22.655,5.915-31.037,12.812
		c-8.338,6.897-11.306,9.342-14.274,5.413C277.564,429.236,278.524,425.308,283.938,420.375z M414.416,424.325
		c-17.723-1.484-53.169-56.617-75.825-57.6c-28.549-0.982-90.579,59.564-139.296,59.564c-29.553,0-38.415-4.431-48.28-10.826
		c-14.755-10.346-22.132-26.104-21.651-47.756c0.479-38.394,36.45-74.341,81.718-74.821c57.622-0.502,97.477,57.098,126.506,56.596
		c24.62-0.48,71.896-48.738,95.032-48.738c24.62,0,31.518,25.603,31.518,40.859c0,15.278-4.933,42.845-16.719,60.066
		C435.588,418.912,428.21,425.308,414.416,424.325z"></path></g></svg>