<?xml version="1.0" encoding="iso-8859-1"?>
<!DOCTYPE svg PUBLIC "-//W3C//DTD SVG 1.1//EN" "http://www.w3.org/Graphics/SVG/1.1/DTD/svg11.dtd">
<svg  version="1.1" xmlns="http://www.w3.org/2000/svg" xmlns:xlink="http://www.w3.org/1999/xlink" x="0px" y="0px" width="512px"
	 height="512px" viewBox="0 0 512 512" enable-background="new 0 0 512 512" xml:space="preserve"><g id="e6c6b53d3c8160b22dad35a0f7102781"><path display="inline" d="M161.501,129.132c-3.527-63.7,25.063-104.997,68.255-128.633c13.634,7.573,43.881-3.829,43.314,18.376
		c-0.53,20.81-34.111,14.148-44.627,1.311c-38.01,20.195-56.441,54.408-56.441,101.07c0,35.3,14.58,67.958,26.252,97.131
		c5.159,12.897,9.17,27.861,18.376,43.317c9.387,15.756,38.757,37.665,14.439,44.623c-3.063,0-6.126,0-9.189,0
		c-12.779-24.624-23.802-53.168-35.439-82.69C174.979,194.564,163.424,163.835,161.501,129.132z M361.556,465.551
		c-19.555,23.124-57.061,45.377-93.195,45.941c-30.981,0.481-75.375-18.57-94.505-35.441c-23.97-21.138-46.852-63.73-49.878-98.441
		c-2.242-25.723,2.351-49.906,19.689-65.631c14.306-12.975,35.716-16.134,54.604-24.683c3.842,8.645,7.793,17.042,11.964,25.078
		c2.256,4.347,6.748,7.08,11.646,7.08h9.189c1.222,0,2.437-0.173,3.612-0.51c12.058-3.452,16.471-10.359,18.049-15.549
		c3.266-10.728-2.7-20.584-10.254-30.065c15.197-5.342,24.837-15.315,37.701-19.106c16.072-4.735,39.357,0.58,51.189,6.565
		C392.461,291.69,407.906,410.744,361.556,465.551z M322.178,267.349c-11.678-12.732-50.392-11.752-48.567,11.818
		c11.674-0.847,28.18-0.458,42.004-5.252C310.317,271.479,320.928,272.177,322.178,267.349z"></path></g></svg>