<?xml version="1.0" encoding="iso-8859-1"?>
<!DOCTYPE svg PUBLIC "-//W3C//DTD SVG 1.1//EN" "http://www.w3.org/Graphics/SVG/1.1/DTD/svg11.dtd">
<svg  version="1.1" xmlns="http://www.w3.org/2000/svg" xmlns:xlink="http://www.w3.org/1999/xlink" x="0px" y="0px" width="512px"
	 height="512px" viewBox="0 0 512 512" enable-background="new 0 0 512 512" xml:space="preserve"><g id="5151e0c8492e5103c096af88a51fb3d1"><path display="inline" d="M256.017,0.554C114.947,0.554,0.5,114.863,0.5,256.021c0,141.074,114.447,255.426,255.517,255.426
		c141.065,0,255.483-114.352,255.483-255.426C511.5,114.863,397.082,0.554,256.017,0.554z M203.54,379.471
		c-8.275,1.722-17.233,7.785-22.335,11.686c-0.544-0.399-1.085-0.79-1.618-1.189l5.905-10.496c0,0,8.321-8.85,26.374-8.85
		c18.052,0,31.904,7.452,31.904,7.452S218.291,376.377,203.54,379.471z M344.988,207.079l12.971-8.949l16.975,84.926L247.833,311.57
		l2.092,3.755c3.976,2.545,14.272,9.503,21.004,17.362c8.505,9.901,26.897,18.422,42.476,35.397
		c15.578,16.979,29.726,59.454,29.726,59.454s-8.488,15.562-19.808,22.635c-11.319,7.091-21.237,9.923-21.237,9.923l-41.552-91.404
		c-13.828-2.703-30.811-5.107-45.836-4.575c-32.133,1.123-38.898,11.187-38.898,11.187l-4.03,8.271
		c-6.97-6.184-13.232-13.141-18.664-20.734l-33.214,13.395l-22.211-27.5l44.051-5.303c-0.491-1.039-0.965-2.083-1.422-3.135
		l-47.673-0.279l-11.253-37.447l51.375,14.172c-0.312-1.479-0.603-2.973-0.865-4.474l-55.042-21.783l3.477-43.897l49.919,37.178
		c0.108-1.959,0.258-3.905,0.461-5.839l-52.967-44.671l19.142-44.813l40.974,59.018c0.665-1.779,1.368-3.538,2.112-5.281
		l-40.113-79.07l45.112-43.489l18.202,86.913c0.953-1.023,1.921-2.038,2.907-3.031l-8.101-100.429l64.428-25.571l-18.497,99.988
		c1.988-0.874,4.004-1.705,6.046-2.479l32.873-109.96l78.089-0.558L257.56,167.036c2.62,0.075,5.219,0.241,7.797,0.482
		L338.123,64.32l82.118,26.914l-108.476,90.149C324.258,188.028,335.486,196.745,344.988,207.079z M234.796,183.25l7.09,2.13
		c0,0-59.434,23.653-75.748,64.395c-21.237,53.104,22.635,104.783,22.635,104.783l-18.406,6.341c0,0-1.073-1.372-2.766-3.904
		l3.543-1.427l-9.307-8.038c-10.504-18.926-25.255-55.546-10.596-94.208C172.53,197.423,234.796,183.25,234.796,183.25z"></path></g></svg>