<?xml version="1.0" encoding="iso-8859-1"?>
<!DOCTYPE svg PUBLIC "-//W3C//DTD SVG 1.1//EN" "http://www.w3.org/Graphics/SVG/1.1/DTD/svg11.dtd">
<svg  version="1.1" xmlns="http://www.w3.org/2000/svg" xmlns:xlink="http://www.w3.org/1999/xlink" x="0px" y="0px" width="512px"
	 height="512px" viewBox="0 0 512 512" enable-background="new 0 0 512 512" xml:space="preserve"><g id="5151e0c8492e5103c096af88a5007852"><path display="inline" fill-rule="evenodd" clip-rule="evenodd" d="M279.818,55.933c0,0-89.867-38.586-191.852,31.417
		C0.733,147.22,0.579,255.387,0.579,255.387s-4.866,84.158,61.989,150.541c63.172,62.74,157.411,60.611,157.411,60.611
		s81.421,6.521,163.533-70.178c72.811-68.029,52.433-167.103,52.433-167.103s43.462-8.867,68.501-50.231
		c18.188-30.048-4.537-37.804-4.537-37.804s-32.27,1.101-65.003-11.84c-37.157-14.69-78.47-39.873-99.033-52.021
		c-7.973-4.711-13.414-6.295-13.414-6.295l0.689,178.14c0,0-6.512,84.98-112.138,96.06c-88.633,9.289-92.82-69.932-92.82-69.932
		s-8.713-52.175,50.149-88.828c61.197-38.114,111.479-9.526,111.479-9.526V55.933z"></path></g></svg>