<?xml version="1.0" encoding="iso-8859-1"?>
<!DOCTYPE svg PUBLIC "-//W3C//DTD SVG 1.1//EN" "http://www.w3.org/Graphics/SVG/1.1/DTD/svg11.dtd">
<svg  version="1.1" xmlns="http://www.w3.org/2000/svg" xmlns:xlink="http://www.w3.org/1999/xlink" x="0px" y="0px" width="512px"
	 height="512px" viewBox="0 0 512 512" style="enable-background:new 0 0 512 512;" xml:space="preserve"><g id="7935ec95c421cee6d86eb22ecd12afc5"><path style="display: inline;" d="M511.5,250.252c0-32.447-26.416-58.862-58.863-58.862c-14.433,0-28.046,5.222-38.795,14.687
		c-38.28-24.499-89.066-40.238-145.214-42.365l33.47-95.131l83.623,19.982c0.054,26.468,21.594,47.977,48.071,47.977
		c26.5,0,48.071-21.562,48.071-48.082c0-26.51-21.571-48.071-48.071-48.071c-20.118,0-37.375,12.423-44.522,30.005l-99.08-23.677
		l-41.123,116.84c-58.504,1.105-111.565,16.94-151.267,42.186c-10.686-9.244-24.162-14.35-38.438-14.35
		c-32.458,0-58.862,26.415-58.862,58.862c0,20.066,10.328,38.585,27.067,49.387c-1.021,5.864-1.6,11.834-1.6,17.888
		c0,84.961,102.996,154.088,229.595,154.088s229.585-69.127,229.585-154.088c0-5.875-0.536-11.665-1.505-17.382
		C500.834,289.438,511.5,270.645,511.5,250.252z M433.792,58.873c16.318,0,29.584,13.276,29.584,29.584
		c0,16.318-13.266,29.583-29.584,29.583s-29.584-13.265-29.584-29.583C404.208,72.149,417.474,58.873,433.792,58.873z
		 M18.998,250.252c0-22.267,18.108-40.375,40.365-40.375c8.191,0,16.013,2.442,22.635,6.959
		c-23.288,18.056-40.449,39.743-49.271,63.631C24.135,272.887,18.998,261.959,18.998,250.252z M255.563,453.127
		c-116.408,0-211.098-60.831-211.098-135.601c0-74.771,94.689-135.591,211.098-135.591c116.398,0,211.098,60.82,211.098,135.591
		C466.66,392.296,371.961,453.127,255.563,453.127z M478.59,281.057c-8.696-23.982-25.784-45.755-49.04-63.895
		c6.727-4.717,14.707-7.285,23.087-7.285c22.257,0,40.365,18.108,40.365,40.375C493.002,262.274,487.59,273.466,478.59,281.057z
		 M182.635,326.485c-19.993,0-36.196-16.182-36.196-36.164c0-19.972,16.203-36.174,36.196-36.174
		c19.972,0,36.153,16.202,36.153,36.174C218.788,310.304,202.607,326.485,182.635,326.485z M369.793,290.321
		c0,19.982-16.183,36.164-36.154,36.164c-19.992,0-36.186-16.182-36.186-36.164c0-19.972,16.193-36.174,36.186-36.174
		C353.61,254.147,369.793,270.35,369.793,290.321z M340.576,375.156c3.622,3.548,3.76,9.328,0.253,12.992
		c-1.083,1.126-27.036,27.53-85.688,27.53c-58.967,0-82.55-26.772-83.519-27.91c-3.327-3.874-2.874-9.728,1.011-13.033
		c3.864-3.295,9.654-2.863,12.981,0.947c0.526,0.59,20.214,21.509,69.527,21.509c50.156,0,72.159-21.667,72.38-21.888
		C331.07,371.692,336.924,371.598,340.576,375.156z"></path></g></svg>