<?xml version="1.0" encoding="iso-8859-1"?>
<!DOCTYPE svg PUBLIC "-//W3C//DTD SVG 1.1//EN" "http://www.w3.org/Graphics/SVG/1.1/DTD/svg11.dtd">
<svg  version="1.1" xmlns="http://www.w3.org/2000/svg" xmlns:xlink="http://www.w3.org/1999/xlink" x="0px" y="0px" width="512px"
	 height="512px" viewBox="0 0 512 512" style="enable-background:new 0 0 512 512;" xml:space="preserve"><g id="7935ec95c421cee6d86eb22ecd1299cf"><path style="display: inline;" d="M137.177,443.084c0,37.464-30.378,67.842-67.83,67.842S1.505,480.548,1.505,443.084
		c0-37.477,30.391-67.843,67.842-67.843S137.177,405.607,137.177,443.084z M1.729,0.5v97.934
		c226.519,0,410.821,185.313,410.821,413.066h97.944C510.495,229.727,282.268,0.5,1.729,0.5z M1.58,174.11v97.945
		c63.576,0,123.309,24.852,168.221,69.976c44.974,45.187,69.751,105.319,69.751,169.369h97.921
		C337.473,325.414,186.792,174.11,1.58,174.11z"></path></g></svg>