<?xml version="1.0" encoding="iso-8859-1"?>
<!DOCTYPE svg PUBLIC "-//W3C//DTD SVG 1.1//EN" "http://www.w3.org/Graphics/SVG/1.1/DTD/svg11.dtd">
<svg  version="1.1" xmlns="http://www.w3.org/2000/svg" xmlns:xlink="http://www.w3.org/1999/xlink" x="0px" y="0px" width="512px"
	 height="512px" viewBox="0 0 512 512" enable-background="new 0 0 512 512" xml:space="preserve"><g id="e6c6b53d3c8160b22dad35a0f710525a"><path display="inline" fill-rule="evenodd" clip-rule="evenodd" d="M509.365,393.284c-5.913,6.651-21.665,8.124-21.665,8.124
		h-83.951c0,0-11.737,2.74-32.498-18.957c-14.263-14.907-28.922-36.897-40.621-46.038c-6.977-5.45-13.541-2.708-13.541-2.708
		s-12.25,0.587-13.541,13.541c-2.269,22.752-5.416,35.205-5.416,35.205s-1.494,9.619-5.416,13.541
		c-4.191,4.191-10.832,5.416-10.832,5.416S166.019,427.526,76.066,282.251C11.151,177.407,2.947,146.846,2.947,146.846
		s-5.506-7.407,0-16.249c5.813-9.334,13.541-8.124,13.541-8.124h75.827c0,0,8.384,0.903,13.541,5.416
		c5.652,4.945,8.125,13.541,8.125,13.541s16.622,40.193,35.206,70.411c25.68,41.754,37.914,37.914,37.914,37.914
		s22.175-6.17,8.124-100.201c-1.944-13.008-27.081-16.249-27.081-16.249s-0.233-11.228,5.416-16.249
		c6.479-5.761,13.541-5.416,13.541-5.416s11.245-1.964,51.454-2.708c20.326-0.375,35.205,0,35.205,0s9.894-0.329,21.665,8.125
		c5.696,4.09,5.416,13.541,5.416,13.541s-2.388,67.862,0,102.909c1.029,15.074,8.125,16.249,8.125,16.249s7.622,5.902,37.913-37.914
		c19.169-27.727,35.206-67.703,35.206-67.703s3.97-11.401,8.124-16.249c3.965-4.625,10.833-5.416,10.833-5.416h97.492
		c0,0,6.011-0.221,8.124,5.416c1.941,5.176,0,16.249,0,16.249s-1.065,12.264-10.832,27.082
		c-23.062,34.989-67.703,92.075-67.703,92.075s-3.351,7.752-2.708,13.541c0.708,6.371,5.416,10.832,5.416,10.832
		s33.647,30.445,56.87,56.871c12.547,14.278,21.665,32.497,21.665,32.497S514.168,387.881,509.365,393.284z"></path></g></svg>