<?xml version="1.0" encoding="iso-8859-1"?>
<!DOCTYPE svg PUBLIC "-//W3C//DTD SVG 1.1//EN" "http://www.w3.org/Graphics/SVG/1.1/DTD/svg11.dtd">
<svg  version="1.1" xmlns="http://www.w3.org/2000/svg" xmlns:xlink="http://www.w3.org/1999/xlink" x="0px" y="0px" width="512px"
	 height="512px" viewBox="0 0 512 512" enable-background="new 0 0 512 512" xml:space="preserve"><g id="e6c6b53d3c8160b22dad35a0f71070d4"><path display="inline" fill-rule="evenodd" clip-rule="evenodd" d="M405.463,295.492c-19.528,0-37.925-2.927-53.628-6.756
		c3.221-4.454,6.049-9.827,7.926-16.261c10.243-0.117,20.911-0.338,31.209-0.715c16.449-0.597,32.011-1.579,43.534-3.134
		c10.888-1.465,16.528-4.266,18.83-6.882c1.642-1.861,2.05-3.845,1.563-5.656c-0.479-1.783-1.807-3.189-3.66-3.979
		c-2.545-1.089-6.395-1.014-9.914,1.189c-7.446,4.627,3.755,5.02,5.986,4.832c-2.019,1.391-6.214,2.828-13.7,3.834
		c-11.319,1.523-26.645,2.498-42.874,3.087c-9.725,0.354-19.756,0.569-29.434,0.691c1.037-6.171,0.958-11.619,0.165-16.379
		c8.563-1.017,25.475-5.298,39.889-22.772c3.143-3.817,5.602-8.005,7.51-12.364c0.81-1.123,1.571-2.337,2.294-3.657l-0.707-0.381
		c4.682-13.169,4.862-27.262,4.171-36.889c4.854-7.808,7.785-14.838,9.184-18.566c7.242-3.83,11.586,6.328,11.602,6.359
		c0.299,0.68,1.093,0.982,1.768,0.684c0.684-0.307,0.982-1.1,0.684-1.775c-0.016-0.047-4.925-11.5-13.103-8.943
		c-0.142-0.377-0.447-0.688-0.856-0.817c-0.707-0.22-1.469,0.177-1.688,0.884c-0.008,0.016-0.165,0.534-0.487,1.465
		c-1.885,1.308-3.889,3.366-6.025,6.414c-0.801,1.147-1.594,2.325-2.38,3.539l-0.188-1.013l-0.016-0.063
		c-3.118-16.41-13.056-13.994-24.265-4.548c-7.251-11.143-17.235-20.313-27.785-27.733c5.907-3.523,15.413-9.882,22.718-18.075
		c4.588,2.777,5.067,7.549,5.067,7.565c0.102,0.923,0.935,1.59,1.861,1.488c0.919-0.098,1.587-0.931,1.484-1.854
		c0-0.028-0.628-6.178-6.189-9.843c2.184-2.753,4.076-5.688,5.482-8.767c10.228-22.36-8.264-11.822-8.318-11.793
		c-0.645,0.363-0.88,1.184-0.519,1.833c0.361,0.646,1.187,0.877,1.83,0.514c0.031-0.018,11.335-6.459,4.564,8.331
		c-1.383,3.021-3.269,5.899-5.444,8.605c-2.733-1.139-6.315-1.72-11.028-1.206c-2.208,0.244-4.438,0.66-6.653,1.206
		c4.344-4.642,7.273-6.378,7.281-6.386c0.637-0.393,0.825-1.226,0.433-1.854c-0.394-0.632-1.218-0.825-1.847-0.432
		c-0.023,0.008-4.501,2.67-10.62,10.023c-8.013,2.584-15.317,6.395-19.678,8.896c-4.367-2.239-8.586-4.187-12.506-5.864
		c17.989-12.934,33.66-26.07,33.724-26.105c-0.071,0.035-23.032,9.032-43.221,22.311l-1.028-0.377
		c0.55-5.165,0.313-10.542-1.839-16.616l84.209-75.485l-62.669,45.657c7.242-14.226,6.653-27.081,6.646-27.134
		c-0.023-0.925-0.802-1.655-1.729-1.626c-0.927,0.03-1.649,0.805-1.626,1.73c0,0.061,0.754,16.335-10.181,32.053l-19.402,14.132
		c-0.825-1.367-1.846-2.887-3.095-4.507c4.768-4.706,13.235-14.743,13.621-26.977c0.565-17.82-13.817-19.265-13.857-19.269
		c-0.919-0.103-1.751,0.565-1.854,1.486c-0.103,0.923,0.565,1.754,1.484,1.856c0.031,0.002,11.344,1.135,10.872,15.82
		c-0.346,10.907-7.941,20.025-12.396,24.462c-2.978-3.443-6.929-7.176-12.098-10.756c2.601-6.064,3.386-11.235,3.504-11.714
		c-0.016,0.031-1.54,5.116-4.517,11.019c-5.468-3.651-12.239-7.107-20.604-9.892c9.01-12.317,20.564-31.247,15.561-41.715
		c-0.77-1.61-1.743-2.995-2.883-4.16l-0.008,0.002c-3.778-3.865-9.402-5.463-15.797-5.251c-6.166,0.206-13.103,2.111-19.74,5.287
		c-6.096,2.914-11.972,6.907-16.811,11.642c-5.954,5.818-7.266,11.235-6.049,15.404c0.629,2.146,1.925,3.943,3.605,5.292
		c1.65,1.321,3.677,2.211,5.806,2.572c4.478,0.764,9.474-0.758,12.49-5.414c12.246-18.936-23.621-9.285-10.951-5.558
		c1.194,0.354,2.42-0.269,3.001-1.369c3.881-7.388,11.319,11.633-3.975,9.025c-1.587-0.271-3.079-0.921-4.273-1.877
		c-1.17-0.931-2.058-2.156-2.482-3.609c-0.896-3.069,0.268-7.256,5.177-12.06v-0.002c4.588-4.485,10.149-8.264,15.907-11.021
		c6.237-2.979,12.694-4.764,18.397-4.957c6.189-0.206,11.477,3.069,14.265,8.92c4.517,9.43-6.638,26.869-14.814,37.725
		c-10.291-3.024-22.789-5.033-37.973-5.267C199.827,44.795,169.089,56.22,144.726,78c-7.545-9.986-21.512-22.478-46.566-29.422
		c21.496,14.809,33.051,27.906,39.084,36.639c-2.058,2.146-3.841,4.153-5.349,5.937l-0.479,0.324l-0.008-0.008l-0.228,0.173
		l-0.043,0.031l-0.043,0.027l-0.04,0.03c-0.424,0.3-0.707,0.521-0.84,0.623c-6.033-9.114-20.565-23.81-53.946-31.649
		c26.598,14.004,38.943,27.539,44.359,35.406c-2.294,1.003-4.599,2.26-6.909,3.792c-7.062,2.105-13.979,5.777-20.471,11.532
		c-7.254-6.485-19.061-13.535-37.073-15.385c13.966,8.346,23.672,16.202,30.192,22.423c-9.466,11.045-14.925,23.876-17.581,37.277
		c-4.147,0.821-8.491,2.148-12.945,4.152c-4.552,2.05-8.276,4.391-11.28,6.901c-6.159,5.157-9.309,11.056-10.4,16.85
		c-0.185,0.97-0.307,1.932-0.377,2.887c-2.73,0.036-5.2,0.526-7.105,1.559l-0.004-0.012c-2.427,1.32-3.951,3.409-4.093,6.395
		c-0.558,11.665,13.68,12.451,18.248,12.399c3.189,3.445,6.708,5.377,9.812,5.935v-0.012c1.909,0.342,3.7,0.185,5.239-0.428
		c1.669-0.676,3.017-1.85,3.896-3.512c1.092-2.066,1.394-4.847,0.558-8.201c-1.406-5.625-8.735-10.314-16.429-12.584
		c-1.583-0.463-3.186-0.836-4.765-1.1c0.055-0.774,0.157-1.555,0.303-2.341c0.875-4.65,3.468-9.442,8.57-13.708
		c2.644-2.208,5.951-4.281,10.043-6.119c3.339-1.508,6.614-2.592,9.769-3.354c-0.53,3.771-0.849,7.569-0.994,11.367
		c-0.298,7.906,0.173,15.833,1.187,23.535c-2.545,5.604-4.544,11.963-5.648,19.139c-2.459,1.886-5.098,4.104-7.659,6.638
		l-0.016-0.012l-0.228,0.256c-8.75,8.707-16.559,20.985-13.275,35.522c2.2,9.732,9.866,19.618,19.026,28.433l0.204,0.251
		l0.027-0.023c1.583,1.516,3.209,3.001,4.858,4.446c0.181,0.863,0.314,1.37,0.314,1.374l0.97-0.259
		c1.87,1.603,3.755,3.153,5.636,4.646c0.322,1.135,1.355,4.627,3.323,9.398c-10.522,6.599-21.826,19.073-18.798,41.692v0.008
		c1.493,11.115,5.907,19.54,11.791,25.424c5.165,5.169,11.449,8.374,17.886,9.74c6.449,1.367,13.071,0.884,18.884-1.327
		c5.231-1.991,9.819-5.389,13.063-10.103c1.477,0.229,2.993,0.409,4.556,0.538c11.83,0.963,20.326-1.677,26.417-5.73l1.618,0.703
		c-0.188,2.55-0.526,5.048-0.99,7.475c-3.386,3.771-6.496,7.141-9.241,10.039c-18.024,19.018-22.227,13.751-22.235,13.739
		c-0.605-0.707-1.665-0.786-2.372-0.188c-0.703,0.604-0.786,1.665-0.181,2.372c2.545,2.479,9.576,11.009,27.218-13.609
		c1.603-1.685,3.331-3.539,5.161-5.534c-5.443,18.547-16.873,31.606-16.913,31.653c-0.612,0.699-0.542,1.76,0.157,2.368
		s1.76,0.542,2.373-0.157c0.043-0.059,14.505-16.574,19.14-39.111c1.771-1.979,3.613-4.062,5.514-6.237
		c4.639,1.504,9.328,2.694,13.767,3.621l-0.035,1.979c-19.595,25.357-40.561,50.762-59.104,69.504
		c-43.035,43.511-14.316-11.088-14.229-11.24c-3.095-3.488-48.947,78.658,18.004,16.327c17.479-17.671,36.846-41.527,55.121-65.824
		c-0.252,9.686-0.625,19.6-1.155,29.406c-18.821,25.931-38.585,50.389-56.864,67.772c8.547-2.64,17.792-12.263,25.491-21.206
		c10.298-11.951,20.738-25.298,30.942-39.154c-1.284,20.447-3.307,40.077-6.465,55.823c-4.116,20.562-10.031,35.305-17.844,33.735
		c13.358,4.921,17.781-12.475,22.69-36.968c3.343-16.7,5.307-37.596,6.43-59.182c7.026-9.717,13.908-19.614,20.521-29.41
		c2.404,2.906,5.279,5.667,8.696,7.988c4.894,3.323,9.002,3.983,12.435,2.993c1.61,0.487,3.284,0.786,5.004,0.829
		c7.636,0.2,12.286-3.296,15.106-7.978c6.457,3.834,13.377,7.274,20.392,9.682c2.758,10.016,4.423,22.321,3.245,36.728
		c-3.496,42.419-41.807,45.255-41.916,45.263c0.117-0.008,41.287,3.138,45.27-44.995c1.14-13.885-0.039-25.797-2.215-35.632
		c4.431,1.226,8.86,1.987,13.205,2.121c15.624,0.475,31.656-5.279,32.19-22.859c0.157-5.082-0.958-10.235-2.553-14.556
		c-1.995-5.396-5.499-11.383-9.065-16.724c4.353-3.52,8.146-7.047,11.461-10.487c4.596,0.637,13.991,3.11,21.822,12.741
		c10.377,12.753-1.933,25.09-1.964,25.125l1.21,1.163c0.039-0.043,15.647-13.303,3.362-28.409
		c-7.4-9.096-16.158-12.372-21.704-13.546c7.368-8.205,11.979-15.738,14.744-21.253c1.037-0.903,1.933-1.76,2.702-2.537
		l40.628,45.78l3.448-3.056l-39.725-47.643c3.457-1.747,8.288-4.658,13.087-9.107l2.766,0.53
		c12.592,10.184,14.037,32.073,14.045,32.136c0.071,0.927,0.872,1.626,1.799,1.556c0.927-0.071,1.626-0.876,1.556-1.807
		c-0.008-0.056-1.061-16.163-9.324-28.001c9.34,5.157,27.611,14.199,40.879,14.199c12.498,0,16.574-6.803,17.902-11.233
		c41.578-1.686,75.081-18.696,75.081-18.696S461.621,295.492,405.463,295.492z M417.898,160.541
		c0.471-0.672,0.942-1.284,1.398-1.842c-1.258,2.855-2.931,6.328-5.091,10.09c-0.086-0.793-0.173-1.532-0.267-2.211
		C415.228,164.488,416.555,162.461,417.898,160.541z M42.387,193.239c6.104,1.799,11.818,5.11,12.722,8.727
		c0.495,1.979,0.404,3.449-0.094,4.391c-0.255,0.483-0.652,0.829-1.135,1.025c-0.613,0.248-1.395,0.294-2.29,0.137v-0.012
		c-2.27-0.404-4.98-2.05-7.521-5.083c-1.143-1.371-2.172-3.012-2.997-4.835c-0.707-1.571-1.261-3.287-1.603-5.082
		C40.435,192.708,41.417,192.948,42.387,193.239z M27.944,194.731c0.043-0.864,0.526-1.489,1.296-1.901v-0.016
		c1.123-0.613,2.765-0.896,4.689-0.907c0.361,2.816,1.155,5.487,2.239,7.895c0.236,0.53,0.491,1.049,0.754,1.56
		C32.846,200.937,27.725,199.468,27.944,194.731z M46.428,256.717c-1.178-5.22-0.621-10.141,1.005-14.67
		c-0.283,3.582-0.236,7.349,0.125,11.159c0.377,3.928,1.084,7.911,2.121,11.791C48.172,262.236,47.049,259.46,46.428,256.717z
		 M53.317,256.089c-0.165-1.132-0.303-2.267-0.409-3.394c-0.833-8.755,0.09-17.141,2.954-22.867
		C54.315,236.588,52.767,246.192,53.317,256.089z M327.232,170.533c0.078-4.905-0.417-10.467-1.721-16.759
		c10.031,8.716,19.732,22.254,18.798,41.681c-0.212,4.344-0.942,8.491-2.09,12.419c-3.637-0.094-6.904-0.4-9.811-0.844
		c-1.524-1.3-3.096-2.443-4.65-3.453c0.251-4.265,0.439-8.884,0.565-13.833C328.481,183.066,328.041,176.597,327.232,170.533z
		 M327.232,211.424c3.291,2.647,6.434,6.095,8.759,10.581c-1.438,2.42-3.009,4.714-4.667,6.897
		c-1.979,0.012-3.943-0.008-5.898-0.059C326.03,224.338,326.683,218.494,327.232,211.424z M337.24,245.897
		c-1.053,2.871-2.42,5.585-3.904,8.063c-0.55-1.822-1.163-3.527-1.814-5.106C333.305,248.002,335.229,247.016,337.24,245.897z
		 M335.661,210.104c1.799,0.188,3.699,0.322,5.719,0.397c-0.534,1.536-1.124,3.032-1.768,4.497
		C338.387,213.199,337.059,211.577,335.661,210.104z M345.512,240.759c0.573-0.396,1.146-0.797,1.712-1.214
		c1.068,1.705,2.066,3.685,2.867,5.955c-2.6,7.525-7.195,11.06-11.5,12.655C341.662,253.151,344.404,247.189,345.512,240.759z
		 M348.387,225.579c-0.723-0.647-1.391-1.189-1.979-1.646c1.265-2.368,2.419-4.823,3.44-7.372c0.581,1.846,1.1,3.873,1.516,6.033
		C350.397,223.631,349.399,224.628,348.387,225.579z M321.199,138.188c-0.534-1.567-1.076-3.056-1.618-4.461
		c13.433,5.64,28.562,14.383,37.666,27.305c-2.45,3.747-4.328,8.445-5.75,13.193C345.504,156.271,331.615,144.685,321.199,138.188z
		 M317.279,205.595c2.066,0.856,4.399,2.003,6.764,3.527c-0.589,8.115-1.328,14.702-1.987,19.615
		c-1.839-0.078-3.661-0.173-5.452-0.287C317.625,223.167,318.567,214.935,317.279,205.595z M317.515,198.506
		c2.554-2.832,5.491-7.152,7.471-13.358c0.023,1.492,0.016,2.997-0.023,4.517c-0.103,4.246-0.259,8.24-0.456,11.979
		C321.969,200.269,319.565,199.248,317.515,198.506z M321.687,252.935l0.558-0.196c1.319,3.26,2.475,7.223,3.056,11.881l0.008,0.067
		l-1.006,1.08c-2.403-0.039-4.76-0.095-7.046-0.165c-0.126-1.092-0.259-2.152-0.4-3.143c-0.299-2.093-0.354-3.943-0.275-5.562
		C318.229,255.684,319.935,254.365,321.687,252.935z M325.418,272.499c-0.283,2.927-0.904,5.515-1.65,7.729
		c-1.9-0.69-3.699-1.366-5.373-2.019c-0.133-1.838-0.29-3.841-0.463-5.876C320.358,272.409,322.856,272.464,325.418,272.499z
		 M361.112,167.544c2.286,4.674,3.794,9.812,4.258,15.452c-4.321,5.667-8.178,11.123-11.163,15.482
		c0.071-0.84,0.134-1.692,0.173-2.553c0.063-1.226,0.079-2.431,0.071-3.617C355.275,186.102,357.185,175.23,361.112,167.544z
		 M365.519,189.374c-0.22,6.371-1.57,12.074-3.676,17.175c-3.135,0.464-6.088,0.801-8.877,1.018
		C355.314,203.965,359.91,197.057,365.519,189.374z M372.447,207.194c6.434-1.748,12.168-4.435,17.266-7.706
		c-2.254,13.967-13.142,21.7-27.258,25.69C366.563,220.021,370.083,214.055,372.447,207.194z M353.17,210.234
		c2.342-0.185,4.792-0.44,7.361-0.786c-1.422,2.895-3.088,5.577-4.926,8.055C354.875,214.802,354.026,212.354,353.17,210.234z
		 M360.609,245.414c-0.338-1.292-0.738-2.529-1.179-3.708c3.881,0.68,8.971,1.108,14.517,0.365
		C368.559,244.196,363.846,245.068,360.609,245.414z M398.244,224.04c-3.881,4.709-7.949,8.394-11.956,11.28
		c-10.667,5.77-21.767,4.775-28.099,3.417c-0.29-0.613-0.589-1.21-0.887-1.783l0.055-0.558c9.387-1.775,18.138-4.705,25.255-9.273
		c4.116-0.082,10.463-0.864,16.566-4.266C398.881,223.258,398.566,223.647,398.244,224.04z M410.671,174.52
		c-1.484,2.227-3.126,4.493-4.933,6.74c1.484-2.91,3.087-5.911,4.768-8.876L410.671,174.52z M409.147,162.218v0.008l0.016,0.07
		v0.008c0.086,0.412,0.479,2.419,0.872,5.545c-3.865,6.512-7.376,13.386-10.204,19.293c-1.076-10.016-4.32-19.006-9.002-27.03
		C399.611,152.666,406.979,150.796,409.147,162.218z M400.192,192.689L400.192,192.689l1.241-2.663
		c3.605-3.57,6.739-7.36,9.434-11.111c0.221,8.542-0.502,19.246-3.99,29.352l-0.408-0.216c-4.171,7.702-10.519,11.17-16.088,12.682
		C396.752,213.969,400.499,204.857,400.192,192.689z M390.13,192.924c0.023,1.064,0.008,2.094-0.048,3.099
		c-4.901,3.374-10.439,6.198-16.661,8.095c1.815-6.406,2.632-13.542,2.043-21.472c-0.134-1.842-0.354-3.637-0.668-5.393
		c2.82-3.479,5.703-6.865,8.563-9.913C387.372,174.952,389.894,183.459,390.13,192.924z M376.32,156.625
		c1.854,2.333,3.566,4.768,5.113,7.313c-2.584,2.683-5.169,5.585-7.698,8.59c-1.312-4.78-3.252-9.187-5.671-13.256
		C371.214,157.081,374.136,156.57,376.32,156.625z M361.961,111.811c3.59-1.17,7.32-2.082,10.966-2.482
		c3.464-0.377,6.174-0.071,8.295,0.625c-7.439,8.126-17.117,14.359-22.6,17.553c-1.642-1.111-3.3-2.176-4.957-3.205
		C356.563,119.187,359.392,115.07,361.961,111.811z M357.373,113.46c-1.925,2.703-3.951,5.836-6.002,9.446
		c-2.12-1.269-4.241-2.467-6.339-3.602C348.261,117.521,352.589,115.345,357.373,113.46z M316.651,117.466
		c14.579,5.417,37.948,16.064,54.413,33.157c-2.129,0.55-4.406,1.524-6.731,3.13c-12.459-16.437-32.844-26.539-48.538-32.266
		C316.069,120.137,316.36,118.798,316.651,117.466z M313.398,169.249c2.239,10.373,0.252,16.677-1.013,19.367
		c-0.26-0.562-0.519-1.111-0.802-1.669c-0.361-0.727-0.73-1.445-1.1-2.152c-1.257-5.546-3.668-13.986-7.446-18.185
		C303.038,166.609,310.312,154.936,313.398,169.249z M289.668,310.347c0,0,6.182-1.937,8.24-8.39c2.058-6.449,1.807-9.93,1.807-9.93
		s5.279,7.997,1.933,12.898C298.293,309.828,289.668,310.347,289.668,310.347z M294.68,326.379c-1.265,0.785-2.601,1.48-3.982,2.105
		c0.651-0.617,1.296-1.241,1.933-1.862C293.305,326.552,293.98,326.474,294.68,326.379z M285.136,338.971
		c-0.691-1.115-1.485-2.356-2.325-3.637l0.063-0.047c0.684,0.832,1.673,2.058,2.859,3.566L285.136,338.971z M286.109,346.595
		l-0.526,0.412l-0.872-1.296l0.951-0.149L286.109,346.595z M271.381,306.604c0,0,3.221-1.803,9.528-7.353
		c6.308-5.542,8.374-12.77,8.374-12.77s2.576,9.026-3.865,15.994S272.025,306.732,271.381,306.604z M282.229,339.392
		c-0.667,0.074-1.343,0.137-2.011,0.181c-0.424-0.538-0.848-1.064-1.288-1.583c0.573-0.35,1.139-0.707,1.697-1.084
		C281.192,337.762,281.734,338.602,282.229,339.392z M276.855,339.689l-1.021-0.004l0.715-0.361L276.855,339.689z M176.56,327.762
		l-0.188-14.528l0.354-0.208l5.71,7.682C181.107,322.813,179.223,325.188,176.56,327.762z M177.741,368.472l-0.451,0.593
		l-0.645-0.121l0.016-1.905L177.741,368.472z M198.994,94.729c-3.409-3.048-7.498-5.827-12.388-8.134
		c-0.938-0.444-1.878-0.852-2.805-1.233c6.398-4.656,16.465-9.937,28.303-8.908c5.051,2.302,9.45,5.083,13.283,8.156
		C215.624,86.222,206.83,89.873,198.994,94.729z M203.303,118.719c-3.17,0.373-5.919,0.829-8.079,1.245
		c1.362-1.524,3.386-3.503,6.206-5.601C202.16,115.833,202.78,117.293,203.303,118.719z M190.471,100.75
		c-4.359,3.472-8.365,7.267-12.019,11.21c0.613-5.224,1.076-10.236,1.245-14.415c0.039-0.986,0.067-1.964,0.075-2.934
		c0.84,0.338,1.681,0.703,2.529,1.104C185.412,97.184,188.114,98.889,190.471,100.75z M184.077,368.138
		c0.683-0.134,1.422-0.243,2.203-0.338c0.307,0.872,0.656,1.807,1.064,2.797c-1.422-0.173-2.97-0.385-4.604-0.629L184.077,368.138z
		 M184.132,339.104c1.43-1.822,2.863-3.668,4.289-5.522c2.026-2.639,4.041-5.306,6.041-7.996c3.774,2.419,7.525,4.272,10.919,5.675
		c-2.428,3.343-4.93,6.779-7.494,10.279C192.184,340.723,186.543,339.6,184.132,339.104z M203.221,313.465l-0.063,0.016
		l-0.063,0.012l-0.039,0.012h-0.028l-0.066,0.016l-0.063,0.016l-0.126,0.028l-0.035,0.012h-0.035l-0.063,0.016l-0.066,0.016
		l-0.066,0.008l-0.067,0.016h-0.02l-0.047,0.008l-0.067,0.016l-0.066,0.012l-0.066,0.012l-0.079,0.016l-0.055,0.008l-0.066,0.012
		l-0.071,0.012l-0.066,0.017l-0.067,0.008l0,0l-0.07,0.008l-0.063,0.016l-0.071,0.008l-0.07,0.008l-0.063,0.012h-0.009l-0.07,0.008
		l-0.063,0.012l-0.071,0.008l-0.07,0.008l-0.055,0.008h-0.016l-0.071,0.008l-0.07,0.008l-0.071,0.008l-0.07,0.008l-0.043,0.008
		h-0.027l-0.071,0.008l-0.07,0.008l-0.075,0.008l-0.07,0.009H200.4h-0.039l-0.071,0.008l-0.07,0.008l-0.071,0.008l-0.074,0.004
		h-0.023l-0.047,0.004l-0.075,0.004l-0.07,0.004l-0.079,0.004l-0.07,0.004h-0.016l-0.055,0.004l-0.079,0.004h-0.07l-0.075,0.004
		l-0.074,0.004l0,0h-0.075h-0.074l-0.074,0.004h-0.075l-0.066,0.004h-0.008h-0.075h-0.078h-0.075
		c-1.512-0.008-3.106-0.204-4.748-0.672c-8.499-2.455-9.788-11.354-9.788-11.354s6.638,4.901,13.778,6.842
		c1.367,0.357,2.624,0.66,3.767,0.896l0.067,0.016l0.063,0.016l0.063,0.012l0.063,0.012l0.008,0.004l0.055,0.012l0.063,0.008
		l0.063,0.016l0.063,0.013l0.039,0.008l0.023,0.004l0.063,0.012l0.059,0.012l0.063,0.012l0.06,0.016h0.008l0.055,0.012l0.063,0.008
		l0.06,0.016l0.063,0.008l0.035,0.008l0.024,0.004l0.063,0.012l0.055,0.012l0.063,0.012l0.055,0.008h0.008l0.055,0.013l0.056,0.012
		l0.063,0.008l0.055,0.016l0.039,0.004l0.02,0.004l0.06,0.012l0.055,0.012l0.063,0.008l0.056,0.008l0.008,0.004l0.047,0.008
		l0.059,0.012l0.06,0.008l0.055,0.008l0.035,0.008l0.02,0.004l0.056,0.008l0.059,0.012l0.055,0.008l0.052,0.008h0.008l0.051,0.008
		l0.055,0.009l0.056,0.016l0.055,0.008h0.035l0.016,0.008l0.055,0.008l0.056,0.008l0.055,0.008l0.047,0.008h0.008l0.048,0.008
		l0.055,0.008l0.055,0.008l0.047,0.008l0.04,0.008h0.016l0.047,0.008l0.055,0.008l0.052,0.008l0.051,0.008h0.008l0.043,0.008
		l0.051,0.008l0.052,0.008l0.051,0.008h0.031l0.016,0.009l0.052,0.008c2.8,0.393,4.434,0.393,4.434,0.393
		S207.176,312.55,203.221,313.465z M206.646,103.417c-0.872-1.269-1.831-2.525-2.871-3.759c7.553-4.462,16.005-7.663,25.376-8.788
		c0.911-0.11,1.807-0.202,2.694-0.285c1.469,1.557,2.82,3.152,4.069,4.768C223.495,96.61,213.896,99.784,206.646,103.417z
		 M240.273,101.74c2.608,4.321,4.541,8.598,5.947,12.475c-2.515-0.055-5.53-0.02-9.16,0.153c-9.835,0.472-18.617,1.324-23.982,1.917
		c-0.793-2.31-1.782-4.713-3.023-7.129C217.266,105.636,227.116,102.596,240.273,101.74z M275.371,159.308
		c0,0-4.509-5.935-7.98-9.289c-3.48-3.354-13.52-6.963-13.52-6.963s7.211-7.482,14.808,0.519
		C276.274,151.57,275.371,159.308,275.371,159.308z M279.755,283.771c0,0,2.442,5.421-1.807,8.646c-4.25,3.22-8.24,1.803-8.24,1.803
		L279.755,283.771z M271.098,102.306c0.173,3.959,0.157,8.358-0.385,11.979c-3.079,1.524-6.096,2.961-8.68,4.084
		c-0.668-4.878-1.933-10.797-4.454-17.046C262.873,101.445,267.343,101.814,271.098,102.306z M266.958,87.538
		c2.325,0.047,4.65,0.206,6.787,0.528c0.44,0.903,0.833,1.777,1.187,2.61C272.441,89.529,269.786,88.47,266.958,87.538z
		 M254.232,94.311c-0.612-1.106-1.272-2.215-1.987-3.323c4.784,0.682,9.167,1.762,13.15,3.103
		C261.962,94.11,258.239,94.175,254.232,94.311z M246.738,83.647c-1.578-1.799-3.307-3.574-5.208-5.301
		c4.784,1.106,10.023,2.176,15.114,2.944C253.267,81.558,247.579,83.708,246.738,83.647z M237.194,117.054
		c4.093-0.196,7.353-0.224,9.93-0.153c0.471,1.477,0.848,2.875,1.162,4.171c-6.991-0.4-15.679-2.345-26.323-2.969
		C226.409,117.71,231.625,117.321,237.194,117.054z M237.249,328.104c0,0,2.192,3.35,4.965,4.639
		c2.766,1.288-0.841,2.388-4.062,0.455C234.94,331.261,237.249,328.104,237.249,328.104z M242.41,321.438
		c0,0,11.327,2.965,19.183-0.778c7.855-3.739,10.817-7.479,10.817-7.479s-6.693,19.089-14.423,18.829
		C250.258,331.752,242.41,321.438,242.41,321.438z M296.62,161.11l-12.49-15.349c0,0,8.366-1.414,11.72,2.584
		C299.196,152.344,296.62,161.11,296.62,161.11z M301.938,193.105c0,0-5.601-1.163-8.303-3.998
		c-2.702-2.836-1.029-9.285-1.029-9.285C297.437,184.272,301.938,193.105,301.938,193.105z M300.202,204.193
		c-4.438-1.229-4.761-9.674-4.761-9.674s1.477,4.258,3.99,4.902c2.506,0.644,4.116,0.063,4.116,0.063
		S304.641,205.418,300.202,204.193z M290.406,69.816c8.555,6.098,12.891,12.496,14.886,16.261l-6.952,6.392
		c-1.422-0.972-2.953-1.97-4.54-2.94c-3.479-2.129-7.313-4.224-11.005-5.77c-0.558-1.139-1.171-2.323-1.847-3.531
		c3.677-2.215,6.575-6.256,9.403-10.335L290.406,69.816z M267.319,58.95c9.183,2.71,16.308,6.261,21.814,9.978
		c-2.632,3.708-5.829,7.041-9.575,8.941c-3.323-5.365-7.95-11.109-14.399-16.296C265.748,60.871,266.479,59.987,267.319,58.95z
		 M263.486,57.897l-1.241,1.457c-1.265-0.905-2.593-1.791-3.982-2.645C260.069,57.073,261.813,57.471,263.486,57.897z
		 M268.733,79.749c-9.56-0.153-22.388-2.895-31.916-5.306c-9.081-6.879-21.405-12.765-38.122-16.439
		C223.942,51.146,251.695,56.533,268.733,79.749z M196.586,71.495c-7.136,2.143-13.114,5.756-17.458,8.994
		c-0.416-4.157-0.966-7.806-1.477-10.671C184.588,69.743,190.88,70.348,196.586,71.495z M158.217,119.803
		c-0.911-0.271-1.547-0.782-1.987-1.418c0.244-2.082,0.81-4.355,1.834-6.767c3.413,1.351,6.678,2.855,9.745,4.411
		c-0.483,3.661-1.006,7.337-1.532,10.801c-2.655,0.004-5.813,0.102-9.301,0.385c-0.317-1.068-0.597-2.31-0.762-3.7
		c1.709,0.424,3.629,0.707,5.283,0.479c4.12-0.582,4.12-5.35,4.12-5.35S162.145,120.962,158.217,119.803z M163.657,102.604
		c1.669-1.964,3.719-4.25,6.013-6.528l-0.039,1.072c-0.11,2.738-0.354,5.868-0.691,9.195
		C167.195,105.023,165.437,103.774,163.657,102.604z M167.729,71.558c0.479,2.681,1.006,6.133,1.395,10.064
		c-5.892-0.625-11.366-0.185-16.249,0.809C157.141,78.8,162.09,75.071,167.729,71.558z M164.839,91.42
		c-2.737,2.736-5.141,5.454-7.015,7.696c-2.121-1.139-4.258-2.146-6.418-2.999c-1.182-0.465-2.372-0.886-3.559-1.257
		C153.834,92.75,157.715,91.194,164.839,91.42z M116.702,335.452l9.262-3.574l-5.499,7.038
		C119.223,337.801,117.966,336.653,116.702,335.452z M126.8,351.308c-2.644-1.17-5.479-2.572-8.401-4.229l1.328-1.626
		C122.169,347.557,124.534,349.501,126.8,351.308z M86.042,254.84c1.681,3.186,3.535,6.19,5.479,9.018
		c-7.301,7.706-9.418,16.496-9.422,24.076c-0.896-1.896-1.768-3.837-2.62-5.828l0.608-0.138
		C80.072,281.902,76.436,266.726,86.042,254.84z M115.948,194.995c-1.477,1.783-2.836,3.79-4.022,6.052
		c-4.812,9.187-5.829,17.392-5.35,23.88c-1.3-0.429-2.655-0.849-4.061-1.265c-2.098-9.281-2.286-16.909-0.974-23.095
		c1.783-8.433,6.438-14.187,12.789-17.824c0.64-0.365,1.292-0.707,1.964-1.033C115.492,187.74,115.735,192.618,115.948,194.995z
		 M99.035,301.151c-5.432-3.872-9.627-8.876-11.5-11.296c-0.314-6.618,1.096-14.544,7.242-21.543
		c6.187,7.997,12.977,14.32,18.617,18.888C106.553,291.576,101.969,296.827,99.035,301.151z M115.351,289.931
		c-0.774,3.008-1.689,7.101-2.101,10.871c-0.35,3.217-0.593,5.083-0.758,6.159l-0.016-0.023l-1.438,1.04
		c-1.426-0.593-4.266-1.96-9.214-5.004C104.558,298.94,108.87,294.022,115.351,289.931z M89.232,242.802
		c-1.131-2.608-2.286-5.452-3.417-8.496c-0.279-1.595-0.502-3.153-0.687-4.682c2.753,0.616,5.958,1.395,9.709,2.364
		c1.096,0.283,2.156,0.565,3.174,0.849c0.499,1.646,1.048,3.331,1.649,5.059C95.626,239.248,92.177,240.917,89.232,242.802z
		 M105.838,235.194l1.791,0.609l-1.473,0.306L105.838,235.194z M94.958,199.169c-1.327,6.276-1.339,13.739,0.299,22.537
		c-3.967-0.979-7.502-1.705-10.675-2.216c0.333-22.58,11.473-36.585,20.946-44.437c0.428,1.736,0.916,3.315,1.343,4.595
		C101.022,184.182,96.781,190.56,94.958,199.169z M84.668,305.939l1.799,1.233c9.689,15.463,20.644,27.058,30.651,35.989
		l-1.697,2.152c-4.281-2.647-8.68-5.86-12.891-9.737c-9.96-9.159-16.323-20.306-20.074-28.632
		C83.218,306.58,83.961,306.246,84.668,305.939z M120.386,315.975l-0.667-0.688c-2.624-3.409-0.032-10.876-0.032-10.876
		s3.001,6.092,5.122,8.409c2.125,2.321,5.086,5.095,5.086,5.095S124.07,318.924,120.386,315.975z M119.981,270.017
		c-3.665-2.835-1.991-5.545-1.991-5.545s3.986,2.191,7.847,2.835c3.865,0.645,6.701,0.386,6.701,0.386
		S123.654,272.853,119.981,270.017z M133.194,302.707c4.709-4.548,11.092-1.838,14.717,0.381c-3.036,4.069-6.41,8.543-10.102,13.397
		C134.274,313.731,128.013,307.703,133.194,302.707z M142.027,150.427c1.799-1.226,3.594-2.29,5.381-3.217l1.925,14.151l-2.875,2.6
		c-2.105-0.617-4.353-1.241-6.74-1.874c-2.879-0.766-5.554-1.363-8.028-1.834C134.329,156.723,137.715,153.361,142.027,150.427z
		 M129.082,152.862c-1.618-1.461-3.849-3.248-5.801-4.764c1.646-1.049,3.492-2.125,5.565-3.213c5.333-2.8,11.076-4.654,16.606-5.856
		c0.299,0.216,0.472,0.322,0.476,0.322l0.31-0.491c2.141-0.444,4.25-0.797,6.285-1.068c-4.65,1.543-9.458,3.814-14.258,7.078
		C134.667,147.316,131.639,150.019,129.082,152.862z M141.965,273.198c0,0-4.25-2.065-4.376-7.611
		c-0.133-5.546,1.673-9.93,1.673-9.93C139.164,266.403,141.965,273.198,141.965,273.198z M137.942,213.93
		c0,0-3.731,3.927-4.313,6.249c0,0-1.48-2.576-0.77-4.705C133.567,213.348,137.942,213.93,137.942,213.93z M141.548,275.818
		c5.664,0.385,11.068-1.033,11.068-1.033s-1.288,3.873-4.379,4.124C145.149,279.169,141.548,275.818,141.548,275.818z
		 M142.204,106.893c3.229,0.621,6.406,1.457,9.501,2.447c-3.075,7.467-2.655,13.991-1.477,18.633
		c-2.063,0.295-4.188,0.664-6.34,1.12C141.54,124.764,139.722,117.694,142.204,106.893z M130.818,105.707h0.283
		c0.417,12.223,2.011,18.739,2.011,18.739s-0.899-7.997,1.351-13.217c0.645-1.48,1.422-2.855,2.208-4.069
		c-2.121,10.55-0.511,18.091,1.925,23.208c-4.863,1.332-9.78,3.146-14.45,5.597c-0.884,0.463-1.732,0.927-2.553,1.398
		C121.164,129.426,122.063,116.146,130.818,105.707z M133.19,190.725c-4.493,3.574-8.955,8.366-12.262,14.713
		c-3.747,7.203-6.158,13.743-7.702,19.041c-0.393-5.4,0.483-12.364,4.654-20.325C121.592,197.068,127.409,193.019,133.19,190.725z
		 M113.304,108.598c1.458-0.538,2.926-0.99,4.403-1.375c-7.682,14.544-6.457,30.525-5.597,36.622
		c-1.705,1.406-3.178,2.792-4.45,4.14C103.827,138.778,99.133,120.907,113.304,108.598z M92.017,124.277
		c2.462,2.742,4.057,4.862,4.96,6.163c0.157,9.886,3.755,18.837,6.017,23.507c-1.021,1.63-1.736,3.095-2.247,4.336
		c-5.02-1.834-13.37-4.062-23.495-3.57C79.778,143.758,84.432,133.334,92.017,124.277z M74.884,173.105
		c0.165-4.344,0.578-8.672,1.292-12.953c9.505-0.715,17.376,1.261,22.152,2.954c-5.797,3.377-15.393,10.113-23.35,21.201
		C74.782,180.588,74.743,176.845,74.884,173.105z M69.778,207.107c0.193,0.97,0.389,1.936,0.593,2.895l-1.626,1.017
		C69.059,209.68,69.405,208.376,69.778,207.107z M67.425,218.399c1.551-1.115,2.985-2.073,4.218-2.855
		c0.244,0.994,0.495,1.975,0.75,2.95c-1.933,0.055-3.602,0.243-5.047,0.534L67.425,218.399z M65.595,273.536
		c-0.205,0.53-0.381,1.076-0.534,1.642c-0.707-1.331-1.359-2.714-1.94-4.151c-4.827-11.952-3.472-26.394-1.493-36.406
		c0.33,4.878,1.049,10.043,2.215,15.506c1.41,6.591,3.08,12.813,4.957,18.677C67.567,269.853,66.443,271.368,65.595,273.536z
		 M67.013,234.326c1.937-1.347,2.71-3.92,1.717-6.154c0-0.008-0.668-1.406,6.323-0.46c2.435,7.734,5.138,14.654,7.698,20.338
		c-5.412,5.546-8.044,11.992-9.222,17.856c-1.665-5.33-3.15-10.956-4.422-16.894C67.999,243.834,67.323,238.941,67.013,234.326z
		 M70.94,283.732c-0.153-2.321-0.066-4.87,0.589-7.015c0.499,1.335,1.005,2.655,1.524,3.955c0.232,1.748,0.475,2.776,0.479,2.797
		l0.609-0.138c0.927,2.219,1.885,4.379,2.875,6.48C74.951,288.029,72.885,286.007,70.94,283.732z M103.874,377.93
		c-5.094,1.94-10.919,2.36-16.614,1.15c-5.707-1.21-11.28-4.053-15.86-8.633c-5.302-5.307-9.292-12.957-10.651-23.118h-0.004
		c-2.683-20.063,7.065-31.331,16.433-37.415c4.049,8.854,10.805,20.511,21.249,30.117c4.313,3.971,8.814,7.286,13.217,10.047
		l-0.888,1.116c-3.119,3.911-5.986,7.015-8.645,9.445c-17.407-9.257-24.398-25.416-24.426-25.475
		c-0.597-1.354-2.192-1.964-3.543-1.363c-1.359,0.605-1.964,2.196-1.359,3.551c0.031,0.063,7.188,16.599,24.831,26.921
		c-23.173,16.028-26.877-25.443-26.889-25.585c-0.086-0.923-0.903-1.603-1.822-1.521c-0.923,0.083-1.603,0.899-1.524,1.818
		c0.016,0.165,4.568,51.115,33.746,27.18c3.841,1.909,8.115,3.504,12.852,4.592C111.313,374.021,107.81,376.429,103.874,377.93z
		 M123.355,366.771c-6.834-0.558-12.78-2.219-17.93-4.513c2.494-2.47,5.142-5.428,7.961-8.971l1.167-1.457
		c10.271,5.954,15.377,7.879,27.27,10.853l0.035-0.161c0.538,0.33,1.084,0.644,1.638,0.958
		C138.504,366.005,131.949,367.47,123.355,366.771z M144.486,347.612c-2.361,2.683-5.248,3.928-7.97,4.441
		c-3.986-3.052-8.531-6.586-13.342-10.75c2.369-2.827,4.678-5.538,6.929-8.13c5.114,3.731,10.99,7.345,17.533,10.33
		C146.783,344.8,145.751,346.179,144.486,347.612z M148.618,360.138l-0.495-0.256c1.359-1.021,2.938-2.325,4.588-3.92
		C151.556,357.407,150.209,358.829,148.618,360.138z M150.967,329.144c-3.865-2.706-7.251-5.985-9.615-8.53
		c4.289-4.639,8.271-8.774,11.905-12.423l6.543,8.051C157.533,322.365,154.172,326.454,150.967,329.144z M154.073,369.983
		l0.161-1.578l0.927,0.342L154.073,369.983z M154.054,362.596c4.611-4.524,7.234-9.775,8.688-13.81
		c2.714,0.695,5.341,1.276,7.887,1.748c-4.019,4.886-7.946,9.536-11.693,13.872C157.29,363.849,155.656,363.248,154.054,362.596z
		 M172.455,368.099c-3.271-0.707-6.665-1.556-10.043-2.576c3.287-3.818,6.708-7.871,10.196-12.098
		C172.576,358.157,172.529,363.067,172.455,368.099z M161.313,333.936c3.491-3.872,6.85-9.375,9.01-17.14l2.156-1.265
		c0.047,4.56,0.098,9.851,0.13,15.71C169.058,334.101,165.169,334.686,161.313,333.936z M175.235,134.725
		c0.507-3.142,1.049-6.646,1.575-10.283l4.199,4.242C179.025,130.542,176.999,132.611,175.235,134.725z M175.695,407.128
		c0.416-9.619,0.676-19.293,0.832-28.724l2.647-3.582c4.18,0.699,7.906,1.171,10.837,1.478c0.946,1.775,2.038,3.602,3.287,5.416
		C187.607,390.168,181.708,398.699,175.695,407.128z M211.846,353.479c-1.752,1.913-4.16,3.661-7.259,4.011
		c-2.848,0.321-6.649-1.371-10.263-3.582l1.379-1.937c1.586-0.134,3.142-0.303,4.658-0.507c3.149-0.428,8.342-1.347,14.383-2.525
		L211.846,353.479z M221.633,338.017c-1.406,0.899-3.079,1.842-4.901,2.636c-1.657,0.55-3.347,1.08-5.074,1.571
		c-0.691,0.121-1.383,0.204-2.09,0.235c-1.89,0.09-4.316-0.056-6.937-0.322c2.239-3.209,4.427-6.354,6.544-9.427
		c4.839,1.697,8.452,2.396,9.481,2.577c0.486,0.251,1.735,0.888,3.605,1.72L221.633,338.017z M222.977,392.219
		c2.254-2.4,4.045-5.558,5.459-8.811c1.501,1.018,3.04,2.035,4.611,3.036C231.013,389.7,227.854,392.085,222.977,392.219z
		 M234.861,382.607c-1.657-1.092-3.268-2.199-4.839-3.315c1.107-3.225,1.861-6.272,2.333-8.507c1.477,0.031,2.914,0.016,4.281-0.035
		C236.621,373.856,236.307,378.46,234.861,382.607z M224.649,346.937c5.781-1.218,11.744-2.537,17.077-3.802
		c5.46,1.028,11.469,1.57,17.589,1.04c6.009,1.379,14.1,2.589,22.371,1.882c0.629,0.903,1.218,1.768,1.744,2.561
		c-1.587,1.147-3.229,2.274-4.94,3.378C251.373,369.434,232.662,354.678,224.649,346.937z M238.923,385.184
		c2.003-5.231,2.396-11.036,2.403-14.736c1.053-0.095,1.979-0.196,2.758-0.295c2.757,3.716,7.996,11.721,11.939,23.586
		C250.132,391.5,244.358,388.507,238.923,385.184z M302.197,365.616c1.492,4.054,2.545,8.861,2.396,13.559
		c-0.526,17.521-15.475,18.868-29.818,18.562c-4.627-0.094-9.34-0.966-14.021-2.38c-3.457-12.898-8.461-21.618-11.257-25.824
		c9.812-1.107,20.887-4.481,32.568-11.857c1.774-1.119,3.487-2.247,5.137-3.386c0.495,0.526,0.982,0.88,1.414,1.076
		c1.43,1.139,1.987,1.057,1.532-0.33c0.157-0.487-0.023-1.288-0.738-2.306c1.43-1.025,2.804-2.062,4.14-3.091
		C296.974,354.776,300.296,360.486,302.197,365.616z M302.873,329.93c-1.461,1.265-3.104,2.561-4.949,3.864
		c-2.875,2.043-6.041,3.449-9.324,4.372c-1.343-1.74-2.49-3.17-3.314-4.183c5.946-1.713,11.641-4.345,15.97-8.374l0.62-0.59
		l1.484-0.381c1.47-0.393,2.875-0.836,4.219-1.323C306.164,325.507,304.601,327.719,302.873,329.93z M306.934,251.458
		c-0.762-0.051-1.115-0.565-0.526-1.606c1.783-3.135,1.289-10.318,1.289-10.318s5.02,1.803,4.375,6.838
		c-0.078,0.66-0.274,1.266-0.542,1.808C309.927,249.376,308.379,250.472,306.934,251.458z M317.641,301.729
		c-1.272,1.288-3.182,3-5.773,4.717c0.338-1.567,0.581-3.095,0.746-4.553c2.82-4.453,4.831-8.2,6.111-10.77l1.014,0.24
		C319.519,293.972,318.882,297.538,317.641,301.729z M324.985,297.888l-3.299-6.072l1.422,0.326l3.872,3.225
		c0.008-0.008,0.598-0.711,1.469-2.026l3.504,0.77C329.023,296.054,326.486,297.255,324.985,297.888z M341.262,285.928
		c-2.789-0.805-5.468-1.626-8.021-2.446c1.076-3.127,1.956-6.795,2.286-10.911c4.305,0.016,8.86,0.016,13.582-0.008
		C347.114,278.006,344.302,282.405,341.262,285.928z M351.002,265.838c-5.381,0.031-10.565,0.035-15.436,0.016
		c-0.031-0.471-0.078-0.95-0.126-1.43c5.177-0.73,11.76-3.189,16.418-10.33c0.251,3.41,0.047,7.243-0.809,11.516L351.002,265.838z
		 M398.865,308.925c-2.852,0-5.232-2.71-6.866-5.342c4.462,0.354,8.806,0.573,12.978,0.644
		C403.751,306.521,401.764,308.925,398.865,308.925z"></path></g></svg>