<?xml version="1.0" encoding="iso-8859-1"?>
<!DOCTYPE svg PUBLIC "-//W3C//DTD SVG 1.1//EN" "http://www.w3.org/Graphics/SVG/1.1/DTD/svg11.dtd">
<svg  version="1.1" xmlns="http://www.w3.org/2000/svg" xmlns:xlink="http://www.w3.org/1999/xlink" x="0px" y="0px" width="512px"
	 height="512px" viewBox="0 0 512 512" enable-background="new 0 0 512 512" xml:space="preserve"><g id="e6c6b53d3c8160b22dad35a0f7105ff8"><path display="inline" d="M307.041,291.743c3.585,4.979,5.351,11.843,5.351,20.672c0,6.864-1.5,13.024-4.514,18.441
		c-3.015,5.443-7.714,9.559-14.272,12.373c-7.382,3.2-14.711,4.913-21.827,5.165c-7.143,0.266-20.021,0.398-38.661,0.398h-3.877
		v-71.441h13.224c12.746,0,22.969,0.066,30.55,0.253c7.581,0.212,13.608,1.115,17.923,2.827
		C298.066,282.981,303.43,286.712,307.041,291.743z M264.052,228.109c4.899-0.266,10.011-1.58,15.241-3.996
		c5.683-2.682,9.679-6.413,11.83-11.112c2.164-4.779,3.279-10.276,3.279-16.489c0-4.647-1.169-9.36-3.532-14.206
		c-2.363-4.833-6.014-8.364-11.06-10.528c-4.713-2.098-10.263-3.2-16.741-3.399c-6.479-0.198-16.091-0.265-28.85-0.265h-4.979
		v60.381h9.028C250.51,228.494,259.14,228.375,264.052,228.109z M511.5,100.628v310.737c0,55.071-45.061,100.131-100.132,100.131
		H100.645C45.573,511.496,0.5,466.437,0.5,411.365V100.628C0.5,45.558,45.573,0.504,100.645,0.504h310.724
		C466.439,0.504,511.5,45.558,511.5,100.628z M386.183,313.729c0-19.37-5.298-34.798-15.905-46.256
		c-10.582-11.431-24.721-18.958-42.313-22.689v-1.514c12.228-5.15,21.854-13.143,28.783-24.003
		c6.997-10.86,10.462-23.221,10.462-37.148c0-12.041-2.549-22.649-7.594-31.863c-5.032-9.161-12.692-16.542-22.889-22.039
		c-9.427-5.111-19.557-8.443-30.351-10.011c-10.807-1.646-26.686-2.416-47.636-2.416H157.945v285.339H272.15
		c19.835,0,36.112-1.779,48.938-5.364c12.892-3.598,24.668-9.559,35.395-17.989c9.095-7.063,16.277-15.905,21.654-26.633
		C383.501,340.415,386.183,327.909,386.183,313.729z"></path></g></svg>