<?xml version="1.0" encoding="iso-8859-1"?>
<!DOCTYPE svg PUBLIC "-//W3C//DTD SVG 1.1//EN" "http://www.w3.org/Graphics/SVG/1.1/DTD/svg11.dtd">
<svg  version="1.1" xmlns="http://www.w3.org/2000/svg" xmlns:xlink="http://www.w3.org/1999/xlink" x="0px" y="0px" width="512px"
	 height="512px" viewBox="0 0 512 512" enable-background="new 0 0 512 512" xml:space="preserve"><g id="e6c6b53d3c8160b22dad35a0f710659c"><path display="inline" d="M394.456,7.668c-1.019,2.857-94.771,258.041-120.438,329.774v7.534v161.56
		c0,3.104-1.858,4.964-4.33,4.964h-39.965c-3.095,0-4.331-1.859-4.331-4.964V336.098C194.602,258.58,118.38,55.682,117.322,53.437
		c-1.334-2.808,1.009-7.336,5.122-7.336h42.2c5.596,0,7.06,3.965,7.91,7.158c1.522,5.814,53.569,151.336,59.008,168.146
		l22.346,61.064c2.59-9.799,13.387-50.624,16.69-62.202c4.677-16.333,68.935-212.42,69.488-215.159
		c0.554-2.729,2.946-4.607,6.764-4.607h43.228C395.336,0.5,395.702,4.178,394.456,7.668z"></path></g></svg>