<?xml version="1.0" encoding="iso-8859-1"?>
<!DOCTYPE svg PUBLIC "-//W3C//DTD SVG 1.1//EN" "http://www.w3.org/Graphics/SVG/1.1/DTD/svg11.dtd">
<svg  version="1.1" xmlns="http://www.w3.org/2000/svg" xmlns:xlink="http://www.w3.org/1999/xlink" x="0px" y="0px" width="512px"
	 height="512px" viewBox="0 0 512 512" enable-background="new 0 0 512 512" xml:space="preserve"><g id="e6c6b53d3c8160b22dad35a0f710519b"><path display="inline" d="M370.445,0.5h-77.433c-76.074,0-140.595,57.912-140.595,170.34c0,67.447,31.245,117.185,86.933,141.714
		L135.439,500.605c-3.396,6.139,0,10.895,5.425,10.895h48.226c4.079,0,6.795-1.358,8.154-4.756l94.411-184.657h33.966v184.657
		c0,2.037,2.036,4.756,4.743,4.756h42.12c4.076,0,5.437-2.04,5.437-5.437V7.316C377.921,2.538,375.2,0.5,370.445,0.5z
		 M325.621,278.488h-28.53c-44.828,0-88.295-32.705-88.295-114.464c0-85.184,40.748-119.927,82.178-119.927h34.647V278.488z"></path></g></svg>