<?xml version="1.0" encoding="iso-8859-1"?>
<!DOCTYPE svg PUBLIC "-//W3C//DTD SVG 1.1//EN" "http://www.w3.org/Graphics/SVG/1.1/DTD/svg11.dtd">
<svg  version="1.1" xmlns="http://www.w3.org/2000/svg" xmlns:xlink="http://www.w3.org/1999/xlink" x="0px" y="0px" width="512px"
	 height="512px" viewBox="0 0 512 512" style="enable-background:new 0 0 512 512;" xml:space="preserve"><g id="7935ec95c421cee6d86eb22ecd12c181"><path style="display: inline;" d="M507.297,128.492c-24.416-29.754-91.082,47.581-114.949,33.965
		c-21.795-12.433,45.441-60.188,20.994-86.083c-24.459-25.895-93.329,75.251-119.378,75.251c-26.038,0,6.292-69.134,4.495-82.619
		c-1.799-13.462-30.533-15.238-58.368,12.586c-27.835,27.847-55.682,83.518-67.357,83.518c-11.671,0-6.283-45.804-7.181-53.873
		c-0.899-8.091-22.447-7.192-40.405,22.43c-17.958,29.645-20.655,62.863-35.926,64.661c-15.261,1.798-2.686-47.603-14.367-49.4
		c-11.671-1.798-32.325,46.703-48.491,84.417C14.787,260.357,8.302,286.822,5.54,299.716c-0.554,1.688-1.124,3.332-1.589,5.021
		c-22.497,81.588,67.385,147.718,200.757,147.718s259.746-66.13,282.251-147.718c6.764-24.514,3.301-47.624-8.375-67.993
		C451.789,158.203,530.045,156.251,507.297,128.492z M393.807,319.207C378.49,376.742,292.539,423.38,201.792,423.38
		c-90.731,0-151.879-46.638-136.568-104.173c15.31-57.534,101.272-104.172,192.003-104.172
		C347.969,215.035,409.121,261.673,393.807,319.207z M215.216,260.116c-44.406,0-83.227,32.275-86.702,72.072
		c-3.492,39.818,29.682,72.071,74.1,72.071c44.4,0,83.216-32.253,86.702-72.071C292.802,292.392,259.621,260.116,215.216,260.116z
		 M214.438,345.541c-1.168,13.354-14.192,24.163-29.08,24.163c-14.899,0-26.021-10.81-24.854-24.163
		c1.168-13.353,14.187-24.162,29.086-24.162C204.477,321.379,215.605,332.188,214.438,345.541z M219.102,331.596
		c-5.174,0-9.034-3.749-8.627-8.375c0.41-4.627,4.922-8.42,10.091-8.42c5.169,0,9.033,3.793,8.633,8.42
		C228.789,327.847,224.271,331.596,219.102,331.596z"></path></g></svg>