<?xml version="1.0" encoding="iso-8859-1"?>
<!DOCTYPE svg PUBLIC "-//W3C//DTD SVG 1.1//EN" "http://www.w3.org/Graphics/SVG/1.1/DTD/svg11.dtd">
<svg  version="1.1" xmlns="http://www.w3.org/2000/svg" xmlns:xlink="http://www.w3.org/1999/xlink" x="0px" y="0px" width="512px"
	 height="512px" viewBox="0 0 512 512" enable-background="new 0 0 512 512" xml:space="preserve"><g id="2069a460dcf28295e231f3111e03f7bb"><path display="inline" d="M166.079,214.027l-25.8-5.158c-1.103-0.222-2.21-0.326-3.312-0.326c-3.915,0-7.749,1.365-10.811,3.915
		c-3.925,3.271-6.156,8.139-6.07,13.247l0.467,28.616c0.127,7.698,5.444,14.336,12.935,16.142l25.327,6.092
		c1.307,0.318,2.636,0.473,3.951,0.473c3.752,0,7.44-1.257,10.453-3.625c4.064-3.203,6.433-8.094,6.433-13.265v-29.552
		C179.652,222.538,173.972,215.606,166.079,214.027z M162.766,260.138l-25.332-6.098l-0.467-28.612l25.799,5.158V260.138z
		 M470.944,67.301c-8.048-15.406-26.884-27.469-42.879-27.469c-8.57,0-15.942,3.489-20.669,9.695l-61.594,78.088L256.62,0.5
		l-88.586,66.188L37.221,191.141l14.363,173.343l69.468,28.693l0.01,0.005c0.004,0,0.009,0.004,0.009,0.004l4.977,2.056
		l22.696-20.81l1.852,0.676l-5.88,7.454l-1.057,1.343L100.715,511.5l108.818-76.232l0.921-1.202c0.245-0.317,0.49-0.645,0.74-0.962
		l40.756,18.713L355.824,303.43l5.004-65.113c51.082-66.415,94.729-123.041,105.889-137.19h0.467l2.936-4.224
		C476.03,88.401,476.33,77.613,470.944,67.301z M178.544,79.913l33.172-24.783l-77.009,76.415c-0.403,0.199-0.808,0.398-1.184,0.666
		l-37.849,26.599L178.544,79.913z M123.012,285.37c-2.608-0.804-5.457-0.281-7.626,1.393c-2.164,1.674-3.384,4.291-3.271,7.027
		l3.212,78.75l-47.771-19.729L55.526,207.559c0.313-0.168,0.626-0.341,0.925-0.549l86.775-60.98c0.077-0.051,0.127-0.118,0.2-0.173
		l98.271,113.745l-41.274,52.334c-0.993-2.123-2.826-3.806-5.172-4.518L123.012,285.37z M149.697,356.803l-4.8-1.751l-8.356,7.657
		L132,366.874l-2.527-61.879l54.902,16.758l0.05,10.462l-22.737,28.829L149.697,356.803z M249.325,426.121l-3.126,4.469
		l-24.461-11.228c8.878-11.563,18.382-23.949,28.313-36.878L249.325,426.121z M454.01,85.692c-2.35,2.663-5.712,6.991-11.169,14.009
		c-7.163,9.214-17.344,22.379-29.533,38.18c-24.361,31.579-56.762,73.679-89.13,115.787
		c-60.219,78.329-120.337,156.652-128.43,167.2l-23.989,16.804c-1.221-10.239-9.591-16.477-19.88-16.432l9.359-27.813
		L422.966,61.594c0.468-0.617,1.569-2.064,5.1-2.064c8.528,0,20.882,8.211,25.418,16.895c2.953,5.652,1.08,8.338,0.463,9.227
		L454.01,85.692z"></path></g></svg>