<?xml version="1.0" encoding="iso-8859-1"?>
<!DOCTYPE svg PUBLIC "-//W3C//DTD SVG 1.1//EN" "http://www.w3.org/Graphics/SVG/1.1/DTD/svg11.dtd">
<svg  version="1.1" xmlns="http://www.w3.org/2000/svg" xmlns:xlink="http://www.w3.org/1999/xlink" x="0px" y="0px" width="512px"
	 height="512px" viewBox="0 0 512 512" enable-background="new 0 0 512 512" xml:space="preserve"><g id="1adf468c34277fe2a9aa3ee4b9004e33"><path d="M105.004,377.369c1.809,3.536,2.819,6.901,2.243,7.477c-1.469,1.469-48.705,0.975-55.244-0.583
		c-18.046-4.288-37.177-20.23-46.145-38.468C0.766,335.454,0.5,333.934,0.5,315.637c0-17.411,0.428-20.201,4.48-28.844
		c8.539-18.216,24.902-31.383,45.428-36.549c4.333-1.093,8.407-2.835,9.049-3.868c0.643-1.04,1.358-6.694,1.587-12.562
		c1.432-36.446,25.346-68.567,58.736-78.878c18.046-5.572,40.712-4.2,60.33,3.646c6.229,2.487,5.528,3.026,18.688-14.23
		c7.779-10.208,23.508-22.895,36.38-29.36c13.891-6.975,28.342-10.193,45.613-10.149c48.292,0.118,89.912,30.32,105.301,76.42
		c4.915,14.732,4.672,18.85-1.13,18.976c-2.531,0.052-9.779,1.447-16.111,3.093l-11.515,3.004l-10.51-10.503
		c-29.619-29.626-77.963-36.025-119.065-15.772c-16.415,8.097-29.612,19.714-39.576,34.852c-7.1,10.798-16.164,30.933-16.164,35.93
		c0,3.55-2.871,5.321-15.138,9.344c-37.974,12.451-60.138,41.214-60.116,78.015C96.767,351.596,100.221,367.981,105.004,377.369z
		 M473.561,299.643l-9.528-3.417l-1.063-13.027c-3.891-47.627-52.116-76.132-100.496-59.385l-10.001,3.454l-11.16-11.713
		c-20.282-21.308-34.793-27.619-63.865-27.773c-20.474-0.111-29.021,1.808-45.945,10.281c-16.171,8.104-31.302,27.907-39.472,51.666
		c-1.801,5.226-3.277,11.13-3.277,13.107c0,6.318-3.809,9.042-16.179,11.581c-24.851,5.107-43.745,18.976-50.875,37.361
		c-2.916,7.498-3.757,13.086-3.742,24.747c0.059,36.476,17.285,61.054,48.211,68.781c6.429,1.602,43.628,2.022,160.642,1.793
		l152.279-0.295l6.856-3.661c14.569-7.801,23.773-23.515,25.286-43.191C513.557,329.859,500.766,309.393,473.561,299.643z"></path></g></svg>