<?xml version="1.0" encoding="iso-8859-1"?>
<!DOCTYPE svg PUBLIC "-//W3C//DTD SVG 1.1//EN" "http://www.w3.org/Graphics/SVG/1.1/DTD/svg11.dtd">
<svg  version="1.1" xmlns="http://www.w3.org/2000/svg" xmlns:xlink="http://www.w3.org/1999/xlink" x="0px" y="0px" width="512px"
	 height="512px" viewBox="0 0 512 512" style="enable-background:new 0 0 512 512;" xml:space="preserve"><g id="7935ec95c421cee6d86eb22ecd12cc09"><path style="display: inline;" d="M493.43,310.244c3.631-16.618,5.563-33.859,5.563-51.562
		c0-132.728-107.588-240.317-240.316-240.317c-14.009,0-27.732,1.222-41.094,3.518C196.099,8.359,170.686,0.5,143.427,0.5
		C66.465,0.5,4.075,62.903,4.075,139.865c0,25.725,6.999,49.803,19.163,70.487c-3.194,15.607-4.878,31.775-4.878,48.331
		c0,132.728,107.589,240.316,240.316,240.316c15.047,0,29.742-1.396,44.014-4.042c19.613,10.555,42.043,16.543,65.871,16.543
		c76.975,0,139.365-62.391,139.365-139.365C507.926,349.903,502.699,328.895,493.43,310.244z M381.922,373.52
		c-11.104,15.745-27.533,28.208-48.816,37.053c-21.072,8.758-46.334,13.199-75.091,13.199c-34.52,0-63.463-6.063-86.043-18.039
		c-16.144-8.733-29.467-20.535-39.573-35.119c-10.205-14.733-15.382-29.33-15.382-43.428c0-8.808,3.381-16.442,10.03-22.681
		c6.587-6.2,15.021-9.331,25.076-9.331c8.259,0,15.382,2.47,21.171,7.36c5.527,4.69,10.28,11.627,14.085,20.585
		c4.267,9.756,8.908,17.989,13.811,24.477c4.716,6.238,11.49,11.478,20.148,15.582c8.721,4.13,20.46,6.213,34.907,6.213
		c19.874,0,36.167-4.242,48.418-12.613c11.963-8.158,17.775-17.965,17.775-29.979c0-9.494-3.043-16.941-9.281-22.793
		c-6.549-6.113-15.156-10.879-25.649-14.147c-10.915-3.393-25.749-7.073-44.076-10.916c-24.938-5.339-46.135-11.677-62.989-18.851
		c-17.229-7.323-31.126-17.49-41.282-30.216c-10.317-12.899-15.544-29.105-15.544-48.156c0-18.152,5.489-34.52,16.318-48.63
		c10.741-14.022,26.436-24.914,46.646-32.386c19.948-7.373,43.665-11.116,70.5-11.116c21.469,0,40.332,2.482,56.09,7.385
		c15.83,4.928,29.193,11.59,39.684,19.786c10.568,8.259,18.428,17.092,23.367,26.261c4.99,9.282,7.512,18.489,7.512,27.421
		c0,8.583-3.307,16.393-9.855,23.18c-6.588,6.849-14.885,10.33-24.678,10.33c-8.896,0-15.869-2.183-20.697-6.462
		c-4.504-3.967-9.17-10.18-14.348-19.087c-6-11.39-13.248-20.36-21.569-26.685c-8.072-6.151-21.571-9.27-40.122-9.27
		c-17.229,0-31.226,3.468-41.631,10.28c-10.03,6.575-14.896,14.123-14.896,23.042c0,5.477,1.56,10.043,4.791,13.985
		c3.418,4.167,8.234,7.834,14.322,10.878c6.313,3.181,12.825,5.701,19.337,7.498c6.687,1.859,17.902,4.603,33.259,8.159
		c19.45,4.167,37.327,8.846,53.134,13.898c15.994,5.127,29.828,11.439,41.096,18.775c11.514,7.498,20.635,17.116,27.096,28.619
		c6.488,11.527,9.768,25.774,9.768,42.317C398.738,339.687,393.088,357.738,381.922,373.52z"></path></g></svg>