<?xml version="1.0" encoding="iso-8859-1"?>
<!DOCTYPE svg PUBLIC "-//W3C//DTD SVG 1.1//EN" "http://www.w3.org/Graphics/SVG/1.1/DTD/svg11.dtd">
<svg  version="1.1" xmlns="http://www.w3.org/2000/svg" xmlns:xlink="http://www.w3.org/1999/xlink" x="0px" y="0px" width="512px"
	 height="512px" viewBox="0 0 512 512" enable-background="new 0 0 512 512" xml:space="preserve"><g id="b75708d097f2188dff6617b0f00f89d0"><path display="inline" d="M263.021,154.931c-7.455,0.131-15.023-0.742-22.147-2.696c-14.402-3.97-26.405-10.963-39.574-14.041
		c-6.291-1.638-13.059-1.838-19.561-0.408c-6.419,1.572-12.957,4.526-17.316,10.133c2.987-6.527,9.318-11.269,16.115-13.954
		c6.885-2.769,14.58-3.427,22.079-2.401c7.168,0.932,14.285,3.035,20.991,5.203c6.702,2.249,13.15,4.57,19.627,5.975
		c6.466,1.536,12.968,2.256,19.539,2.001c3.311-0.124,6.523-0.448,9.856-0.917c3.086-0.444,6.35-1.121,9.446-1.987
		c12.415-3.522,23.901-10.665,32.729-21.94c-3.26,14.219-15.485,26.023-29.687,31.139c-3.584,1.347-7.157,2.278-11.018,2.918
		C270.532,154.556,266.74,154.887,263.021,154.931z M480.253,207.476c0,12.681-7.685,23.975-19.489,28.785L460,236.77v130.15
		c0,31.949-26.965,58.08-58.908,58.08H299.215l41.654,86.246L227.007,425H91.164C59.202,425,32,398.869,32,366.92v-17.434v-0.59
		l55.314-21.951c-5.188-5.527-8.702-12.789-9.141-20.838L32,324.268V57.009C32,25.055,59.202,0,91.164,0h309.928
		C433.035,0,460,25.055,460,57.009v121.194l0.764,0.506C472.568,183.501,480.253,194.792,480.253,207.476z M133,304.361
		c0-11.582-9.416-20.996-20.994-20.996c-11.604,0-21.024,9.414-21.024,20.996c0,11.607,9.421,21.008,21.024,21.008
		C123.584,325.369,133,315.969,133,304.361z M216.793,326.061c0-6.566,1.14-12.873,3.155-18.768l-75.687-10.07
		c0.51,2.303,0.822,4.678,0.822,7.139c0,5.545-1.506,10.705-3.919,15.289l75.817,10.1
		C216.902,328.527,216.793,327.307,216.793,326.061z M249.221,229.024c35.745-8.154,74.264-1.798,91.558,5.738l-21.795-80.206
		c26.911,6.044,58.971-10.239,52.203-46.534c-5.906-31.459-43.755-26.751-43.755-26.751c-0.578-27.42-21.649-56.34-59.439-49.401
		c-41.251,7.572-44.296,45.894-81.636,52.298c-22.636,3.886-39.733-2.481-70.697,7.707c-37.187,12.218-43.256,45.573-27.912,71.163
		c10.672,17.749,50.824,33.97,85.296,19.045l10.454,84.378C196.352,251.841,218.121,236.144,249.221,229.024z M316.291,326.061
		c0-22.652-18.394-41.023-41.069-41.023c-22.646,0-41.064,18.371-41.064,41.023c0,22.676,18.418,41.059,41.064,41.059
		C297.897,367.119,316.291,348.736,316.291,326.061z M429.418,234.329c-6.247-4.472-10.807-11.064-12.764-18.713L316.087,284.41
		c5.41,5.295,9.791,11.619,12.826,18.662L429.418,234.329z M469.628,207.476c0-11.589-9.416-21.006-21.009-21.006
		c-11.607,0-21.01,9.417-21.01,21.006c0,11.61,9.402,21.021,21.01,21.021C460.212,228.497,469.628,219.086,469.628,207.476z"></path></g></svg>