<?xml version="1.0" encoding="iso-8859-1"?>
<!DOCTYPE svg PUBLIC "-//W3C//DTD SVG 1.1//EN" "http://www.w3.org/Graphics/SVG/1.1/DTD/svg11.dtd">
<svg  version="1.1" xmlns="http://www.w3.org/2000/svg" xmlns:xlink="http://www.w3.org/1999/xlink" x="0px" y="0px" width="512px"
	 height="512px" viewBox="0 0 512 512" enable-background="new 0 0 512 512" xml:space="preserve"><g id="2069a460dcf28295e231f3111e03b6c9"><path display="inline" d="M487.132,265.096c-3.112,0.432-5.018,3.443-6.814,5.793c-0.571,1.243-1.134,2.486-2.032,3.666
		c-3.43,5.752-2.409,1.188-5.58,7.331c-0.571,1.238-1.46,2.413-2.032,3.661c-7.921,15.356-16.309,29.614-26.656,43.506
		c-2.287,3.275-6.297,4.881-9.241,8.034c-5.503,6.043-10.362,12.208-15.811,17.924c-8.283,17.307-22.143,30.209-36.65,42.979
		c-5.916,4.623-12.181,7.494-18.618,11.337c-4.637,3.176-8.298,6.532-12.136,10.86c-3.339,3.421-7.014,5.09-10.815,7.413
		c-1.868,0.998-3.938,1.279-6.169,0.53c-1.561-0.63,0.744,9.831-0.05,8.679c-7.631-13.21-10.344-27.528-13.646-42.294
		c-4.396-17.09-5.189-22.062-5.189-15.447c-1.284-3.942-1.262-7.64-2.608-11.26c-0.73-1.483-0.754-3.171-1.162-4.591
		c-3.121-10.344-9.463-19.607-9.735-30.776c-0.1-8.438,4.283-21.086-6.777-23.164c-8.466-1.574-17.371-2.567-24.896-7.34
		c-4.841-2.931-9.563-6.496-12.612-11.786c-2.123-3.089-4.622-5.916-5.961-9.531c-0.935-2.195-1.161-4.591-2.808-6.583
		c-8.098-8.919-20.338-6.496-30.418-2.994c-1.751,0.345-3.176,0.744-4.863,0.771c-4.409,0.182-7.993-0.48-12.285-0.952
		c-1.946-0.363-3.697-0.019-5.443,0.335c-10.026,3.176-19.19,7.187-28.83,10.099c-1.811,0.676-3.888,0.953-5.693,1.629
		c-7.113,2.037-14.027,4.786-21.404,6.433c-2.132,0.612-4.001,1.619-6.138,2.223c-2.399,0.223-4.536,0.835-6.673,1.447
		c-4.591,1.162-9.31,2.977-13.9,4.138c-15.211,3.893-29.642,7.249-44.994,10.107c-1.747,0.34-3.293,1.406-4.772,2.132
		c-11.387,3.258-22.062,6.319-33.063,9.313c-4.591,1.157-9.182,2.328-14.045,3.099c-1.688,0.019-4.087,0.25-5.163,2.404
		c3.253,0.608,3.684,3.721,2.486,6.528c3.72,1.701,7.603,0.749,11.686,0.499c9.6-0.902,18.4-2.962,27.795-4.568
		c7.708-1.588,14.758-3.307,22.729-4.509c2.014,0.045,3.761-0.309,5.775-0.272c2.336,0.1,4.527-0.83,6.986-1.379
		c4.536-0.835,8.928-2.713,13.528-3.875c4.854-0.771,9.854-0.508,14.979-0.902c6.098-0.204,11.913-2.486,17.874-3.733
		c9.771-1.874,19.316-2.45,28.966-3.675c1.692-0.019,3.707,0.019,5.448-0.322c9.98-1.166,19.762-3.044,29.606-5.249
		c1.742-0.335,3.697,0.019,5.443-0.326c1.361-0.082,2.604,0.48,3.911,0.73c1.624,0.304,3.965,0.403,5.407,1.688
		c2.949,2.228,6.225,4.527,9.109,7.081c2.89,2.568,4.56,6.247,7.386,9.133c2.236,2.44,3.053,5.28,6.061,7.19
		c2.359,1.792,4.654,3.91,7.34,5.752c5.762,3.43,11.896,6.601,18.351,8.147c2.927,0.55,4.959,2.273,7.382,3.729
		c4.246,2.481,7.153,6.737,9.358,11.183c5.866,11.872,9.178,22.933,13.741,34.564c3.539,2.681,6.696,5.625,9.01,9.427
		c4.028,5.462,6.188,11.927,8.615,18.781c1.665,3.68,5.212,6.36,5.838,10.181c0.917,5.901-2.236-0.01-3.334,5.843
		c-0.504,0.916-1.075,2.154-1.91,3.008c-8.41,7.181-17.643,11.514-27.664,14.693c-11.441,3.584-22.71,6.197-34.378,7.386
		c-8.946,1.021-17.039,2.867-26.063,2.527c-3.053,0.104-5.589-0.713-8.643-0.604c-1.746,0.35-3.438,0.372-5.126,0.39
		c-10.262-0.916-20.184-0.072-30.15-2.604c-6.446-1.547-13.011-2.432-19.275-4.954c-6.592-2.581-11.387-7.517-17.86-10.742
		c-2.418-1.466-5.345-2.015-7.703-3.802c-2.359-1.788-4.728-3.575-7.022-5.689c-4.333-3.838-10.498-3.312-14.826-7.145
		c-8.192-6.583-16.195-12.453-24.452-18.709c-3.212-2.627-5.262-6.043-8.538-8.338c-1.506-0.953-3.375,0.04-3.679,1.674
		c-0.304,1.624,0.431,3.107-0.204,4.673c-1.134,2.481-4.046,3.624-5.122,5.779c-1.52,2.749-0.703,5.594-0.213,8.374
		c1.71,7.06,3.094,14.046,4.423,21.367c1.447,6.669,5.031,12.721,9.708,18.319c4.414,5.198,9.518,8.511,14.381,13.119
		c3.416,3.335,4.577,7.931,7.998,11.26c4.536,4.555,9.88,6.561,14.844,8.838c4.899,2.595,9.984,4.224,15.129,5.521
		c5.798,1.416,10.965,4.405,16.758,5.825c8.012,2.178,16.006,2.654,24.438,2.545c2.994,0.227,5.472,1.361,8.216,2.886
		c1.239,0.566,2.545,0.816,4.028,0.081c1.811-0.671,3.562-1.021,5.249-1.043c10.634-1.034,20.369-0.907,30.641,0.004
		c1.034-0.141,2.132-0.603,2.903-1.134c4.491-4.215,9.391-7,15.021-8.307c5.575-0.979,11.064-1.737,16.653-2.608
		c11.795-1.837,22.71-6.192,34.093-9.449c4.977-1.425,9.495-3.947,14.594-6.029c7.363-3.344,14.063-6.805,21.041-9.876
		c5.208,0.975,9.871,18.618,13.618,22.007c1.761,1.347,4.491,1.175,5.566-0.984c1.946-5.018-5.366-21.136-5.426-26.194
		c0.141-4.351,4.006-6.991,7.091-9.118c7.077-5.403,13.969-9.845,20.777-15.638c1.606-1.384,3.212-2.772,5.081-3.771
		c8.229-6.201,15.425-12.267,22.274-20.069c20.805-23.055,38.824-45.615,56.24-70.308c5.685-12.403,13.469-23.409,19.213-36.139
		c1.887-4.7,0.789-9.617,2.948-13.932c3.852-8.034,3.647-6.011,8.094-13.597c2.931-4.836,6.56-9.88,6.945-15.533
		C493.192,266.901,490.239,264.674,487.132,265.096L487.132,265.096z M478.067,76.079c-3.747-8.783-8.892-15.47-15.669-22.46
		c-6.179-6.542-12.222-12.049-18.972-17.353c-6.434-5.244-13.043-9.508-19.648-13.773c-3.543-2.686-7.59-4.45-11.572-6.542
		c-7.118-3.353-14.281-4.691-21.581-7.068c-11.532-3.167-22.973-4.972-34.482-6.446c-5.267-0.649-10.207-1.234-15.597-1.229
		c-7.73-0.1-14.417-0.34-22.202-0.113c-6.16,0.531-11.999,1.129-17.892,2.046c-6.933,1.062-13.873,2.123-20.923,3.829
		c-14.88,3.956-28.136,8.216-42.853,14.884c-12.131,5.48-23.436,10.103-34.568,17.448c-18.419,12.044-32.047,27.342-48.741,42.744
		c-7.377,7.036-14.976,11.677-22.619,18.328c-7.699,6.982-14.567,13.102-21.086,20.973c-2.686,3.543-5.431,7.403-4.265,11.999
		c1.139,2.908,2.159,6.465,0.694,8.888c-13.002,19.116-24.112,38.924-36.261,58.875c-3.316,5.108-7.54,9.704-10.525,14.871
		c-3.434,5.762-7.131,11.124-9.971,17.33c-3.293,6.791-6.401,12.611-9.364,19.462c-3.86,8.03-6.741,16.25-8.973,24.593
		c-0.118,0.64-0.363,1.941-0.49,2.595c-2.863,4.509-3.629,10.43,0.372,14.213c1.179,0.898,2.404-0.223,3.561-1.017
		c3.271-3.099,4.06-7.321,6.746-10.865c4.083-5.63,7.191-11.454,10.688-17.524c6.537-11.578,11.45-23.455,18.318-34.963
		c2.804-4.188,5.217-8.116,8.025-12.308c17.253-27.42,39.646-48.151,63.889-71.561c6.542-6.188,12.698-12.104,20.156-17.783
		c6.682-5.145,13.387-9.463,20.265-14.73c3.538-2.703,7.395-5.348,11.604-6.247c2.463-0.553,4.01,3.779,5.208,6.36
		c1.996,3.738,4.5,6.569,5.394,10.774c0.84,4.532-1.374,9.169,0.821,13.624c8.71,16.444,15.144,32.463,21.331,49.784
		c2.159,6.46,2.368,12.562,4.523,19.026c2.159,6.469,4.377,12.603,7.127,19.517c3.279,7.685,6.088,14.271,9.689,22.011
		c2.931,5.938,7.531,10.163,13.024,13.215c6.084,3.498,13.355,4.179,19.376,7.998c3.924,2.423,6.959,6.012,10.38,9.351
		c6.179,6.537,6.94,15.102,11.699,22.052c5.349,2.015,11.102,0.063,16.346-0.989c2.849-0.807,5.489-2.336,7.223-4.373
		c2.29-3.275,4.581-6.555,7.793-9.317c2.768-2.178,5.354-3.376,8.574-4.451c6.084-1.892,11.923-2.485,18.056-4.709
		c1.425-0.403,3.117-0.431,4.863-0.775c8.356-1.47,16.037-4.745,24.37-7.902c6.851-2.423,13.787-3.484,20.515-5.254
		c13.129-3.611,26.304-3.838,39.522-6.079c10.82-2.024,20.288-7.658,31.167-10.003c6.731-1.77,15.578-0.458,19.189-7.186
		c1.012-1.828-1.529-2.641-3.212-2.618c-8.238,0.816-15.696,1.107-23.926,1.924c-21.54,1.696-41.891,4.292-64.012,5.539
		c-13.945,0.762-26.692,4.105-40.37,5.249c-7.2,0.671-14.01,1.079-21.091,1.106c-8.438,0.109-16.104-0.317-24.089-0.798
		c-7.014-0.3-12.648-4.383-19.24-6.964c-2.862-0.871-5.38,0-8.129-1.52c-3.403-1.647-7.427-1.725-10.82-3.371
		c-5.553-2.727-9.89-6.564-14.489-10.788c-5.444-5.058-9.863-10.262-13.646-17.03c-3.257-5.997-4.822-12.018-8.143-17.684
		c-0.73-1.483-0.817-2.844-1.226-4.269c-9.586-18.963-16.427-36.41-25.178-56.227c-2.346-5.489-4.804-10.325-7.53-15.551
		c-2.727-5.227-4.151-10.208-5.848-15.57c-0.082-1.361,0.549-2.931,1.447-4.11c19.221-14.589,41.809-20.133,62.854-30.005
		c11.913-2.486,23.581-3.67,35.694-5.444c9.336-1.288,18.363-0.943,28.099-0.812c14.545-0.313,27.556,2.119,41.964,2.459
		c3.384-0.045,6.633,0.567,9.771,1.824c2.858,0.875,5.462,1.356,8.274,2.559c4.043,1.765,8.521,1.256,12.626,2.699
		c6.582,2.577,12.525,5.031,18.224,8.792c9.29,6.115,17.166,12.634,24.996,21.172c8.624,9.695,14.145,19.815,23.545,28.984
		c1.116,1.216,3.312,0.276,4.872,0.907c3.14,1.261,3.058,5.285,5.743,7.141c1.243,0.563,2.396-0.227,2.26-1.266
		c0.108-6.038-3.258-11.383-4.184-17.275c-0.793-6.546,1.929-12.104,1.843-18.85c-0.109-3.053-0.209-6.097-1.67-9.068
		C482.994,85.751,480.472,81.242,478.067,76.079L478.067,76.079L478.067,76.079z M116.539,142.164
		c-1.688,5.412-3.96,10.375-7.861,15.029c-3.14,3.747-4.896,8.175-9.083,10.761c-1.483,0.73-3.315-0.281-2.686-1.851
		c3.961-10.371,9.627-19.076,17.983-25.932C115.781,138.993,117.102,140.925,116.539,142.164L116.539,142.164z"></path></g></svg>