<?xml version="1.0" encoding="iso-8859-1"?>
<!DOCTYPE svg PUBLIC "-//W3C//DTD SVG 1.1//EN" "http://www.w3.org/Graphics/SVG/1.1/DTD/svg11.dtd">
<svg  version="1.1" xmlns="http://www.w3.org/2000/svg" xmlns:xlink="http://www.w3.org/1999/xlink" x="0px" y="0px" width="512px"
	 height="512px" viewBox="0 0 512 512" enable-background="new 0 0 512 512" xml:space="preserve"><g id="2069a460dcf28295e231f3111e04100d"><path display="inline" d="M511.48,198.149c-0.49,3.747-4.809,5.925-25.622,5.771c-101.008-0.876-113.669,14.367-113.669,14.367
		s-8.52,4.931-2.677,16.214c6.242,12.035,82.003,100.599,98.417,131.066c10.66,19.771,25.618,54.013-33.825,74.291
		c-58.168,20.261-167.269,0.19-167.989,0c-26.44-6.646-25.8-11.16-25.505-13.111c0.521-3.737,4.763-5.752,25.564-5.743
		c95.817,0.082,142.136-6.687,153.346-13.687c6.868-4.251,8.021-10.774,7.386-16.5c-1.393-12.493-31.066-48.904-55.587-77.575
		c-25.174-29.497-78.751-80.96-42.631-112.189c43.325-37.454,138.793-20.986,157.465-16.967
		C505.95,188.322,511.894,195.055,511.48,198.149z M198.447,35.444c42.177-0.055,74.967,2.69,97.415,6.714
		c45.665,8.243,34.913,31.289,21.935,53.346c-31.493,53.7-116.545,114.113-121.486,117.525c-6.483,4.464-2.936,7.067,2.735,4.963
		c68.965-25.65,138.458-69.891,166.525-123.631c23.804-45.583,6.741-67.205-29.547-77.394
		c-64.791-18.228-131.965-1.529-137.618,0.136c-8.057,2.363-24.293,6.832-22.924,12.757
		C176.363,33.652,179.588,35.458,198.447,35.444z M239.589,253.051c-67.224-19.875-140.508-2.595-151.694,0.363
		c-16.922,4.491-26.834,9.014-26.14,14.317c0.521,3.919,4.85,6.614,25.645,6.088c49.571-1.198,90.642,0.485,116.604,7.748
		c32.15,8.982,36.11,25.541,20.188,58.068c-7.363,15.034-18.246,30.567-34.736,47.09c-32.913,33.026-74.056,54.512-97.233,66.243
		c-22.533,11.441-30.776,5.362-28.276-5.925c3.085-13.81,67.015-124.438,67.015-124.438c4.813-8.401,5.661-16.286,0-18.649
		c-4.845-2.064-13.633,4.745-22.76,15.306C70.892,362.601,2.063,494.456,0.783,498.784c-1.252,4.142,1.982,4.668,3.216,4.695
		c29.134-0.227,208.016-53.133,265.736-161.267C300.13,285.274,284.746,266.429,239.589,253.051z"></path></g></svg>