<?xml version="1.0" encoding="iso-8859-1"?>
<!DOCTYPE svg PUBLIC "-//W3C//DTD SVG 1.1//EN" "http://www.w3.org/Graphics/SVG/1.1/DTD/svg11.dtd">
<svg  version="1.1" xmlns="http://www.w3.org/2000/svg" xmlns:xlink="http://www.w3.org/1999/xlink" x="0px" y="0px" width="512px"
	 height="512px" viewBox="0 0 512 512" enable-background="new 0 0 512 512" xml:space="preserve"><g id="5151e0c8492e5103c096af88a50061c5"><path display="inline" d="M25.173,355.106c1.076,0,1.946-0.849,2.117-2.067l5.717-44.884l-5.717-45.889
		c-0.171-1.22-1.041-2.061-2.117-2.061c-1.091,0-1.982,0.862-2.125,2.061c0,0.007-5.026,45.889-5.026,45.889l5.026,44.876
		C23.191,354.229,24.083,355.106,25.173,355.106z M8.328,336.058c0,0,0,0,0,0.007l0,0V336.058z M6.274,338.047
		c1.041,0,1.875-0.813,2.053-1.982l4.42-27.909l-4.42-28.395c-0.171-1.169-1.012-1.981-2.053-1.981
		c-1.062,0-1.896,0.819-2.046,1.996L0.5,308.155l3.729,27.896C4.378,337.227,5.212,338.047,6.274,338.047z M47.808,253.712
		c-0.157-1.454-1.233-2.51-2.56-2.51c-1.354,0-2.424,1.063-2.566,2.51l-4.762,54.45l4.762,52.455
		c0.143,1.461,1.212,2.509,2.566,2.509c1.326,0,2.402-1.048,2.552-2.495l5.425-52.469L47.808,253.712z M65.487,365.236
		c1.568,0,2.852-1.269,3.001-2.944l0,0l5.119-54.123l-5.119-55.947c-0.149-1.675-1.433-2.944-3.001-2.944
		c-1.583,0-2.873,1.27-3.001,2.951l-4.513,55.94l4.513,54.123C62.614,363.968,63.904,365.236,65.487,365.236z M85.89,366.127
		c1.825,0,3.301-1.461,3.436-3.386l-0.007,0.007l4.827-54.571l-4.827-51.913c-0.128-1.918-1.604-3.372-3.429-3.372
		c-1.839,0-3.315,1.454-3.429,3.387l-4.256,51.898l4.256,54.564C82.575,364.666,84.051,366.127,85.89,366.127z M114.848,308.198
		l-4.527-84.436c-0.114-2.152-1.811-3.828-3.864-3.828s-3.764,1.676-3.864,3.828l-4,84.436l4,54.564
		c0.1,2.124,1.811,3.813,3.864,3.813s3.75-1.689,3.864-3.828v0.015L114.848,308.198z M127.195,366.677
		c2.303,0,4.185-1.868,4.299-4.264v0.036l4.228-54.244l-4.228-103.74c-0.114-2.395-1.996-4.27-4.299-4.27
		c-2.317,0-4.213,1.875-4.313,4.27c0,0.008-3.735,103.74-3.735,103.74l3.743,54.229
		C122.982,364.809,124.878,366.677,127.195,366.677z M148.09,191.112c-2.574,0-4.655,2.067-4.748,4.705
		c0,0.008-3.472,112.402-3.472,112.402l3.479,53.666c0.085,2.616,2.167,4.677,4.741,4.677c2.552,0,4.641-2.061,4.741-4.698v0.036
		l3.928-53.681l-3.928-112.409C152.73,193.173,150.642,191.112,148.09,191.112z M169.156,366.669c2.809,0,5.083-2.26,5.175-5.14
		v0.035l3.622-53.338l-3.622-116.188c-0.093-2.887-2.366-5.146-5.175-5.146c-2.823,0-5.097,2.26-5.183,5.146l-3.223,116.188
		l3.223,53.331C164.059,364.409,166.333,366.669,169.156,366.669z M190.378,366.619c3.065,0,5.532-2.452,5.611-5.589v0.043
		l3.336-52.84l-3.336-113.229c-0.079-3.129-2.546-5.582-5.611-5.582c-3.072,0-5.546,2.46-5.617,5.582l-2.958,113.229l2.965,52.825
		C184.832,364.167,187.306,366.619,190.378,366.619z M220.848,308.248l-3.03-109.108c-0.071-3.372-2.73-6.017-6.045-6.017
		c-3.329,0-5.988,2.645-6.053,6.024l-2.702,109.093l2.702,52.49c0.064,3.344,2.724,5.988,6.053,5.988
		c3.314,0,5.974-2.645,6.045-6.023v0.043L220.848,308.248z M233.33,366.826c3.515,0,6.423-2.901,6.48-6.466v0.043l2.737-52.148
		l-2.737-129.824c-0.058-3.558-2.966-6.459-6.48-6.459c-3.521,0-6.431,2.901-6.487,6.459l-2.445,129.781
		c0,0.079,2.445,52.184,2.445,52.184C226.899,363.925,229.809,366.826,233.33,366.826z M254.788,159.767
		c-3.771,0-6.872,3.108-6.93,6.908l-2.83,141.595l2.83,51.385c0.058,3.75,3.158,6.851,6.93,6.851c3.764,0,6.865-3.101,6.922-6.9
		v0.057l3.08-51.392l-3.08-141.602C261.653,162.875,258.552,159.767,254.788,159.767z M274.428,366.861
		c0.157,0.015,173.098,0.101,174.224,0.101c34.718,0,62.849-28.146,62.849-62.863s-28.131-62.849-62.849-62.849
		c-8.618,0-16.824,1.74-24.31,4.877c-4.997-56.646-52.512-101.089-110.448-101.089c-14.179,0-28.002,2.795-40.207,7.521
		c-4.74,1.832-6.01,3.729-6.052,7.386c0,0.007,0,199.488,0,199.488C267.685,363.283,270.671,366.491,274.428,366.861z"></path></g></svg>