<?xml version="1.0" encoding="iso-8859-1"?>
<!DOCTYPE svg PUBLIC "-//W3C//DTD SVG 1.1//EN" "http://www.w3.org/Graphics/SVG/1.1/DTD/svg11.dtd">
<svg  version="1.1" xmlns="http://www.w3.org/2000/svg" xmlns:xlink="http://www.w3.org/1999/xlink" x="0px" y="0px" width="512px"
	 height="512px" viewBox="0 0 512 512" enable-background="new 0 0 512 512" xml:space="preserve"><g id="5151e0c8492e5103c096af88a50096b8"><path display="inline" d="M256,21.2C114.891,21.2,0.494,126.333,0.494,256c0,60.752,25.108,116.104,66.313,157.791
		c37.192-38.133,88.635-59.606,147.782-57.669c77.514,2.488,137.968,40.712,170.804,102.324
		C460.831,417.632,511.506,342.272,511.506,256C511.506,126.333,397.109,21.2,256,21.2z M365.753,341.998
		c-4.242,7.051-13.402,9.229-20.419,4.964c-55.994-34.245-126.469-41.961-209.497-23.021c-7.991,1.869-15.971-3.142-17.793-11.178
		c-1.834-7.979,3.153-15.971,11.178-17.782c90.836-20.751,168.774-11.798,231.624,26.575
		C367.84,325.855,370.053,334.993,365.753,341.998z M394.932,273.381c-5.366,8.736-16.808,11.487-25.544,6.076
		c-64.077-39.382-161.815-50.778-237.632-27.768c-9.848,2.98-20.224-2.568-23.193-12.371c-2.981-9.848,2.568-20.224,12.371-23.193
		c86.617-26.3,194.317-13.574,267.922,31.666C397.603,253.202,400.343,264.599,394.932,273.381z M428.019,194.479
		c-6.294,10.594-19.948,14.056-30.554,7.796c-76.849-45.676-203.662-49.849-277.048-27.573
		c-11.774,3.589-24.236-3.061-27.825-14.869c-3.554-11.798,3.107-24.26,14.881-27.803c84.244-25.601,224.275-20.671,312.75,31.896
		C430.816,170.22,434.324,183.874,428.019,194.479z M305.345,486.375c-15.971,2.889-32.457,4.425-49.345,4.425
		c-44.645,0-86.594-10.547-123.109-29.04c20.178-23.399,47.499-35.874,80.185-34.819
		C256.206,428.362,287.528,449.24,305.345,486.375z"></path></g></svg>