<?xml version="1.0" encoding="iso-8859-1"?>
<!DOCTYPE svg PUBLIC "-//W3C//DTD SVG 1.1//EN" "http://www.w3.org/Graphics/SVG/1.1/DTD/svg11.dtd">
<svg  version="1.1" xmlns="http://www.w3.org/2000/svg" xmlns:xlink="http://www.w3.org/1999/xlink" x="0px" y="0px" width="512px"
	 height="512px" viewBox="0 0 512 512" style="enable-background:new 0 0 512 512;" xml:space="preserve"><g id="7935ec95c421cee6d86eb22ecd12de2d"><path id="icon_1_" style="display: inline;" d="M283.051,207.029l34.908,16.254l52.039-15.53v-36.109
		c-1.848-61.471-52.076-110.766-113.996-110.766c-61.694,0-111.805,48.933-113.996,110.09v164.997
		c0,14.929-12.109,27.038-27.043,27.038c-14.939,0-27.044-12.109-27.044-27.038v-69.923H0.5c0,0,0,70.026,0,70.846
		c0,63.091,51.139,114.234,114.229,114.234c62.538,0,113.224-50.267,114.106-112.585l0.123-162.958
		c0-14.949,12.11-27.049,27.044-27.049c14.929,0,27.048,12.1,27.048,27.049V207.029z M424.086,266.042v73.171
		c0,14.938-12.109,27.049-27.049,27.049c-14.93,0-27.039-12.11-27.039-27.049v-71.78l-52.039,15.53l-34.908-16.254v71.199
		c0.533,62.604,51.477,113.214,114.225,113.214c63.081,0,114.225-51.144,114.225-114.234c0-0.819,0-70.846,0-70.846H424.086z"></path></g></svg>