<?xml version="1.0" encoding="iso-8859-1"?>
<!DOCTYPE svg PUBLIC "-//W3C//DTD SVG 1.1//EN" "http://www.w3.org/Graphics/SVG/1.1/DTD/svg11.dtd">
<svg  version="1.1" xmlns="http://www.w3.org/2000/svg" xmlns:xlink="http://www.w3.org/1999/xlink" x="0px" y="0px" width="512px"
	 height="512px" viewBox="0 0 512 512" enable-background="new 0 0 512 512" xml:space="preserve"><g id="5151e0c8492e5103c096af88a5008b6c"><path display="inline" d="M392.271,0.5H119.729C54.157,0.5,0.5,54.157,0.5,119.729v272.542C0.5,457.843,54.157,511.5,119.729,511.5
		h272.542c65.572,0,119.229-53.657,119.229-119.229V119.729C511.5,54.157,457.843,0.5,392.271,0.5z M177.466,345.475
		c-11.34,11.24-25.512,16.867-42.529,16.867c-9.881,0-18.776-1.56-26.698-4.69c-7.922-3.132-16.031-8.371-24.34-15.707
		c-4.604-4.192-7.984-6.899-10.13-8.135c-2.146-1.21-4.204-1.821-6.15-1.821c-3.63,0-6.799,2.396-9.531,7.187
		c-2.745,4.79-4.753,11.54-6.026,20.235h-6.3l3.231-89.038h7.335c4.891,25.537,14.472,46.146,28.744,61.829
		c14.272,15.682,30.303,23.541,48.106,23.541c12.625,0,22.98-3.493,31.102-10.479c8.097-7.012,12.164-15.919,12.164-26.785
		c0-11.627-4.441-21.196-13.349-28.656c-8.895-7.485-26.099-15.245-51.624-23.255c-24.153-7.522-41.145-15.856-50.975-25.001
		c-9.831-9.157-14.734-20.859-14.734-35.131c0-15.744,5.327-29.144,15.981-40.196c10.667-11.041,23.753-16.568,39.311-16.568
		c8.321,0,15.931,1.422,22.893,4.242c6.937,2.845,13.536,7.235,19.786,13.212c0.687,0.686,1.722,1.709,3.082,3.081
		c5.19,5.19,9.245,7.76,12.176,7.76c3.705,0,6.6-1.796,8.646-5.414c2.071-3.618,3.868-10.317,5.439-20.098h6.014v81.69h-6.014
		c-7.435-25.612-17.278-45.05-29.554-58.286c-12.276-13.262-26.536-19.873-42.754-19.873c-11.153,0-20.285,3.206-27.421,9.594
		c-7.136,6.425-10.716,14.559-10.716,24.439c0,11.328,4.404,20.685,13.211,28.07c8.795,7.385,25.313,14.746,49.565,22.081
		c27.284,8.31,45.611,17.029,55.005,26.174c9.382,9.157,14.072,21.546,14.072,37.178
		C194.482,320.236,188.819,334.234,177.466,345.475z M466.238,162.869c-12.525,0.399-22.368,4.055-29.555,11.004
		c-7.186,6.937-14.459,20.635-21.795,41.058l-52.646,144.767h-7.187l-62.478-173.062c-3.63-9.881-7.922-16.306-12.912-19.3
		c-4.99-2.97-14.284-4.467-27.858-4.467v-6.313h100.491v6.425c-21.907,0.886-32.936,4.94-33.022,12.214
		c0,1.26,0.162,2.695,0.499,4.254c0.349,1.56,1.11,4.055,2.282,7.474l47.37,134.936l36.966-103.984
		c2.245-6.05,3.904-11.465,4.99-16.205c1.072-4.754,1.609-8.634,1.609-11.652c0-9.606-2.895-16.468-8.646-20.609
		c-3.692-2.67-9.02-4.517-15.956-5.54v-7.311h77.848V162.869z"></path></g></svg>