<?xml version="1.0" encoding="iso-8859-1"?>
<!DOCTYPE svg PUBLIC "-//W3C//DTD SVG 1.1//EN" "http://www.w3.org/Graphics/SVG/1.1/DTD/svg11.dtd">
<svg  version="1.1" xmlns="http://www.w3.org/2000/svg" xmlns:xlink="http://www.w3.org/1999/xlink" x="0px" y="0px" width="512px"
	 height="512px" viewBox="0 0 512 512" enable-background="new 0 0 512 512" xml:space="preserve"><g id="5151e0c8492e5103c096af88a5007f92"><path display="inline" d="M422.886,0.5H89.114C40.372,0.5,0.5,40.372,0.5,89.114v333.771c0,48.742,39.872,88.614,88.614,88.614
		h333.772c48.742,0,88.614-39.872,88.614-88.614V89.114C511.5,40.372,471.628,0.5,422.886,0.5z M197.103,323.106
		c-8.508,8.434-19.138,12.65-31.9,12.65c-7.411,0-14.085-1.173-20.023-3.519s-12.026-6.275-18.251-11.777
		c-3.456-3.144-5.988-5.177-7.598-6.101c-1.609-0.91-3.157-1.372-4.616-1.372c-2.72,0-5.103,1.797-7.148,5.39
		c-2.059,3.593-3.568,8.658-4.516,15.183h-4.729l2.42-66.781h5.502c3.667,19.149,10.854,34.606,21.558,46.371
		s22.73,17.653,36.08,17.653c9.469,0,17.241-2.62,23.33-7.859c6.075-5.253,9.119-11.939,9.119-20.086
		c0-8.721-3.331-15.894-10.005-21.495c-6.675-5.614-19.575-11.428-38.725-17.441c-18.115-5.639-30.852-11.889-38.225-18.751
		c-7.373-6.861-11.054-15.645-11.054-26.348c0-11.803,3.992-21.857,11.989-30.142c7.997-8.284,17.815-12.426,29.48-12.426
		c6.238,0,11.951,1.061,17.166,3.182c5.203,2.133,10.155,5.427,14.846,9.905c0.512,0.512,1.285,1.285,2.309,2.309
		c3.893,3.892,6.937,5.825,9.132,5.825c2.782,0,4.953-1.347,6.487-4.066c1.547-2.707,2.895-7.735,4.08-15.07h4.503v61.268h-4.503
		c-5.577-19.213-12.963-33.784-22.17-43.715c-9.207-9.943-19.898-14.908-32.062-14.908c-8.371,0-15.22,2.407-20.572,7.198
		c-5.352,4.815-8.034,10.916-8.034,18.327c0,8.495,3.306,15.52,9.906,21.059s18.988,11.053,37.177,16.555
		c20.459,6.238,34.208,12.775,41.256,19.637c7.036,6.861,10.555,16.156,10.555,27.883
		C209.865,304.181,205.611,314.673,197.103,323.106z M413.679,186.149c-9.394,0.299-16.779,3.044-22.169,8.259
		c-5.39,5.202-10.842,15.47-16.343,30.79l-39.485,108.574h-5.39l-46.858-129.796c-2.72-7.41-5.938-12.226-9.681-14.472
		c-3.743-2.232-10.717-3.355-20.896-3.355v-4.729h75.364v4.815c-16.43,0.661-24.701,3.705-24.764,9.157
		c0,0.948,0.125,2.021,0.374,3.193c0.262,1.173,0.836,3.045,1.709,5.602l35.531,101.202l27.721-77.984
		c1.684-4.541,2.932-8.596,3.742-12.151c0.812-3.568,1.21-6.475,1.21-8.745c0-7.199-2.171-12.352-6.487-15.458
		c-2.77-1.996-6.762-3.381-11.964-4.154v-5.477h58.386V186.149z"></path></g></svg>