<?xml version="1.0" encoding="iso-8859-1"?>
<!DOCTYPE svg PUBLIC "-//W3C//DTD SVG 1.1//EN" "http://www.w3.org/Graphics/SVG/1.1/DTD/svg11.dtd">
<svg  version="1.1" xmlns="http://www.w3.org/2000/svg" xmlns:xlink="http://www.w3.org/1999/xlink" x="0px" y="0px" width="512px"
	 height="512px" viewBox="0 0 512 512" style="enable-background:new 0 0 512 512;" xml:space="preserve"><g id="7935ec95c421cee6d86eb22ecd12d6f0"><path style="display: inline;" d="M83.749,16.627c23.971-2.73,48.176-1.071,72.253-1.694
		c-24.341,30.485-45.505,65.516-48.953,105.241c-7.109,61.23,24.306,121.532,71.606,159.092c12.495,7.134,7.945,22.424,7.527,34.158
		c-3.025,29.122-7.356,58.101-9.405,87.315c37.025-21.41,70.159-49.377,108.056-69.082c76.567,14.455,159.916,5.709,226.549-36.889
		c-0.023,33.676,0.06,67.352,0.095,101.027c0.871,38.561-22.788,76.45-58.17,92.034c-16.314,8.192-34.83,9.688-52.78,9.135
		c-101.451-0.412-202.908,0.035-304.354-0.188C45.27,496.47,0.747,450.941,0.6,400.197c-0.335-93.316,0.289-186.658,0.183-279.988
		C-1.972,71.562,36.295,25.291,83.749,16.627z M217.41,82.261c-17.044,17.667-29.162,41.104-29.351,66.033
		c-1.889,33.899,17.021,66.175,43.445,86.291c55.964,42.503,137.405,45.847,198.236,11.735
		c33.57-18.657,61.043-53.191,61.561-92.871c1.283-35.182-19.163-68.258-47.318-88.08c-31.521-23.165-71.354-33.228-110.174-31.71
		C290.812,34.295,247.148,50.562,217.41,82.261z"></path></g></svg>