<?xml version="1.0" encoding="iso-8859-1"?>
<!DOCTYPE svg PUBLIC "-//W3C//DTD SVG 1.1//EN" "http://www.w3.org/Graphics/SVG/1.1/DTD/svg11.dtd">
<svg  version="1.1" xmlns="http://www.w3.org/2000/svg" xmlns:xlink="http://www.w3.org/1999/xlink" x="0px" y="0px" width="512px"
	 height="512px" viewBox="0 0 512 512" style="enable-background:new 0 0 512 512;" xml:space="preserve"><g id="7935ec95c421cee6d86eb22ecd12fcba"><path style="display: inline;" d="M447.043,447.477c0,17.578-6.273,32.66-18.838,45.186c-12.549,12.563-27.619,18.838-45.197,18.838
		H256.371c-52.745,0-97.831-18.726-135.27-56.164c-37.444-37.438-56.145-82.512-56.145-135.27V64.573
		c0-18.089,6.231-33.284,18.701-45.61C96.126,6.675,111.353,0.5,129.335,0.5c17.447,0,32.448,6.288,44.899,18.85
		c12.494,12.538,18.744,27.595,18.744,45.173v63.998h189.793c17.652,0,32.771,6.288,45.396,18.85
		c12.602,12.525,18.875,27.596,18.875,45.173c0,17.553-6.273,32.623-18.838,45.186c-12.549,12.525-27.656,18.813-45.234,18.813
		H192.979v63.462c0,17.641,6.137,32.61,18.463,44.974c12.319,12.326,27.278,18.489,44.874,18.489h126.655
		c17.578,0,32.686,6.299,45.234,18.837C440.77,414.854,447.043,429.924,447.043,447.477"></path></g></svg>