<?xml version="1.0" encoding="iso-8859-1"?>
<!DOCTYPE svg PUBLIC "-//W3C//DTD SVG 1.1//EN" "http://www.w3.org/Graphics/SVG/1.1/DTD/svg11.dtd">
<svg  version="1.1" xmlns="http://www.w3.org/2000/svg" xmlns:xlink="http://www.w3.org/1999/xlink" x="0px" y="0px" width="512px"
	 height="512px" viewBox="0 0 512 512" style="enable-background:new 0 0 512 512;" xml:space="preserve"><g id="7935ec95c421cee6d86eb22ecd12e46d"><path style="display: inline;" d="M450.523,265.38C408.868,434.426,129.16,506.139,0.5,330.649
		c49.285,47.04,135.112,51.213,189.533-5.076c-31.92,4.672-55.153-26.668-15.928-43.59c-35.242,3.854-54.874-14.9-62.904-30.85
		c8.25-8.637,17.382-12.688,35.022-13.842c-38.604-9.127-52.855-28.011-57.213-50.954c10.698-2.547,24.088-4.758,31.409-3.769
		c-33.805-17.679-45.54-44.305-43.685-64.306c60.413,22.454,98.911,40.476,131.099,57.743c11.458,6.143,24.281,17.171,38.708,31.186
		c18.376-48.649,41.096-98.752,79.98-123.624c-0.645,5.644-3.664,10.883-7.665,15.176c11.056-10.031,25.361-16.931,39.927-18.926
		c-1.67,10.951-17.404,17.111-26.928,20.673c7.209-2.246,45.492-19.322,49.673-9.576c4.921,11.046-26.419,16.157-31.728,18.066
		c-4.009,1.359-7.975,2.822-11.881,4.413c48.478-4.843,94.795,35.211,108.302,84.893c0.972,3.588,1.927,7.562,2.813,11.734
		c17.73,6.606,49.888-0.327,60.229-6.702c-7.484,17.722-26.928,30.772-55.652,33.156c13.816,5.746,39.9,8.938,57.889,5.866
		C500.11,254.566,481.786,265.629,450.523,265.38z"></path></g></svg>