<?xml version="1.0" encoding="iso-8859-1"?>
<!DOCTYPE svg PUBLIC "-//W3C//DTD SVG 1.1//EN" "http://www.w3.org/Graphics/SVG/1.1/DTD/svg11.dtd">
<svg  version="1.1" xmlns="http://www.w3.org/2000/svg" xmlns:xlink="http://www.w3.org/1999/xlink" x="0px" y="0px" width="512px"
	 height="512px" viewBox="0 0 512 512" enable-background="new 0 0 512 512" xml:space="preserve"><g id="3e91140ac1bfb9903b91c1b0ca096f53"><path display="inline" d="M256,0.501c-111.99,0-232.519,26.6-232.519,85c0,11.242,4.504,21.295,12.514,30.213l184.632,41.376
		v12.509c11.787,0.59,23.623,0.9,35.373,0.9c111.99,0,232.519-26.596,232.519-84.998C488.519,27.101,367.99,0.501,256,0.501z
		 M401.011,113.385c-38.458,11.84-89.957,18.364-145.011,18.364s-106.553-6.523-145.015-18.364
		c-40.075-12.34-48.753-25.329-48.753-27.884s8.678-15.544,48.753-27.884C149.447,45.776,200.946,39.255,256,39.255
		s106.553,6.521,145.011,18.362c40.079,12.34,48.758,25.328,48.758,27.884S441.09,101.045,401.011,113.385z M259.972,194.428
		c72.336,0,151.554-9.735,206.282-33.689l-51.413,308.483c0,0-42.276,42.276-147.966,42.276
		c-147.967,0-169.105-42.276-169.105-42.276L77.714,348.896l142.913,32.025v-187.48
		C233.842,194.089,247.021,194.428,259.972,194.428z M86.569,189.548c-12.084-8.493-23.429-18.611-33.722-30.035
		c-1.656-1.895-1.623-4.054-0.652-4.991c0.656-0.64,1.701-0.785,2.803-0.384c0.566,0.207,1.123,0.549,1.614,0.999
		c20.548,18.727,44.369,33.346,68.893,42.28c24.515,8.918,48.341,11.634,68.893,7.869c0.491-0.091,1.049-0.029,1.614,0.178
		c1.098,0.396,2.146,1.304,2.803,2.423c0.971,1.643,1.004,3.823-0.64,4.512c-10.309,3.931-21.65,5.792-33.738,5.491
		c-12.526-0.31-25.621-2.919-38.928-7.758h-0.008C112.195,205.286,99.095,198.358,86.569,189.548z M85.814,228.724
		c-6.536-11.766-10.156-22.042-11.064-31.538c-0.091-0.941,0.301-1.738,1.065-2.04c0.487-0.198,1.065-0.173,1.664,0.042
		c0.334,0.12,0.665,0.305,0.987,0.541c5.945,4.442,12.01,8.435,17.538,11.729c1.123,0.677,2.031,1.841,2.411,2.981
		c4.021,12.484,14.293,26.679,25.068,41.591c0.438,0.586,1.041,1.329,2.023,1.685c0.987,0.363,1.594,0.041,2.023-0.215
		c10.775-7.068,21.048-13.818,25.073-23.371c0.375-0.867,1.283-1.371,2.415-1.227c5.516,0.723,11.567,1.197,17.521,1.086
		c0.317-0.004,0.652,0.054,0.982,0.173c0.599,0.219,1.188,0.628,1.676,1.177c0.743,0.838,1.164,1.966,1.065,2.854
		c-0.908,8.83-4.525,16.414-11.061,23.429c-6.147,6.585-14.152,11.841-21.897,16.919c-0.565,0.371-1.127,0.734-1.681,1.106
		c-0.565,0.367-0.871,1.396-0.136,2.584c1.813,2.915,3.546,5.847,5.165,8.807c7.724,14.107,11.737,26.241,12.262,37.091
		c0.041,0.768-0.235,1.403-0.756,1.763c-0.521,0.355-1.243,0.404-1.998,0.128l-16.767-6.102c-1.444-0.524-2.642-2.077-2.749-3.555
		c-1.181-16.37-14.665-35.026-28.933-54.777C99.966,250.865,91.957,239.784,85.814,228.724z M107.514,273.91
		c5.028,7.076,8.405,12.134,11.163,16.725c0.553,0.921,1.305,2.874,0.339,4.311c-2.779,4.153-4.306,8.518-4.669,13.29
		c-0.107,1.396-1.321,2.08-2.762,1.557l-16.737-6.09c-0.751-0.272-1.482-0.859-2.002-1.594c-0.52-0.735-0.797-1.577-0.76-2.316
		c0.5-9.995,4.145-18.797,11.197-26.963c0.281-0.33,1.024-0.925,2.275-0.467C106.539,272.722,107.117,273.357,107.514,273.91z
		 M134.894,224.566c1.296,0.471,2.535,1.985,2.535,3.477c0,0.429-0.099,0.701-0.202,0.94c-0.698,1.61-3.873,7.159-9.789,10.755
		c-0.66,0.401-1.412,0.252-1.932,0.063l-0.004-0.004c-0.516-0.187-1.268-0.583-1.928-1.466c-5.916-7.902-9.091-15.763-9.789-17.877
		c-0.103-0.313-0.202-0.66-0.202-1.094c0-1.49,1.238-2.102,2.535-1.626c1.069,0.388,4.121,1.812,9.372,3.728l0.033,0.008
		C130.773,223.386,133.825,224.179,134.894,224.566z"></path></g></svg>