<?xml version="1.0" encoding="iso-8859-1"?>
<!DOCTYPE svg PUBLIC "-//W3C//DTD SVG 1.1//EN" "http://www.w3.org/Graphics/SVG/1.1/DTD/svg11.dtd">
<svg  version="1.1" xmlns="http://www.w3.org/2000/svg" xmlns:xlink="http://www.w3.org/1999/xlink" x="0px" y="0px" width="512px"
	 height="512px" viewBox="0 0 512 512" enable-background="new 0 0 512 512" xml:space="preserve"><g id="3e91140ac1bfb9903b91c1b0ca097b47"><path display="inline" d="M346.177,256c0,49.727-40.45,90.177-90.177,90.177c-49.725,0-90.176-40.45-90.176-90.177
		c0-49.725,40.451-90.176,90.176-90.176C305.727,165.824,346.177,206.275,346.177,256z M443.867,0.5v511H68.133V0.5H443.867z
		 M368.721,256c0-48.963-31.226-90.617-74.847-106.178c35.673-14.85,60.757-50.033,60.757-91.083h-22.545
		c0,41.955-34.131,76.086-76.086,76.086c-41.954,0-76.086-34.131-76.086-76.086H157.37c0,41.05,25.083,76.233,60.754,91.083
		c-43.619,15.562-74.845,57.215-74.845,106.178c0,58.448,44.488,106.501,101.449,112.155V396.9H213.73v22.545h30.998v33.815h22.544
		v-33.815h30.998V396.9h-30.998v-28.745C324.234,362.501,368.721,314.448,368.721,256z"></path></g></svg>