<?xml version="1.0" encoding="iso-8859-1"?>
<!DOCTYPE svg PUBLIC "-//W3C//DTD SVG 1.1//EN" "http://www.w3.org/Graphics/SVG/1.1/DTD/svg11.dtd">
<svg  version="1.1" xmlns="http://www.w3.org/2000/svg" xmlns:xlink="http://www.w3.org/1999/xlink" x="0px" y="0px" width="512px"
	 height="512px" viewBox="0 0 512 512" enable-background="new 0 0 512 512" xml:space="preserve"><g id="3e91140ac1bfb9903b91c1b0ca097c2a"><path display="inline" d="M390.586,118.854C294.261,20.409,272.14,0.5,259.097,0.5c-13.202,0-34.583,19.557-134.567,123.087
		C5.427,246.919-3.101,258.609,10.456,279.93c2.72,4.286,61.242,64.314,114.921,118.625C219.748,494.032,241.643,511.5,250.76,511.5
		c13.178,0,106.593-94.394,134.912-123.323c28.311-28.922,120.675-124.33,120.675-137.709
		C506.347,242.045,487.407,217.81,390.586,118.854z M371.924,379.155c-64.388,66.14-114.221,114.033-122.111,118.98
		c-7.074-1.264-27.677-21.967-125.662-122.782C24.908,273.255,18.432,265.236,25.136,252.807
		C34.343,235.728,238.145,28.092,259.32,13.965c21.738,12.132,220.41,217.925,228.462,236.821
		C486.173,256.066,468.358,280.101,371.924,379.155z M309.305,296.799c24.912,35.633,29.297,45.151,15.19,56.861
		c-1.866,1.545-4.413,3.321-7.62,3.321c-5.472,0.004-11.409-4.894-22.639-15.862c-9.783-9.548-17.888-14.82-20.405-15.235
		c-1.174,2.591-2.808,15.752-2.808,34.671v34.858h-24.495c-8.058,0-24.146-0.848-27.355-4.05c-3.938-3.937-4.05-87.797-4.05-97.344
		v-90.426H195c-9.604,0-15.948,0-18.247-4.179c-3.521-6.399,4.533-19.106,31.226-61.208l0.683-1.078
		c13.139-20.726,30.419-45.432,38.125-45.432c0.283,0,0.55,0.028,0.809,0.077c8.514,1.683,70.085,93.809,70.085,104.865
		c0,6.76-20.585,6.954-22.932,6.954c-12.396,0-20.397,2.322-21.954,6.381C268.656,220.762,282.339,258.222,309.305,296.799z"></path></g></svg>