<?xml version="1.0" encoding="iso-8859-1"?>
<!DOCTYPE svg PUBLIC "-//W3C//DTD SVG 1.1//EN" "http://www.w3.org/Graphics/SVG/1.1/DTD/svg11.dtd">
<svg  version="1.1" xmlns="http://www.w3.org/2000/svg" xmlns:xlink="http://www.w3.org/1999/xlink" x="0px" y="0px" width="512px"
	 height="512px" viewBox="0 0 512 512" enable-background="new 0 0 512 512" xml:space="preserve"><g id="3e91140ac1bfb9903b91c1b0ca098751"><path display="inline" d="M285.31,455.069l-0.462-0.615l-0.457-0.661l-0.512-0.715l-0.462-0.869l-0.407-0.915l-0.457-0.974
		l-0.408-1.072l-0.407-1.173l-0.357-1.173l-0.357-1.276l-0.358-1.381l-0.308-1.377l-0.308-1.479l-0.308-1.48l-0.254-1.585
		l-0.254-1.584l-0.207-1.631l-0.2-1.688l-0.153-1.738l-0.154-1.734l-0.104-1.734l-0.104-1.788l-0.05-1.788l-0.05-1.838v-1.788
		v-1.784l0.05-1.838l0.05-1.788l0.104-1.784l0.104-1.738l0.154-1.738l0.153-1.734l0.2-1.685l0.207-1.634l0.254-1.585l0.254-1.58
		l0.308-1.48l0.308-1.48l0.308-1.38l0.358-1.381l0.357-1.272l0.357-1.177l0.407-1.177l0.408-1.069l0.457-0.969l0.407-0.919
		l0.462-0.869l0.512-0.716l0.457-0.665l0.462-0.611l0.512-0.512l0.507-0.407l0.512-0.308l0.512-0.204l0.507-0.153l0.516-0.05
		l0.508,0.05l0.512,0.153l0.511,0.204l0.512,0.308l0.512,0.407l0.507,0.512l0.458,0.611l0.461,0.665l0.512,0.716l0.458,0.869
		l0.411,0.919l0.458,0.969l0.407,1.069l0.412,1.177l0.357,1.177l0.357,1.272l0.357,1.381l0.304,1.38l0.308,1.48l0.308,1.48
		l0.254,1.58l0.254,1.585l0.204,1.634l0.207,1.685l0.15,1.734l0.153,1.738l0.104,1.738l0.1,1.784l0.05,1.788l0.054,1.838v1.784
		v1.788l-0.054,1.838l-0.05,1.788l-0.1,1.788l-0.104,1.734l-0.153,1.734l-0.15,1.738l-0.207,1.688l-0.204,1.631l-0.254,1.584
		l-0.254,1.585l-0.308,1.48l-0.308,1.479l-0.304,1.377l-0.357,1.381l-0.357,1.276l-0.357,1.173l-0.412,1.173l-0.407,1.072
		l-0.458,0.974l-0.411,0.915l-0.458,0.869l-0.512,0.715l-0.461,0.661l-0.458,0.615l-0.507,0.512l-0.512,0.407l-0.512,0.309
		l-0.511,0.203l-0.512,0.154l-0.508,0.05l-0.516-0.05l-0.507-0.154l-0.512-0.203l-0.512-0.309l-0.507-0.407L285.31,455.069z
		 M272.493,294.438l-0.154-0.562l-0.204-0.512l-0.308-0.462l-0.354-0.407l-0.411-0.304l-0.512-0.253l-0.507-0.158l-0.566-0.15
		h-0.661h-0.661l-1.534,0.254l-1.685,0.512l-1.788,0.765l-1.992,1.023l-2.091,1.223l-4.444,3.064l-4.799,3.83l-4.9,4.541
		l-5.005,5.211l-4.697,5.46l-4.034,5.365l-3.37,5.156l-2.604,4.749l-1.021,2.195l-0.817,2.042l-0.563,1.893l-0.306,1.733
		l-0.102,1.53v0.662l0.102,0.615l0.206,0.615l0.204,0.508l0.306,0.407l0.357,0.407l0.409,0.308l0.51,0.258l0.512,0.204l0.562,0.104
		l0.663,0.05l0.663-0.05l1.532-0.258l1.685-0.511l1.788-0.766l1.989-0.969l2.095-1.223l4.443-3.069l4.799-3.875l4.9-4.55
		l5.005-5.207l4.647-5.464l4.084-5.36l3.368-5.156l2.604-4.749l1.022-2.196l0.766-2.042l0.565-1.888l0.354-1.738l0.104-1.48
		l-0.05-0.715L272.493,294.438z M273.869,372.356l-1.888-1.584l-1.888-1.377l-1.738-1.177l-1.681-0.869l-0.769-0.357l-0.716-0.308
		l-0.661-0.2l-0.562-0.107l-0.562-0.046h-0.258l-0.203,0.046l-0.204,0.054l-0.154,0.104l-0.153,0.1l-0.15,0.104l-0.107,0.154
		l-0.1,0.153l-0.051,0.204v0.204l-0.05,0.203l0.05,0.258l0.101,0.508l0.157,0.562l0.304,0.665l0.358,0.661l0.407,0.715l1.073,1.531
		l1.376,1.638l1.584,1.681l1.789,1.738l1.888,1.584l1.892,1.427l1.734,1.127l1.685,0.919l0.765,0.357l0.716,0.254l0.615,0.203
		l0.611,0.101l0.512,0.054h0.258l0.199-0.054l0.208-0.05l0.149-0.101l0.154-0.1l0.153-0.104l0.101-0.154l0.104-0.153l0.05-0.204
		v-0.204l0.055-0.203l-0.055-0.208l-0.05-0.558l-0.204-0.565l-0.258-0.611l-0.357-0.715l-0.407-0.716l-1.123-1.53l-1.326-1.634
		l-1.585-1.685L273.869,372.356z M283.575,283.613l-1.072,1.53l-0.462,0.716l-0.357,0.715l-0.254,0.615l-0.208,0.558l-0.05,0.565
		l-0.05,0.2l0.05,0.208v0.203l0.05,0.204l0.104,0.153l0.104,0.154l0.1,0.1l0.154,0.104l0.203,0.104l0.154,0.05h0.254h0.208
		l0.507-0.05l0.615-0.104l0.666-0.204l0.711-0.308l0.715-0.308l1.685-0.915l1.738-1.177l1.888-1.431l1.888-1.584l1.788-1.734
		l1.585-1.685l1.326-1.634l1.123-1.535l0.407-0.715l0.358-0.711l0.258-0.611l0.199-0.565l0.054-0.508l0.05-0.258l-0.05-0.204v-0.203
		l-0.054-0.15l-0.1-0.157l-0.1-0.15l-0.154-0.104l-0.154-0.104l-0.153-0.1l-0.204-0.05l-0.203-0.05h-0.254l-0.512,0.05l-0.562,0.1
		l-0.665,0.208l-0.716,0.304l-0.765,0.357l-1.635,0.869l-1.783,1.173l-1.843,1.431l-1.888,1.58l-1.784,1.738l-1.589,1.685
		L283.575,283.613z M284.698,261.761l-0.208,0.05l-0.199,0.104l-0.208,0.101l-0.408,0.308l-0.461,0.357l-0.458,0.507l-0.512,0.616
		l-0.561,0.715l-1.073,1.635l-1.123,1.941l-1.123,2.196l-1.072,2.395l-0.969,2.454l-0.766,2.295l-0.615,2.196l-0.357,1.888
		l-0.15,0.873l-0.054,0.815l-0.05,0.665l0.05,0.611l0.104,0.512l0.051,0.254l0.104,0.153l0.1,0.204l0.104,0.104l0.1,0.1l0.153,0.1
		l0.154,0.054h0.154h0.153l0.204-0.054l0.203-0.1l0.204-0.1l0.407-0.309l0.462-0.357l0.508-0.512l0.516-0.611l0.507-0.715
		l1.073-1.634l1.123-1.942l1.122-2.196l1.073-2.395l0.969-2.454l0.77-2.35l0.611-2.142l0.354-1.941l0.158-0.869l0.05-0.766
		l0.05-0.715l-0.05-0.616l-0.104-0.507l-0.05-0.204l-0.1-0.203l-0.104-0.154l-0.101-0.154l-0.104-0.1l-0.154-0.054l-0.153-0.05
		h-0.154H284.698z M281.072,387.469l-0.104-0.154l-0.153-0.203l-0.358-0.357l-0.507-0.408l-0.615-0.407l-1.53-0.766l-1.839-0.819
		l-2.195-0.818l-2.399-0.716l-2.657-0.661l-2.653-0.562l-2.554-0.407l-2.297-0.208l-2.042-0.1l-1.736,0.1l-0.716,0.054l-0.613,0.154
		l-0.509,0.149l-0.204,0.104l-0.154,0.153l-0.153,0.1l-0.103,0.104l-0.102,0.153l-0.05,0.15v0.157v0.15l0.05,0.208l0.102,0.149
		l0.103,0.204l0.153,0.153l0.358,0.408l0.509,0.357l0.613,0.407l1.533,0.819l1.838,0.819l2.197,0.765l2.396,0.766l2.657,0.665
		l2.657,0.558l2.55,0.357l2.3,0.258l2.042,0.05l1.733-0.05l0.716-0.104l0.615-0.154l0.507-0.149l0.208-0.104l0.15-0.104l0.153-0.149
		l0.104-0.104l0.1-0.153l0.05-0.15v-0.158v-0.149l-0.05-0.208L281.072,387.469z M480.049,348.661l-0.104-0.457l-0.1-0.408
		l-0.154-0.308l-0.153-0.308l-0.204-0.199l-0.154-0.108l-0.104-0.05l-0.149-0.05h-0.104l-0.304-0.05l-0.357,0.1l-0.308,0.104
		l-0.407,0.204l-0.358,0.308l-0.869,0.716l-0.919,0.914l-1.022,1.231l-2.142,3.011l-2.3,3.726l-2.453,4.441l-2.445,4.953
		l-2.454,5.414l-2.195,5.511l-1.888,5.265l-1.48,4.799l-1.073,4.287l-0.615,3.622l-0.15,1.585l-0.05,1.326l0.05,1.123l0.101,0.461
		l0.104,0.412l0.154,0.304l0.203,0.304l0.204,0.208l0.149,0.1l0.108,0.054l0.149,0.05h0.104l0.304,0.05l0.357-0.1l0.308-0.104
		l0.407-0.204l0.357-0.308l0.869-0.711l0.919-0.924l1.023-1.222l2.142-2.961l2.3-3.78l2.449-4.441l2.449-4.953l2.404-5.414
		l2.195-5.515l1.888-5.256l1.48-4.799l1.073-4.292l0.661-3.626l0.153-1.58l0.051-1.331L480.049,348.661z M145.611,286.832
		l1.071,2.296l0.613,0.919l0.663,0.819l0.663,0.661l0.716,0.512l0.765,0.407l0.817,0.204l0.817,0.054l0.869-0.104l0.867-0.204
		l0.869-0.407l0.867-0.566l0.919-0.661l1.786-1.788l1.838-2.3l1.84-2.803l1.838-3.269l1.839-3.676l3.521-8.633l3.269-10.006
		l2.961-11.182l2.452-12.102l1.838-12.203l1.07-11.538l0.309-10.519l-0.358-9.292l-0.459-4.085l-0.613-3.676l-0.766-3.267
		l-0.919-2.809l-1.125-2.297l-0.611-0.919l-0.613-0.817l-0.715-0.663l-0.714-0.512l-0.767-0.408l-0.817-0.204l-0.815-0.052
		l-0.869,0.052l-0.867,0.254l-0.869,0.409l-0.866,0.51l-0.922,0.715l-1.786,1.788l-1.838,2.295l-1.838,2.759l-1.838,3.267
		l-1.838,3.728l-3.522,8.629l-3.269,10.007l-2.911,11.183l-2.501,12.101l-1.839,12.203l-1.021,11.538l-0.357,10.521l0.357,9.291
		l0.46,4.083l0.613,3.677l0.765,3.269L145.611,286.832z M143.007,307.916l-0.358,3.423l-0.255,7.76l0.409,8.782l1.123,9.548
		l1.838,10.109l2.451,9.956l2.859,9.19l3.164,8.171l3.423,6.995l1.736,3.015l1.786,2.653l1.736,2.195l1.788,1.839l1.733,1.38
		l0.817,0.558l0.869,0.412l0.817,0.253l0.817,0.158l0.816,0.046l0.766-0.1l0.766-0.204l0.715-0.357l0.663-0.512l0.663-0.562
		l0.563-0.715l0.562-0.815l1.021-1.992l0.869-2.399l0.713-2.761l0.562-3.11l0.357-3.423l0.256-7.813l-0.409-8.729l-1.071-9.548
		l-1.838-10.109l-2.451-10.01l-2.859-9.136l-3.217-8.226l-3.37-6.995l-1.786-2.961l-1.736-2.652l-1.788-2.246l-1.734-1.838
		l-1.738-1.381l-0.867-0.507l-0.867-0.412l-0.816-0.254l-0.817-0.153l-0.817-0.055l-0.768,0.104l-0.765,0.204l-0.716,0.357
		l-0.663,0.512l-0.663,0.561l-0.562,0.716l-0.562,0.814l-1.022,1.996l-0.867,2.346l-0.716,2.812L143.007,307.916z M296.084,287.852
		l-2.657,0.511l-2.657,0.666l-2.445,0.715l-2.199,0.766l-1.834,0.814l-0.819,0.408l-0.716,0.407l-0.611,0.407l-0.516,0.357
		l-0.354,0.412l-0.153,0.154l-0.1,0.203l-0.104,0.154l-0.054,0.203v0.154v0.149l0.054,0.154l0.104,0.153l0.1,0.101l0.153,0.157
		L281.43,295l0.199,0.1l0.516,0.158l0.611,0.149l0.716,0.104l1.733,0.051l2.042-0.051l2.3-0.253l2.554-0.358l2.653-0.565
		l2.657-0.661l2.399-0.715l2.195-0.766l1.888-0.819l1.48-0.814l0.616-0.357l0.507-0.408l0.407-0.357l0.104-0.208l0.153-0.149
		l0.051-0.208l0.05-0.149v-0.154v-0.154l-0.05-0.149l-0.101-0.158l-0.104-0.1l-0.154-0.153l-0.149-0.104l-0.208-0.1l-0.507-0.154
		l-0.616-0.153l-0.715-0.1l-1.734-0.051l-2.042,0.051l-2.295,0.203L296.084,287.852z M187.172,330.077l5.209,6.433l5.158,5.723
		l5.003,4.898l4.697,4.084l2.195,1.634l2.042,1.377l1.94,1.127l1.735,0.814l1.635,0.512l0.715,0.154l0.664,0.05l0.613-0.05
		l0.562-0.104l0.509-0.149l0.462-0.308l0.407-0.357l0.306-0.458l0.256-0.516l0.154-0.557l0.102-0.666l0.05-0.765l-0.102-1.635
		l-0.306-1.941l-0.613-2.146l-0.817-2.345l-1.021-2.504l-2.705-5.614l-3.524-6.079l-4.237-6.43l-4.851-6.69l-5.209-6.434
		l-5.156-5.718l-5.003-4.953l-4.699-4.034l-2.193-1.688l-2.044-1.377l-1.938-1.123l-1.738-0.819l-1.633-0.507l-0.715-0.154
		l-0.663-0.054l-0.613,0.054l-0.562,0.104l-0.512,0.149l-0.46,0.308l-0.407,0.358l-0.306,0.457l-0.256,0.512l-0.153,0.611
		l-0.103,0.665l-0.052,0.715l0.052,1.685l0.358,1.893l0.613,2.142l0.814,2.399l1.023,2.503l2.705,5.614l3.522,6.08l4.188,6.433
		L187.172,330.077z M215.664,417.439l0.204,0.715l0.663,1.535l0.919,1.68l1.276,1.838l1.533,1.942l1.838,2.092l4.392,4.341
		l5.36,4.596l6.127,4.699l6.791,4.645l7.047,4.342l6.739,3.676l6.383,3.011l5.769,2.296l2.607,0.819l2.395,0.611l2.196,0.411
		l1.946,0.204l1.63-0.05l0.765-0.104l0.616-0.154l0.611-0.204l0.457-0.304l0.462-0.357l0.308-0.411l0.249-0.462l0.158-0.508
		l0.05-0.615v-0.611l-0.153-0.661l-0.204-0.715l-0.615-1.535l-0.969-1.684l-1.277-1.838l-1.53-1.938l-1.788-2.096l-4.441-4.342
		l-5.306-4.591l-6.13-4.699l-6.791-4.699l-7.047-4.337l-6.739-3.681l-6.383-3.011l-5.771-2.245l-2.603-0.815l-2.399-0.615
		l-2.198-0.408l-1.938-0.203l-1.687,0.054l-0.713,0.1l-0.666,0.15l-0.561,0.208l-0.512,0.308l-0.408,0.357l-0.357,0.407
		l-0.256,0.458l-0.151,0.507l-0.052,0.615l0.052,0.616L215.664,417.439z M283.367,377.002l1.023,1.326l0.507,0.512l0.462,0.407
		l0.407,0.304l0.204,0.104l0.154,0.104l0.203,0.05h0.158h0.149l0.154-0.05l0.153-0.104l0.101-0.104l0.104-0.1l0.1-0.204l0.104-0.153
		l0.05-0.254l0.104-0.512v-0.611v-0.665l-0.104-0.819l-0.1-0.865l-0.408-1.888l-0.615-2.196l-0.765-2.299l-0.974-2.449l-1.068-2.4
		l-1.073-2.199l-1.123-1.938l-1.072-1.63l-0.562-0.715l-0.512-0.616l-0.457-0.511l-0.462-0.408l-0.407-0.303l-0.208-0.108l-0.2-0.1
		l-0.208-0.05h-0.149h-0.153l-0.154,0.05l-0.154,0.1l-0.104,0.108l-0.1,0.1l-0.1,0.203l-0.051,0.154l-0.054,0.254l-0.104,0.511
		l-0.05,0.616l0.05,0.661l0.208,1.684l0.407,1.889l0.562,2.195l0.765,2.296l0.969,2.453l1.073,2.403l1.123,2.196l1.123,1.938
		L283.367,377.002z M417.704,449.76l-0.357-0.408l-0.457-0.357l-0.565-0.304l-0.661-0.308l-0.716-0.208l-1.788-0.308l-2.142-0.1
		l-2.453,0.05l-5.769,0.665l-6.791,1.331l-7.609,1.938l-8.271,2.604l-8.679,3.165l-8.525,3.576l-7.813,3.676l-6.94,3.727
		l-5.872,3.626l-4.649,3.473l-1.838,1.58l-1.48,1.534l-1.123,1.427l-0.407,0.665l-0.308,0.665l-0.154,0.611l-0.104,0.562v0.562
		l0.153,0.512l0.254,0.457l0.357,0.412l0.462,0.354l0.562,0.308l0.665,0.308l0.715,0.204l1.789,0.308l2.142,0.104l2.449-0.054
		l5.771-0.661l6.791-1.331l7.606-1.938l8.221-2.604l8.68-3.169l8.528-3.572l7.864-3.676l6.895-3.73l5.922-3.622l4.646-3.473
		l1.838-1.58l1.48-1.534l1.127-1.431l0.407-0.661l0.304-0.665l0.154-0.611l0.1-0.562v-0.565l-0.15-0.508L417.704,449.76z
		 M182.577,506.844l-0.611-1.53l-0.972-1.685l-1.276-1.838l-1.532-1.942l-1.786-2.092l-4.441-4.341l-5.311-4.596l-6.127-4.699
		l-6.791-4.695l-7.047-4.341l-6.739-3.677l-6.383-3.011l-5.771-2.249l-2.603-0.815l-2.399-0.611l-2.196-0.412l-1.939-0.199
		l-1.687,0.05l-0.713,0.1l-0.666,0.154l-0.562,0.204l-0.509,0.308l-0.41,0.357l-0.357,0.407l-0.256,0.458l-0.151,0.516l-0.052,0.611
		l0.052,0.611l0.102,0.665l0.204,0.715l0.663,1.53l0.919,1.685l1.276,1.838l1.533,1.942l1.838,2.092l4.392,4.342l5.36,4.595
		l6.127,4.699l6.791,4.641l7.047,4.342l6.738,3.676l6.384,3.016l5.77,2.299l2.604,0.815l2.399,0.611l2.196,0.407l1.939,0.204
		l1.635-0.05l0.765-0.1l0.613-0.154l0.613-0.204l0.46-0.308l0.459-0.357l0.306-0.407l0.256-0.458l0.154-0.516l0.05-0.611v-0.611
		l-0.151-0.665L182.577,506.844z M113.086,469.675l-0.102-0.154l-0.154-0.204l-0.357-0.357l-0.51-0.407l-0.613-0.407l-1.532-0.77
		l-1.838-0.815l-2.196-0.819l-2.399-0.715l-2.655-0.661l-2.653-0.562l-2.553-0.407l-2.298-0.208l-2.044-0.101l-1.736,0.101
		l-0.713,0.054l-0.613,0.154l-0.512,0.149l-0.204,0.104l-0.153,0.154l-0.152,0.1l-0.102,0.104l-0.102,0.153l-0.052,0.149v0.154
		v0.154l0.052,0.207l0.102,0.15l0.102,0.203l0.152,0.154l0.357,0.407l0.512,0.357l0.613,0.408l1.53,0.819l1.838,0.819l2.196,0.765
		l2.399,0.766l2.657,0.665l2.653,0.558l2.553,0.357l2.298,0.258l2.044,0.05l1.734-0.05l0.715-0.104l0.613-0.153l0.51-0.149
		l0.206-0.104l0.151-0.104l0.154-0.15l0.102-0.104l0.102-0.154l0.052-0.149v-0.158v-0.149l-0.052-0.208L113.086,469.675z
		 M196.517,466.714l-0.103-1.788l-0.102-1.738l-0.153-1.734l-0.204-1.734l-0.154-1.688l-0.253-1.63l-0.206-1.589l-0.256-1.58
		l-0.306-1.48l-0.306-1.48l-0.306-1.38l-0.357-1.377l-0.41-1.276l-0.357-1.173l-0.407-1.173l-0.408-1.077l-0.459-0.969l-0.41-0.919
		l-0.459-0.869l-0.51-0.716l-0.461-0.661l-0.51-0.611l-0.512-0.511l-0.51-0.412l-0.511-0.304l-0.512-0.204l-0.51-0.157l-0.509-0.05
		l-0.512,0.05l-0.512,0.157l-0.51,0.204l-0.511,0.304l-0.51,0.412l-0.512,0.511l-0.509,0.611l-0.46,0.661l-0.512,0.716l-0.459,0.869
		l-0.408,0.919l-0.461,0.969l-0.408,1.077l-0.409,1.173l-0.355,1.173l-0.41,1.276l-0.357,1.377l-0.306,1.38l-0.306,1.48l-0.308,1.48
		l-0.254,1.58l-0.203,1.589l-0.256,1.63l-0.154,1.688l-0.203,1.734l-0.154,1.734l-0.102,1.738l-0.103,1.788l-0.052,1.784
		l-0.05,1.842v1.784v1.788l0.05,1.838l0.052,1.784l0.103,1.788l0.102,1.738l0.154,1.734l0.203,1.733l0.154,1.688l0.256,1.631
		l0.203,1.588l0.254,1.58l0.308,1.48l0.306,1.48l0.306,1.381l0.357,1.377l0.41,1.276l0.355,1.173l0.409,1.173l0.408,1.077
		l0.461,0.969l0.408,0.919l0.459,0.869l0.512,0.715l0.46,0.661l0.509,0.611l0.512,0.516l0.51,0.408l0.511,0.308l0.51,0.199
		l0.512,0.154l0.512,0.054l0.509-0.054l0.51-0.154l0.512-0.199l0.511-0.308l0.51-0.408l0.512-0.516l0.51-0.611l0.461-0.661
		l0.51-0.715l0.459-0.869l0.41-0.919l0.459-0.969l0.408-1.077l0.407-1.173l0.357-1.173l0.41-1.276l0.357-1.377l0.306-1.381
		l0.306-1.48l0.306-1.48l0.256-1.58l0.206-1.588l0.253-1.631l0.154-1.688l0.204-1.733l0.153-1.734l0.102-1.738l0.103-1.788
		l0.052-1.784l0.05-1.838v-1.788v-1.784l-0.05-1.842L196.517,466.714z M455.747,404.012l-0.104-0.258l-0.104-0.101l-0.1-0.1
		l-0.101-0.108l-0.157-0.05l-0.254-0.1l-0.357-0.05l-0.354,0.05l-0.412,0.05l-0.462,0.154l-1.019,0.411l-1.177,0.611l-1.326,0.815
		l-2.961,2.142l-3.373,2.861l-3.726,3.422l-3.876,3.98l-3.988,4.396l-3.83,4.545l-3.418,4.392l-2.911,4.083l-2.346,3.727
		l-1.788,3.269l-0.615,1.431l-0.457,1.223l-0.309,1.072l-0.05,0.512v0.412v0.354l0.101,0.357l0.104,0.254l0.104,0.1l0.1,0.108
		l0.1,0.1l0.158,0.05l0.253,0.104l0.358,0.051l0.354-0.051l0.411-0.054l0.462-0.149l1.068-0.408l1.177-0.615l1.327-0.814
		l2.961-2.146l3.368-2.86l3.73-3.419l3.88-3.983l3.979-4.392l3.834-4.541l3.419-4.392l2.91-4.084l2.346-3.729l1.788-3.269
		l0.615-1.427l0.458-1.23l0.258-1.069l0.05-0.512l0.05-0.407l-0.05-0.357L455.747,404.012z M87.606,333.042l0.41-1.893l0.306-2.195
		l0.153-2.449v-2.762l-0.357-6.175l-0.869-6.945l-1.429-7.605L83.931,295l-2.298-7.968l-2.554-7.299l-2.652-6.482l-2.708-5.564
		l-1.378-2.354l-1.327-2.092l-1.328-1.788l-1.276-1.48l-1.277-1.071l-0.562-0.409l-0.611-0.306l-0.563-0.256l-0.562-0.102
		l-0.509-0.053l-0.512,0.103l-0.51,0.205l-0.409,0.256l-0.46,0.408l-0.357,0.459l-0.357,0.562l-0.306,0.665l-0.562,1.581
		l-0.407,1.888l-0.256,2.195l-0.154,2.454v2.757l0.358,6.176l0.866,6.944l1.431,7.61l1.889,8.018l2.297,7.963l2.556,7.249
		l2.653,6.537l2.707,5.563l1.379,2.35l1.326,2.092l1.329,1.789l1.276,1.43l1.276,1.123l0.562,0.407l0.611,0.309l0.562,0.258
		l0.562,0.1l0.512,0.05l0.511-0.1l0.46-0.208l0.459-0.25l0.408-0.411l0.409-0.462l0.355-0.558l0.308-0.665L87.606,333.042z
		 M228.377,468.194l0.665-0.308l0.611-0.358l0.562-0.457l0.46-0.565l0.409-0.661l0.306-0.77l0.256-0.815l0.151-0.864l0.154-2.046
		l-0.154-2.296l-0.407-2.504l-0.715-2.807l-0.919-2.965l-2.653-6.533l-3.524-7.049l-4.443-7.452l-5.259-7.605l-5.718-7.307
		l-5.771-6.479l-5.668-5.514l-5.412-4.491l-2.551-1.788l-2.452-1.485l-2.297-1.172l-2.094-0.819l-1.992-0.508l-0.917-0.104h-0.819
		l-0.815,0.104l-0.715,0.149l-0.716,0.309l-0.61,0.357l-0.563,0.457l-0.46,0.565l-0.407,0.661l-0.308,0.77l-0.254,0.815
		l-0.154,0.865l-0.153,1.996l0.153,2.295l0.46,2.554l0.663,2.757l0.971,3.015l2.604,6.479l3.574,7.103l4.441,7.402l5.261,7.656
		l5.718,7.306l5.718,6.479l5.668,5.514l5.412,4.446l2.554,1.783l2.451,1.535l2.296,1.173l2.146,0.818l1.94,0.458l0.919,0.153h0.869
		l0.765-0.104L228.377,468.194z M127.74,107.97l-0.562-4.391l0.05-4.136l0.256-1.94l0.358-1.89l0.561-1.786l0.716-1.736l0.919-1.634
		l1.021-1.532l0.595-0.724l0.223-0.96l0.46-1.429l1.48-3.115l2.144-3.371l2.757-3.676l3.423-3.88l3.93-4.136l9.498-8.681
		l11.386-9.14l13.07-9.344l14.451-9.292l14.908-8.577l14.297-7.303l13.378-5.921l12.05-4.443l5.464-1.635l5.055-1.172l4.496-0.768
		L268.155,1l3.419,0.104l1.48,0.253l1.326,0.358l1.177,0.459l0.969,0.562l0.819,0.767l0.661,0.817l0.462,0.969l0.129,0.518
		l0.378,0.454l0.819,1.175l0.766,1.378l1.276,3.267l1.123,4.034l0.815,4.749l0.615,5.362l0.407,5.922l0.05,13.48l-0.919,15.318
		l-1.888,16.696l-2.861,17.819l-3.672,17.666l-4.242,16.289l-4.645,14.603l-4.903,12.611l-2.449,5.412l-2.501,4.749l-2.504,4.136
		l-2.449,3.371l-2.399,2.603l-1.175,1.021l-1.175,0.817l-1.123,0.561l-1.125,0.41l-0.191,0.019l-1.135,0.9l-1.582,1.021
		l-1.687,0.919l-1.838,0.766l-3.931,1.174l-4.391,0.664l-4.697,0.154l-5.005-0.306l-5.311-0.767l-5.564-1.277l-5.72-1.736
		l-5.872-2.144l-6.023-2.655l-6.077-3.063l-6.128-3.473l-6.075-3.932l-6.076-4.339l-5.819-4.647l-5.465-4.799l-5.055-4.901
		l-4.595-5.005l-4.188-5.055l-3.677-5.055l-3.267-5.055l-2.707-4.953l-2.195-4.903l-1.685-4.747L127.74,107.97z M220.07,111.523
		l2.231,1.96l5.055,4.901l4.595,5.005l1.867,2.254l0.175-3.071l1.89-16.746l2.859-17.819l0.153-0.73l-5.005,7.213l-7.556,9.754
		L220.07,111.523z M178.283,85.697l2.354,0.879l6.026,2.604l6.075,3.115l4.307,2.441l5.088-8.211l7.046-10.159l7.557-9.804
		l1.985-2.31l-2.954,1.9l-14.911,8.579l-14.295,7.302L178.283,85.697z M328.097,485.552l-0.357-0.665l-0.512-0.661l-0.562-0.716
		l-1.53-1.376l-1.992-1.381l-2.399-1.381l-2.757-1.322l-3.165-1.381l-7.252-2.604l-8.426-2.349l-9.394-2.092l-10.159-1.738
		l-10.214-1.223l-9.598-0.666l-8.733-0.104l-7.71,0.411l-3.42,0.408l-3.013,0.507l-2.705,0.666l-2.298,0.765l-1.838,0.869
		l-0.766,0.462l-0.665,0.507l-0.512,0.562l-0.407,0.562l-0.306,0.615l-0.154,0.611v0.611l0.103,0.666l0.203,0.665l0.357,0.661
		l0.512,0.665l0.562,0.711l1.532,1.381l1.99,1.381l2.401,1.377l2.755,1.326l3.167,1.381l7.25,2.603l8.426,2.35l9.344,2.092
		l10.16,1.738l10.213,1.223l9.598,0.666l8.783,0.1l7.71-0.408l3.368-0.407l3.064-0.507l2.708-0.666l2.295-0.765l1.838-0.869
		l0.766-0.462l0.665-0.507l0.512-0.566l0.407-0.557l0.308-0.615l0.154-0.611v-0.611l-0.1-0.666L328.097,485.552z M114.261,457.573
		l1.07,1.634l0.563,0.662l0.51,0.615l0.46,0.507l0.459,0.408l0.41,0.308l0.203,0.104l0.204,0.104l0.204,0.05h0.153h0.154l0.151-0.05
		l0.154-0.104l0.102-0.104l0.102-0.1l0.103-0.208l0.104-0.15l0.05-0.258l0.103-0.507l0.052-0.615l-0.052-0.716l-0.051-0.765
		l-0.153-0.869l-0.357-1.938l-0.613-2.142l-0.766-2.354l-0.971-2.449l-1.071-2.399l-1.072-2.196l-1.123-1.938l-1.123-1.639
		l-0.512-0.661l-0.512-0.611l-0.457-0.512l-0.459-0.407l-0.462-0.308l-0.204-0.104l-0.203-0.1l-0.154-0.05h-0.204H108.9l-0.154,0.05
		l-0.153,0.1l-0.103,0.104l-0.102,0.104l-0.102,0.204l-0.103,0.154l-0.052,0.253l-0.102,0.512v0.611v0.711l0.102,0.77l0.103,0.869
		l0.409,1.938l0.562,2.146l0.765,2.345l0.972,2.454l1.072,2.403l1.123,2.191L114.261,457.573z M112.78,463.188l-0.256-0.661
		l-0.357-0.666l-0.46-0.715l-1.072-1.53l-1.327-1.685l-1.584-1.688l-1.838-1.733l-1.889-1.585l-1.89-1.431l-1.786-1.173
		l-1.685-0.864l-0.767-0.358l-0.714-0.258l-0.613-0.203l-0.613-0.154h-0.509h-0.256l-0.204,0.055l-0.206,0.045l-0.151,0.055
		l-0.154,0.153l-0.153,0.101l-0.103,0.153l-0.102,0.154l-0.05,0.208l-0.052,0.199v0.208v0.199l0.102,0.565l0.204,0.558l0.256,0.615
		l0.357,0.716l0.409,0.715l1.071,1.53l1.378,1.635l1.585,1.684l1.838,1.738l1.888,1.631l1.891,1.38l1.786,1.173l1.634,0.924
		l0.766,0.357l0.715,0.254l0.663,0.203l0.613,0.1l0.51,0.055h0.256l0.206-0.055l0.203-0.05l0.152-0.1l0.153-0.1l0.154-0.108
		l0.102-0.149l0.103-0.154l0.05-0.203v-0.204l0.052-0.204l-0.052-0.258l-0.05-0.507L112.78,463.188z M91.846,336.46l0.254,0.766
		l0.256,0.665l0.357,0.611l0.408,0.562l0.511,0.512l0.562,0.461l0.613,0.358l0.614,0.253l0.713,0.254l0.767,0.154l0.817,0.05
		l1.734-0.05l1.89-0.308l2.042-0.562l2.146-0.815l2.245-1.073l2.401-1.276l2.399-1.48l5.003-3.676l5.106-4.392l5.055-5.156
		l4.596-5.515l3.932-5.519l3.112-5.355l1.279-2.554l1.07-2.453l0.817-2.4l0.562-2.195l0.409-2.092l0.103-1.938l-0.103-1.688
		l-0.153-0.815l-0.256-0.715l-0.256-0.716l-0.355-0.615l-0.409-0.558l-0.51-0.516l-0.563-0.407l-0.611-0.357l-0.613-0.304
		l-0.716-0.204l-0.765-0.153l-0.817-0.104l-1.736,0.05l-1.89,0.358l-2.042,0.565l-2.144,0.814l-2.246,1.073l-2.35,1.276l-2.451,1.48
		l-5.003,3.677l-5.055,4.392l-5.057,5.156l-4.645,5.514l-3.88,5.515l-3.167,5.311l-1.225,2.604l-1.073,2.453l-0.817,2.346
		l-0.613,2.249l-0.355,2.092l-0.153,1.889l0.102,1.738L91.846,336.46z M39.357,242.868l0.256,0.614l0.355,0.713l0.409,0.715
		l1.073,1.532l1.376,1.635l1.585,1.684l1.838,1.736l1.888,1.635l1.891,1.378l1.786,1.175l1.634,0.919l0.768,0.357l0.715,0.253
		l0.661,0.204l0.613,0.104l0.512,0.05h0.256l0.204-0.05l0.203-0.053l0.154-0.102l0.151-0.102l0.154-0.102l0.102-0.154l0.103-0.154
		l0.052-0.204v-0.204l0.052-0.204l-0.052-0.255l-0.052-0.512l-0.204-0.562l-0.256-0.663l-0.357-0.663l-0.458-0.715l-1.072-1.533
		l-1.329-1.684l-1.582-1.684l-1.838-1.736l-1.889-1.584l-1.89-1.428l-1.786-1.175l-1.687-0.867l-0.765-0.357l-0.716-0.256
		l-0.613-0.204l-0.613-0.154H40.48h-0.256l-0.204,0.052l-0.204,0.05l-0.153,0.052l-0.154,0.151l-0.151,0.104l-0.103,0.152
		l-0.104,0.154l-0.05,0.204l-0.052,0.204v0.206v0.204l0.102,0.562L39.357,242.868z M58.096,261.403l-0.102-0.204l-0.154-0.154
		l-0.357-0.407l-0.51-0.357l-0.613-0.41l-1.532-0.816l-1.838-0.815l-2.196-0.768l-2.399-0.765l-2.655-0.664l-2.655-0.511
		l-2.553-0.408l-2.296-0.206l-2.044-0.102l-1.736,0.102l-0.715,0.052l-0.611,0.154l-0.512,0.152l-0.204,0.102l-0.153,0.154
		l-0.152,0.102l-0.102,0.102l-0.104,0.154l-0.051,0.154v0.152v0.154l0.051,0.204l0.104,0.154l0.102,0.151l0.152,0.206l0.357,0.355
		l0.512,0.41l0.611,0.409l1.532,0.815l1.838,0.767l2.196,0.817l2.399,0.711l2.655,0.666l2.655,0.565l2.553,0.407l2.298,0.199
		l2.042,0.104l1.736-0.104l0.715-0.05l0.613-0.149l0.51-0.154l0.203-0.104l0.154-0.149l0.154-0.104l0.102-0.104l0.102-0.15
		l0.052-0.157v-0.15v-0.153l-0.052-0.204L58.096,261.403z M60.954,251.599l0.512,0.613l0.46,0.512l0.459,0.408l0.408,0.305
		l0.203,0.102l0.204,0.102l0.206,0.052h0.151h0.154l0.153-0.052l0.152-0.102l0.104-0.102l0.102-0.102l0.103-0.204l0.102-0.154
		l0.05-0.253l0.103-0.512l0.052-0.613l-0.052-0.715l-0.051-0.765l-0.153-0.867l-0.357-1.94l-0.611-2.146l-0.768-2.35l-0.969-2.449
		l-1.073-2.4l-1.072-2.195l-1.123-1.94l-1.123-1.634l-0.51-0.666l-0.511-0.611l-0.46-0.512l-0.459-0.407l-0.46-0.308l-0.204-0.102
		l-0.205-0.102l-0.152-0.05h-0.206H53.96l-0.154,0.05l-0.153,0.102l-0.103,0.102l-0.102,0.102l-0.102,0.206l-0.103,0.152
		l-0.052,0.255l-0.102,0.512v0.611v0.715l0.102,0.767l0.104,0.867l0.407,1.94l0.562,2.146l0.765,2.348l0.972,2.452l1.072,2.399
		l1.123,2.196l1.123,1.94l1.073,1.634L60.954,251.599z"></path></g></svg>