<?xml version="1.0" encoding="iso-8859-1"?>
<!DOCTYPE svg PUBLIC "-//W3C//DTD SVG 1.1//EN" "http://www.w3.org/Graphics/SVG/1.1/DTD/svg11.dtd">
<svg  version="1.1" xmlns="http://www.w3.org/2000/svg" xmlns:xlink="http://www.w3.org/1999/xlink" x="0px" y="0px" width="512px"
	 height="512px" viewBox="0 0 512 512" enable-background="new 0 0 512 512" xml:space="preserve"><g id="3e91140ac1bfb9903b91c1b0ca0962b6"><path display="inline" d="M501.862,279.793l-222.07,222.065c-12.862,12.85-33.694,12.85-46.54,0L10.141,278.762
		c-12.854-12.851-12.854-33.69,0-46.553l152.98-152.974l57.933,57.942c-5.94,14.229-3.152,31.233,8.436,42.811
		c3.787,3.799,8.153,6.635,12.819,8.544V328.83c-4.666,1.913-9.039,4.766-12.819,8.542c-15.297,15.295-15.297,40.071,0,55.383
		c15.281,15.296,40.074,15.296,55.373,0c15.295-15.312,15.295-40.088,0-55.383c-3.11-3.094-6.629-5.556-10.358-7.402l0.004-139.01
		l52.826,52.826c-5.826,14.174-2.982,31.074,8.521,42.585c15.308,15.304,40.088,15.304,55.392,0
		c15.295-15.299,15.295-40.079,0-55.372c-10.945-10.962-26.756-14.015-40.458-9.293l-56.64-56.639
		c4.729-13.707,1.655-29.501-9.286-40.454c-10.887-10.888-26.546-13.981-40.206-9.369l-58.767-58.769l46.326-46.333
		c12.856-12.852,33.696-12.852,46.533,0L501.862,233.24C514.712,246.092,514.712,266.938,501.862,279.793z"></path></g></svg>