<?xml version="1.0" encoding="iso-8859-1"?>
<!DOCTYPE svg PUBLIC "-//W3C//DTD SVG 1.1//EN" "http://www.w3.org/Graphics/SVG/1.1/DTD/svg11.dtd">
<svg  version="1.1" xmlns="http://www.w3.org/2000/svg" xmlns:xlink="http://www.w3.org/1999/xlink" x="0px" y="0px" width="512px"
	 height="512px" viewBox="0 0 512 512" enable-background="new 0 0 512 512" xml:space="preserve"><g id="3e91140ac1bfb9903b91c1b0ca096a4c"><path display="inline" d="M222.471,380.548c5.723,21.865,1.651,43.943-9.41,61.733c-9.862,19.524-27.659,34.928-50.485,40.899
		c-42.233,11.053-85.431-14.219-96.488-56.452c-5.724-21.87-1.646-43.96,9.422-61.746c9.863-19.516,27.658-34.911,50.474-40.883
		C168.215,313.038,211.415,338.313,222.471,380.548z M94.332,269.496c12.715-13.866,15.518-36.78,11.126-49.879
		c-6.556-23.776-29.369-40.157-54.776-37.699c-18.684,1.807-34.026,13.364-41.605,29.126c-6.307,9.531-9.521,21.198-8.332,33.464
		c2.758,28.459,28.012,49.285,56.456,46.536C72.725,289.518,85.944,281.275,94.332,269.496z M258.338,8.717
		c-65.563,8.105-107.789,38.163-127.662,75.4c-41.045,66.766-6.353,160.544,99.655,190.621
		c138.969,39.465,28.71,127.608,31.933,186.311c3.235,58.689,120.81,79.98,213.532-74.163c1.78-2.957,3.452-5.964,5.082-8.991
		C568.889,226.272,458.746-16.076,258.338,8.717z"></path></g></svg>