<?xml version="1.0" encoding="iso-8859-1"?>
<!DOCTYPE svg PUBLIC "-//W3C//DTD SVG 1.1//EN" "http://www.w3.org/Graphics/SVG/1.1/DTD/svg11.dtd">
<svg  version="1.1" xmlns="http://www.w3.org/2000/svg" xmlns:xlink="http://www.w3.org/1999/xlink" x="0px" y="0px" width="512px"
	 height="512px" viewBox="0 0 512 512" enable-background="new 0 0 512 512" xml:space="preserve"><g id="3e91140ac1bfb9903b91c1b0ca095a6f"><path display="inline" d="M493.331,69.485C318.286,103.59,150.203,144.593,0.5,204.047c0-44.854,0-89.707,0-134.562
		C164.774,69.485,329.057,69.485,493.331,69.485z M275.587,351.102C189.643,377.108,97.007,394.691,0.5,409.3
		c0-36.433,0-72.865,0-109.299c67.393-4.819,131.838-10.454,199.006-17.881c48.322-5.349,97.955-10.95,150.459-12.21
		c17.828-0.428,36.13-0.569,49.399,4.541c4.399,1.697,9.586,5.032,9.935,10.222c0.578,8.571-9.253,15.066-14.763,19.021
		c-6.745,4.836-14.155,8.604-21.292,11.922c-15.437,7.183-30.947,13.856-47.407,19.305
		C309.528,340.318,292.633,345.945,275.587,351.102z M22.361,363.028c-5.876,0.162-6.845,8.001-1.988,9.651
		C28.217,375.342,29.826,362.82,22.361,363.028z M22.361,330.945c-5.78,0.312-6.687,8.025-1.988,9.651
		C27.925,343.221,30.063,330.533,22.361,330.945z M39.678,363.028c-5.905,0.162-6.837,8.005-1.988,9.651
		C45.503,375.329,47.159,362.82,39.678,363.028z M39.678,330.945c-5.66,0.304-6.845,8.005-1.988,9.651
		C45.225,343.158,47.383,330.533,39.678,330.945z M0.5,441.379c0,0.379,0,0.757,0,1.136c170.342,0,340.662,0,511,0
		c0-44.759,0-89.517,0-134.279c-58.756,21.583-118.884,43.153-182.256,59.616C224.092,395.169,115.521,423.854,0.5,441.379z
		 M209.728,170.264c-22.24,8.051-44.596,17.249-63.875,29.525c-5.148,3.276-14.364,9.573-14.197,16.75
		c0.096,4.026,3.747,7.211,6.816,8.8c10.317,5.353,29.754,5.027,45.989,4.259C296.57,224.3,401.058,206.954,511.5,200.924
		c0-34.158,0-68.32,0-102.482C403.678,114.464,301.295,137.133,209.728,170.264z"></path></g></svg>