<?xml version="1.0" encoding="iso-8859-1"?>
<!DOCTYPE svg PUBLIC "-//W3C//DTD SVG 1.1//EN" "http://www.w3.org/Graphics/SVG/1.1/DTD/svg11.dtd">
<svg  version="1.1" xmlns="http://www.w3.org/2000/svg" xmlns:xlink="http://www.w3.org/1999/xlink" x="0px" y="0px" width="512px"
	 height="512px" viewBox="0 0 512 512" style="enable-background:new 0 0 512 512;" xml:space="preserve"><g id="7935ec95c421cee6d86eb22ecd130d31"><path style="display: inline; fill-rule: evenodd; clip-rule: evenodd;" d="M509.322,117.647c3.819-21.4,3.723-43.392-9.479-60.016
		c-18.431-23.336-57.681-24.197-84.568-20.087c-21.874,3.357-95.845,35.99-121.021,114.114c44.608-3.39,67.967,3.217,63.674,52.323
		c-1.797,20.54-12.157,43.059-23.746,64.632c-13.385,24.876-38.465,73.712-71.366,38.508
		c-29.632-31.697-27.394-92.294-34.172-132.642c-3.777-22.649-7.769-50.86-15.182-74.143c-6.391-20.034-21.057-44.179-38.982-49.407
		c-19.248-5.659-43.059,3.174-57.035,11.405C72.932,88.501,39.008,125.717,0.5,156.425v2.873
		c7.639,7.295,9.694,19.249,20.927,20.895c26.5,3.884,51.763-24.714,69.387,5.046c10.717,18.184,14.062,38.121,20.927,57.725
		c9.178,26.123,16.247,54.55,23.757,84.579c12.696,50.859,28.297,126.843,72.26,145.456c22.422,9.522,56.131-3.217,73.207-13.342
		c46.223-27.36,82.255-67.02,113.081-107.389C464.553,256.777,503.447,148.57,509.322,117.647z"></path></g></svg>