<?xml version="1.0" encoding="iso-8859-1"?>
<!DOCTYPE svg PUBLIC "-//W3C//DTD SVG 1.1//EN" "http://www.w3.org/Graphics/SVG/1.1/DTD/svg11.dtd">
<svg  version="1.1" xmlns="http://www.w3.org/2000/svg" xmlns:xlink="http://www.w3.org/1999/xlink" x="0px" y="0px" width="512px"
	 height="512px" viewBox="0 0 512 512" style="enable-background:new 0 0 512 512;" xml:space="preserve"><g id="7935ec95c421cee6d86eb22ecd131ac7"><path style="display: inline; fill-rule: evenodd; clip-rule: evenodd;" d="M118.448,445.822l-46.966-60.694
		c0,0-12.813-4.454-20.348,0.025c-7.51,4.491-9.725,17.915-9.725,17.915l70.177,99.731c0,0,9.656,5.09,16.91,3.842
		c7.767-1.372,13.163-9.119,13.163-9.119l33.248-116.599c0,0-3.936-11.154-10.878-13.998c-7.779-3.194-18.67,1.859-18.67,1.859
		s-21.078,60.333-25.931,74.205C118.803,444.8,118.448,445.822,118.448,445.822z M400.219,409.93l-35.355-48.544
		c0,0-15.021-0.96-22.058,4.891c-6.937,5.752-5.914,18.328-5.914,18.328l32.712,44.326l-47.482,38.512c0,0-3.968,14.273,1.234,20.86
		c5.602,7.099,20.398,6.575,20.398,6.575l46.959-32.188l38.513,48.032c0,0,14.746,3.081,20.722-3.02
		c6.4-6.55,4.08-22.318,4.08-22.318l-32.188-43.267l48.543-38.525c0,0,1.672-14.422-4.466-20.834
		c-5.989-6.238-19.8-4.479-19.8-4.479L400.219,409.93z M257.478,332.904c-37.152,0-67.27,30.478-67.27,68.056
		c0,37.59,30.117,68.055,67.27,68.055c37.159,0,67.275-30.465,67.275-68.055C324.753,363.382,294.637,332.904,257.478,332.904z
		 M258.008,432.1c-16.462,0-29.811-13.587-29.811-30.354c0-16.742,13.349-30.315,29.811-30.315
		c16.468,0,29.816,13.573,29.816,30.315C287.824,418.513,274.476,432.1,258.008,432.1z M322.521,60.209
		c0,0-19.699,117.722-26.1,147.764c-6.388,30.003-10.829,52.198-15.87,70.812c-5.339,19.674-24.122,25.413-24.122,25.413
		s-18.788-5.739-24.122-25.413c-5.041-18.613-9.494-40.808-15.888-70.812c-6.388-30.042-26.1-147.764-26.1-147.764
		s0-20.648,24.578-44.077C229.975,1.735,256.429,0.5,256.429,0.5s26.442,1.235,41.527,15.632
		C322.521,39.561,322.521,60.209,322.521,60.209z"></path></g></svg>