<?xml version="1.0" encoding="iso-8859-1"?>
<!DOCTYPE svg PUBLIC "-//W3C//DTD SVG 1.1//EN" "http://www.w3.org/Graphics/SVG/1.1/DTD/svg11.dtd">
<svg  version="1.1" xmlns="http://www.w3.org/2000/svg" xmlns:xlink="http://www.w3.org/1999/xlink" x="0px" y="0px" width="512px"
	 height="512px" viewBox="0 0 512 512" style="enable-background:new 0 0 512 512;" xml:space="preserve"><g id="7935ec95c421cee6d86eb22ecd132908"><path style="display: inline; fill-rule: evenodd; clip-rule: evenodd;" d="M204.897,0.503c102.205,0,204.404,0,306.603,0
		c0,102.198,0,204.396,0,306.596c-14.799,0-28.315,0-42.588,0c-13.445,0-29.414,2.965-41.731,0
		c-7.101-1.713-16.738-14.172-22.143-19.59c-7.642-7.643-13.202-14.459-20.432-20.447c-6.06,5.689-24.851,17.311-27.26,27.262
		c-3.621,14.943,0,35.887,0,54.508c0,52.482,0,112.449,0,162.664c-118.951,0-237.903,0-356.847,0c0-118.938,0-237.902,0-356.84
		c50.094,0,110.54,0,163.521,0c15.292,0,41.511,3.579,54.507,0c4.905-1.355,9.067-8.226,13.624-12.775
		c4.99-5.004,11.484-8.982,12.774-14.485c-6.602-7.856-12.896-12.889-20.438-20.432c-5.375-5.39-17.829-14.842-19.59-22.156
		c-2.923-12.119,0-26.975,0-41.718C204.897,29.988,204.897,13.149,204.897,0.503z M255.997,66.929
		c19.511,21.358,41.667,40.106,60.459,62.177c-51.3,50.03-101.122,101.557-152.436,151.589
		c20.509,23.781,44.356,44.225,65.571,67.279c52.732-49.459,102.12-102.269,154.161-152.441
		c14.914,13.687,30.567,30.568,45.98,45.98c8.313,8.327,14.557,17.922,30.668,14.486c0-68.137,0-136.26,0-204.398
		c-67.851,0-135.704,0-203.549,0C254.877,55.024,256.553,62.096,255.997,66.929z M51.599,460.396c85.168,0,170.329,0,255.503,0
		c0-38.895,0-77.789,0-116.684c-25.207,21.943-50.749,50.898-76.656,74.951c-46.059-45.352-91.762-91.063-137.116-137.115
		c20.98-22.213,45.967-45.966,67.282-67.282c3.038-3.037,8.078-7.072,6.816-9.367c-38.325,0-76.649,0-114.974,0
		C50.459,288.365,52.17,375.508,51.599,460.396z"></path></g></svg>