<?xml version="1.0" encoding="iso-8859-1"?>
<!DOCTYPE svg PUBLIC "-//W3C//DTD SVG 1.1//EN" "http://www.w3.org/Graphics/SVG/1.1/DTD/svg11.dtd">
<svg  version="1.1" xmlns="http://www.w3.org/2000/svg" xmlns:xlink="http://www.w3.org/1999/xlink" x="0px" y="0px" width="512px"
	 height="512px" viewBox="0 0 512 512" style="enable-background:new 0 0 512 512;" xml:space="preserve"><g id="7935ec95c421cee6d86eb22ecd133734"><path style="display: inline;" d="M269.84,327.506c16.892,24.277,14.634,57.849-7.012,79.506l-86.263,86.243
		c-24.321,24.327-63.762,24.327-88.083,0l-69.738-69.726c-24.321-24.327-24.321-63.762,0-88.089L105,249.171
		c21.651-21.646,55.217-23.903,79.507-7.011L67.935,358.744c-13.517,13.511-13.286,35.643,0.499,49.454l35.381,35.354
		c13.805,13.799,35.936,14.048,49.446,0.513L269.84,327.506z M358.74,67.915c13.523-13.499,35.655-13.274,49.453,0.511l35.381,35.38
		c13.785,13.786,14.01,35.943,0.499,49.441L327.502,269.818c24.276,16.905,57.861,14.635,79.506-7.011l86.243-86.257
		c24.328-24.314,24.328-63.749,0-88.076l-69.737-69.739c-24.303-24.314-63.751-24.314-88.077,0l-86.25,86.243
		c-21.652,21.671-23.903,55.23-7.011,79.506L358.74,67.915z M336.834,151.326c-5.64-5.627-15.37-5.053-21.732,1.297L152.644,315.092
		c-6.357,6.351-6.943,16.082-1.298,21.721l23.841,23.854c5.639,5.639,15.376,5.04,21.733-1.298l162.444-162.458
		c6.362-6.363,6.948-16.105,1.297-21.732L336.834,151.326z"></path></g></svg>