<?xml version="1.0" encoding="iso-8859-1"?>
<!DOCTYPE svg PUBLIC "-//W3C//DTD SVG 1.1//EN" "http://www.w3.org/Graphics/SVG/1.1/DTD/svg11.dtd">
<svg  version="1.1" xmlns="http://www.w3.org/2000/svg" xmlns:xlink="http://www.w3.org/1999/xlink" x="0px" y="0px" width="512px"
	 height="512px" viewBox="0 0 512 512" enable-background="new 0 0 512 512" xml:space="preserve"><g id="e6c6b53d3c8160b22dad35a0f710b1db"><path d="M361.358,12.733c0,0-6.528,1.419-9.229,4.566c-2.854,3.323-5.105,5.228-3.53,6.232
        c0.569,0.361,8.826,3.474,9.124,4.12c-0.229-0.498,13.583,7.666-5.01,11.071c-4.891,0.896-9.778-3.871-12.927-9.349
        c-0.773-1.352-2.046-2.727-2.959-3.201c-1.752-0.913-8.634-2.105-12.309-2.131c-3.598-0.027-11.62,3.162-15.607,6.203
        c-1.185,0.9-3.288,2.066-4.687,2.588c-2.953,1.105-11.951,2.627-13.397,2.268c-0.539-0.135-2.65,0.04-4.687,0.387
        c-2.281,0.39-5.354,0.517-8.029,0.329c-5.369-0.371-5.743-0.743-5.771-5.693c-0.015-4.292-0.589-4.823-5.703-5.332
        c-7.686-0.769-19.048,1.562-22.313,4.581l-1.248,1.152l0.336,7.563c0.185,4.189,0.145,7.683-0.093,7.83
        c-1.314,0.809-12.986,2.328-20.062,2.607l-8.174,0.322c0,0-1.599,9.692,0.767,17.441c0.892,2.922,1.806,7.078,4.124,9.174
        c4.004,3.615,8.313,2.747,15.36-3.106c5.359-4.454,9.114-5.021,13.464-2.026c3.095,2.129,6.497,7.012,7.194,10.33
        c0.604,2.872,0.729,7.986,0.246,10.397c0,0-4.428,15.602-22.805,5.538c-1.503-0.824-5.083,1.476-6.324,2.659
        c-1.6,1.526-2.558,10.987-1.873,17.025c0.529,4.645,0.848,6.241,1.485,9.127l2.568,10.622c-5.804-0.414-15.704-0.354-20.194,0.514
        c-2.799,0.542-5.757,1.183-6.569,1.425c-0.816,0.245-2.481,0.706-3.703,1.028c-1.221,0.319-2.663,0.751-3.207,0.958
        c-0.544,0.202-3.982,1.332-7.645,2.505c-3.666,1.173-7.71,2.645-8.989,3.269c-1.281,0.626-2.804,1.138-3.39,1.138
        c-1.647,0-4.892,3.525-4.892,5.317c0,1.759,2.117,4.504,5.609,7.256c2.566,2.028,5.594,4.814,4.256,7.582
        c-7.286,15.073-34.752,14.159-46.254,10.75c-4.815-1.428-6.745-2.947-4.835-7.047c1.008-2.166,5.225-7.283,8.708-10.566
        c2.291-2.156,3.032-6.896,1.018-7.153c-11.202-1.436-33.656,4.135-44.704,6.472c-2.375,0.503-4.162-1.477-4.309-4.668
        c-0.161-3.508,0.106-7.495,0.649-9.666c1.653-6.607,8.297-21.745,10.792-24.585c3.129-3.563,6.507-4.119,11.122-1.826
        c2.08,1.033,3.673,1.465,5.413,1.467c2.149,0,4.345-0.303,6.075-1.771c7.771-6.586,7.118-21.466,2.547-26.315
        c-3.562-3.777-10.222,6.722-13.755,8.755c-3.468,1.995-5.547,2.019-6.953,0.616c0,0-9.342-3.02,1.268-27.301
        c3.533-8.089,17.116-9.165,18.181-10.622c2.099-2.877,9.335-18.631,8.886-19.354c-0.619-1.001-2.715-0.314-5.935,1.946
        c-5.898,4.142-8.094,4.938-8.094,2.944c0-1.572,4.931-7.748,9.289-11.64c6.436-5.744,7.492-6.243,10.193-4.841
        c1.861,0.966,3.287,0.366,7.226-3.044c4.332-3.748,11.364-11.577,10.858-12.084c-0.223-0.22-1.492,0.064-2.821,0.636
        c-3.184,1.362-7.832,2.431-8.58,1.969c-0.868-0.536,1.401-2.168,6.118-4.403c3.902-1.85,5.266-2.533,5.952-2.106
        c0.284-0.307,0.684-0.504,1.145-0.621c-0.865-1.701-1.161-1.757-1.966-1.757c-1.693,0-9.791,3.485-14.941,6.238
        c-22.664,12.112-43.957,27.255-57.582,37.781C29.904,97.998,0.5,169.819,0.5,245.295c0,141.111,114.391,255.5,255.5,255.5
        c141.11,0,255.5-114.389,255.5-255.5C511.5,139.754,452.662,51.698,361.358,12.733z M417.293,186.604
        c-11.03,10.237-10.205,8.058-19.753,53.173c-11.217,53.022-28.423,118.104-31.724,120.196c-4.478,2.854-5.135,2.588-15.699-5.813
        c-42.716-34.08-50.834-40.136-53.676-40.136c-1.862,0-6.635,9.263-11.437,22.17c-4.507,12.189-11.579,30.248-15.726,40.105
        c-10.639,25.354-13.401,25.297-42.218-0.703c-46.714-42.137-96.922-83.918-104.993-87.309c-5.865-2.49-12.527-3.127-22.247-2.129
        c-11.239,1.207-14.125,0.77-15.292-2.256c-2.302-5.982,1.65-7.922,26.901-13.187c13.087-2.735,32.925-8.112,44.097-11.993
        c11.126-3.824,21.668-6.979,23.343-6.979c5.791,0,3.121,7.052-3.997,10.768c-9.548,4.907-13.429,12.227-9.237,17.342
        c8.116,9.869,89.656,77.375,92.766,76.772c3.586-0.683,24.203-45.055,24.132-51.959c0-3.875-49.703-42.063-61.701-47.469
        c-3.584-1.625-11.095-2.74-16.666-2.541c-5.551,0.213-10.811-0.32-11.686-1.171c-4.283-4.258,3.11-8.33,24.04-13.301
        c12.775-3,28.067-7.588,34.05-10.133c18.585-7.97,30.145-4.889,15.82,4.246c-8.02,5.087-10.057,7.776-8.625,11.438
        c1.404,3.676,32.813,27.58,36.205,27.58c3.777,0,13.016-29.569,12.145-38.828c-0.754-7.582-1.211-7.923-12.145-8.627
        c-18.611-1.188-14.125-7.357,9.887-13.57c8.407-2.174,22.146-6.776,30.58-10.223c12.43-5.108,15.846-5.714,18.271-3.194
        c2.347,2.449,1.502,4.074-4.217,8.208c-3.926,2.838-9.761,7.878-12.965,11.173c-6.104,6.396-29.126,61.554-27.434,65.772
        c1.388,3.434,45.606,35.066,51.016,36.461c5.016,1.34,3.798,5.75,18.22-66.778c4.892-24.604,8.264-46.454,7.464-48.491
        c-1.019-2.661-4.654-3.777-12.281-3.777c-9.19,0-10.86-0.704-10.86-4.687c0-3.752,3.486-5.712,17.375-9.857
        c9.548-2.804,21.352-7.174,26.248-9.69C423.978,167.683,431.396,173.478,417.293,186.604z" /></g></svg>