<?xml version="1.0" encoding="iso-8859-1"?>
<!DOCTYPE svg PUBLIC "-//W3C//DTD SVG 1.1//EN" "http://www.w3.org/Graphics/SVG/1.1/DTD/svg11.dtd">
<svg  version="1.1" xmlns="http://www.w3.org/2000/svg" xmlns:xlink="http://www.w3.org/1999/xlink" x="0px" y="0px" width="512px"
	 height="512px" viewBox="0 0 512 512" style="enable-background:new 0 0 512 512;" xml:space="preserve"><g id="7935ec95c421cee6d86eb22ecd133f51"><path style="display: inline;" d="M0.513,255.987c0,101.127,58.76,188.531,144.006,229.938L22.645,152.016
		C8.472,183.779,0.513,218.96,0.513,255.987z M428.476,243.101c0-31.588-11.341-53.446-21.06-70.45
		c-12.949-21.059-25.088-38.874-25.088-59.92c0-23.492,17.803-45.349,42.891-45.349c1.148,0,2.221,0.137,3.307,0.199
		C383.089,25.938,322.521,0.5,256,0.5c-89.263,0-167.784,45.798-213.47,115.149c6.001,0.2,11.652,0.325,16.443,0.325
		c26.723,0,68.104-3.244,68.104-3.244c13.76-0.823,15.395,19.412,1.634,21.046c0,0-13.848,1.622-29.243,2.42l93.042,276.747
		l55.903-167.685l-39.797-109.062c-13.773-0.798-26.798-2.42-26.798-2.42c-13.761-0.824-12.151-21.87,1.622-21.046
		c0,0,42.18,3.244,67.293,3.244c26.71,0,68.092-3.244,68.092-3.244c13.773-0.823,15.395,19.412,1.622,21.046
		c0,0-13.86,1.622-29.23,2.42l92.332,274.638l25.487-85.134C421.988,292.491,428.476,264.957,428.476,243.101z M260.491,278.331
		l-76.662,222.765C206.722,507.819,230.937,511.5,256,511.5c29.768,0,58.299-5.14,84.847-14.484c-0.674-1.098-1.31-2.258-1.821-3.53
		L260.491,278.331z M480.199,133.427c1.098,8.134,1.722,16.867,1.722,26.261c0,25.924-4.866,55.08-19.425,91.509l-78.035,225.621
		c75.952-44.289,127.026-126.565,127.026-220.831C511.487,211.574,500.135,169.806,480.199,133.427z"></path></g></svg>