<?xml version="1.0" encoding="iso-8859-1"?>
<!DOCTYPE svg PUBLIC "-//W3C//DTD SVG 1.1//EN" "http://www.w3.org/Graphics/SVG/1.1/DTD/svg11.dtd">
<svg  version="1.1" xmlns="http://www.w3.org/2000/svg" xmlns:xlink="http://www.w3.org/1999/xlink" x="0px" y="0px" width="512px"
	 height="512px" viewBox="0 0 512 512" style="enable-background:new 0 0 512 512;" xml:space="preserve"><g id="7935ec95c421cee6d86eb22ecd134eab"><path style="display: inline; fill-rule: evenodd; clip-rule: evenodd;" d="M145.873,286.42c21.76-52.823,47.732-119.045,70.487-180.949
		c8.012-21.823,14.891-62.295,41.022-63.131c14.574-0.455,26.025,12.012,27.37,23.146c1.598,13.399-10.521,35.751-16.839,51.553
		c-32.006,79.991-66.826,163.094-98.894,243.021c-22.215,55.319-35.402,110.153-109.424,112.577
		c-21.411,0.698-42.281-1.46-47.33-15.791c-4.667-13.166,2.529-28.999,12.615-32.607c18.384-6.552,36.408,0.994,50.495-5.261
		c27.231-12.097,27.401-35.688,42.081-62.072C84.932,276.27,46.344,188.214,12.265,102.317C7.555,90.442-0.858,76.059,0.687,63.38
		c2.35-19.346,27.221-31.666,45.234-18.934c12.774,9.027,20.775,42.609,27.358,58.919
		C97.833,164.242,122.684,229.247,145.873,286.42z M376.268,172.793c13.314-5.927,23.411-11.673,35.772-17.886
		c11.293-5.673,29.243-11.398,35.763-18.934c17.071-19.707-6.657-53.913-29.434-41.022c-22.056,12.457-44.26,28.724-66.295,45.234
		c-21.02,15.77-45.446,31.603-56.803,54.707C321.953,198.343,350.455,184.319,376.268,172.793z M407.828,282.207
		c13.971,1.291,29.465,1.408,44.187,2.106c15.971,0.751,32.904,3.726,44.197,0c24.936-8.224,17.664-48.854-9.482-50.494
		c-1.238-0.074-1.557,0.963-3.154,1.047c-36.429,1.821-83.896,8.658-116.769,15.791c-12.161,2.636-26.025,3.017-32.619,12.616
		C351.121,278.164,377.909,279.455,407.828,282.207z M321.572,357.965c22.162,18.319,43.054,33.073,66.273,49.436
		c12.755,8.985,23.698,20.088,35.773,22.099c16.859,2.805,35.963-14.394,28.396-35.762c-3.429-9.759-19.76-16.056-31.55-22.099
		c-14.298-7.335-25.136-12.403-36.831-17.886c-31.835-14.935-54.949-27.952-87.304-26.301
		C298.246,341.4,311.771,349.879,321.572,357.965z"></path></g></svg>