<?xml version="1.0" encoding="iso-8859-1"?>
<!DOCTYPE svg PUBLIC "-//W3C//DTD SVG 1.1//EN" "http://www.w3.org/Graphics/SVG/1.1/DTD/svg11.dtd">
<svg  version="1.1" xmlns="http://www.w3.org/2000/svg" xmlns:xlink="http://www.w3.org/1999/xlink" x="0px" y="0px" width="512px"
	 height="512px" viewBox="0 0 512 512" enable-background="new 0 0 512 512" xml:space="preserve"><g id="2069a460dcf28295e231f3111e0439b1"><path display="inline" d="M262.97,83.259c-1.951-9.768,0.54-19.893,7.295-30.377c7.989-12.616,17.402-19.539,28.24-20.964
		c14.036-1.597,27.002,5.861,39.082,22.03c11.192,15.098,16.169,29.311,14.926,42.28c-0.182,7.816-11.723,12.611-34.642,14.208
		c-17.946,1.425-30.912-0.354-39.269-5.507C269.901,99.781,264.748,92.5,262.97,83.259z M510.616,478.534
		c-1.242,2.658-5.675,2.305-13.323-1.07c-12.966-6.216-27.355-15.634-43.52-28.427c-17.946-14.208-28.431-25.4-31.271-33.575
		c-0.531-1.955-0.35-4.437,0.712-7.635l3.38-9.064c2.305-8.347-0.717-16.694-9.064-25.051c-4.082-4.083-9.59-7.988-16.345-11.723
		c-15.806-8.347-38.548-15.451-68.57-21.14c-31.094-5.861-60.754-9.236-89.003-9.944l-34.287,1.778
		c-9.06,10.479-17.761,20.247-26.117,29.306c-7.104,7.463-14.027,14.391-20.782,20.787c-27.179,24.339-53.645,42.816-79.585,55.604
		c-35.354,17.234-61.824,22.207-79.767,14.567c-2.309-1.597-3.021-4.26-2.309-7.994l3.198-9.948
		c12.258-26.647,32.332-50.986,59.869-73.017c2.309-1.95,4.795-3.729,7.104-5.502c21.852-16.169,51.34-33.222,88.472-50.81
		c24.334-10.479,44.413-17.407,60.046-20.782l14.744-20.433c5.861-7.281,12.076-14.209,18.296-20.787
		c13.323-14.39,26.997-27.709,41.396-39.613c1.239-0.535,1.42-1.243,0.703-2.132c-7.28-4.083-19.181-11.728-35.344-22.919
		c-13.864-9.413-24.697-15.987-32.519-19.544c-24.511-11.01-49.562-7.812-75.316,9.596c-15.46,10.302-23.808,21.675-24.696,34.11
		l-0.89,15.279c0.89,4.26-12.788,11.368-40.856,21.316c-5.153,1.598-9.417,3.018-12.97,3.906c-6.22,1.243-10.484,1.425-12.612,0.354
		l-0.712-0.354l-1.951-1.243c-2.49-4.972,9.237-22.029,34.996-51.34c1.778-1.991,3.574-3.924,5.38-5.83l0.06-0.077l0.059-0.04
		c46.636-49.055,101.638-68.04,164.863-56.762c17.407,3.021,46.196,13.678,86.521,31.801c4.433-4.445,12.081-9.771,22.561-15.814
		c13.324-7.635,24.334-11.727,32.686-11.899c18.301-0.181,29.842,6.746,34.642,21.137c2.84,8.71-3.557,20.968-19.362,36.777
		c-16.341,16.699-31.801,27.179-46.368,31.438c-18.301,5.512-38.198,2.313-59.338-9.231c-9.409,7.281-20.07,17.765-31.62,31.084
		c-0.531,0.535-1.066,1.243-1.597,1.778l-27.355,32.69l-0.358,2.305l18.831-0.707c13.501,0.358,27.179,2.662,41.215,7.104
		c38.198,12.258,70.172,27.355,95.926,45.303c12.258,8.701,24.171,18.654,35.357,29.841c11.546,11.723,22.737,24.87,33.217,39.26
		c9.246,12.798,17.058,25.759,23.627,38.729C509.909,458.102,513.279,470.89,510.616,478.534z M370.632,167.289
		c3.375,2.663,11.368,3.733,24.339,3.198c14.385-0.535,24.161-3.375,29.664-8.883c2.668-2.667,2.668-5.33-0.354-7.816
		c-3.375-3.021-9.591-3.729-18.473-2.49c-7.64,1.243-15.814,3.906-24.693,7.998C372.41,163.379,368.854,166.046,370.632,167.289z
		 M176.815,337.474l-4.087-0.53c-12.258,2.49-23.627,5.33-34.106,8.533c-14.743,4.791-28.426,10.298-41.037,16.513
		c-10.126,4.8-19.544,10.131-28.245,15.811c-27.718,17.942-40.507,35.358-38.198,52.229l2.667,3.021
		c7.281,4.8,21.671,1.065,42.988-11.192c28.962-16.871,54.893-36.769,77.812-59.869
		C162.249,354.173,169.707,346.003,176.815,337.474z"></path></g></svg>