<?xml version="1.0" encoding="iso-8859-1"?>
<!DOCTYPE svg PUBLIC "-//W3C//DTD SVG 1.1//EN" "http://www.w3.org/Graphics/SVG/1.1/DTD/svg11.dtd">
<svg  version="1.1" xmlns="http://www.w3.org/2000/svg" xmlns:xlink="http://www.w3.org/1999/xlink" x="0px" y="0px" width="512px"
	 height="512px" viewBox="0 0 512 512" enable-background="new 0 0 512 512" xml:space="preserve"><g id="b75708d097f2188dff6617b0f00f907d"><path display="inline" fill-rule="evenodd" clip-rule="evenodd" d="M418.279,8.119c6.22,60.65-37.533,87.993-68.579,123.827
		c-59.532,68.7-124.831,136.458-182.883,205.743c93.004,1.129,133.993,91.552,230.507,83.818
		c20.329-1.628,34.274-13.704,47.624-19.049c13.36,69.918-41.532,120.798-100.965,106.681
		c-89.118-21.172-140.989-131.363-276.224-100.968c-14.172-63.169,29.859-96.831,60.96-131.446
		c51.2-56.985,106.644-116.375,152.398-179.07c-50.033,0.337-140.308,18.392-146.685-28.575
		c-3.562-26.255,23.488-54.353,34.292-68.58C231.525,29.154,344.403,21.355,418.279,8.119z"></path></g></svg>